<?xml version="1.0" encoding="utf-8"?>
<!-- Generator: Adobe Illustrator 25.0.0, SVG Export Plug-In . SVG Version: 6.00 Build 0)  -->
<svg version="1.1" id="Layer_1" xmlns="http://www.w3.org/2000/svg" xmlns:xlink="http://www.w3.org/1999/xlink" x="0px" y="0px"
	 viewBox="0 0 280 250" style="enable-background:new 0 0 280 250;" xml:space="preserve">
<style type="text/css">
	.st0{fill:none;}
</style>
<g>
	<g>
		<path class="st0" d="z"/>
		<path d="M51.4,133.2c-0.1-0.2-0.1-0.4-0.1-0.5c0-0.1-0.1-0.3-0.1-0.3l-1.7-20.7c0,0-0.1,0-0.2,0c-0.1,0-0.2,0-0.2,0
			c-0.2,0-0.3,0-0.5,0.1c-0.2,0.1-0.3,0.2-0.3,0.5v0.3c0,0.1,0,0.3,0,0.4c0,0.2,0,0.3,0,0.5v0.7c0,0.1,0,0.3,0,0.5
			c0,0.2,0,0.3,0,0.4v0.3c0,0.5,0.1,1.2,0.2,2.3c0.1,1,0.2,2.2,0.3,3.5c0.1,1.3,0.2,2.7,0.4,4.1c0.1,1.4,0.3,2.8,0.4,4.1
			c0.1,1.3,0.2,2.5,0.3,3.5c0.1,1,0.2,1.8,0.2,2.2c0,0.1,0.1,0.2,0.2,0.3c0.1,0.1,0.2,0.2,0.3,0.2c0.1,0,0.2,0,0.3-0.1
			c0.1-0.1,0.3-0.1,0.4-0.2c0.1-0.1,0.3-0.2,0.4-0.3c0.1-0.1,0.2-0.3,0.2-0.4V134c0-0.1-0.1-0.2-0.1-0.3
			C51.5,133.6,51.5,133.4,51.4,133.2z M54.7,116.9c0-0.5-0.1-0.9-0.1-1.4c-0.1-0.5-0.1-1.1-0.2-1.7c-0.1-0.2-0.3-0.4-0.6-0.4
			c-0.3-0.1-0.5-0.1-0.8-0.1c0,0,0,0.1,0,0.3c0,0.2,0,0.2,0,0.2c0,0.3,0.1,0.8,0.1,1.6c0,0.7,0.1,1.5,0.1,2.3c0,0.8,0.1,1.6,0.1,2.3
			c0,0.7,0.1,1.2,0.1,1.5s0.1,0.5,0.1,0.7c0.1,0.2,0.2,0.3,0.4,0.3c0.3,0,0.5-0.2,0.7-0.5v-0.5c0-0.2,0-0.4,0-0.7c0-0.2,0-0.4,0-0.6
			v-0.4c0-0.6,0-1.1,0-1.5C54.8,117.9,54.8,117.4,54.7,116.9z M77.8,127.3c-0.2-0.9-0.5-1.8-0.8-2.8c-0.3-0.9-0.7-1.8-1.1-2.6
			c-0.4-0.8-0.8-1.4-1.3-1.9c-0.4-0.5-0.9-0.7-1.4-0.7c-0.9,0-1.7,0.3-2.3,0.9c-0.6,0.6-1.2,1.3-1.6,2.2c-0.4,0.9-0.8,1.8-1,2.7
			c-0.2,1-0.4,1.8-0.5,2.5h-0.4c-0.3-0.8-0.6-1.6-0.9-2.3c-0.3-0.7-0.6-1.4-1-2c-0.3-0.6-0.7-1.3-1.2-1.8c-0.5-0.6-1-1.1-1.6-1.6
			h-0.2c-0.6,0-1.1,0.2-1.5,0.5c-0.4,0.3-0.8,0.7-1,1.2c-0.3,0.5-0.5,1-0.7,1.5c-0.2,0.6-0.3,1.1-0.4,1.5c0-0.1-0.1-0.3-0.1-0.6
			c0-0.3-0.1-0.6-0.2-0.9c-0.1-0.3-0.1-0.6-0.1-0.9c0-0.3,0-0.5-0.1-0.6v-0.4c-0.1-0.2-0.1-0.4-0.2-0.6s-0.1-0.5-0.1-0.7
			c-0.1-0.2-0.1-0.5-0.2-0.8h-1.3l2.2,15.9c0,0.2,0.1,0.3,0.2,0.4c0.1,0.1,0.3,0.1,0.4,0.1c0.2,0,0.4-0.1,0.5-0.3
			c0.1-0.2,0.2-0.4,0.2-0.6V125c0-0.2,0-0.5,0.1-0.9c0.1-0.3,0.2-0.7,0.3-1c0.2-0.3,0.4-0.6,0.6-0.8c0.2-0.2,0.5-0.3,0.8-0.3
			c0.6,0,1,0.2,1.2,0.5c0.3,0.3,0.5,0.7,0.8,1.2c0.1,0.3,0.3,0.6,0.5,1.1c0.2,0.5,0.5,1,0.7,1.5s0.4,1,0.6,1.4
			c0.2,0.4,0.3,0.7,0.4,0.8c0.1,0.2,0.1,0.5,0.3,0.9c0.1,0.4,0.3,0.9,0.4,1.4c0.2,0.5,0.3,1,0.4,1.4c0.1,0.4,0.2,0.8,0.2,1
			c0.1,0.2,0.2,0.3,0.3,0.4c0.1,0.1,0.2,0.1,0.4,0.1c0.3,0,0.5-0.1,0.6-0.3c0.1-0.2,0.3-0.4,0.5-0.6c0-0.2,0-0.5,0-0.9
			c0-0.4,0-0.9,0-1.5c0-0.5,0-1,0-1.4c0-0.4,0-0.8,0-0.9c0-0.4,0.1-1,0.2-1.7c0.1-0.8,0.3-1.5,0.6-2.3c0.3-0.8,0.6-1.4,1.1-2
			c0.4-0.6,0.9-0.8,1.5-0.8c0.3,0,0.7,0.1,0.9,0.3c0.3,0.2,0.5,0.5,0.7,0.8c0.2,0.3,0.4,0.7,0.6,1c0.2,0.3,0.3,0.6,0.3,0.9
			c0.1,0.2,0.1,0.5,0.3,0.9c0.1,0.4,0.3,0.8,0.4,1.4c0.1,0.5,0.3,1,0.5,1.6c0.2,0.6,0.3,1.1,0.4,1.6c0.1,0.5,0.2,1,0.4,1.4
			c0.1,0.4,0.2,0.7,0.2,0.9c0.2,0.3,0.4,0.5,0.6,0.5c0.3,0,0.4-0.1,0.5-0.3c0.1-0.2,0.1-0.4,0.1-0.6c0-0.4-0.1-1-0.2-1.7
			C78.2,129,78,128.2,77.8,127.3z M119.5,133c0-0.1,0-0.2-0.1-0.4c-0.1-0.2-0.2-0.3-0.3-0.5c-0.1-0.2-0.2-0.4-0.3-0.5
			c-0.1-0.2-0.2-0.3-0.2-0.3l-5.2-21.5c0,0-0.1-0.1-0.3-0.2c-0.2-0.1-0.4-0.2-0.5-0.2c0,0-0.1,0-0.1,0c0,0-0.1,0-0.1,0
			c-0.3,0-0.6,0.1-0.7,0.3c-0.2,0.2-0.3,0.5-0.4,0.7c-0.1,0.3-0.2,0.6-0.2,0.9c0,0.3-0.1,0.5-0.2,0.7c0,0.1-0.1,0.3-0.3,0.7
			c-0.2,0.3-0.3,0.7-0.5,1.2c-0.2,0.4-0.4,0.9-0.7,1.4c-0.2,0.5-0.5,1-0.7,1.4c-0.2,0.4-0.4,0.8-0.5,1.2c-0.2,0.3-0.3,0.5-0.3,0.7
			c-0.1,0.2-0.2,0.7-0.4,1.3c-0.2,0.6-0.4,1.2-0.6,1.9c-0.2,0.7-0.4,1.3-0.6,1.9c-0.2,0.6-0.3,1-0.4,1.3l-0.5,0.4l-6.2-12v-2.1
			c-0.2,0-0.3,0-0.4,0.1c-0.3,0.1-0.5,0.2-0.7,0.3c0,0-0.1,0.1-0.1,0.2c-0.1,0.1-0.2,0.2-0.3,0.4c-0.1,0.1-0.2,0.3-0.3,0.4
			s-0.2,0.2-0.2,0.3c0,0.1,0,0.1,0,0.1v0.1c0,0.2,0,0.4,0.1,0.6c0.1,0.2,0.2,0.5,0.3,0.8c0.1,0.3,0.2,0.5,0.3,0.8
			c0.1,0.2,0.1,0.4,0.2,0.6c0.4,3.4,0.7,6.8,0.9,10.1c0.2,3.4,0.5,6.8,0.8,10.2c0,0,0,0.2,0,0.5c0,0.3,0.1,0.5,0.1,0.9
			c0.1,0.3,0.2,0.6,0.3,0.9c0.1,0.3,0.3,0.4,0.6,0.4c0.2,0,0.4-0.1,0.5-0.3c0.1-0.2,0.2-0.4,0.2-0.6c0-0.4,0-0.8-0.1-1.1
			s-0.2-0.7-0.3-1.1c-0.1-0.5-0.1-1.2-0.2-2.1c-0.1-1-0.2-2-0.3-3.3c-0.1-1.2-0.2-2.5-0.4-3.8c-0.1-1.3-0.2-2.6-0.4-3.8
			c-0.1-1.2-0.2-2.3-0.3-3.3s-0.2-1.7-0.2-2.1v-0.9c0.1,0.2,0.3,0.5,0.5,0.9c0.2,0.4,0.4,0.9,0.7,1.4l2.3,4.6
			c0.2,0.4,0.3,0.7,0.4,0.9c0,0.1,0.1,0.4,0.2,0.9c0.1,0.5,0.3,1,0.5,1.5c0.2,0.5,0.4,1,0.7,1.4c0.3,0.4,0.6,0.6,1,0.6
			c0,0,0.2,0,0.4,0c0.2,0,0.3,0,0.3,0c0.6-2.7,1.5-5.5,2.5-8.2c1-2.7,2.3-5.3,4-7.7c0.1,0.1,0.2,0.4,0.3,0.7
			c0.1,0.4,0.2,0.7,0.4,1.2c0.1,0.4,0.2,0.8,0.4,1.2c0.1,0.4,0.2,0.6,0.3,0.8c0.1,0.4,0.3,1.1,0.5,2c0.2,0.9,0.4,1.9,0.7,3
			c0.3,1.1,0.5,2.3,0.8,3.6c0.3,1.3,0.5,2.4,0.8,3.6c0.3,1.1,0.5,2.2,0.7,3c0.2,0.9,0.4,1.6,0.5,2c0,0.4,0,0.6,0.2,0.7
			c0.2,0.1,0.4,0.2,0.6,0.2c0.3,0,0.6-0.1,0.7-0.3c0.1-0.2,0.2-0.5,0.2-0.8c0-0.1,0-0.1,0-0.1C119.5,133.1,119.5,133.1,119.5,133z
			 M131,120.2c-0.4-1-0.9-1.8-1.6-2.4c-0.7-0.6-1.6-1-2.8-1c-0.8,0-1.5,0.2-2.1,0.7c-0.6,0.5-1,1.1-1.4,1.9
			c-0.4,0.8-0.7,1.7-0.8,2.7c-0.2,1-0.4,2-0.5,2.9c-0.1,1-0.2,1.8-0.2,2.7c0,0.8,0,1.5,0,2c0,0.6,0,1.3,0.1,1.9
			c0.1,0.7,0.3,1.3,0.5,1.8c0.2,0.5,0.6,1,1.1,1.4c0.5,0.4,1.1,0.5,1.9,0.5c1.2,0,2.2-0.3,3.1-0.9c0.9-0.6,1.6-1.4,2.1-2.3
			c0.6-0.9,1-1.9,1.3-3c0.3-1.1,0.4-2.1,0.4-3c0-0.9-0.1-1.8-0.2-2.9C131.7,122.1,131.4,121.1,131,120.2z M130.4,128.4
			c-0.2,0.9-0.5,1.8-0.9,2.6c-0.4,0.8-1,1.4-1.7,1.9c-0.7,0.5-1.6,0.7-2.7,0.7c-0.6,0-1.1-0.1-1.4-0.4c-0.3-0.3-0.6-0.6-0.7-1.1
			c-0.1-0.4-0.2-0.9-0.2-1.4c0-0.5,0-1,0-1.5c0-0.3,0-0.7,0-1.4c0-0.7,0.1-1.4,0.2-2.2c0.1-0.8,0.2-1.7,0.4-2.6
			c0.2-0.9,0.4-1.7,0.7-2.5c0.3-0.7,0.7-1.3,1.1-1.8c0.4-0.5,0.9-0.7,1.5-0.7c0.8,0,1.5,0.3,2,0.9c0.5,0.6,0.9,1.3,1.2,2.1
			c0.3,0.8,0.5,1.7,0.5,2.5c0.1,0.9,0.1,1.6,0.1,2.1C130.7,126.6,130.6,127.5,130.4,128.4z M148.7,133.1c-0.1-0.2-0.2-0.3-0.3-0.5
			c-0.1-0.1-0.2-0.3-0.4-0.3l-2.1-14.4l-0.9-0.2c-0.2,0.1-0.4,0.5-0.6,1.3c-0.2,0.8-0.3,1.8-0.5,3c-0.2,1.2-0.4,2.5-0.7,3.8
			c-0.3,1.3-0.7,2.6-1.1,3.8c-0.5,1.2-1.1,2.1-1.8,2.9c-0.7,0.8-1.6,1.2-2.6,1.2c-0.4-0.1-0.7-0.4-1-0.9c-0.3-0.5-0.5-1.1-0.6-1.8
			c-0.2-0.7-0.3-1.3-0.4-1.9c-0.1-0.6-0.1-1.1-0.2-1.4c0-0.3,0-1,0-1.9c0-0.9,0-1.9,0-2.9c0-1,0-2,0-2.9c0-0.9,0-1.5,0-1.8
			c-0.1-0.2-0.3-0.4-0.5-0.6c-0.2-0.2-0.4-0.3-0.6-0.3l-0.1,0c0,0-0.1,0-0.1,0c0,0.2,0,0.6,0,1.1s0,1.1-0.1,1.8
			c0,0.7-0.1,1.4-0.1,2.1c0,0.7-0.1,1.4-0.1,2c0,0.7,0,1.2-0.1,1.8c0,0.5,0,0.9,0,1.1c0,0.2-0.1,0.6,0,1.2c0,0.5,0.1,1.2,0.2,1.8
			c0.1,0.7,0.3,1.3,0.5,2c0.2,0.7,0.5,1.3,0.8,1.8c0.3,0.5,0.6,0.9,1,1.2c0.4,0.3,0.8,0.3,1.3,0.1c0.8-0.1,1.5-0.4,2.1-0.9
			c0.6-0.5,1.2-1.1,1.8-1.8s1-1.5,1.4-2.3c0.4-0.8,0.8-1.7,1.1-2.5c0.3-0.9,0.6-1.7,0.8-2.5c0.2-0.8,0.4-1.5,0.5-2
			c0.1,0.2,0.1,0.6,0.2,1.1s0.1,1.1,0.2,1.7c0.1,0.7,0.1,1.3,0.2,2c0.1,0.7,0.1,1.4,0.2,2c0.1,0.6,0.2,1.2,0.2,1.7
			c0.1,0.5,0.2,0.9,0.2,1.1c0,0.1,0.1,0.2,0.1,0.4c0.1,0.2,0.1,0.4,0.2,0.5c0.1,0.2,0.2,0.3,0.3,0.5c0.1,0.2,0.2,0.3,0.2,0.3
			c0,0,0.1,0,0.1,0h0.1c0.2,0,0.4-0.1,0.6-0.3c0.3-0.2,0.4-0.4,0.5-0.5c0-0.1,0-0.2-0.1-0.4C148.8,133.4,148.7,133.2,148.7,133.1z
			 M157.9,120.3c-0.6,0.6-1.2,1.3-1.7,2.2c-0.5,0.8-1,1.7-1.3,2.5c-0.4,0.9-0.7,1.8-0.9,2.7c-0.2,0.9-0.4,1.7-0.4,2.5h-0.5l-2.2-9
			h-1l2.7,13.7c0.1,0.2,0.2,0.3,0.3,0.4c0.1,0.1,0.3,0.1,0.4,0.1c0.2,0,0.4-0.1,0.6-0.3c0.2-0.2,0.3-0.4,0.5-0.6
			c0-0.7,0.1-1.6,0.2-2.5c0.1-0.9,0.2-1.9,0.3-2.8c0.2-0.9,0.4-1.8,0.6-2.7s0.6-1.7,1-2.3c0.4-0.7,1-1.2,1.7-1.7
			c0.7-0.5,1.4-0.9,2.1-1.3c0.7-0.4,1.2-0.9,1.7-1.3c0.5-0.4,0.7-1,0.7-1.6c-1,0-1.8,0.2-2.7,0.6
			C159.2,119.2,158.5,119.7,157.9,120.3z M188.5,109.5c-0.2,0-0.4-0.1-0.5-0.1c-0.2,0-0.4,0-0.6,0.1c-0.2,0.1-0.3,0.3-0.3,0.5
			c0,0.8,0.1,1.6,0.2,2.3c0.1,0.7,0.2,1.5,0.3,2.2c0.1,0.7,0.2,1.5,0.3,2.2c0.1,0.7,0.1,1.5,0.1,2.2c-1.2,0.5-2.4,1.2-3.5,2.1
			c-1.2,0.9-2.2,2-3.1,3.2c-0.9,1.2-1.6,2.5-2.1,3.8c-0.3,0.7-0.5,1.5-0.6,2.2c0-0.1,0-0.1,0-0.1c0,0,0-0.1-0.1-0.2
			c-0.1-0.1-0.1-0.3-0.3-0.5c-0.1-0.3-0.3-0.6-0.6-1.1c-0.3-0.5-0.6-1.2-1.1-2c-0.4-0.9-1-2-1.6-3.3c-0.6-1.3-1.4-2.9-2.3-4.8
			c0,0-0.1,0-0.2-0.1c-0.1,0-0.3,0-0.4,0c-0.5,0-0.9,0.2-1.1,0.6c-0.2,0.4-0.3,0.8-0.4,1.3c-0.1,0.5-0.1,1.1-0.1,1.6
			c0,0.5,0,1-0.1,1.2c-0.2,0.9-0.4,1.9-0.7,2.9c-0.2,1-0.5,1.9-0.8,2.8c-0.3,0.9-0.7,1.8-1.1,2.7c-0.4,0.9-1,1.7-1.7,2.4
			c0,0-0.1,0-0.1,0H166c-0.2,0-0.3-0.1-0.5-0.3c-0.1-0.2-0.3-0.5-0.3-0.8c-0.1-0.3-0.2-0.6-0.2-0.9c0-0.3-0.1-0.5-0.1-0.7
			c0-1,0.1-2,0.3-3c0.2-1,0.5-2,0.8-3c0.3-1,0.8-1.9,1.2-2.9c0.5-0.9,1-1.8,1.6-2.5c0.1-0.2,0.4-0.5,0.8-0.8
			c0.4-0.3,0.7-0.6,1.1-0.9c0.4-0.3,0.7-0.6,1-1c0.3-0.3,0.4-0.7,0.4-1c-0.9,0-1.8,0.3-2.6,0.9c-0.8,0.6-1.5,1.3-2.1,2.2
			c-0.6,0.9-1.2,2-1.7,3.1c-0.5,1.2-0.9,2.3-1.2,3.5c-0.3,1.1-0.5,2.3-0.7,3.3c-0.2,1.1-0.2,2-0.2,2.7c0,0.3,0,0.7,0.1,1.1
			c0.1,0.4,0.2,0.9,0.4,1.3c0.2,0.4,0.4,0.8,0.7,1.1c0.3,0.3,0.7,0.4,1.1,0.4c0.5,0,1-0.2,1.5-0.8c0.4-0.5,0.8-1.1,1.2-1.7
			s0.6-1.3,0.9-2c0.2-0.7,0.4-1.2,0.6-1.6c0.1-0.3,0.2-0.8,0.4-1.5c0.2-0.7,0.4-1.4,0.7-2.2c0.2-0.8,0.5-1.5,0.7-2.2
			c0.2-0.7,0.3-1.2,0.4-1.4l0.4,0.4l4.8,9.9c0.1,0.3,0.3,0.5,0.6,0.5c0.2,0,0.4,0,0.5,0c0,0.2,0,0.3,0.1,0.5c0.1,0.4,0.2,0.7,0.4,1
			c0.2,0.3,0.4,0.6,0.7,0.7c0.3,0.2,0.7,0.3,1.1,0.3c0.9,0,1.7-0.2,2.4-0.5c0.7-0.4,1.4-0.8,2-1.4c0.6-0.5,1.1-1.1,1.5-1.8
			c0.4-0.6,0.8-1.3,1.1-1.9c0.3-0.6,0.5-1.2,0.7-1.6c0.2-0.5,0.3-0.8,0.3-1c0.1,0.4,0.1,0.9,0.2,1.6c0.1,0.7,0.1,1.4,0.2,2.1
			c0.1,0.7,0.2,1.4,0.4,2c0.2,0.6,0.4,1,0.7,1.2c0,0,0.1,0,0.1,0c0.1,0,0.1,0,0.1-0.1c0.1,0,0.1-0.1,0.2-0.2
			c0.1-0.1,0.2-0.2,0.3-0.3s0.2-0.2,0.2-0.3c0.1-0.1,0.1-0.1,0.1-0.1l-2.5-23.2C188.9,109.7,188.8,109.6,188.5,109.5z M188.5,124.1
			c-0.1,0.8-0.4,1.6-0.7,2.5c-0.4,0.8-0.8,1.7-1.3,2.5c-0.5,0.8-1.1,1.6-1.7,2.2s-1.2,1.2-1.8,1.7c-0.6,0.4-1.2,0.7-1.8,0.7
			c-0.1,0-0.3-0.1-0.4-0.3c-0.1-0.2-0.2-0.4-0.3-0.6c-0.1-0.3-0.1-0.5-0.2-0.7c0-0.2,0-0.4,0-0.5c0-1,0.2-2,0.6-3.2
			c0.4-1.2,0.9-2.2,1.6-3.2c0.7-1,1.5-1.8,2.4-2.5c0.9-0.7,2-1,3-1c0.1,0,0.3,0,0.3,0.1c0.1,0.1,0.2,0.2,0.3,0.4
			C188.6,122.6,188.6,123.3,188.5,124.1z M224.7,122c-1-0.6-2-1-3.2-1.2s-2.4-0.4-3.5-0.5c0.5-0.5,1.1-1.1,1.7-1.8
			c0.6-0.7,1.2-1.4,1.7-2.1c0.5-0.7,1-1.5,1.3-2.3c0.4-0.8,0.5-1.6,0.5-2.4c0-1.1-0.3-1.9-0.9-2.5c-0.6-0.6-1.4-1-2.3-1.3
			c-0.9-0.3-1.8-0.4-2.9-0.5c-1-0.1-1.9-0.1-2.6-0.1h-0.6c-0.2,0-0.5,0-0.7,0c-0.2,0-0.4,0-0.6,0h-0.2l-2.2,2.2c0,0.1,0,0.1,0,0.1
			v0.1c0,0.4,0.1,0.6,0.4,0.6c0.3,0,0.5,0,0.8,0c0.3,0,0.5,0,0.8,0.1c0.2,0.1,0.3,0.3,0.2,0.8c0.1,0.3,0.1,0.8,0.2,1.5
			c0.1,0.7,0.2,1.5,0.3,2.3c0.1,0.8,0.2,1.6,0.2,2.3c0.1,0.7,0.1,1.2,0.1,1.5v3.8c0,0.2,0,0.6,0.1,1c0,0.4,0.1,1,0.1,1.5
			c0.1,0.6,0.1,1.2,0.2,1.8c0.1,0.6,0.2,1.2,0.3,1.7c0.1,0.5,0.2,0.9,0.4,1.3c0.1,0.3,0.3,0.5,0.5,0.5c0.1,0,0.2,0,0.4-0.1
			c0.2-0.1,0.2-0.2,0.2-0.4v-7.3c0-0.2,0.2-0.3,0.5-0.4c0.3-0.1,0.7-0.2,1.2-0.3c0.4-0.1,0.8-0.1,1.2-0.1c0.4,0,0.6,0,0.7,0
			c0.8,0,1.6,0.1,2.5,0.3c0.9,0.2,1.7,0.6,2.5,1c0.8,0.5,1.4,1,1.8,1.7c0.5,0.7,0.7,1.5,0.7,2.5s-0.2,1.8-0.6,2.5
			c-0.4,0.7-1,1.4-1.7,1.9c-0.7,0.5-1.4,1-2.3,1.2c-0.9,0.3-1.7,0.4-2.5,0.4h-0.3c-0.2,0-0.3,0-0.5,0c-0.1,0-0.3,0-0.5,0H218
			c-0.2-0.1-0.4-0.3-0.5-0.6c-0.1-0.3-0.2-0.5-0.4-0.7c-0.2,0.1-0.4,0.2-0.4,0.5c0,0.2-0.1,0.5-0.1,0.7c0,0.3,0.1,0.5,0.2,0.7
			c0.1,0.2,0.3,0.4,0.5,0.6c0.2,0.2,0.4,0.3,0.7,0.4c0.3,0.1,0.5,0.2,0.8,0.2c1.1,0,2.1-0.2,3.2-0.6c1.1-0.4,2-0.9,2.9-1.6
			c0.9-0.7,1.6-1.5,2.1-2.4c0.6-1,0.8-2,0.8-3.1c0-1.4-0.3-2.6-0.9-3.5C226.4,123.3,225.6,122.5,224.7,122z M214.9,120.3l-1.3-10.3
			l0.4-0.8c0,0,0.1,0,0.2,0c0.1,0,0.3,0,0.5,0c0.2,0,0.4,0,0.6,0h0.5c0.4,0,0.9,0,1.6,0c0.7,0,1.3,0.1,2,0.2
			c0.6,0.1,1.2,0.4,1.7,0.8c0.5,0.4,0.7,0.9,0.7,1.6c0,0.8-0.2,1.7-0.7,2.6c-0.4,0.9-1,1.8-1.7,2.6c-0.7,0.8-1.4,1.5-2.2,2.1
			C216.5,119.6,215.7,120,214.9,120.3z M232.3,132.5c-0.3-0.1-0.6-0.2-1-0.2c-0.4,0-0.7,0.1-1,0.4c-0.2,0.3-0.3,0.7-0.3,1.1
			c0,0.1,0,0.3,0,0.5c0,0.2,0,0.4,0.1,0.5c0.1,0.2,0.2,0.3,0.3,0.4c0.1,0.1,0.3,0.2,0.5,0.2c0.5,0,0.9-0.2,1.3-0.6
			c0.3-0.4,0.5-0.9,0.5-1.4C232.7,133,232.5,132.7,232.3,132.5z"/>
		<path class="st0" d="z"/>
	</g>
</g>
</svg>
