<?xml version="1.0"?>
<svg xmlns="http://www.w3.org/2000/svg" viewBox="0 0 16 16">
    <path style="line-height:normal;text-indent:0;text-align:start;text-decoration-line:none;text-decoration-style:solid;text-decoration-color:#000;text-transform:none;block-progression:tb;isolation:auto;mix-blend-mode:normal" d="M 13.513672 1.1875 L 1 7.6328125 L 1 8.3671875 L 13.523438 14.816406 L 13.980469 13.927734 L 11.691406 12.748047 C 12.22439 11.785742 13 10.07488 13 8 C 13 5.9251202 12.22439 4.2142579 11.691406 3.2519531 L 13.972656 2.0761719 L 13.513672 1.1875 z M 10.800781 3.7089844 C 11.277181 4.5718334 12 6.1494712 12 8 C 12 9.8505291 11.277181 11.428167 10.800781 12.291016 L 8.734375 11.226562 C 9.2201166 10.628231 10 9.4631101 10 8 C 10 6.53689 9.2201166 5.3717693 8.734375 4.7734375 L 10.800781 3.7089844 z M 8 5.5039062 C 8.38507 5.9818754 9 6.845847 9 8 C 9 9.154153 8.38507 10.018125 8 10.496094 C 7.61493 10.018125 7 9.154153 7 8 C 7 6.845847 7.61493 5.9818755 8 5.5039062 z M 6.5214844 5.9140625 C 6.2320787 6.497873 6 7.211032 6 8 C 6 8.7889681 6.2320787 9.502127 6.5214844 10.085938 L 2.4707031 8 L 6.5214844 5.9140625 z" font-weight="400" font-family="sans-serif" white-space="normal" overflow="visible"/>
</svg>
