<svg id="Capa_1" enable-background="new 0 0 512 512" height="512" viewBox="0 0 512 512" width="512" xmlns="http://www.w3.org/2000/svg"><g><g><path d="m503.031 240.098-54.674-33.053c-1.662-1.005-2.23-3.126-1.293-4.827l30.823-55.961c3.166-5.749 3.098-12.573-.184-18.257-3.281-5.683-9.158-9.155-15.718-9.287l-63.876-1.288c-1.942-.04-3.494-1.592-3.533-3.529l-.216-11.096c-.08-4.135-3.539-7.419-7.632-7.342-4.134.081-7.421 3.497-7.341 7.632l.215 11.103c.202 10.006 8.198 18.003 18.204 18.204l63.876 1.288c1.77.036 2.671 1.145 3.051 1.803s.89 1.993.036 3.544l-30.823 55.961c-4.829 8.766-1.902 19.69 6.663 24.867l54.675 33.053c1.515.915 1.741 2.327 1.741 3.087s-.226 2.171-1.741 3.087l-54.674 33.053c-8.565 5.177-11.492 16.101-6.664 24.867l30.823 55.961c.854 1.551.344 2.886-.036 3.544s-1.282 1.767-3.052 1.803l-63.875 1.288c-10.007.201-18.003 8.198-18.205 18.204l-1.287 63.875c-.036 1.77-1.145 2.671-1.803 3.051-.658.379-1.994.889-3.544.036l-55.961-30.823c-8.766-4.829-19.689-1.901-24.868 6.664l-33.052 54.673c-.916 1.515-2.327 1.741-3.087 1.741s-2.171-.226-3.087-1.741l-33.052-54.673c-5.179-8.566-16.102-11.493-24.868-6.664l-55.961 30.823c-1.55.853-2.886.343-3.544-.036-.658-.38-1.767-1.281-1.803-3.051l-1.287-63.875c-.202-10.006-8.198-18.003-18.204-18.204l-63.876-1.288c-1.77-.036-2.671-1.145-3.051-1.803s-.889-1.994-.036-3.544l30.823-55.961c4.829-8.766 1.902-19.69-6.663-24.867l-54.675-33.053c-1.515-.916-1.741-2.327-1.741-3.087s.226-2.171 1.741-3.087l54.674-33.053c8.565-5.177 11.492-16.101 6.664-24.867l-30.823-55.961c-.854-1.55-.344-2.886.036-3.544s1.282-1.767 3.052-1.803l63.875-1.288c10.007-.201 18.003-8.198 18.205-18.204l1.287-63.875c.036-1.77 1.145-2.671 1.803-3.051.658-.379 1.995-.888 3.544-.036l55.961 30.823c8.766 4.831 19.69 1.902 24.868-6.664l33.052-54.673c.916-1.515 2.327-1.741 3.087-1.741s2.171.226 3.087 1.741l33.052 54.673c5.178 8.565 16.101 11.491 24.868 6.664l55.961-30.823c1.55-.853 2.886-.343 3.544.036.658.38 1.767 1.281 1.803 3.051l.362 17.958c.084 4.135 3.525 7.454 7.637 7.335 4.135-.083 7.419-3.502 7.336-7.637l-.362-17.958c-.133-6.561-3.604-12.436-9.287-15.718-5.684-3.282-12.509-3.351-18.257-.184l-55.962 30.823c-1.701.935-3.822.368-4.827-1.294l-33.052-54.673c-3.395-5.617-9.34-8.97-15.903-8.97s-12.508 3.353-15.903 8.97l-33.052 54.673c-1.006 1.662-3.127 2.231-4.828 1.294l-55.961-30.823c-5.748-3.167-12.574-3.098-18.257.184s-9.155 9.157-9.287 15.718l-1.287 63.875c-.039 1.942-1.591 3.494-3.534 3.534l-63.875 1.288c-6.561.132-12.437 3.604-15.719 9.287s-3.351 12.508-.184 18.257l30.823 55.961c.937 1.701.369 3.822-1.294 4.827l-54.673 33.053c-5.616 3.395-8.969 9.339-8.969 15.902s3.353 12.507 8.969 15.902l54.674 33.053c1.662 1.005 2.23 3.126 1.293 4.827l-30.823 55.961c-3.166 5.749-3.098 12.573.184 18.257 3.281 5.683 9.158 9.155 15.718 9.287l63.876 1.288c1.942.04 3.494 1.592 3.533 3.534l1.287 63.875c.133 6.561 3.604 12.436 9.287 15.718s12.509 3.35 18.257.184l55.962-30.823c1.7-.937 3.821-.37 4.827 1.294l33.052 54.673c3.395 5.617 9.34 8.97 15.903 8.97s12.508-3.353 15.903-8.97l33.052-54.673c1.006-1.663 3.125-2.232 4.828-1.294l55.961 30.823c5.748 3.166 12.573 3.098 18.257-.184 5.683-3.282 9.155-9.157 9.287-15.718l1.287-63.875c.039-1.942 1.591-3.494 3.534-3.534l63.875-1.288c6.561-.132 12.437-3.604 15.719-9.287s3.351-12.508.184-18.257l-30.823-55.961c-.937-1.701-.369-3.822 1.294-4.827l54.674-33.053c5.616-3.395 8.969-9.339 8.969-15.902s-3.353-12.507-8.969-15.902z"/><path d="m130.633 340.798c-3.305 2.486-3.968 7.181-1.482 10.485 14.476 19.242 33.435 35.184 54.826 46.102 22.434 11.449 46.666 17.255 72.023 17.255 87.475 0 158.641-71.166 158.641-158.641s-71.166-158.64-158.641-158.64-158.641 71.166-158.641 158.641c0 22.361 4.561 43.984 13.558 64.265 1.677 3.78 6.103 5.486 9.881 3.808 3.781-1.677 5.485-6.101 3.809-9.88-8.143-18.358-12.272-37.937-12.272-58.193 0-79.218 64.448-143.665 143.665-143.665s143.665 64.447 143.665 143.665-64.448 143.665-143.665 143.665c-45.574 0-87.446-20.916-114.882-57.385-2.486-3.303-7.18-3.97-10.485-1.482z"/><path d="m161.086 305.301c4.135 0 7.488-3.352 7.488-7.488v-83.626c0-4.136-3.352-7.488-7.488-7.488-4.135 0-7.488 3.352-7.488 7.488v83.626c0 4.136 3.353 7.488 7.488 7.488z"/><path d="m225.845 290.325c-9.135 0-17.955-3.715-23.593-9.936-2.777-3.064-7.512-3.297-10.577-.521-3.064 2.777-3.297 7.512-.521 10.577 8.43 9.302 21.398 14.856 34.69 14.856 15.924 0 29.797-10.445 32.271-24.297 2.853-15.98-9.709-26.683-22.418-31.37-10.757-3.968-20.734-8.3-23.258-9.409-2.661-1.951-3.952-5.068-3.468-8.439.61-4.246 3.874-7.655 8.732-9.117 13.399-4.04 25.507 5.668 25.751 5.867 3.165 2.636 7.87 2.219 10.523-.936 2.661-3.166 2.252-7.89-.914-10.55-.739-.621-18.356-15.144-39.679-8.721-10.427 3.141-17.798 11.314-19.236 21.33-1.339 9.326 2.7 18.295 10.541 23.406.331.217.678.406 1.039.567.48.214 11.909 5.301 24.788 10.051 9.23 3.405 13.917 8.758 12.858 14.689-1.036 5.795-7.531 11.953-17.529 11.953z"/><path d="m371.024 256c0-27.185-22.117-49.301-49.301-49.301-27.185 0-49.301 22.117-49.301 49.301s22.117 49.301 49.301 49.301c27.185 0 49.301-22.116 49.301-49.301zm-83.626 0c0-18.927 15.398-34.325 34.325-34.325s34.325 15.398 34.325 34.325-15.398 34.325-34.325 34.325-34.325-15.398-34.325-34.325z"/></g></g></svg>