<?xml version="1.0" encoding="utf-8"?><svg xml:space="preserve" viewBox="0 0 100 100" y="0" x="0" xmlns="http://www.w3.org/2000/svg" id="圖層_1" version="1.1" width="47px" height="47px" xmlns:xlink="http://www.w3.org/1999/xlink" style="width:100%;height:100%;background-size:initial;background-repeat-y:initial;background-repeat-x:initial;background-position-y:initial;background-position-x:initial;background-origin:initial;background-image:initial;background-color:rgb(255, 255, 255);background-clip:initial;background-attachment:initial;animation-play-state:paused" ><g class="ldl-scale" style="transform-origin:50% 50%;transform:rotate(0deg) scale(0.8, 0.8);animation-play-state:paused" ><path fill="#d1d1d1" d="M91.866 32.612a5.15 5.15 0 0 0-3.087-2.492l-30.472-8.974c-1.278-4.227-5.22-7.285-9.804-7.285-2.441 0-4.798.888-6.634 2.444L14.147 8.14a5.188 5.188 0 0 0-1.464-.211 5.213 5.213 0 0 0-4.972 3.719 5.19 5.19 0 0 0 3.508 6.436l27.239 8.022c.115.578.28 1.144.492 1.693L25.14 48.343h-6.858c-4.488 0-8.139 3.651-8.139 8.139v27.45c0 4.488 3.651 8.139 8.139 8.139h58.156c4.487 0 8.139-3.651 8.139-8.139v-27.45c0-4.487-3.651-8.139-8.139-8.139h-6.631l-9.42-15.778 25.462 7.499c.477.141.971.212 1.467.212a5.212 5.212 0 0 0 4.971-3.72 5.15 5.15 0 0 0-.421-3.944zm-43.658 2.126l8.122 13.604H39.064l9.144-13.604z" style="fill:rgb(255, 255, 255);animation-play-state:paused" ></path>
<g style="animation-play-state:paused" ><path fill="#454545" d="M29.696 56.241l-4.537-2.702 21.076-31.353c.505-.751 1.384-1.197 2.339-1.175.945.023 1.807.512 2.27 1.288l18.718 31.353-4.681 2.476-16.515-27.661-18.67 27.774z" style="fill:rgb(69, 69, 69);animation-play-state:paused" ></path></g>
<path fill="#454545" d="M76.439 51.076H18.282a4.998 4.998 0 0 0-4.998 4.998v27.45a4.998 4.998 0 0 0 4.998 4.998h58.156a4.998 4.998 0 0 0 4.998-4.998v-27.45a4.997 4.997 0 0 0-4.997-4.998zM43.854 73.378a1.61 1.61 0 0 1-1.611 1.611H21.876a1.61 1.61 0 0 1-1.611-1.611v-14.03c0-.89.721-1.611 1.611-1.611h20.367c.89 0 1.611.721 1.611 1.611v14.03zm30.872 0a1.61 1.61 0 0 1-1.611 1.611H52.748a1.61 1.61 0 0 1-1.611-1.611v-14.03c0-.89.721-1.611 1.611-1.611h20.367c.89 0 1.611.721 1.611 1.611v14.03z" style="fill:rgb(69, 69, 69);animation-play-state:paused" ></path>
<g style="animation-play-state:paused" ><path fill="#454545" d="M87.316 36.727c-.191 0-.385-.027-.577-.084l-74.631-21.98a2.043 2.043 0 0 1 1.153-3.917l74.631 21.98a2.042 2.042 0 0 1-.576 4.001z" style="fill:rgb(69, 69, 69);animation-play-state:paused" ></path></g>
<circle fill="#454545" r="7.1" cy="23.695" cx="48.504" style="fill:rgb(69, 69, 69);animation-play-state:paused" ></circle>
<metadata xmlns:d="https://loading.io/stock/" style="animation-play-state:paused" ><d:name style="animation-play-state:paused" >cable car</d:name>
<d:tags style="animation-play-state:paused" >gondola,ski,travel,tourist,cable car,map</d:tags>
<d:license style="animation-play-state:paused" >free</d:license>
<d:slug style="animation-play-state:paused" >6kax3g</d:slug></metadata></g><!-- generated by https://loading.io/ --></svg>