<?xml version="1.0" encoding="utf-8"?><svg xml:space="preserve" viewBox="0 0 100 100" y="0" x="0" xmlns="http://www.w3.org/2000/svg" id="圖層_1" version="1.1" width="47px" height="47px" xmlns:xlink="http://www.w3.org/1999/xlink" style="width:100%;height:100%;background-size:initial;background-repeat-y:initial;background-repeat-x:initial;background-position-y:initial;background-position-x:initial;background-origin:initial;background-image:initial;background-color:rgb(255, 255, 255);background-clip:initial;background-attachment:initial;animation-play-state:paused" ><g class="ldl-scale" style="transform-origin:50% 50%;transform:rotate(0deg) scale(0.8, 0.8);animation-play-state:paused" ><circle stroke-miterlimit="10" stroke-width="6" stroke="#333" fill="#c7b299" r="40" cy="50" cx="49.7" style="stroke:rgb(51, 51, 51);fill:rgb(255, 255, 255);animation-play-state:paused" ></circle>
<path fill="#333" d="M66 25.6h-.3H66z" style="fill:rgb(51, 51, 51);animation-play-state:paused" ></path>
<path fill="#333" d="M66.2 25.6c.2 0 .4.1.6.1-.2 0-.4 0-.6-.1z" style="fill:rgb(51, 51, 51);animation-play-state:paused" ></path>
<path fill="#333" d="M33.2 74.2s-.1 0-.1-.1c0 .1 0 .1.1.1z" style="fill:rgb(51, 51, 51);animation-play-state:paused" ></path>
<path fill="#333" d="M33.9 74.4h-.1.1z" style="fill:rgb(51, 51, 51);animation-play-state:paused" ></path>
<path fill="#333" d="M31.5 72.1c.1.7.4 1.3 1 1.7h.1s-.1 0-.1-.1c-.6-.2-.9-.9-1-1.6z" style="fill:rgb(51, 51, 51);animation-play-state:paused" ></path>
<path fill="#333" d="M66.9 25.8c.2.1.3.1.4.2l-.4-.2z" style="fill:rgb(51, 51, 51);animation-play-state:paused" ></path>
<path fill="#333" d="M65.1 25.8c.1 0 .2-.1.3-.1-.1 0-.2.1-.3.1z" style="fill:rgb(51, 51, 51);animation-play-state:paused" ></path>
<path fill="#333" d="M34.5 74.3h-.3.3z" style="fill:rgb(51, 51, 51);animation-play-state:paused" ></path>
<path fill="#333" d="M34 74.4h.3-.4.1z" style="fill:rgb(51, 51, 51);animation-play-state:paused" ></path>
<path fill="#333" d="M66.8 25.8s.1 0 .1.1c0-.1 0-.1-.1-.1z" style="fill:rgb(51, 51, 51);animation-play-state:paused" ></path>
<path fill="#333" d="M34.9 74.2c-.1 0-.2.1-.3.1.1 0 .2-.1.3-.1z" style="fill:rgb(51, 51, 51);animation-play-state:paused" ></path>
<path fill="#333" d="M68.5 27.8c-.1-.7-.4-1.3-1-1.7h-.1s.1 0 .1.1c.6.3.9 1 1 1.6z" style="fill:rgb(51, 51, 51);animation-play-state:paused" ></path>
<path fill="#333" d="M33.1 74.2c-.2-.1-.3-.1-.4-.2l.4.2z" style="fill:rgb(51, 51, 51);animation-play-state:paused" ></path>
<path fill="#333" d="M66.1 25.6h0z" style="fill:rgb(51, 51, 51);animation-play-state:paused" ></path>
<path fill="#333" d="M33.8 74.3c-.2 0-.4-.1-.6-.1.2.1.4.1.6.1z" style="fill:rgb(51, 51, 51);animation-play-state:paused" ></path>
<path fill="#333" d="M65.5 25.7h.3-.3z" style="fill:rgb(51, 51, 51);animation-play-state:paused" ></path>
<path d="M42 42.6l.6.4 16.3 12 .6.4 4-23.9z" fill="#e15b64" style="fill:rgb(255, 255, 255);animation-play-state:paused" ></path>
<path d="M57.4 57L41.1 45l-.6-.4-4 23.9L58 57.4z" fill="#f8b26a" style="animation-play-state:paused" ></path>
<path fill="#333" d="M67.5 26.1s-.1 0 0 0c-.2-.1-.4-.2-.5-.3 0 0-.1 0-.1-.1-.2-.1-.4-.1-.6-.1h-.8c-.1 0-.2.1-.3.1-.1 0-.2.1-.3.1l-27 14c-.1.1-.1.1-.2.1-.1.1-.2.1-.3.2l-.2.2c-.1.1-.1.2-.2.2-.1.1-.1.2-.2.3 0 .1-.1.2-.1.3 0 .1-.1.2-.1.3v.1l-5.1 29.9v.7c.1.7.4 1.3 1 1.7 0 0 .1 0 .1.1.1.1.3.2.4.2 0 0 .1 0 .1.1.2.1.4.1.6.1h.8c.1 0 .2-.1.3-.1.1 0 .2-.1.3-.1L62 60.2c.1-.1.1-.1.2-.1.1-.1.2-.1.3-.2l.2-.2c.1-.1.1-.2.2-.2.1-.1.1-.2.2-.3 0-.1.1-.2.1-.3 0-.1.1-.2.1-.3v-.1l5.1-29.9v-.7c0-.7-.3-1.4-.9-1.8zm-27 18.5l.5.4 16.4 12 .6.4-21.5 11.1 4-23.9zm19 10.8l-.6-.4-16.3-12-.6-.4 21.5-11.1-4 23.9z" style="fill:rgb(51, 51, 51);animation-play-state:paused" ></path>
<metadata xmlns:d="https://loading.io/stock/" style="animation-play-state:paused" ><d:name style="animation-play-state:paused" >compass</d:name>
<d:tags style="animation-play-state:paused" >navigation,direction,magnetic,guide,way,compass,web application</d:tags>
<d:license style="animation-play-state:paused" >pro</d:license>
<d:slug style="animation-play-state:paused" >v16yot</d:slug></metadata></g><!-- generated by https://loading.io/ --></svg>