<?xml version="1.0" encoding="utf-8"?><svg xml:space="preserve" viewBox="0 0 100 100" y="0" x="0" xmlns="http://www.w3.org/2000/svg" id="圖層_1" version="1.1" width="47px" height="47px" xmlns:xlink="http://www.w3.org/1999/xlink" style="width:100%;height:100%;background-size:initial;background-repeat-y:initial;background-repeat-x:initial;background-position-y:initial;background-position-x:initial;background-origin:initial;background-image:initial;background-color:rgb(255, 255, 255);background-clip:initial;background-attachment:initial;animation-play-state:paused" ><g class="ldl-scale" style="transform-origin:50% 50%;transform:rotate(0deg) scale(0.8, 0.8);animation-play-state:paused" ><path d="M33.2 10.2h24.6v35.1H33.2z" fill="#e0e0e0" transform="rotate(-15.729 45.524 27.71)" style="fill:rgb(224, 224, 224);animation-play-state:paused" ></path>
<path fill="#32517a" d="M69.8 92.5H24.5V22.7h45.4c3.2 0 5.7 2.6 5.7 5.7v58.4c-.1 3.1-2.6 5.7-5.8 5.7z" style="fill:rgb(50, 81, 122);animation-play-state:paused" ></path>
<g style="animation-play-state:paused" ><circle stroke-miterlimit="10" stroke-width="1.2" stroke="#e3cdb3" fill="none" r="15.7" cy="48.8" cx="50" style="stroke:rgb(255, 255, 255);animation-play-state:paused" ></circle>
<ellipse stroke-miterlimit="10" stroke-width="1.2" stroke="#e3cdb3" fill="none" ry="15.7" rx="9.4" cy="48.8" cx="50" style="stroke:rgb(255, 255, 255);animation-play-state:paused" ></ellipse>
<ellipse stroke-miterlimit="10" stroke-width="1.2" stroke="#e3cdb3" fill="none" ry="15.7" rx="3" cy="48.8" cx="50" style="stroke:rgb(255, 255, 255);animation-play-state:paused" ></ellipse>
<path d="M34.3 48.8h31.4" stroke-miterlimit="10" stroke-width="1.2" stroke="#e3cdb3" fill="none" style="stroke:rgb(255, 255, 255);animation-play-state:paused" ></path>
<path d="M36.2 56.5h27.6" stroke-miterlimit="10" stroke-width="1.2" stroke="#e3cdb3" fill="none" style="stroke:rgb(255, 255, 255);animation-play-state:paused" ></path>
<path d="M36.2 41.1h27.6" stroke-miterlimit="10" stroke-width="1.2" stroke="#e3cdb3" fill="none" style="stroke:rgb(255, 255, 255);animation-play-state:paused" ></path></g>
<g style="animation-play-state:paused" ><path fill="#e3cdb3" d="M36.4 78.6v3h-1.7v-8.5H38c.6 0 1.2.1 1.7.3.5.2.9.6 1.1 1 .3.4.4.9.4 1.5 0 .8-.3 1.5-.9 2-.6.5-1.4.7-2.4.7h-1.5zm0-1.4H38c.5 0 .8-.1 1.1-.3.2-.2.4-.5.4-.9s-.1-.8-.4-1c-.2-.3-.6-.4-1-.4h-1.6v2.6z" style="fill:rgb(255, 255, 255);animation-play-state:paused" ></path>
<path fill="#e3cdb3" d="M47.1 79.8H44l-.6 1.7h-1.9l3.2-8.5h1.6l3.2 8.5h-1.9l-.5-1.7zm-2.6-1.4h2.1l-1.1-3.2-1 3.2z" style="fill:rgb(255, 255, 255);animation-play-state:paused" ></path>
<path fill="#e3cdb3" d="M55.6 79.4c0-.3-.1-.6-.3-.8-.2-.2-.7-.4-1.3-.6s-1.1-.4-1.4-.6c-1-.5-1.4-1.2-1.4-2.1 0-.5.1-.9.4-1.2.3-.4.6-.6 1.1-.8.5-.2 1-.3 1.6-.3.6 0 1.1.1 1.6.3s.8.5 1.1.9.4.9.4 1.4h-1.7c0-.4-.1-.7-.4-.9-.2-.2-.6-.3-1-.3s-.8.1-1 .3-.4.4-.4.7c0 .3.1.5.4.7.3.2.7.4 1.2.5 1 .3 1.7.7 2.2 1.1.5.4.7 1 .7 1.7s-.3 1.3-.8 1.7c-.6.4-1.3.6-2.2.6-.7 0-1.2-.1-1.8-.4-.5-.2-.9-.6-1.2-1-.3-.4-.4-.9-.4-1.4h1.8c0 .9.6 1.4 1.7 1.4.4 0 .7-.1 1-.3 0-.1.1-.3.1-.6z" style="fill:rgb(255, 255, 255);animation-play-state:paused" ></path>
<path fill="#e3cdb3" d="M63.9 79.4c0-.3-.1-.6-.3-.8-.2-.2-.7-.4-1.3-.6-.6-.2-1.1-.4-1.4-.6-1-.5-1.4-1.2-1.4-2.1 0-.5.1-.9.4-1.2.3-.4.6-.6 1.1-.8.5-.2 1-.3 1.6-.3.6 0 1.1.1 1.6.3.5.2.8.5 1.1.9s.4.9.4 1.4H64c0-.4-.1-.7-.4-.9-.2-.2-.6-.3-1-.3s-.8.1-1 .3-.4.4-.4.7c0 .3.1.5.4.7.3.2.7.4 1.2.5 1 .3 1.7.7 2.2 1.1.5.4.7 1 .7 1.7s-.3 1.3-.8 1.7-1.3.6-2.2.6c-.7 0-1.2-.1-1.8-.4-.5-.2-.9-.6-1.2-1-.3-.4-.4-.9-.4-1.4h1.8c0 .9.6 1.4 1.7 1.4.4 0 .7-.1 1-.3 0-.1.1-.3.1-.6z" style="fill:rgb(255, 255, 255);animation-play-state:paused" ></path></g>
<metadata xmlns:d="https://loading.io/stock/" style="animation-play-state:paused" ><d:name style="animation-play-state:paused" >passport</d:name>
<d:tags style="animation-play-state:paused" >nation,country,passenger,travel,foreign,immigration,emmigration,custom,passport,transportation</d:tags>
<d:license style="animation-play-state:paused" >by</d:license>
<d:slug style="animation-play-state:paused" >xvuj2r</d:slug></metadata></g><!-- generated by https://loading.io/ --></svg>