<?xml version="1.0" encoding="utf-8"?>
<!-- Generator: Adobe Illustrator 25.0.0, SVG Export Plug-In . SVG Version: 6.00 Build 0)  -->
<svg version="1.1" id="圖層_1" xmlns="http://www.w3.org/2000/svg" xmlns:xlink="http://www.w3.org/1999/xlink" x="0px" y="0px"
	 viewBox="0 0 47 47" style="enable-background:new 0 0 47 47;" xml:space="preserve">
<style type="text/css">
	.st0{fill:none;}
</style>
<path class="st0" d="z M34.2,31.4l-1.1-5.9l-4-10.7l3.7,0.9c0.1,0,0.2,0.1,0.3,0.2l2.7,4.6c0.3,0.5,0.8,0.7,1.3,0.5l0,0
	c0.6-0.2,0.9-0.8,0.6-1.4c0,0,0-0.1,0-0.1l-3.2-6.4c-0.1-0.1-0.2-0.2-0.3-0.2l-6.4-1.8c-1.1-0.2-2.1-0.3-3-0.2
	c0.8-1.1,1-2.8,0.5-4.4c-0.8-2.6-2.9-3.4-5-2.8S17,6.2,17.7,8.8c0.5,1.8,1.8,3.1,3.2,3.5c-0.8,0.6-1.5,1.3-2.2,2.2l0,0l0,0l-1.3,5.9
	c0,0.1-0.1,0.2-0.2,0.3l-4.6,2.9L12,23.2c-0.5-0.3-1-0.2-1.2,0.2l-0.8,1.3l-1.5-0.9c-0.6-0.4-1.5-0.2-1.9,0.5l-2.7,4.5
	c-0.4,0.6-0.2,1.5,0.5,1.9l7.5,4.5c0.6,0.4,1.5,0.2,1.9-0.5l2.7-4.5c0.4-0.6,0.2-1.5-0.5-1.9l-1.5-0.9l0.8-1.3
	c0.2-0.4,0-0.9-0.4-1.2l-0.2-0.1L20,22c0.1-0.1,0.2-0.2,0.2-0.3l0.5-1.9l2,5.3c0,0.1,0,0.2,0,0.3l-2.9,6.2c0,0.1-0.1,0.1-0.1,0.2
	l-2.2,10c-0.1,0.6,0.2,1.1,0.8,1.3l1.2,0.3c0.6,0.2,1.1-0.1,1.3-0.7l3.3-9.9c0-0.1,0.1-0.2,0.2-0.3l3.4-4.5l2.7,6.2
	c0.1,0.2,0.2,0.4,0.4,0.5l10.2,6c0.5,0.3,1.2,0.1,1.5-0.4l0.7-1c0.3-0.5,0.2-1.1-0.3-1.5l-8.3-5.8C34.4,31.9,34.2,31.7,34.2,31.4z
	 M13.7,27l-3-1.8l0.7-1.2c0,0,0.1,0,0.1,0l2.9,1.7c0,0,0,0,0.1,0.1C14.4,25.7,13.7,27,13.7,27zz"/>
</svg>
