<?xml version="1.0" encoding="utf-8"?><svg xml:space="preserve" viewBox="0 0 128 128" y="0px" x="0px" xmlns:xlink="http://www.w3.org/1999/xlink" xmlns="http://www.w3.org/2000/svg" id="圖層_1" version="1.1" width="47px" height="47px" style="width:100%;height:100%;background-size:initial;background-repeat-y:initial;background-repeat-x:initial;background-position-y:initial;background-position-x:initial;background-origin:initial;background-image:initial;background-color:rgb(255, 255, 255);background-clip:initial;background-attachment:initial;animation-play-state:paused" ><g class="ldl-scale" style="transform-origin:50% 50%;transform:rotate(0deg) scale(0.8, 0.8);animation-play-state:paused" ><style type="text/css" style="animation-play-state:paused" >.st0{fill:none}.st1{fill:#d3edf9;stroke:#000;stroke-linecap:round;stroke-linejoin:round;stroke-miterlimit:10}.st1,.st2,.st3{stroke-width:3}.st2{stroke:#000;stroke-linecap:round;stroke-linejoin:round;stroke-miterlimit:10;fill:#fff}.st3{fill:#fce9f2}.st3,.st4,.st5,.st6{stroke:#000;stroke-linecap:round;stroke-linejoin:round;stroke-miterlimit:10}.st4{fill:#ef66b2;stroke-width:3}.st5{stroke-width:.25}.st6{fill:none;stroke-width:3}</style>
<path d="z" class="st0" style="animation-play-state:paused" ></path>
<g style="animation-play-state:paused" ><g style="animation-play-state:paused" ><path d="M118.1,46c0-4.7-1.7-8.9-4.6-12.1c0.3-0.9,0.4-1.9,0.4-2.9c0-6-4.9-10.9-10.9-10.9c-0.2,0-0.3,0-0.5,0 C100,16,96.3,12.8,92,10.7c-10.4-4.9-22.5-2-29.7,6.3c-1.5-0.8-3.1-1.2-4.8-1.2c-5.6,0-10.1,4.4-10.4,9.9 c-8.2,2.2-14.2,9.7-14.2,18.6c0,9.2,6.5,17,15.2,18.8c1.2,10.1,9.9,18,20.3,18c5.8,0,11.1-2.5,14.9-6.4c3.5,3.6,8.2,5.6,13.2,5.5 c10.2,0,18.4-8.2,18.4-18.4c0-1.6-0.2-3.1-0.6-4.6C116.7,54.1,118.1,50.1,118.1,46z" class="st1" style="stroke:rgb(0, 0, 0);fill:rgb(255, 255, 255);animation-play-state:paused" ></path></g>
<g style="animation-play-state:paused" ><ellipse ry="3.8" rx="4" cy="67.4" cx="13.7" class="st1" style="stroke:rgb(0, 0, 0);fill:rgb(255, 255, 255);animation-play-state:paused" ></ellipse>
<path d="M24.8,50c1.9,1.7,2,4.7,0.2,6.5c-0.1,0.1-0.2,0.2-0.2,0.2c-2,1.9-5.2,1.9-7.1,0c-1.9-1.7-2-4.7-0.2-6.5 c0.1-0.1,0.2-0.2,0.2-0.2C19.7,48.1,22.9,48.1,24.8,50z" class="st1" style="stroke:rgb(0, 0, 0);fill:rgb(255, 255, 255);animation-play-state:paused" ></path></g>
<g style="animation-play-state:paused" ><path d="M95.5,59L93.1,60c-1.6,0.6-3.3-0.2-3.9-1.7c0,0,0,0,0,0l-5.4-12.1l4.6-3.8l5.3-4.3l3.4,17.1 C97.8,56.7,97,58.4,95.5,59C95.5,59,95.5,59,95.5,59z" class="st2" style="stroke:rgb(0, 0, 0);fill:rgb(255, 255, 255);animation-play-state:paused" ></path>
<path d="M67.4,24.9L66.1,27c-0.9,1.4-0.5,3.3,0.9,4.2c0,0,0,0,0,0l10.8,7.7l4.6-3.8l5.3-4.3L71.6,24 C70.2,23.1,68.4,23.5,67.4,24.9C67.4,24.9,67.4,24.9,67.4,24.9z" class="st2" style="stroke:rgb(0, 0, 0);fill:rgb(255, 255, 255);animation-play-state:paused" ></path>
<path d="M71.5,64.8l-2.2-8.6c1.2,0.1,30.2-22.9,30.2-22.9c1.9-1.6,2.2-4.4,0.6-6.3c0,0,0,0,0,0l-0.3-0.3 c-1.6-1.9-4.4-2.2-6.3-0.6c0,0,0,0,0,0c0,0-28.2,23.7-28.4,24.8l-8.4-4c-1.2-0.8-2.6-0.7-3.1,0.2l-0.8,1.3c-0.5,0.8,0,2.2,1.2,2.9 l8.6,5.9l4.1,9.6c0.5,1.3,1.7,2.1,2.6,1.7l1.4-0.6C71.7,67.5,72,66.1,71.5,64.8z" class="st2" style="stroke:rgb(0, 0, 0);fill:rgb(255, 255, 255);animation-play-state:paused" ></path></g></g>
<g style="animation-play-state:paused" ><path d="M63.8,97.1c0-10.3-10-18.7-22.4-18.7c-9.3,0-17.4,4.8-20.7,11.5h-2.3c-1.7,0-3,1.3-3,3v7.5c0,1.7,1.4,3,3,3h2 c1.4,3.2,3.8,6,6.9,8.1l-1.5,5.4l10.2,2.7l1.4-5.1c1,0.5,2.4,1,4.1,1.2c3.3,0.4,5.9-0.4,7.1-1l1.3,4.8L60,117l-2-7.4 C61.6,106.3,63.8,101.9,63.8,97.1z" class="st3" style="stroke:rgb(0, 0, 0);fill:rgb(255, 255, 255);animation-play-state:paused" ></path>
<path d="M47.7,85.9c-2-1.1-4-1.6-6.1-1.3c-0.4,0.1-0.8,0.1-1.2,0.2" class="st2" style="stroke:rgb(0, 0, 0);fill:rgb(255, 255, 255);animation-play-state:paused" ></path>
<path d="M32,76.6c-2.7-2.2-6.6-1.8-8.8,0.9l9.7,7.9C35.1,82.7,34.7,78.8,32,76.6z" class="st4" style="stroke:rgb(0, 0, 0);fill:rgb(255, 255, 255);animation-play-state:paused" ></path>
<circle r="2.2" cy="91.4" cx="29" class="st5" style="stroke:rgb(0, 0, 0);animation-play-state:paused" ></circle>
<path d="M64,96.6c1.2-2.1,3.5-3.4,5.8-4.1c1.2-0.4,2.8-0.6,3.7,0.3c0.8,0.7,0.9,2,0.5,3c-0.4,1-1.2,2-2.3,2.1 c-1,0.1-2-0.5-2.5-1.4s-0.6-1.9-0.4-2.9c0.4-2,2.1-3.8,4.1-4.3c0.6-0.2,1.4-0.2,2,0.1" class="st6" style="stroke:rgb(0, 0, 0);animation-play-state:paused" ></path></g>
<path d="z" class="st0" style="animation-play-state:paused" ></path>
<metadata xmlns:d="https://loading.io/stock/" style="animation-play-state:paused" ><d:name style="animation-play-state:paused" >travel</d:name>


<d:tags style="animation-play-state:paused" >travel,blueprint,goal,go on vacation,saving</d:tags>


<d:license style="animation-play-state:paused" >by</d:license>


<d:slug style="animation-play-state:paused" >f6b9sn</d:slug></metadata></g><!-- generated by https://loading.io/ --></svg>