<?xml version="1.0" encoding="utf-8"?><svg xmlns="http://www.w3.org/2000/svg" width="280" height="250" preserveAspectRatio="xMidYMid" xmlns:xlink="http://www.w3.org/1999/xlink" style="margin-right:-2px;display:block;background-repeat-y:initial;background-repeat-x:initial;background-color:rgb(241, 242, 243);animation-play-state:paused" ><style type="text/css" style="animation-play-state:paused" >text {
    text-anchor: middle; font-size: 49px; opacity: 0;
  }</style>


<g style="transform-origin:140px 125px;transform:matrix(0.6125, 0, 0, 0.6125, 0, 0);animation-play-state:paused" ><g transform="translate(140,125)" style="transform:matrix(1, 0, 0, 1, 140, 125);animation-play-state:paused" ><g transform="translate(0,0)" style="transform:matrix(1, 0, 0, 1, 0, 0);animation-play-state:paused" ><g class="path" style="transform-origin:-186.52px -6.78327px;animation-timing-function:linear;animation-play-state:paused;animation-name:static-35dd0d06-2119-4e67-a82b-db56ff3ba2e1;animation-iteration-count:infinite;animation-fill-mode:forwards;animation-duration:1s;animation-delay:-0.6s" ><path d="M8.32-57.84L16.08-57.84L16.08-7.52L45.52-7.52L45.52 0L8.32 0L8.32-57.84" fill="#1d0e0b" stroke="none" stroke-width="none" transform="translate(-213.43997859954834,22.13672645568848)" style="transform:matrix(1, 0, 0, 1, -213.44, 22.1367);fill:rgb(29, 14, 11);animation-play-state:paused" ></path></g>
<g class="path" style="transform-origin:-141.64px 5.29673px;animation-timing-function:linear;animation-play-state:paused;animation-name:static-35dd0d06-2119-4e67-a82b-db56ff3ba2e1;animation-iteration-count:infinite;animation-fill-mode:forwards;animation-duration:1s;animation-delay:-0.54s" ><path d="M83.36-33.12L90.24-33.12L90.24 0L82.80 0L82.80-5.44L82.80-5.44Q81.04-3.12 77.68-1.16L77.68-1.16L77.68-1.16Q74.32 0.80 70.08 0.80L70.08 0.80L70.08 0.80Q65.36 0.80 61.56-1.24L61.56-1.24L61.56-1.24Q57.76-3.28 55.56-7.20L55.56-7.20L55.56-7.20Q53.36-11.12 53.36-16.56L53.36-16.56L53.36-16.56Q53.36-22 55.64-26.04L55.64-26.04L55.64-26.04Q57.92-30.08 61.80-32.28L61.80-32.28L61.80-32.28Q65.68-34.48 70.40-34.48L70.40-34.48L70.40-34.48Q74.64-34.48 77.76-32.64L77.76-32.64L77.76-32.64Q80.88-30.80 82.80-27.84L82.80-27.84L83.36-33.12zM72.08-5.36L72.08-5.36Q76.16-5.36 79.08-7.64L79.08-7.64L79.08-7.64Q82-9.92 82.80-13.84L82.80-13.84L82.80-20.40L82.80-20.40Q81.84-23.92 78.80-26.12L78.80-26.12L78.80-26.12Q75.76-28.32 71.84-28.32L71.84-28.32L71.84-28.32Q68.88-28.32 66.36-26.88L66.36-26.88L66.36-26.88Q63.84-25.44 62.36-22.84L62.36-22.84L62.36-22.84Q60.88-20.24 60.88-16.96L60.88-16.96L60.88-16.96Q60.88-13.76 62.40-11.12L62.40-11.12L62.40-11.12Q63.92-8.48 66.48-6.92L66.48-6.92L66.48-6.92Q69.04-5.36 72.08-5.36L72.08-5.36" fill="#1d0e0b" stroke="none" stroke-width="none" transform="translate(-213.43997859954834,22.13672645568848)" style="transform:matrix(1, 0, 0, 1, -213.44, 22.1367);fill:rgb(29, 14, 11);animation-play-state:paused" ></path></g>
<g class="path" style="transform-origin:-101.8px -1.70327px;animation-timing-function:linear;animation-play-state:paused;animation-name:static-35dd0d06-2119-4e67-a82b-db56ff3ba2e1;animation-iteration-count:infinite;animation-fill-mode:forwards;animation-duration:1s;animation-delay:-0.48s" ><path d="M106.40-47.68L113.92-47.68L113.92-33.04L122.96-33.04L122.96-27.12L113.92-27.12L113.92 0L106.40 0L106.40-27.12L100.32-27.12L100.32-33.04L106.40-33.04L106.40-47.68" fill="#1d0e0b" stroke="none" stroke-width="none" transform="translate(-213.43997859954834,22.13672645568848)" style="transform:matrix(1, 0, 0, 1, -213.44, 22.1367);fill:rgb(29, 14, 11);animation-play-state:paused" ></path></g>
<g class="path" style="transform-origin:-66.72px 5.29673px;animation-timing-function:linear;animation-play-state:paused;animation-name:static-35dd0d06-2119-4e67-a82b-db56ff3ba2e1;animation-iteration-count:infinite;animation-fill-mode:forwards;animation-duration:1s;animation-delay:-0.42s" ><path d="M147.52-5.60L147.52-5.60Q151.68-5.60 155.60-8.48L155.60-8.48L159.04-2.96L159.04-2.96Q156.40-1.20 153.32-0.20L153.32-0.20L153.32-0.20Q150.24 0.80 147.36 0.80L147.36 0.80L147.36 0.80Q141.84 0.80 137.72-1.48L137.72-1.48L137.72-1.48Q133.60-3.76 131.36-7.76L131.36-7.76L131.36-7.76Q129.12-11.76 129.12-16.80L129.12-16.80L129.12-16.80Q129.12-21.68 131.56-25.72L131.56-25.72L131.56-25.72Q134-29.76 138.24-32.12L138.24-32.12L138.24-32.12Q142.48-34.48 147.52-34.48L147.52-34.48L147.52-34.48Q154-34.48 158.36-30.68L158.36-30.68L158.36-30.68Q162.72-26.88 164.32-20.08L164.32-20.08L138.08-10.88L138.08-10.88Q139.52-8.40 141.96-7L141.96-7L141.96-7Q144.40-5.60 147.52-5.60L147.52-5.60zM146.96-28.56L146.96-28.56Q142.40-28.56 139.44-25.36L139.44-25.36L139.44-25.36Q136.48-22.16 136.48-17.20L136.48-17.20L136.48-17.20Q136.48-16 136.56-15.36L136.56-15.36L155.84-22.48L155.84-22.48Q154.64-25.20 152.44-26.88L152.44-26.88L152.44-26.88Q150.24-28.56 146.96-28.56L146.96-28.56" fill="#1d0e0b" stroke="none" stroke-width="none" transform="translate(-213.43997859954834,22.13672645568848)" style="transform:matrix(1, 0, 0, 1, -213.44, 22.1367);fill:rgb(29, 14, 11);animation-play-state:paused" ></path></g>
<g class="path" style="transform-origin:-30.24px 5.33673px;animation-timing-function:linear;animation-play-state:paused;animation-name:static-35dd0d06-2119-4e67-a82b-db56ff3ba2e1;animation-iteration-count:infinite;animation-fill-mode:forwards;animation-duration:1s;animation-delay:-0.36s" ><path d="M182.96 0.72L182.96 0.72Q179.28 0.72 175.96-0.56L175.96-0.56L175.96-0.56Q172.64-1.84 170.56-4.32L170.56-4.32L173.76-8.64L173.76-8.64Q175.76-6.72 177.96-5.68L177.96-5.68L177.96-5.68Q180.16-4.64 182.32-4.64L182.32-4.64L182.32-4.64Q184.96-4.64 186.64-5.68L186.64-5.68L186.64-5.68Q188.32-6.72 188.32-8.88L188.32-8.88L188.32-8.88Q188.32-10.56 187.28-11.60L187.28-11.60L187.28-11.60Q186.24-12.64 184.92-13.12L184.92-13.12L184.92-13.12Q183.60-13.60 180.48-14.56L180.48-14.56L180.48-14.56Q172-17.28 172-24.24L172-24.24L172-24.24Q172-28.40 175.08-31.36L175.08-31.36L175.08-31.36Q178.16-34.32 183.68-34.32L183.68-34.32L183.68-34.32Q187.20-34.32 189.92-33.44L189.92-33.44L189.92-33.44Q192.64-32.56 194.96-30.64L194.96-30.64L192-26.08L192-26.08Q190.72-27.44 188.76-28.24L188.76-28.24L188.76-28.24Q186.80-29.04 185.04-29.12L185.04-29.12L185.04-29.12Q182.80-29.12 181.20-28.04L181.20-28.04L181.20-28.04Q179.60-26.96 179.60-25.12L179.60-25.12L179.60-25.12Q179.60-23.60 180.64-22.60L180.64-22.60L180.64-22.60Q181.68-21.60 182.80-21.16L182.80-21.16L182.80-21.16Q183.92-20.72 187.20-19.68L187.20-19.68L187.20-19.68Q191.28-18.32 193.56-16.16L193.56-16.16L193.56-16.16Q195.84-14 195.84-10.32L195.84-10.32L195.84-10.32Q195.84-5.52 192.48-2.40L192.48-2.40L192.48-2.40Q189.12 0.72 182.96 0.72L182.96 0.72" fill="#1d0e0b" stroke="none" stroke-width="none" transform="translate(-213.43997859954834,22.13672645568848)" style="transform:matrix(1, 0, 0, 1, -213.44, 22.1367);fill:rgb(29, 14, 11);animation-play-state:paused" ></path></g>
<g class="path" style="transform-origin:1.24003px -1.70327px;animation-timing-function:linear;animation-play-state:paused;animation-name:static-35dd0d06-2119-4e67-a82b-db56ff3ba2e1;animation-iteration-count:infinite;animation-fill-mode:forwards;animation-duration:1s;animation-delay:-0.3s" ><path d="M209.44-47.68L216.96-47.68L216.96-33.04L226-33.04L226-27.12L216.96-27.12L216.96 0L209.44 0L209.44-27.12L203.36-27.12L203.36-33.04L209.44-33.04L209.44-47.68" fill="#1d0e0b" stroke="none" stroke-width="none" transform="translate(-213.43997859954834,22.13672645568848)" style="transform:matrix(1, 0, 0, 1, -213.44, 22.1367);fill:rgb(29, 14, 11);animation-play-state:paused" ></path></g>
<g class="path" style="transform-origin:66.52px -6.78327px;animation-timing-function:linear;animation-play-state:paused;animation-name:static-35dd0d06-2119-4e67-a82b-db56ff3ba2e1;animation-iteration-count:infinite;animation-fill-mode:forwards;animation-duration:1s;animation-delay:-0.24s" ><path d="M277.68-57.84L277.68-57.84Q287.12-57.84 292.44-53.12L292.44-53.12L292.44-53.12Q297.76-48.40 297.76-39.92L297.76-39.92L297.76-39.92Q297.76-35.04 295.80-30.80L295.80-30.80L295.80-30.80Q293.84-26.56 289.48-23.92L289.48-23.92L289.48-23.92Q285.12-21.28 278.48-21.28L278.48-21.28L269.92-21.28L269.92 0L262.16 0L262.16-57.84L277.68-57.84zM278.48-28.80L278.48-28.80Q282.64-28.80 285.24-30.56L285.24-30.56L285.24-30.56Q287.84-32.32 288.96-34.84L288.96-34.84L288.96-34.84Q290.08-37.36 290.08-39.76L290.08-39.76L290.08-39.76Q290.08-43.92 287.36-47.16L287.36-47.16L287.36-47.16Q284.64-50.40 278.88-50.40L278.88-50.40L269.92-50.40L269.92-28.80L278.48-28.80" fill="#1d0e0b" stroke="none" stroke-width="none" transform="translate(-213.43997859954834,22.13672645568848)" style="transform:matrix(1, 0, 0, 1, -213.44, 22.1367);fill:rgb(29, 14, 11);animation-play-state:paused" ></path></g>
<g class="path" style="transform-origin:109.84px 5.29673px;animation-timing-function:linear;animation-play-state:paused;animation-name:static-35dd0d06-2119-4e67-a82b-db56ff3ba2e1;animation-iteration-count:infinite;animation-fill-mode:forwards;animation-duration:1s;animation-delay:-0.18s" ><path d="M305.04-16.88L305.04-16.88Q305.04-21.76 307.40-25.80L307.40-25.80L307.40-25.80Q309.76-29.84 313.96-32.16L313.96-32.16L313.96-32.16Q318.16-34.48 323.44-34.48L323.44-34.48L323.44-34.48Q328.72-34.48 332.84-32.16L332.84-32.16L332.84-32.16Q336.96-29.84 339.24-25.84L339.24-25.84L339.24-25.84Q341.52-21.84 341.52-16.88L341.52-16.88L341.52-16.88Q341.52-11.92 339.24-7.88L339.24-7.88L339.24-7.88Q336.96-3.84 332.80-1.52L332.80-1.52L332.80-1.52Q328.64 0.80 323.28 0.80L323.28 0.80L323.28 0.80Q318.08 0.80 313.92-1.40L313.92-1.40L313.92-1.40Q309.76-3.60 307.40-7.60L307.40-7.60L307.40-7.60Q305.04-11.60 305.04-16.88L305.04-16.88zM312.56-16.80L312.56-16.80Q312.56-13.68 313.96-11.04L313.96-11.04L313.96-11.04Q315.36-8.40 317.80-6.88L317.80-6.88L317.80-6.88Q320.24-5.36 323.20-5.36L323.20-5.36L323.20-5.36Q327.84-5.36 330.88-8.64L330.88-8.64L330.88-8.64Q333.92-11.92 333.92-16.80L333.92-16.80L333.92-16.80Q333.92-21.68 330.88-25L330.88-25L330.88-25Q327.84-28.32 323.20-28.32L323.20-28.32L323.20-28.32Q320.16-28.32 317.76-26.76L317.76-26.76L317.76-26.76Q315.36-25.20 313.96-22.56L313.96-22.56L313.96-22.56Q312.56-19.92 312.56-16.80L312.56-16.80" fill="#1d0e0b" stroke="none" stroke-width="none" transform="translate(-213.43997859954834,22.13672645568848)" style="transform:matrix(1, 0, 0, 1, -213.44, 22.1367);fill:rgb(29, 14, 11);animation-play-state:paused" ></path></g>
<g class="path" style="transform-origin:147.68px 5.33673px;animation-timing-function:linear;animation-play-state:paused;animation-name:static-35dd0d06-2119-4e67-a82b-db56ff3ba2e1;animation-iteration-count:infinite;animation-fill-mode:forwards;animation-duration:1s;animation-delay:-0.12s" ><path d="M360.88 0.72L360.88 0.72Q357.20 0.72 353.88-0.56L353.88-0.56L353.88-0.56Q350.56-1.84 348.48-4.32L348.48-4.32L351.68-8.64L351.68-8.64Q353.68-6.72 355.88-5.68L355.88-5.68L355.88-5.68Q358.08-4.64 360.24-4.64L360.24-4.64L360.24-4.64Q362.88-4.64 364.56-5.68L364.56-5.68L364.56-5.68Q366.24-6.72 366.24-8.88L366.24-8.88L366.24-8.88Q366.24-10.56 365.20-11.60L365.20-11.60L365.20-11.60Q364.16-12.64 362.84-13.12L362.84-13.12L362.84-13.12Q361.52-13.60 358.40-14.56L358.40-14.56L358.40-14.56Q349.92-17.28 349.92-24.24L349.92-24.24L349.92-24.24Q349.92-28.40 353-31.36L353-31.36L353-31.36Q356.08-34.32 361.60-34.32L361.60-34.32L361.60-34.32Q365.12-34.32 367.84-33.44L367.84-33.44L367.84-33.44Q370.56-32.56 372.88-30.64L372.88-30.64L369.92-26.08L369.92-26.08Q368.64-27.44 366.68-28.24L366.68-28.24L366.68-28.24Q364.72-29.04 362.96-29.12L362.96-29.12L362.96-29.12Q360.72-29.12 359.12-28.04L359.12-28.04L359.12-28.04Q357.52-26.96 357.52-25.12L357.52-25.12L357.52-25.12Q357.52-23.60 358.56-22.60L358.56-22.60L358.56-22.60Q359.60-21.60 360.72-21.16L360.72-21.16L360.72-21.16Q361.84-20.72 365.12-19.68L365.12-19.68L365.12-19.68Q369.20-18.32 371.48-16.16L371.48-16.16L371.48-16.16Q373.76-14 373.76-10.32L373.76-10.32L373.76-10.32Q373.76-5.52 370.40-2.40L370.40-2.40L370.40-2.40Q367.04 0.72 360.88 0.72L360.88 0.72" fill="#1d0e0b" stroke="none" stroke-width="none" transform="translate(-213.43997859954834,22.13672645568848)" style="transform:matrix(1, 0, 0, 1, -213.44, 22.1367);fill:rgb(29, 14, 11);animation-play-state:paused" ></path></g>
<g class="path" style="transform-origin:179.16px -1.70327px;animation-timing-function:linear;animation-play-state:paused;animation-name:static-35dd0d06-2119-4e67-a82b-db56ff3ba2e1;animation-iteration-count:infinite;animation-fill-mode:forwards;animation-duration:1s;animation-delay:-0.06s" ><path d="M387.36-47.68L394.88-47.68L394.88-33.04L403.92-33.04L403.92-27.12L394.88-27.12L394.88 0L387.36 0L387.36-27.12L381.28-27.12L381.28-33.04L387.36-33.04L387.36-47.68" fill="#1d0e0b" stroke="none" stroke-width="none" transform="translate(-213.43997859954834,22.13672645568848)" style="transform:matrix(1, 0, 0, 1, -213.44, 22.1367);fill:rgb(29, 14, 11);animation-play-state:paused" ></path></g>
<g class="path" style="transform-origin:209.12px 5.33673px;animation-timing-function:linear;animation-play-state:paused;animation-name:static-35dd0d06-2119-4e67-a82b-db56ff3ba2e1;animation-iteration-count:infinite;animation-fill-mode:forwards;animation-duration:1s" ><path d="M422.32 0.72L422.32 0.72Q418.64 0.72 415.32-0.56L415.32-0.56L415.32-0.56Q412-1.84 409.92-4.32L409.92-4.32L413.12-8.64L413.12-8.64Q415.12-6.72 417.32-5.68L417.32-5.68L417.32-5.68Q419.52-4.64 421.68-4.64L421.68-4.64L421.68-4.64Q424.32-4.64 426-5.68L426-5.68L426-5.68Q427.68-6.72 427.68-8.88L427.68-8.88L427.68-8.88Q427.68-10.56 426.64-11.60L426.64-11.60L426.64-11.60Q425.60-12.64 424.28-13.12L424.28-13.12L424.28-13.12Q422.96-13.60 419.84-14.56L419.84-14.56L419.84-14.56Q411.36-17.28 411.36-24.24L411.36-24.24L411.36-24.24Q411.36-28.40 414.44-31.36L414.44-31.36L414.44-31.36Q417.52-34.32 423.04-34.32L423.04-34.32L423.04-34.32Q426.56-34.32 429.28-33.44L429.28-33.44L429.28-33.44Q432-32.56 434.32-30.64L434.32-30.64L431.36-26.08L431.36-26.08Q430.08-27.44 428.12-28.24L428.12-28.24L428.12-28.24Q426.16-29.04 424.40-29.12L424.40-29.12L424.40-29.12Q422.16-29.12 420.56-28.04L420.56-28.04L420.56-28.04Q418.96-26.96 418.96-25.12L418.96-25.12L418.96-25.12Q418.96-23.60 420-22.60L420-22.60L420-22.60Q421.04-21.60 422.16-21.16L422.16-21.16L422.16-21.16Q423.28-20.72 426.56-19.68L426.56-19.68L426.56-19.68Q430.64-18.32 432.92-16.16L432.92-16.16L432.92-16.16Q435.20-14 435.20-10.32L435.20-10.32L435.20-10.32Q435.20-5.52 431.84-2.40L431.84-2.40L431.84-2.40Q428.48 0.72 422.32 0.72L422.32 0.72" fill="#1d0e0b" stroke="none" stroke-width="none" transform="translate(-213.43997859954834,22.13672645568848)" style="transform:matrix(1, 0, 0, 1, -213.44, 22.1367);fill:rgb(29, 14, 11);animation-play-state:paused" ></path></g></g></g></g></svg>