<?xml version="1.0" encoding="utf-8"?><svg xmlns="http://www.w3.org/2000/svg" width="280" height="250" preserveAspectRatio="xMidYMid" xmlns:xlink="http://www.w3.org/1999/xlink" style="margin-right:-2px;display:block;background-repeat-y:initial;background-repeat-x:initial;animation-play-state:paused" ><style type="text/css" style="animation-play-state:paused" >text {
    text-anchor: middle; font-size: 55px; opacity: 0;
  }</style>


<g class="path"  >
<path 
d="M92.9,46.9c0-3.5,1.7-19.3,4.2-16.8c3.3,3.4,5.7-19,6-14.3c0.4,8.3,19-9.2,21.5-1.3
c1.3,4.3,14.2,13.5,18.6,13.9c5.9,0.5-34.2,11.9-28.6,9.9c4.5-1.6-12.3,10.1-7.6,11.1c5.2,1.1,10.7,14.9,10.3,20.2
c-0.6,5.8-38.5-26.4-35.5-21.5c3,4.8-7.4,9.3-20.8,5.2c-25-7.5-37.6-18.1-37.4-13.5c0.4,6.6-11.5,1.3-11.4,7.9
c0.1,3.3,26.3,9.9,14.5,14c-0.4,0.1-20.1,2.5-19.7,2.4c3.1-1,9,5.2,16.4,15.1c7.8,10.5-11.8,3-2.3,18.1c5.2,8.2,16.2-4.9,21.1,2.9
c3.7,5.8-7.4,10.3-4.2,15.3c8.6,13,20.1,0.3,23.5,1.4c11.9,3.9-14.3,11.5-5.2,20.2c24.9,23.6,11.3-16.3,20.6-0.2
c1.1,2-2.1,10.3,4.5,17.7c4.8,5.4,16.6-9.4,23.1-2.3c3.8,4.1-0.1,21.1,4,25.4c4.7,5-4.3,17.5,0.5,22.6c4.5,4.7,20.4-10.1,24.7-5.6
c7.1,7.3,24.7,6.3,30.9,12.5c3.7,3.7-1,26.4,2.2,29.4c7.9,7.7-32.4,1-30.7,1.8c6.2,2.9-9.1,6.3,0,12.3c9.8,6.4,12.5-4.7,22.9,1.8
c5.7,3.6,19-7.5,24.2-4.7c5.8,3.1-2.3,19.7,2.2,21.1c0.6,0.2,7.6-1.8,14.3,3.1c8.7,6.4,8,4.4,21.5,11.2
c12.4,6.2,12.5,19.2,23.7,18.8c2-0.1,10.9-3.6,16.6-2.6c7,1.2,14.7,4.1,15.3,6.4c3.9,15,15.9,20.3,37.6,26.9
c8,2.4,12.1,11.6,25.1,12c5.9,0.2-1.9,31.6-0.6,31.8c5.6,0.9,10.1,0.6,11.6-0.9c2.6-2.7,2,27.1,7.7,24.1c8.1-1.1,12.5,3.2,15.6,11.2
c9.5,23.7,25.6,15.3,33.8,3.8c8.5-11.1,23.6,11.2,33,17.9c1.7,0.5,23.8,18.1,23.3,10.2c0.4-0.1-2.8-9.5,1.6-10.9
c1.4-0.4,6.2-8.6,8.1-9.1c3.9-1.1,9.6-11,17.3-12.2c15.9-2.4,5-18.4,12.7-14.9c16.4,7.6,31.2,12.9,25.4,19.5
c-6.9,7.7-3.3-0.4-18.4,10.3c-8.6,6.1-10.9,17.3-6.5,22.2c3.1,3.5,4.8-12.9,20.6-15.2c11.8-1.7,31.4,2.1,35.5,3.5
c9.4,3.2,21.2,17,17.9,23.5c-5,9.9-31.7-15.1-39-3c-4.3,7.2-13.1,16.9-12.5,18.1c8.4,15.8,23.8-0.2,24.9,7.7
c1.5,10.5-36.2,17.2-37.2,34.4c-0.6,9.3,11.1,10.6,16.1,29.8c1.4,5.5,3.8,14.5,3.1,26.5c-0.9,15.3-5.9,21.5-1.2,26
c4.4,4.3,10.6,0.4,22.3,4.9c1.7,0.6,14.2,5.5,16.1,13c2,7.6-8.7,20.7-22.3,26c-17.7,6.9-26.3-4.7-49.4,0c-3.7,0.8-27.8,5.7-30.9,20
c-1.8,8.5,3.8,19.8,12.8,24.9c20.3,11.5,43.8-14.8,64.9-3.8c6.3,3.3,13.1,10.4,11,16.8c-1.8,5.4-9.3,7.9-7.6,10.8
c2,3.4,11,4.8,16.9,5.4c10.1,1,12.3-0.4,21.1,0c11.6,0.5,20.9,0.9,26.8,7.5c4.2,4.8,6.7,13.1,4.1,19.3c-2.6,6-8.5,6.4-11.4,14.4
c-1.7,4.7,0,5.7-1.6,8.2c-4.9,7.7-20.9-0.5-28.2,6.5c-6.6,6.4,3.8,16.1-1.6,33.6c-4.1,13.1-13.9,20-10.4,27.7c1,2.1,1.9,1.3,4.7,5.4
c5.3,7.6,5.1,15.3,17.1,33.2c2.2,3.3,6.4,9.2,12.5,16.2c17.4,19.9,26.6,21.1,35.8,36.1c4.6,7.4,9.9,16.1,6.2,24.9
c-4,9.6-15.1,10.3-24.9,18.7c-14.3,12.3-5.9,24-12.5,47.3c-5.2,18.4-13.7,22.7-27.1,40.3c-11.1,14.6-18.6,21.6-16.5,25.6
c3.8,7,29.8-8.3,42.4,2.4c13.5,11.4,1.6,43.7,7.3,45.5c6.3,1.9,17-38.8,35.7-39.8c7.5-0.4,9.5,5.9,28.4,24.4
c24.9,24.3,47.7,39.1,47.1,52.1c-0.1,1.4-0.2,7.2,0.3,15.3c0.1,2.3,0.5,5,1.3,8.4c3.9,17.1,11.2,21.7,9.1,30.9"
fill="#000000" stroke="none" stroke-width="none" 
 ></path></g>

</svg>