<?xml version="1.0" encoding="utf-8"?><svg xmlns="http://www.w3.org/2000/svg" width="280" height="250" preserveAspectRatio="xMidYMid" xmlns:xlink="http://www.w3.org/1999/xlink" style="margin-right:-2px;display:block;background-repeat-y:initial;background-repeat-x:initial;animation-play-state:paused" ><style type="text/css" style="animation-play-state:paused" >text {
    text-anchor: middle; font-size: 55px; opacity: 0;
  }</style>


<g style="transform-origin:140px 125px;transform:matrix(1, 0, 0, 1, 0, 0);animation-play-state:paused" ><g transform="translate(140,125)" style="transform:matrix(1, 0, 0, 1, 140, 125);animation-play-state:paused" ><g transform="translate(0,0)" style="transform:matrix(1, 0, 0, 1, 0, 0);animation-play-state:paused" ><g class="path" style="transform-origin:-52.34px -3.78994px;animation-timing-function:linear;animation-play-state:paused;animation-name:static-eade93b5-5d5f-45d3-8b31-e618861b01d6;animation-iteration-count:infinite;animation-fill-mode:forwards;animation-duration:1s;animation-delay:-0.55s" ><path d="M3.12-33.03L3.12-33.03L3.12-33.03Q2.63-32.66 2.23-32.79L2.23-32.79L2.23-32.79Q1.83-32.92 1.61-33.27L1.61-33.27L1.61-33.27Q1.40-33.62 1.29-34.08L1.29-34.08L1.29-34.08Q1.18-34.54 1.18-34.91L1.18-34.91L1.18-34.91Q1.18-35.18 1.50-35.91L1.50-35.91L1.50-35.91Q1.83-36.63 2.26-37.38L2.26-37.38L2.26-37.38Q2.69-38.13 3.09-38.73L3.09-38.73L3.09-38.73Q3.49-39.32 3.60-39.32L3.60-39.32L3.60-39.32Q5.80-39.32 8.14-38.91L8.14-38.91L8.14-38.91Q10.47-38.51 12.73-37.73L12.73-37.73L12.73-37.73Q14.99-36.95 16.97-35.72L16.97-35.72L16.97-35.72Q18.96-34.48 20.46-32.79L20.46-32.79L20.46-32.79Q21.97-31.10 22.83-28.92L22.83-28.92L22.83-28.92Q23.69-26.75 23.69-24.06L23.69-24.06L23.69-24.06Q23.69-21.54 22.53-18.99L22.53-18.99L22.53-18.99Q21.38-16.44 19.44-14.37L19.44-14.37L19.44-14.37Q17.51-12.30 15.04-10.98L15.04-10.98L15.04-10.98Q12.57-9.67 9.94-9.67L9.94-9.67L9.94-12.14L9.94-12.14Q12.14-12.14 14.29-13.24L14.29-13.24L14.29-13.24Q16.44-14.34 18.10-16.09L18.10-16.09L18.10-16.09Q19.77-17.83 20.81-20.01L20.81-20.01L20.81-20.01Q21.86-22.18 21.86-24.33L21.86-24.33L21.86-24.33Q21.86-26.59 20.71-28.71L20.71-28.71L20.71-28.71Q19.55-30.83 17.75-32.50L17.75-32.50L17.75-32.50Q15.95-34.16 13.75-35.18L13.75-35.18L13.75-35.18Q11.55-36.20 9.40-36.20L9.40-36.20L9.40-36.20Q8.27-36.20 7.41-36.12L7.41-36.12L7.41-36.12Q6.55-36.04 5.59-35.50L5.59-35.50L5.59-34.64L5.59-34.64Q5.59-34.11 5.56-33.46L5.56-33.46L5.56-33.46Q5.53-32.82 5.53-32.23L5.53-32.23L5.53-31.42L5.53-31.42Q5.53-28.47 5.61-25.75L5.61-25.75L5.61-25.75Q5.69-23.04 5.85-20.33L5.85-20.33L5.85-20.33Q6.02-17.62 6.26-14.77L6.26-14.77L6.26-14.77Q6.50-11.92 6.82-8.70L6.82-8.70L6.82-8.70Q6.82-8.43 7.01-7.44L7.01-7.44L7.01-7.44Q7.20-6.45 7.41-5.29L7.41-5.29L7.41-5.29Q7.63-4.14 7.81-3.14L7.81-3.14L7.81-3.14Q8.00-2.15 8.06-1.88L8.06-1.88L8.06-1.88Q8.06-1.83 8.08-1.72L8.08-1.72L8.08-1.72Q8.11-1.61 8.11-1.56L8.11-1.56L8.11-1.56Q8.11-1.50 8.08-1.45L8.08-1.45L8.08-1.45Q8.06-1.40 8.06-1.34L8.06-1.34L8.06-1.24L8.06-1.24Q8.00-1.18 7.84-0.99L7.84-0.99L7.84-0.99Q7.68-0.81 7.49-0.59L7.49-0.59L7.49-0.59Q7.30-0.38 7.12-0.21L7.12-0.21L7.12-0.21Q6.93-0.05 6.82 0L6.82 0L6.23-0.64L6.23-0.64Q6.12-0.70 5.96-1.50L5.96-1.50L5.96-1.50Q5.80-2.31 5.59-3.41L5.59-3.41L5.59-3.41Q5.37-4.51 5.18-5.64L5.18-5.64L5.18-5.64Q5.00-6.77 4.94-7.47L4.94-7.47L4.94-7.47Q4.83-8.43 4.70-10.42L4.70-10.42L4.70-10.42Q4.57-12.41 4.35-14.93L4.35-14.93L4.35-14.93Q4.14-17.46 3.95-20.22L3.95-20.22L3.95-20.22Q3.76-22.99 3.60-25.51L3.60-25.51L3.60-25.51Q3.44-28.04 3.30-30.05L3.30-30.05L3.30-30.05Q3.17-32.07 3.12-33.03" fill="#000000" stroke="none" stroke-width="none" transform="translate(-64.7750244140625,15.87005397796631)" style="transform:matrix(1, 0, 0, 1, -64.775, 15.8701);animation-play-state:paused" ></path></g>
<g class="path" style="transform-origin:-27.63px -4.96994px;animation-timing-function:linear;animation-play-state:paused;animation-name:static-eade93b5-5d5f-45d3-8b31-e618861b01d6;animation-iteration-count:infinite;animation-fill-mode:forwards;animation-duration:1s;animation-delay:-0.44s" ><path d="M29.54 0L25.41-41.36L27.71-41.73L30.19-12.46L30.19-12.46Q30.56-14.29 31.31-16.44L31.31-16.44L31.31-16.44Q32.07-18.58 33.33-20.36L33.33-20.36L33.33-20.36Q34.59-22.13 36.44-23.12L36.44-23.12L36.44-23.12Q38.30-24.12 40.77-23.63L40.77-23.63L40.77-23.63Q42.49-23.36 43.75-22.32L43.75-22.32L43.75-22.32Q45.01-21.27 45.92-19.77L45.92-19.77L45.92-19.77Q46.84-18.26 47.40-16.46L47.40-16.46L47.40-16.46Q47.96-14.66 48.29-12.81L48.29-12.81L48.29-12.81Q48.61-10.96 48.74-9.24L48.74-9.24L48.74-9.24Q48.88-7.52 48.88-6.23L48.88-6.23L48.88-6.23Q48.88-5.10 48.69-4.70L48.69-4.70L48.69-4.70Q48.50-4.30 47.70-4.30L47.70-4.30L47.70-4.30Q47.32-4.30 46.94-4.38L46.94-4.38L46.94-4.38Q46.57-4.46 46.41-5.00L46.41-5.00L46.41-5.00Q46.51-6.02 46.51-7.68L46.51-7.68L46.51-7.68Q46.51-9.35 46.33-11.12L46.33-11.12L46.33-11.12Q46.14-12.89 45.71-14.69L45.71-14.69L45.71-14.69Q45.28-16.49 44.50-17.94L44.50-17.94L44.50-17.94Q43.72-19.39 42.49-20.28L42.49-20.28L42.49-20.28Q41.25-21.16 39.53-21.16L39.53-21.16L39.53-21.16Q37.76-21.16 36.44-20.38L36.44-20.38L36.44-20.38Q35.13-19.60 34.24-18.37L34.24-18.37L34.24-18.37Q33.35-17.13 32.82-15.60L32.82-15.60L32.82-15.60Q32.28-14.07 32.07-12.46L32.07-12.46L32.07-12.46Q32.07-12.03 31.98-11.09L31.98-11.09L31.98-11.09Q31.90-10.15 31.80-9.00L31.80-9.00L31.80-9.00Q31.69-7.84 31.64-6.53L31.64-6.53L31.64-6.53Q31.58-5.21 31.53-4.06L31.53-4.06L31.53-4.06Q31.47-2.90 31.45-1.99L31.45-1.99L31.45-1.99Q31.42-1.07 31.42-0.64L31.42-0.64L31.42-0.64Q31.26-0.11 30.94-0.03L30.94-0.03L30.94-0.03Q30.62 0.05 30.19 0.05L30.19 0.05L30.19 0.05Q30.13 0.05 29.89 0.03L29.89 0.03L29.89 0.03Q29.65 0 29.54 0L29.54 0" fill="#000000" stroke="none" stroke-width="none" transform="translate(-64.7750244140625,15.87005397796631)" style="transform:matrix(1, 0, 0, 1, -64.775, 15.8701);animation-play-state:paused" ></path></g>
<g class="path" style="transform-origin:-6.85002px 2.49506px;animation-timing-function:linear;animation-play-state:paused;animation-name:static-eade93b5-5d5f-45d3-8b31-e618861b01d6;animation-iteration-count:infinite;animation-fill-mode:forwards;animation-duration:1s;animation-delay:-0.33s" ><path d="M50.38-8.11L50.38-8.11L50.38-8.11Q50.38-9.18 50.41-10.98L50.41-10.98L50.41-10.98Q50.43-12.78 50.65-14.85L50.65-14.85L50.65-14.85Q50.86-16.92 51.29-19.07L51.29-19.07L51.29-19.07Q51.72-21.22 52.53-22.93L52.53-22.93L52.53-22.93Q53.33-24.65 54.57-25.73L54.57-25.73L54.57-25.73Q55.81-26.80 57.63-26.80L57.63-26.80L57.63-26.80Q60.16-26.80 61.69-25.41L61.69-25.41L61.69-25.41Q63.22-24.01 64.05-21.94L64.05-21.94L64.05-21.94Q64.88-19.87 65.18-17.54L65.18-17.54L65.18-17.54Q65.47-15.20 65.47-13.32L65.47-13.32L65.47-13.32Q65.47-11.28 64.88-8.92L64.88-8.92L64.88-8.92Q64.29-6.55 63.06-4.57L63.06-4.57L63.06-4.57Q61.82-2.58 59.97-1.26L59.97-1.26L59.97-1.26Q58.12 0.05 55.54 0.05L55.54 0.05L55.54 0.05Q53.87 0.05 52.85-0.73L52.85-0.73L52.85-0.73Q51.83-1.50 51.32-2.69L51.32-2.69L51.32-2.69Q50.81-3.87 50.60-5.32L50.60-5.32L50.60-5.32Q50.38-6.77 50.38-8.11zM52.21-8.75L52.21-8.75L52.21-8.75Q52.21-7.73 52.26-6.63L52.26-6.63L52.26-6.63Q52.31-5.53 52.58-4.57L52.58-4.57L52.58-4.57Q52.85-3.60 53.55-3.01L53.55-3.01L53.55-3.01Q54.25-2.42 55.59-2.42L55.59-2.42L55.59-2.42Q57.95-2.42 59.48-3.49L59.48-3.49L59.48-3.49Q61.02-4.57 61.93-6.26L61.93-6.26L61.93-6.26Q62.84-7.95 63.19-9.99L63.19-9.99L63.19-9.99Q63.54-12.03 63.54-13.91L63.54-13.91L63.54-13.91Q63.54-15.09 63.35-16.97L63.35-16.97L63.35-16.97Q63.16-18.85 62.57-20.63L62.57-20.63L62.57-20.63Q61.98-22.40 60.85-23.66L60.85-23.66L60.85-23.66Q59.73-24.92 57.90-24.92L57.90-24.92L57.90-24.92Q56.61-24.92 55.67-23.90L55.67-23.90L55.67-23.90Q54.73-22.88 54.09-21.27L54.09-21.27L54.09-21.27Q53.44-19.66 53.09-17.72L53.09-17.72L53.09-17.72Q52.74-15.79 52.53-14.02L52.53-14.02L52.53-14.02Q52.31-12.25 52.26-10.80L52.26-10.80L52.26-10.80Q52.21-9.35 52.21-8.75" fill="#000000" stroke="none" stroke-width="none" transform="translate(-64.7750244140625,15.87005397796631)" style="transform:matrix(1, 0, 0, 1, -64.775, 15.8701);animation-play-state:paused" ></path></g>
<g class="path" style="transform-origin:17.4053px -2.20494px;animation-timing-function:linear;animation-play-state:paused;animation-name:static-eade93b5-5d5f-45d3-8b31-e618861b01d6;animation-iteration-count:infinite;animation-fill-mode:forwards;animation-duration:1s;animation-delay:-0.22s" ><path d="M79.06-16.81L78.15-16.81L78.15-16.81Q76.97-16.81 75.79-16.49L75.79-16.49L75.79-16.49Q74.60-16.17 73.45-15.82L73.45-15.82L73.45-15.82Q72.29-15.47 71.14-15.17L71.14-15.17L71.14-15.17Q69.99-14.88 68.75-14.88L68.75-14.88L68.75-14.88Q68.05-14.88 67.62-15.15L67.62-15.15L67.62-15.15Q67.19-15.42 67.19-16.22L67.19-16.22L67.19-16.22Q67.19-16.87 67.54-17.11L67.54-17.11L67.54-17.11Q67.89-17.35 68.40-17.38L68.40-17.38L68.40-17.38Q68.91-17.40 69.48-17.35L69.48-17.35L69.48-17.35Q70.04-17.29 70.36-17.40L70.36-17.40L70.36-17.40Q70.79-17.51 71.95-17.78L71.95-17.78L71.95-17.78Q73.10-18.05 74.39-18.32L74.39-18.32L74.39-18.32Q75.68-18.58 76.83-18.85L76.83-18.85L76.83-18.85Q77.99-19.12 78.42-19.28L78.42-19.28L78.42-19.28Q78.42-19.44 78.44-19.85L78.44-19.85L78.44-19.85Q78.47-20.25 78.50-20.71L78.50-20.71L78.50-20.71Q78.53-21.16 78.53-21.54L78.53-21.54L78.53-22.13L78.53-22.13Q78.53-23.74 78.31-25.27L78.31-25.27L78.31-25.27Q78.10-26.80 77.85-28.36L77.85-28.36L77.85-28.36Q77.61-29.92 77.40-31.47L77.40-31.47L77.40-31.47Q77.18-33.03 77.18-34.59L77.18-34.59L77.18-34.59Q77.18-35.13 77.32-35.64L77.32-35.64L77.32-35.64Q77.45-36.15 78.15-36.15L78.15-36.15L78.15-36.15Q78.42-36.15 78.71-36.01L78.71-36.01L78.71-36.01Q79.01-35.88 79.06-35.50L79.06-35.50L80.94-19.98L80.94-19.98Q81.00-19.93 81.05-19.93L81.05-19.93L81.21-19.93L81.21-19.93Q81.75-19.93 82.88-20.20L82.88-20.20L82.88-20.20Q84.00-20.46 85.40-20.84L85.40-20.84L85.40-20.84Q86.80-21.22 88.38-21.65L88.38-21.65L88.38-21.65Q89.97-22.08 91.42-22.42L91.42-22.42L91.42-22.42Q92.87-22.77 94.05-22.96L94.05-22.96L94.05-22.96Q95.23-23.15 95.87-22.99L95.87-22.99L95.87-22.99Q96.09-22.93 96.57-22.48L96.57-22.48L96.57-22.48Q97.06-22.02 97.16-21.81L97.16-21.81L97.16-21.81Q97.27-21.27 96.25-20.76L96.25-20.76L96.25-20.76Q95.23-20.25 93.59-19.79L93.59-19.79L93.59-19.79Q91.95-19.34 89.97-18.96L89.97-18.96L89.97-18.96Q87.98-18.58 86.18-18.29L86.18-18.29L86.18-18.29Q84.38-17.99 83.09-17.75L83.09-17.75L83.09-17.75Q81.80-17.51 81.53-17.40L81.53-17.40L81.53-16.33L81.53-16.33Q81.53-15.63 81.51-14.80L81.51-14.80L81.51-14.80Q81.48-13.96 81.48-13.21L81.48-13.21L81.48-12.14L81.48-12.14Q81.48-9.40 81.86-6.79L81.86-6.79L81.86-6.79Q82.23-4.19 82.23-1.56L82.23-1.56L82.23-1.56Q82.23-1.18 82.02-0.94L82.02-0.94L82.02-0.94Q81.80-0.70 81.48-0.51L81.48-0.51L81.48-0.51Q81.16-0.32 80.83-0.19L80.83-0.19L80.83-0.19Q80.51-0.05 80.35 0L80.35 0L80.35 0Q79.92-2.31 79.73-4.22L79.73-4.22L79.73-4.22Q79.55-6.12 79.47-8.00L79.47-8.00L79.47-8.00Q79.38-9.88 79.30-12.00L79.30-12.00L79.30-12.00Q79.22-14.13 79.06-16.81L79.06-16.81" fill="#000000" stroke="none" stroke-width="none" transform="translate(-64.7750244140625,15.87005397796631)" style="transform:matrix(1, 0, 0, 1, -64.775, 15.8701);animation-play-state:paused" ></path></g>
<g class="path" style="transform-origin:36.66px 2.49506px;animation-timing-function:linear;animation-play-state:paused;animation-name:static-eade93b5-5d5f-45d3-8b31-e618861b01d6;animation-iteration-count:infinite;animation-fill-mode:forwards;animation-duration:1s;animation-delay:-0.11s" ><path d="M93.89-8.11L93.89-8.11L93.89-8.11Q93.89-9.18 93.91-10.98L93.91-10.98L93.91-10.98Q93.94-12.78 94.16-14.85L94.16-14.85L94.16-14.85Q94.37-16.92 94.80-19.07L94.80-19.07L94.80-19.07Q95.23-21.22 96.04-22.93L96.04-22.93L96.04-22.93Q96.84-24.65 98.08-25.73L98.08-25.73L98.08-25.73Q99.31-26.80 101.14-26.80L101.14-26.80L101.14-26.80Q103.66-26.80 105.19-25.41L105.19-25.41L105.19-25.41Q106.72-24.01 107.56-21.94L107.56-21.94L107.56-21.94Q108.39-19.87 108.68-17.54L108.68-17.54L108.68-17.54Q108.98-15.20 108.98-13.32L108.98-13.32L108.98-13.32Q108.98-11.28 108.39-8.92L108.39-8.92L108.39-8.92Q107.80-6.55 106.56-4.57L106.56-4.57L106.56-4.57Q105.33-2.58 103.47-1.26L103.47-1.26L103.47-1.26Q101.62 0.05 99.04 0.05L99.04 0.05L99.04 0.05Q97.38 0.05 96.36-0.73L96.36-0.73L96.36-0.73Q95.34-1.50 94.83-2.69L94.83-2.69L94.83-2.69Q94.32-3.87 94.10-5.32L94.10-5.32L94.10-5.32Q93.89-6.77 93.89-8.11zM95.71-8.75L95.71-8.75L95.71-8.75Q95.71-7.73 95.77-6.63L95.77-6.63L95.77-6.63Q95.82-5.53 96.09-4.57L96.09-4.57L96.09-4.57Q96.36-3.60 97.06-3.01L97.06-3.01L97.06-3.01Q97.75-2.42 99.10-2.42L99.10-2.42L99.10-2.42Q101.46-2.42 102.99-3.49L102.99-3.49L102.99-3.49Q104.52-4.57 105.43-6.26L105.43-6.26L105.43-6.26Q106.35-7.95 106.70-9.99L106.70-9.99L106.70-9.99Q107.05-12.03 107.05-13.91L107.05-13.91L107.05-13.91Q107.05-15.09 106.86-16.97L106.86-16.97L106.86-16.97Q106.67-18.85 106.08-20.63L106.08-20.63L106.08-20.63Q105.49-22.40 104.36-23.66L104.36-23.66L104.36-23.66Q103.23-24.92 101.41-24.92L101.41-24.92L101.41-24.92Q100.12-24.92 99.18-23.90L99.18-23.90L99.18-23.90Q98.24-22.88 97.59-21.27L97.59-21.27L97.59-21.27Q96.95-19.66 96.60-17.72L96.60-17.72L96.60-17.72Q96.25-15.79 96.04-14.02L96.04-14.02L96.04-14.02Q95.82-12.25 95.77-10.80L95.77-10.80L95.77-10.80Q95.71-9.35 95.71-8.75" fill="#000000" stroke="none" stroke-width="none" transform="translate(-64.7750244140625,15.87005397796631)" style="transform:matrix(1, 0, 0, 1, -64.775, 15.8701);animation-play-state:paused" ></path></g>
<g class="path" style="transform-origin:56.235px -0.324944px;animation-timing-function:linear;animation-play-state:paused;animation-name:static-eade93b5-5d5f-45d3-8b31-e618861b01d6;animation-iteration-count:infinite;animation-fill-mode:forwards;animation-duration:1s" ><path d="M113.81-1.83L113.81-1.83L113.81-1.83Q113.81-2.47 113.92-2.93L113.92-2.93L113.92-2.93Q114.03-3.38 114.27-3.57L114.27-3.57L114.27-3.57Q114.51-3.76 114.86-3.57L114.86-3.57L114.86-3.57Q115.21-3.38 115.75-2.69L115.75-2.69L115.75-2.69Q116.71-2.69 118.00-2.79L118.00-2.79L118.00-2.79Q119.29-2.90 120.69-3.17L120.69-3.17L120.69-3.17Q122.08-3.44 123.45-3.87L123.45-3.87L123.45-3.87Q124.82-4.30 125.87-5.02L125.87-5.02L125.87-5.02Q126.92-5.75 127.56-6.74L127.56-6.74L127.56-6.74Q128.21-7.73 128.21-9.08L128.21-9.08L128.21-9.08Q128.21-10.42 126.97-11.06L126.97-11.06L126.97-11.06Q125.74-11.71 123.83-12.06L123.83-12.06L123.83-12.06Q121.92-12.41 119.75-12.76L119.75-12.76L119.75-12.76Q117.57-13.11 115.69-13.83L115.69-13.83L115.69-13.83Q113.81-14.56 112.55-15.93L112.55-15.93L112.55-15.93Q111.29-17.29 111.29-19.77L111.29-19.77L111.29-19.77Q111.29-21.48 111.88-22.67L111.88-22.67L111.88-22.67Q112.47-23.85 113.87-24.87L113.87-24.87L113.87-24.87Q114.46-25.35 115.96-26.40L115.96-26.40L115.96-26.40Q117.47-27.45 119.16-28.65L119.16-28.65L119.16-28.65Q120.85-29.86 122.35-30.91L122.35-30.91L122.35-30.91Q123.86-31.96 124.45-32.39L124.45-32.39L124.45-32.39Q124.56-32.39 124.74-32.41L124.74-32.41L124.74-32.41Q124.93-32.44 125.04-32.44L125.04-32.44L125.04-32.44Q126.38-32.44 126.38-31.15L126.38-31.15L126.38-31.15Q126.38-30.56 125.42-29.89L125.42-29.89L125.42-29.89Q124.45-29.22 122.97-28.41L122.97-28.41L122.97-28.41Q121.49-27.61 119.80-26.69L119.80-26.69L119.80-26.69Q118.11-25.78 116.63-24.68L116.63-24.68L116.63-24.68Q115.16-23.58 114.19-22.32L114.19-22.32L114.19-22.32Q113.22-21.05 113.22-19.60L113.22-19.60L113.22-19.60Q113.22-18.05 114.00-17.35L114.00-17.35L114.00-17.35Q114.78-16.65 116.34-16.17L116.34-16.17L116.34-16.17Q116.98-16.01 118.57-15.55L118.57-15.55L118.57-15.55Q120.15-15.09 121.95-14.58L121.95-14.58L121.95-14.58Q123.75-14.07 125.33-13.64L125.33-13.64L125.33-13.64Q126.92-13.21 127.56-13.05L127.56-13.05L127.56-13.05Q128.96-12.30 129.85-11.41L129.85-11.41L129.85-11.41Q130.73-10.53 130.73-8.97L130.73-8.97L130.73-8.97Q130.73-7.47 129.95-6.23L129.95-6.23L129.95-6.23Q129.17-5.00 127.91-4.00L127.91-4.00L127.91-4.00Q126.65-3.01 125.01-2.23L125.01-2.23L125.01-2.23Q123.37-1.45 121.71-0.94L121.71-0.94L121.71-0.94Q120.04-0.43 118.46-0.19L118.46-0.19L118.46-0.19Q116.88 0.05 115.64 0.05L115.64 0.05L115.64 0.05Q114.46 0.05 114.14-0.30L114.14-0.30L114.14-0.30Q113.81-0.64 113.81-1.83" fill="#000000" stroke="none" stroke-width="none" transform="translate(-64.7750244140625,15.87005397796631)" style="transform:matrix(1, 0, 0, 1, -64.775, 15.8701);animation-play-state:paused" ></path></g></g></g></g></svg>