<?xml version="1.0" encoding="utf-8"?><svg xmlns="http://www.w3.org/2000/svg" width="280" height="250" preserveAspectRatio="xMidYMid" xmlns:xlink="http://www.w3.org/1999/xlink" style="margin-right:-2px;display:block;background-repeat-y:initial;background-repeat-x:initial;animation-play-state:paused" ><style type="text/css" style="animation-play-state:paused" >text {
    text-anchor: middle; font-size: 51px; opacity: 0;
  }</style>


<g style="transform-origin:140px 125px;transform:matrix(0.6375, 0, 0, 0.6375, 0, 0);animation-play-state:paused" ><g transform="translate(140,125)" style="transform:matrix(1, 0, 0, 1, 140, 125);animation-play-state:paused" ><g transform="translate(0,0)" style="transform:matrix(1, 0, 0, 1, 0, 0);animation-play-state:paused" ><g class="path" style="transform-origin:-178.045px -5.76711px;animation-timing-function:linear;animation-play-state:paused;animation-name:static-60bfbb34-1303-4b40-9d21-7bccbc7c9f5c;animation-iteration-count:infinite;animation-fill-mode:forwards;animation-duration:1s;animation-delay:-0.605s" ><path d="M4.53-48.05L4.53-48.05L4.53-48.05Q3.83-47.50 3.24-47.70L3.24-47.70L3.24-47.70Q2.66-47.89 2.34-48.40L2.34-48.40L2.34-48.40Q2.03-48.91 1.88-49.57L1.88-49.57L1.88-49.57Q1.72-50.23 1.72-50.78L1.72-50.78L1.72-50.78Q1.72-51.17 2.19-52.23L2.19-52.23L2.19-52.23Q2.66-53.28 3.28-54.38L3.28-54.38L3.28-54.38Q3.91-55.47 4.49-56.33L4.49-56.33L4.49-56.33Q5.08-57.19 5.23-57.19L5.23-57.19L5.23-57.19Q8.44-57.19 11.84-56.60L11.84-56.60L11.84-56.60Q15.23-56.02 18.52-54.88L18.52-54.88L18.52-54.88Q21.80-53.75 24.69-51.95L24.69-51.95L24.69-51.95Q27.58-50.16 29.77-47.70L29.77-47.70L29.77-47.70Q31.95-45.23 33.20-42.07L33.20-42.07L33.20-42.07Q34.45-38.91 34.45-35L34.45-35L34.45-35Q34.45-31.33 32.77-27.62L32.77-27.62L32.77-27.62Q31.09-23.91 28.28-20.90L28.28-20.90L28.28-20.90Q25.47-17.89 21.88-15.98L21.88-15.98L21.88-15.98Q18.28-14.06 14.45-14.06L14.45-14.06L14.45-17.66L14.45-17.66Q17.66-17.66 20.78-19.26L20.78-19.26L20.78-19.26Q23.91-20.86 26.33-23.40L26.33-23.40L26.33-23.40Q28.75-25.94 30.27-29.10L30.27-29.10L30.27-29.10Q31.80-32.27 31.80-35.39L31.80-35.39L31.80-35.39Q31.80-38.67 30.12-41.76L30.12-41.76L30.12-41.76Q28.44-44.84 25.82-47.27L25.82-47.27L25.82-47.27Q23.20-49.69 20-51.17L20-51.17L20-51.17Q16.80-52.66 13.67-52.66L13.67-52.66L13.67-52.66Q12.03-52.66 10.78-52.54L10.78-52.54L10.78-52.54Q9.53-52.42 8.13-51.64L8.13-51.64L8.13-50.39L8.13-50.39Q8.13-49.61 8.09-48.67L8.09-48.67L8.09-48.67Q8.05-47.73 8.05-46.88L8.05-46.88L8.05-45.70L8.05-45.70Q8.05-41.41 8.16-37.46L8.16-37.46L8.16-37.46Q8.28-33.52 8.52-29.57L8.52-29.57L8.52-29.57Q8.75-25.63 9.10-21.48L9.10-21.48L9.10-21.48Q9.45-17.34 9.92-12.66L9.92-12.66L9.92-12.66Q9.92-12.27 10.20-10.82L10.20-10.82L10.20-10.82Q10.47-9.38 10.78-7.70L10.78-7.70L10.78-7.70Q11.09-6.02 11.37-4.57L11.37-4.57L11.37-4.57Q11.64-3.13 11.72-2.73L11.72-2.73L11.72-2.73Q11.72-2.66 11.76-2.50L11.76-2.50L11.76-2.50Q11.80-2.34 11.80-2.27L11.80-2.27L11.80-2.27Q11.80-2.19 11.76-2.11L11.76-2.11L11.76-2.11Q11.72-2.03 11.72-1.95L11.72-1.95L11.72-1.80L11.72-1.80Q11.64-1.72 11.41-1.45L11.41-1.45L11.41-1.45Q11.17-1.17 10.90-0.86L10.90-0.86L10.90-0.86Q10.63-0.55 10.35-0.31L10.35-0.31L10.35-0.31Q10.08-0.08 9.92 0L9.92 0L9.06-0.94L9.06-0.94Q8.91-1.02 8.67-2.19L8.67-2.19L8.67-2.19Q8.44-3.36 8.13-4.96L8.13-4.96L8.13-4.96Q7.81-6.56 7.54-8.20L7.54-8.20L7.54-8.20Q7.27-9.84 7.19-10.86L7.19-10.86L7.19-10.86Q7.03-12.27 6.84-15.16L6.84-15.16L6.84-15.16Q6.64-18.05 6.33-21.72L6.33-21.72L6.33-21.72Q6.02-25.39 5.74-29.41L5.74-29.41L5.74-29.41Q5.47-33.44 5.23-37.11L5.23-37.11L5.23-37.11Q5-40.78 4.80-43.71L4.80-43.71L4.80-43.71Q4.61-46.64 4.53-48.05" fill="#000000" stroke="none" stroke-width="none" transform="translate(-196.13001155853271,22.827887598673495)" style="transform:matrix(1, 0, 0, 1, -196.13, 22.8279);animation-play-state:paused" ></path></g>
<g class="path" style="transform-origin:-147.655px 3.37789px;animation-timing-function:linear;animation-play-state:paused;animation-name:static-60bfbb34-1303-4b40-9d21-7bccbc7c9f5c;animation-iteration-count:infinite;animation-fill-mode:forwards;animation-duration:1s;animation-delay:-0.55s" ><path d="M37.50-11.80L37.50-11.80L37.50-11.80Q37.50-13.36 37.54-15.98L37.54-15.98L37.54-15.98Q37.58-18.59 37.89-21.60L37.89-21.60L37.89-21.60Q38.20-24.61 38.83-27.73L38.83-27.73L38.83-27.73Q39.45-30.86 40.63-33.36L40.63-33.36L40.63-33.36Q41.80-35.86 43.59-37.42L43.59-37.42L43.59-37.42Q45.39-38.98 48.05-38.98L48.05-38.98L48.05-38.98Q51.72-38.98 53.95-36.95L53.95-36.95L53.95-36.95Q56.17-34.92 57.38-31.91L57.38-31.91L57.38-31.91Q58.59-28.91 59.02-25.51L59.02-25.51L59.02-25.51Q59.45-22.11 59.45-19.38L59.45-19.38L59.45-19.38Q59.45-16.41 58.59-12.97L58.59-12.97L58.59-12.97Q57.73-9.53 55.94-6.64L55.94-6.64L55.94-6.64Q54.14-3.75 51.45-1.84L51.45-1.84L51.45-1.84Q48.75 0.08 45 0.08L45 0.08L45 0.08Q42.58 0.08 41.09-1.05L41.09-1.05L41.09-1.05Q39.61-2.19 38.87-3.91L38.87-3.91L38.87-3.91Q38.13-5.63 37.81-7.73L37.81-7.73L37.81-7.73Q37.50-9.84 37.50-11.80zM40.16-12.73L40.16-12.73L40.16-12.73Q40.16-11.25 40.23-9.65L40.23-9.65L40.23-9.65Q40.31-8.05 40.70-6.64L40.70-6.64L40.70-6.64Q41.09-5.23 42.11-4.38L42.11-4.38L42.11-4.38Q43.13-3.52 45.08-3.52L45.08-3.52L45.08-3.52Q48.52-3.52 50.74-5.08L50.74-5.08L50.74-5.08Q52.97-6.64 54.30-9.10L54.30-9.10L54.30-9.10Q55.63-11.56 56.13-14.53L56.13-14.53L56.13-14.53Q56.64-17.50 56.64-20.23L56.64-20.23L56.64-20.23Q56.64-21.95 56.37-24.69L56.37-24.69L56.37-24.69Q56.09-27.42 55.23-30L55.23-30L55.23-30Q54.38-32.58 52.73-34.41L52.73-34.41L52.73-34.41Q51.09-36.25 48.44-36.25L48.44-36.25L48.44-36.25Q46.56-36.25 45.20-34.77L45.20-34.77L45.20-34.77Q43.83-33.28 42.89-30.94L42.89-30.94L42.89-30.94Q41.95-28.59 41.45-25.78L41.45-25.78L41.45-25.78Q40.94-22.97 40.63-20.39L40.63-20.39L40.63-20.39Q40.31-17.81 40.23-15.70L40.23-15.70L40.23-15.70Q40.16-13.59 40.16-12.73" fill="#000000" stroke="none" stroke-width="none" transform="translate(-196.13001155853271,22.827887598673495)" style="transform:matrix(1, 0, 0, 1, -196.13, 22.8279);animation-play-state:paused" ></path></g>
<g class="path" style="transform-origin:-119.685px 7.94289px;animation-timing-function:linear;animation-play-state:paused;animation-name:static-60bfbb34-1303-4b40-9d21-7bccbc7c9f5c;animation-iteration-count:infinite;animation-fill-mode:forwards;animation-duration:1s;animation-delay:-0.495s" ><path d="M64.69-22.11L62.66-42.11L62.66-42.11Q63.28-42.11 64.06-41.95L64.06-41.95L64.06-41.95Q64.84-41.80 65.47-41.37L65.47-41.37L65.47-41.37Q66.09-40.94 66.45-40.23L66.45-40.23L66.45-40.23Q66.80-39.53 66.48-38.44L66.48-38.44L66.48-38.44Q66.80-38.52 67.42-38.63L67.42-38.63L67.42-38.63Q68.05-38.75 68.79-38.91L68.79-38.91L68.79-38.91Q69.53-39.06 70.16-39.18L70.16-39.18L70.16-39.18Q70.78-39.30 71.02-39.38L71.02-39.38L71.41-39.38L71.41-39.38Q74.69-39.38 78.05-38.32L78.05-38.32L78.05-38.32Q81.41-37.27 84.06-35.31L84.06-35.31L84.06-35.31Q86.72-33.36 88.48-30.55L88.48-30.55L88.48-30.55Q90.23-27.73 90.23-24.22L90.23-24.22L90.23-24.22Q90.23-20.31 88.44-17.07L88.44-17.07L88.44-17.07Q86.64-13.83 83.79-11.48L83.79-11.48L83.79-11.48Q80.94-9.14 77.38-7.81L77.38-7.81L77.38-7.81Q73.83-6.48 70.31-6.48L70.31-6.48L70.31-6.48Q70.31-4.22 70.74-1.99L70.74-1.99L70.74-1.99Q71.17 0.23 71.60 2.38L71.60 2.38L71.60 2.38Q72.03 4.53 72.46 6.68L72.46 6.68L72.46 6.68Q72.89 8.83 72.89 10.94L72.89 10.94L72.89 10.94Q72.89 11.56 72.46 11.95L72.46 11.95L72.46 11.95Q72.03 12.34 71.41 12.34L71.41 12.34L71.41 12.34Q70.70 12.34 70.27 11.72L70.27 11.72L70.27 11.72Q69.84 11.09 69.65 10.31L69.65 10.31L69.65 10.31Q69.45 9.53 69.34 8.79L69.34 8.79L69.34 8.79Q69.22 8.05 69.22 7.73L69.22 7.73L69.22 7.73Q69.06 6.64 68.71 4.26L68.71 4.26L68.71 4.26Q68.36 1.88 67.89-1.05L67.89-1.05L67.89-1.05Q67.42-3.98 66.91-7.23L66.91-7.23L66.91-7.23Q66.41-10.47 65.98-13.44L65.98-13.44L65.98-13.44Q65.55-16.41 65.20-18.71L65.20-18.71L65.20-18.71Q64.84-21.02 64.69-22.11L64.69-22.11zM66.41-31.64L66.41-31.64L66.41-30.86L66.41-30.86Q66.41-30.47 66.45-29.96L66.45-29.96L66.45-29.96Q66.48-29.45 66.48-29.06L66.48-29.06L66.48-28.52L66.48-28.52Q66.64-27.19 66.88-25.31L66.88-25.31L66.88-25.31Q67.11-23.44 67.42-21.37L67.42-21.37L67.42-21.37Q67.73-19.30 68.05-17.19L68.05-17.19L68.05-17.19Q68.36-15.08 68.59-13.40L68.59-13.40L68.59-13.40Q68.83-11.72 68.98-10.63L68.98-10.63L68.98-10.63Q69.14-9.53 69.22-9.45L69.22-9.45L69.22-9.45Q72.34-8.75 75.55-9.80L75.55-9.80L75.55-9.80Q78.75-10.86 81.33-13.16L81.33-13.16L81.33-13.16Q83.91-15.47 85.63-18.52L85.63-18.52L85.63-18.52Q87.34-21.56 87.42-24.77L87.42-24.77L87.42-24.77Q87.42-27.66 86.05-29.73L86.05-29.73L86.05-29.73Q84.69-31.80 82.58-33.16L82.58-33.16L82.58-33.16Q80.47-34.53 77.85-35.20L77.85-35.20L77.85-35.20Q75.23-35.86 72.66-35.86L72.66-35.86L72.66-35.86Q71.41-35.86 70.27-35.70L70.27-35.70L70.27-35.70Q69.14-35.55 68.28-35.16L68.28-35.16L68.28-35.16Q67.42-34.77 66.91-33.91L66.91-33.91L66.91-33.91Q66.41-33.05 66.41-31.64" fill="#000000" stroke="none" stroke-width="none" transform="translate(-196.13001155853271,22.827887598673495)" style="transform:matrix(1, 0, 0, 1, -196.13, 22.8279);animation-play-state:paused" ></path></g>
<g class="path" style="transform-origin:-85.7457px 3.83829px;animation-timing-function:linear;animation-play-state:paused;animation-name:static-60bfbb34-1303-4b40-9d21-7bccbc7c9f5c;animation-iteration-count:infinite;animation-fill-mode:forwards;animation-duration:1s;animation-delay:-0.44s" ><path d="M102.66 0L102.66 0L102.66 0Q101.17 0.55 99.96-0.27L99.96-0.27L99.96-0.27Q98.75-1.09 97.81-2.77L97.81-2.77L97.81-2.77Q96.88-4.45 96.17-6.60L96.17-6.60L96.17-6.60Q95.47-8.75 95.08-10.86L95.08-10.86L95.08-10.86Q94.69-12.97 94.57-14.69L94.57-14.69L94.57-14.69Q94.45-16.41 94.61-17.19L94.61-17.19L94.61-17.19Q94.61-17.97 94.69-19.61L94.69-19.61L94.69-19.61Q94.77-21.25 94.84-23.32L94.84-23.32L94.84-23.32Q94.92-25.39 95.04-27.62L95.04-27.62L95.04-27.62Q95.16-29.84 95.23-31.95L95.23-31.95L95.23-31.95Q95.31-34.06 95.39-35.66L95.39-35.66L95.39-35.66Q95.47-37.27 95.47-38.05L95.47-38.05L95.47-38.05Q95.63-38.05 95.70-38.13L95.70-38.13L95.94-38.20L95.94-38.20Q96.72-38.20 97.27-37.50L97.27-37.50L97.27-37.50Q97.81-36.80 98.20-36.17L98.20-36.17L98.20-36.17Q98.20-35.08 98.16-32.27L98.16-32.27L98.16-32.27Q98.13-29.45 98.13-26.25L98.13-26.25L98.13-26.25Q98.13-23.05 98.16-20.20L98.16-20.20L98.16-20.20Q98.20-17.34 98.20-16.25L98.20-16.25L98.20-16.25Q98.28-15.31 98.55-13.32L98.55-13.32L98.55-13.32Q98.83-11.33 99.30-9.26L99.30-9.26L99.30-9.26Q99.77-7.19 100.59-5.51L100.59-5.51L100.59-5.51Q101.41-3.83 102.66-3.59L102.66-3.59L102.66-3.59Q105.94-3.59 108.16-6.02L108.16-6.02L108.16-6.02Q110.39-8.44 111.88-12.11L111.88-12.11L111.88-12.11Q113.36-15.78 114.26-20.04L114.26-20.04L114.26-20.04Q115.16-24.30 115.78-28.05L115.78-28.05L115.78-28.05Q116.41-31.80 116.91-34.34L116.91-34.34L116.91-34.34Q117.42-36.88 118.13-37.11L118.13-37.11L120-36.72L124.38-6.48L124.38-6.48Q124.84-6.25 125.16-5.78L125.16-5.78L125.16-5.78Q125.47-5.31 125.74-4.77L125.74-4.77L125.74-4.77Q126.02-4.22 126.13-3.67L126.13-3.67L126.13-3.67Q126.25-3.13 126.25-2.89L126.25-2.89L126.25-2.89Q126.09-2.34 125.31-1.72L125.31-1.72L125.31-1.72Q124.53-1.09 123.98-1.02L123.98-1.02L123.67-1.02L123.67-1.02Q123.59-1.02 123.52-1.02L123.52-1.02L123.52-1.02Q123.36-1.25 123.09-1.76L123.09-1.76L123.09-1.76Q122.81-2.27 122.50-2.81L122.50-2.81L122.50-2.81Q122.19-3.36 121.99-3.95L121.99-3.95L121.99-3.95Q121.80-4.53 121.72-4.69L121.72-4.69L121.72-4.69Q121.48-5.47 121.21-7.11L121.21-7.11L121.21-7.11Q120.94-8.75 120.70-10.74L120.70-10.74L120.70-10.74Q120.47-12.73 120.27-14.96L120.27-14.96L120.27-14.96Q120.08-17.19 119.88-19.26L119.88-19.26L119.88-19.26Q119.69-21.33 119.49-22.93L119.49-22.93L119.49-22.93Q119.30-24.53 119.06-25.31L119.06-25.31L119.06-25.31Q118.67-23.52 117.97-21.05L117.97-21.05L117.97-21.05Q117.27-18.59 116.21-15.86L116.21-15.86L116.21-15.86Q115.16-13.13 113.83-10.51L113.83-10.51L113.83-10.51Q112.50-7.89 110.82-5.66L110.82-5.66L110.82-5.66Q109.14-3.44 107.11-1.91L107.11-1.91L107.11-1.91Q105.08-0.39 102.66 0" fill="#000000" stroke="none" stroke-width="none" transform="translate(-196.13001155853271,22.827887598673495)" style="transform:matrix(1, 0, 0, 1, -196.13, 22.8279);animation-play-state:paused" ></path></g>
<g class="path" style="transform-origin:-64.175px -6.62211px;animation-timing-function:linear;animation-play-state:paused;animation-name:static-60bfbb34-1303-4b40-9d21-7bccbc7c9f5c;animation-iteration-count:infinite;animation-fill-mode:forwards;animation-duration:1s;animation-delay:-0.385s" ><path d="M131.88-1.80L131.88-1.80L131.88-1.80Q131.80-3.83 131.48-8.09L131.48-8.09L131.48-8.09Q131.17-12.34 130.82-17.70L130.82-17.70L130.82-17.70Q130.47-23.05 130.12-28.95L130.12-28.95L130.12-28.95Q129.77-34.84 129.41-40.23L129.41-40.23L129.41-40.23Q129.06-45.63 128.71-49.88L128.71-49.88L128.71-49.88Q128.36-54.14 128.28-56.17L128.28-56.17L128.28-57.19L128.28-57.19Q128.28-58.98 130.08-58.98L130.08-58.98L130.08-58.98Q130.23-58.98 130.55-58.95L130.55-58.95L130.55-58.95Q130.86-58.91 131.02-58.91L131.02-58.91L131.02-58.91Q131.48-52.11 131.88-45.86L131.88-45.86L131.88-45.86Q132.27-39.61 132.66-33.44L132.66-33.44L132.66-33.44Q133.05-27.27 133.52-21.05L133.52-21.05L133.52-21.05Q133.98-14.84 134.61-8.13L134.61-8.13L134.61-8.13Q135.47-7.27 135.55-6.13L135.55-6.13L135.55-6.13Q135.63-5 135.63-3.83L135.63-3.83L135.63-3.83Q135.63-3.28 135.59-2.62L135.59-2.62L135.59-2.62Q135.55-1.95 135.31-1.37L135.31-1.37L135.31-1.37Q135.08-0.78 134.57-0.35L134.57-0.35L134.57-0.35Q134.06 0.08 133.28 0.08L133.28 0.08L133.28 0.08Q132.58 0.08 132.30-0.47L132.30-0.47L132.30-0.47Q132.03-1.02 131.88-1.80" fill="#000000" stroke="none" stroke-width="none" transform="translate(-196.13001155853271,22.827887598673495)" style="transform:matrix(1, 0, 0, 1, -196.13, 22.8279);animation-play-state:paused" ></path></g>
<g class="path" style="transform-origin:-41.99px 2.28289px;animation-timing-function:linear;animation-play-state:paused;animation-name:static-60bfbb34-1303-4b40-9d21-7bccbc7c9f5c;animation-iteration-count:infinite;animation-fill-mode:forwards;animation-duration:1s;animation-delay:-0.33s" ><path d="M138.05-8.13L138.05-8.13L138.05-8.13Q138.05-10.39 138.55-13.75L138.55-13.75L138.55-13.75Q139.06-17.11 140.04-20.74L140.04-20.74L140.04-20.74Q141.02-24.38 142.54-28.05L142.54-28.05L142.54-28.05Q144.06-31.72 146.02-34.65L146.02-34.65L146.02-34.65Q147.97-37.58 150.47-39.38L150.47-39.38L150.47-39.38Q152.97-41.17 155.94-41.17L155.94-41.17L155.94-41.17Q155.94-40.08 155.04-39.02L155.04-39.02L155.04-39.02Q154.14-37.97 153.01-36.99L153.01-36.99L153.01-36.99Q151.88-36.02 150.70-35.12L150.70-35.12L150.70-35.12Q149.53-34.22 149.06-33.44L149.06-33.44L149.06-33.44Q147.19-31.02 145.70-28.09L145.70-28.09L145.70-28.09Q144.22-25.16 143.13-22.07L143.13-22.07L143.13-22.07Q142.03-18.98 141.41-15.74L141.41-15.74L141.41-15.74Q140.78-12.50 140.78-9.45L140.78-9.45L140.78-9.45Q140.78-8.98 140.94-8.01L140.94-8.01L140.94-8.01Q141.09-7.03 141.37-6.02L141.37-6.02L141.37-6.02Q141.64-5 142.11-4.26L142.11-4.26L142.11-4.26Q142.58-3.52 143.13-3.52L143.13-3.52L143.36-3.52L143.36-3.52Q143.44-3.52 143.52-3.59L143.52-3.59L143.52-3.59Q145.63-5.94 147.03-8.67L147.03-8.67L147.03-8.67Q148.44-11.41 149.45-14.34L149.45-14.34L149.45-14.34Q150.47-17.27 151.17-20.31L151.17-20.31L151.17-20.31Q151.88-23.36 152.58-26.33L152.58-26.33L152.58-26.33Q152.81-27.19 152.77-28.91L152.77-28.91L152.77-28.91Q152.73-30.63 152.93-32.27L152.93-32.27L152.93-32.27Q153.13-33.91 153.75-35.12L153.75-35.12L153.75-35.12Q154.38-36.33 156.02-36.33L156.02-36.33L156.02-36.33Q156.33-36.33 156.76-36.29L156.76-36.29L156.76-36.29Q157.19-36.25 157.19-36.17L157.19-36.17L157.19-36.17Q160.08-30.16 162.11-25.98L162.11-25.98L162.11-25.98Q164.14-21.80 165.55-19.06L165.55-19.06L165.55-19.06Q166.95-16.33 167.81-14.77L167.81-14.77L167.81-14.77Q168.67-13.20 169.10-12.38L169.10-12.38L169.10-12.38Q169.53-11.56 169.69-11.29L169.69-11.29L169.69-11.29Q169.84-11.02 169.84-10.86L169.84-10.86L169.84-10.86Q169.92-10.55 170-9.73L170-9.73L170-9.73Q170.08-8.91 170.12-8.01L170.12-8.01L170.12-8.01Q170.16-7.11 170.20-6.29L170.20-6.29L170.20-6.29Q170.23-5.47 170.23-5.23L170.23-5.23L170.23-5.23Q169.45-5.23 168.52-5.31L168.52-5.31L168.52-5.31Q167.58-5.39 167.19-6.33L167.19-6.33L157.19-27.11L156.33-28.05L156.33-28.05Q156.09-27.19 155.43-25L155.43-25L155.43-25Q154.77-22.81 154.02-20.35L154.02-20.35L154.02-20.35Q153.28-17.89 152.66-15.70L152.66-15.70L152.66-15.70Q152.03-13.52 151.80-12.66L151.80-12.66L151.80-12.66Q151.33-11.48 150.59-9.38L150.59-9.38L150.59-9.38Q149.84-7.27 148.75-5.16L148.75-5.16L148.75-5.16Q147.66-3.05 146.25-1.48L146.25-1.48L146.25-1.48Q144.84 0.08 143.13 0.08L143.13 0.08L143.13 0.08Q141.72 0.08 140.78-0.82L140.78-0.82L140.78-0.82Q139.84-1.72 139.22-3.05L139.22-3.05L139.22-3.05Q138.59-4.38 138.32-5.78L138.32-5.78L138.32-5.78Q138.05-7.19 138.05-8.13" fill="#000000" stroke="none" stroke-width="none" transform="translate(-196.13001155853271,22.827887598673495)" style="transform:matrix(1, 0, 0, 1, -196.13, 22.8279);animation-play-state:paused" ></path></g>
<g class="path" style="transform-origin:-12.925px 4.89789px;animation-timing-function:linear;animation-play-state:paused;animation-name:static-60bfbb34-1303-4b40-9d21-7bccbc7c9f5c;animation-iteration-count:infinite;animation-fill-mode:forwards;animation-duration:1s;animation-delay:-0.275s" ><path d="M169.77-29.84L171.80-29.84L176.41-10.86L177.34-10.86L177.34-10.86Q177.58-13.36 178.24-16.17L178.24-16.17L178.24-16.17Q178.91-18.98 180.08-21.76L180.08-21.76L180.08-21.76Q181.25-24.53 182.85-27.11L182.85-27.11L182.85-27.11Q184.45-29.69 186.48-31.64L186.48-31.64L186.48-31.64Q188.52-33.59 191.05-34.77L191.05-34.77L191.05-34.77Q193.59-35.94 196.64-35.94L196.64-35.94L196.64-35.94Q196.64-34.06 195.12-32.66L195.12-32.66L195.12-32.66Q193.59-31.25 191.48-29.92L191.48-29.92L191.48-29.92Q189.38-28.59 187.15-27.11L187.15-27.11L187.15-27.11Q184.92-25.63 183.67-23.52L183.67-23.52L183.67-23.52Q182.34-21.41 181.52-18.63L181.52-18.63L181.52-18.63Q180.70-15.86 180.20-12.93L180.20-12.93L180.20-12.93Q179.69-10 179.45-7.07L179.45-7.07L179.45-7.07Q179.22-4.14 179.06-1.80L179.06-1.80L179.06-1.80Q178.59-1.09 178.09-0.51L178.09-0.51L178.09-0.51Q177.58 0.08 176.80 0.08L176.80 0.08L176.80 0.08Q176.48 0.08 176.02-0.12L176.02-0.12L176.02-0.12Q175.55-0.31 175.39-0.94L175.39-0.94L169.77-29.84" fill="#000000" stroke="none" stroke-width="none" transform="translate(-196.13001155853271,22.827887598673495)" style="transform:matrix(1, 0, 0, 1, -196.13, 22.8279);animation-play-state:paused" ></path></g>
<g class="path" style="transform-origin:55.16px -5.76711px;animation-timing-function:linear;animation-play-state:paused;animation-name:static-60bfbb34-1303-4b40-9d21-7bccbc7c9f5c;animation-iteration-count:infinite;animation-fill-mode:forwards;animation-duration:1s;animation-delay:-0.22s" ><path d="M237.73-48.05L237.73-48.05L237.73-48.05Q237.03-47.50 236.45-47.70L236.45-47.70L236.45-47.70Q235.86-47.89 235.55-48.40L235.55-48.40L235.55-48.40Q235.23-48.91 235.08-49.57L235.08-49.57L235.08-49.57Q234.92-50.23 234.92-50.78L234.92-50.78L234.92-50.78Q234.92-51.17 235.39-52.23L235.39-52.23L235.39-52.23Q235.86-53.28 236.48-54.38L236.48-54.38L236.48-54.38Q237.11-55.47 237.70-56.33L237.70-56.33L237.70-56.33Q238.28-57.19 238.44-57.19L238.44-57.19L238.44-57.19Q241.64-57.19 245.04-56.60L245.04-56.60L245.04-56.60Q248.44-56.02 251.72-54.88L251.72-54.88L251.72-54.88Q255-53.75 257.89-51.95L257.89-51.95L257.89-51.95Q260.78-50.16 262.97-47.70L262.97-47.70L262.97-47.70Q265.16-45.23 266.41-42.07L266.41-42.07L266.41-42.07Q267.66-38.91 267.66-35L267.66-35L267.66-35Q267.66-31.33 265.98-27.62L265.98-27.62L265.98-27.62Q264.30-23.91 261.48-20.90L261.48-20.90L261.48-20.90Q258.67-17.89 255.08-15.98L255.08-15.98L255.08-15.98Q251.48-14.06 247.66-14.06L247.66-14.06L247.66-17.66L247.66-17.66Q250.86-17.66 253.98-19.26L253.98-19.26L253.98-19.26Q257.11-20.86 259.53-23.40L259.53-23.40L259.53-23.40Q261.95-25.94 263.48-29.10L263.48-29.10L263.48-29.10Q265-32.27 265-35.39L265-35.39L265-35.39Q265-38.67 263.32-41.76L263.32-41.76L263.32-41.76Q261.64-44.84 259.02-47.27L259.02-47.27L259.02-47.27Q256.41-49.69 253.20-51.17L253.20-51.17L253.20-51.17Q250-52.66 246.88-52.66L246.88-52.66L246.88-52.66Q245.23-52.66 243.98-52.54L243.98-52.54L243.98-52.54Q242.73-52.42 241.33-51.64L241.33-51.64L241.33-50.39L241.33-50.39Q241.33-49.61 241.29-48.67L241.29-48.67L241.29-48.67Q241.25-47.73 241.25-46.88L241.25-46.88L241.25-45.70L241.25-45.70Q241.25-41.41 241.37-37.46L241.37-37.46L241.37-37.46Q241.48-33.52 241.72-29.57L241.72-29.57L241.72-29.57Q241.95-25.63 242.30-21.48L242.30-21.48L242.30-21.48Q242.66-17.34 243.13-12.66L243.13-12.66L243.13-12.66Q243.13-12.27 243.40-10.82L243.40-10.82L243.40-10.82Q243.67-9.38 243.98-7.70L243.98-7.70L243.98-7.70Q244.30-6.02 244.57-4.57L244.57-4.57L244.57-4.57Q244.84-3.13 244.92-2.73L244.92-2.73L244.92-2.73Q244.92-2.66 244.96-2.50L244.96-2.50L244.96-2.50Q245-2.34 245-2.27L245-2.27L245-2.27Q245-2.19 244.96-2.11L244.96-2.11L244.96-2.11Q244.92-2.03 244.92-1.95L244.92-1.95L244.92-1.80L244.92-1.80Q244.84-1.72 244.61-1.45L244.61-1.45L244.61-1.45Q244.38-1.17 244.10-0.86L244.10-0.86L244.10-0.86Q243.83-0.55 243.55-0.31L243.55-0.31L243.55-0.31Q243.28-0.08 243.13 0L243.13 0L242.27-0.94L242.27-0.94Q242.11-1.02 241.88-2.19L241.88-2.19L241.88-2.19Q241.64-3.36 241.33-4.96L241.33-4.96L241.33-4.96Q241.02-6.56 240.74-8.20L240.74-8.20L240.74-8.20Q240.47-9.84 240.39-10.86L240.39-10.86L240.39-10.86Q240.23-12.27 240.04-15.16L240.04-15.16L240.04-15.16Q239.84-18.05 239.53-21.72L239.53-21.72L239.53-21.72Q239.22-25.39 238.95-29.41L238.95-29.41L238.95-29.41Q238.67-33.44 238.44-37.11L238.44-37.11L238.44-37.11Q238.20-40.78 238.01-43.71L238.01-43.71L238.01-43.71Q237.81-46.64 237.73-48.05" fill="#000000" stroke="none" stroke-width="none" transform="translate(-196.13001155853271,22.827887598673495)" style="transform:matrix(1, 0, 0, 1, -196.13, 22.8279);animation-play-state:paused" ></path></g>
<g class="path" style="transform-origin:85.55px 3.37789px;animation-timing-function:linear;animation-play-state:paused;animation-name:static-60bfbb34-1303-4b40-9d21-7bccbc7c9f5c;animation-iteration-count:infinite;animation-fill-mode:forwards;animation-duration:1s;animation-delay:-0.165s" ><path d="M270.70-11.80L270.70-11.80L270.70-11.80Q270.70-13.36 270.74-15.98L270.74-15.98L270.74-15.98Q270.78-18.59 271.09-21.60L271.09-21.60L271.09-21.60Q271.41-24.61 272.03-27.73L272.03-27.73L272.03-27.73Q272.66-30.86 273.83-33.36L273.83-33.36L273.83-33.36Q275-35.86 276.80-37.42L276.80-37.42L276.80-37.42Q278.59-38.98 281.25-38.98L281.25-38.98L281.25-38.98Q284.92-38.98 287.15-36.95L287.15-36.95L287.15-36.95Q289.38-34.92 290.59-31.91L290.59-31.91L290.59-31.91Q291.80-28.91 292.23-25.51L292.23-25.51L292.23-25.51Q292.66-22.11 292.66-19.38L292.66-19.38L292.66-19.38Q292.66-16.41 291.80-12.97L291.80-12.97L291.80-12.97Q290.94-9.53 289.14-6.64L289.14-6.64L289.14-6.64Q287.34-3.75 284.65-1.84L284.65-1.84L284.65-1.84Q281.95 0.08 278.20 0.08L278.20 0.08L278.20 0.08Q275.78 0.08 274.30-1.05L274.30-1.05L274.30-1.05Q272.81-2.19 272.07-3.91L272.07-3.91L272.07-3.91Q271.33-5.63 271.02-7.73L271.02-7.73L271.02-7.73Q270.70-9.84 270.70-11.80zM273.36-12.73L273.36-12.73L273.36-12.73Q273.36-11.25 273.44-9.65L273.44-9.65L273.44-9.65Q273.52-8.05 273.91-6.64L273.91-6.64L273.91-6.64Q274.30-5.23 275.31-4.38L275.31-4.38L275.31-4.38Q276.33-3.52 278.28-3.52L278.28-3.52L278.28-3.52Q281.72-3.52 283.95-5.08L283.95-5.08L283.95-5.08Q286.17-6.64 287.50-9.10L287.50-9.10L287.50-9.10Q288.83-11.56 289.34-14.53L289.34-14.53L289.34-14.53Q289.84-17.50 289.84-20.23L289.84-20.23L289.84-20.23Q289.84-21.95 289.57-24.69L289.57-24.69L289.57-24.69Q289.30-27.42 288.44-30L288.44-30L288.44-30Q287.58-32.58 285.94-34.41L285.94-34.41L285.94-34.41Q284.30-36.25 281.64-36.25L281.64-36.25L281.64-36.25Q279.77-36.25 278.40-34.77L278.40-34.77L278.40-34.77Q277.03-33.28 276.09-30.94L276.09-30.94L276.09-30.94Q275.16-28.59 274.65-25.78L274.65-25.78L274.65-25.78Q274.14-22.97 273.83-20.39L273.83-20.39L273.83-20.39Q273.52-17.81 273.44-15.70L273.44-15.70L273.44-15.70Q273.36-13.59 273.36-12.73" fill="#000000" stroke="none" stroke-width="none" transform="translate(-196.13001155853271,22.827887598673495)" style="transform:matrix(1, 0, 0, 1, -196.13, 22.8279);animation-play-state:paused" ></path></g>
<g class="path" style="transform-origin:114.03px -0.72711px;animation-timing-function:linear;animation-play-state:paused;animation-name:static-60bfbb34-1303-4b40-9d21-7bccbc7c9f5c;animation-iteration-count:infinite;animation-fill-mode:forwards;animation-duration:1s;animation-delay:-0.11s" ><path d="M299.69-2.66L299.69-2.66L299.69-2.66Q299.69-3.59 299.84-4.26L299.84-4.26L299.84-4.26Q300-4.92 300.35-5.20L300.35-5.20L300.35-5.20Q300.70-5.47 301.21-5.20L301.21-5.20L301.21-5.20Q301.72-4.92 302.50-3.91L302.50-3.91L302.50-3.91Q303.91-3.91 305.78-4.06L305.78-4.06L305.78-4.06Q307.66-4.22 309.69-4.61L309.69-4.61L309.69-4.61Q311.72-5 313.71-5.63L313.71-5.63L313.71-5.63Q315.70-6.25 317.23-7.30L317.23-7.30L317.23-7.30Q318.75-8.36 319.69-9.80L319.69-9.80L319.69-9.80Q320.63-11.25 320.63-13.20L320.63-13.20L320.63-13.20Q320.63-15.16 318.83-16.09L318.83-16.09L318.83-16.09Q317.03-17.03 314.26-17.54L314.26-17.54L314.26-17.54Q311.48-18.05 308.32-18.55L308.32-18.55L308.32-18.55Q305.16-19.06 302.42-20.12L302.42-20.12L302.42-20.12Q299.69-21.17 297.85-23.16L297.85-23.16L297.85-23.16Q296.02-25.16 296.02-28.75L296.02-28.75L296.02-28.75Q296.02-31.25 296.88-32.97L296.88-32.97L296.88-32.97Q297.73-34.69 299.77-36.17L299.77-36.17L299.77-36.17Q300.63-36.88 302.81-38.40L302.81-38.40L302.81-38.40Q305-39.92 307.46-41.68L307.46-41.68L307.46-41.68Q309.92-43.44 312.11-44.96L312.11-44.96L312.11-44.96Q314.30-46.48 315.16-47.11L315.16-47.11L315.16-47.11Q315.31-47.11 315.59-47.15L315.59-47.15L315.59-47.15Q315.86-47.19 316.02-47.19L316.02-47.19L316.02-47.19Q317.97-47.19 317.97-45.31L317.97-45.31L317.97-45.31Q317.97-44.45 316.56-43.48L316.56-43.48L316.56-43.48Q315.16-42.50 313.01-41.33L313.01-41.33L313.01-41.33Q310.86-40.16 308.40-38.83L308.40-38.83L308.40-38.83Q305.94-37.50 303.79-35.90L303.79-35.90L303.79-35.90Q301.64-34.30 300.23-32.46L300.23-32.46L300.23-32.46Q298.83-30.63 298.83-28.52L298.83-28.52L298.83-28.52Q298.83-26.25 299.96-25.23L299.96-25.23L299.96-25.23Q301.09-24.22 303.36-23.52L303.36-23.52L303.36-23.52Q304.30-23.28 306.60-22.62L306.60-22.62L306.60-22.62Q308.91-21.95 311.52-21.21L311.52-21.21L311.52-21.21Q314.14-20.47 316.45-19.84L316.45-19.84L316.45-19.84Q318.75-19.22 319.69-18.98L319.69-18.98L319.69-18.98Q321.72-17.89 323.01-16.60L323.01-16.60L323.01-16.60Q324.30-15.31 324.30-13.05L324.30-13.05L324.30-13.05Q324.30-10.86 323.16-9.06L323.16-9.06L323.16-9.06Q322.03-7.27 320.20-5.82L320.20-5.82L320.20-5.82Q318.36-4.38 315.98-3.24L315.98-3.24L315.98-3.24Q313.59-2.11 311.17-1.37L311.17-1.37L311.17-1.37Q308.75-0.63 306.45-0.27L306.45-0.27L306.45-0.27Q304.14 0.08 302.34 0.08L302.34 0.08L302.34 0.08Q300.63 0.08 300.16-0.43L300.16-0.43L300.16-0.43Q299.69-0.94 299.69-2.66" fill="#000000" stroke="none" stroke-width="none" transform="translate(-196.13001155853271,22.827887598673495)" style="transform:matrix(1, 0, 0, 1, -196.13, 22.8279);animation-play-state:paused" ></path></g>
<g class="path" style="transform-origin:152.553px -3.46211px;animation-timing-function:linear;animation-play-state:paused;animation-name:static-60bfbb34-1303-4b40-9d21-7bccbc7c9f5c;animation-iteration-count:infinite;animation-fill-mode:forwards;animation-duration:1s;animation-delay:-0.055s" ><path d="M344.14-24.45L342.81-24.45L342.81-24.45Q341.09-24.45 339.38-23.98L339.38-23.98L339.38-23.98Q337.66-23.52 335.98-23.01L335.98-23.01L335.98-23.01Q334.30-22.50 332.62-22.07L332.62-22.07L332.62-22.07Q330.94-21.64 329.14-21.64L329.14-21.64L329.14-21.64Q328.13-21.64 327.50-22.03L327.50-22.03L327.50-22.03Q326.88-22.42 326.88-23.59L326.88-23.59L326.88-23.59Q326.88-24.53 327.38-24.88L327.38-24.88L327.38-24.88Q327.89-25.23 328.63-25.27L328.63-25.27L328.63-25.27Q329.38-25.31 330.20-25.23L330.20-25.23L330.20-25.23Q331.02-25.16 331.48-25.31L331.48-25.31L331.48-25.31Q332.11-25.47 333.79-25.86L333.79-25.86L333.79-25.86Q335.47-26.25 337.34-26.64L337.34-26.64L337.34-26.64Q339.22-27.03 340.90-27.42L340.90-27.42L340.90-27.42Q342.58-27.81 343.20-28.05L343.20-28.05L343.20-28.05Q343.20-28.28 343.24-28.87L343.24-28.87L343.24-28.87Q343.28-29.45 343.32-30.12L343.32-30.12L343.32-30.12Q343.36-30.78 343.36-31.33L343.36-31.33L343.36-32.19L343.36-32.19Q343.36-34.53 343.05-36.76L343.05-36.76L343.05-36.76Q342.73-38.98 342.38-41.25L342.38-41.25L342.38-41.25Q342.03-43.52 341.72-45.78L341.72-45.78L341.72-45.78Q341.41-48.05 341.41-50.31L341.41-50.31L341.41-50.31Q341.41-51.09 341.60-51.84L341.60-51.84L341.60-51.84Q341.80-52.58 342.81-52.58L342.81-52.58L342.81-52.58Q343.20-52.58 343.63-52.38L343.63-52.38L343.63-52.38Q344.06-52.19 344.14-51.64L344.14-51.64L346.88-29.06L346.88-29.06Q346.95-28.98 347.03-28.98L347.03-28.98L347.27-28.98L347.27-28.98Q348.05-28.98 349.69-29.38L349.69-29.38L349.69-29.38Q351.33-29.77 353.36-30.31L353.36-30.31L353.36-30.31Q355.39-30.86 357.70-31.48L357.70-31.48L357.70-31.48Q360-32.11 362.11-32.62L362.11-32.62L362.11-32.62Q364.22-33.13 365.94-33.40L365.94-33.40L365.94-33.40Q367.66-33.67 368.59-33.44L368.59-33.44L368.59-33.44Q368.91-33.36 369.61-32.70L369.61-32.70L369.61-32.70Q370.31-32.03 370.47-31.72L370.47-31.72L370.47-31.72Q370.63-30.94 369.14-30.20L369.14-30.20L369.14-30.20Q367.66-29.45 365.27-28.79L365.27-28.79L365.27-28.79Q362.89-28.13 360-27.58L360-27.58L360-27.58Q357.11-27.03 354.49-26.60L354.49-26.60L354.49-26.60Q351.88-26.17 350-25.82L350-25.82L350-25.82Q348.13-25.47 347.73-25.31L347.73-25.31L347.73-23.75L347.73-23.75Q347.73-22.73 347.70-21.52L347.70-21.52L347.70-21.52Q347.66-20.31 347.66-19.22L347.66-19.22L347.66-17.66L347.66-17.66Q347.66-13.67 348.20-9.88L348.20-9.88L348.20-9.88Q348.75-6.09 348.75-2.27L348.75-2.27L348.75-2.27Q348.75-1.72 348.44-1.37L348.44-1.37L348.44-1.37Q348.13-1.02 347.66-0.74L347.66-0.74L347.66-0.74Q347.19-0.47 346.72-0.27L346.72-0.27L346.72-0.27Q346.25-0.08 346.02 0L346.02 0L346.02 0Q345.39-3.36 345.12-6.13L345.12-6.13L345.12-6.13Q344.84-8.91 344.73-11.64L344.73-11.64L344.73-11.64Q344.61-14.38 344.49-17.46L344.49-17.46L344.49-17.46Q344.38-20.55 344.14-24.45L344.14-24.45" fill="#000000" stroke="none" stroke-width="none" transform="translate(-196.13001155853271,22.827887598673495)" style="transform:matrix(1, 0, 0, 1, -196.13, 22.8279);animation-play-state:paused" ></path></g>
<g class="path" style="transform-origin:183.71px -0.72711px;animation-timing-function:linear;animation-play-state:paused;animation-name:static-60bfbb34-1303-4b40-9d21-7bccbc7c9f5c;animation-iteration-count:infinite;animation-fill-mode:forwards;animation-duration:1s" ><path d="M369.38-2.66L369.38-2.66L369.38-2.66Q369.38-3.59 369.53-4.26L369.53-4.26L369.53-4.26Q369.69-4.92 370.04-5.20L370.04-5.20L370.04-5.20Q370.39-5.47 370.90-5.20L370.90-5.20L370.90-5.20Q371.41-4.92 372.19-3.91L372.19-3.91L372.19-3.91Q373.59-3.91 375.47-4.06L375.47-4.06L375.47-4.06Q377.34-4.22 379.38-4.61L379.38-4.61L379.38-4.61Q381.41-5 383.40-5.63L383.40-5.63L383.40-5.63Q385.39-6.25 386.91-7.30L386.91-7.30L386.91-7.30Q388.44-8.36 389.38-9.80L389.38-9.80L389.38-9.80Q390.31-11.25 390.31-13.20L390.31-13.20L390.31-13.20Q390.31-15.16 388.52-16.09L388.52-16.09L388.52-16.09Q386.72-17.03 383.95-17.54L383.95-17.54L383.95-17.54Q381.17-18.05 378.01-18.55L378.01-18.55L378.01-18.55Q374.84-19.06 372.11-20.12L372.11-20.12L372.11-20.12Q369.38-21.17 367.54-23.16L367.54-23.16L367.54-23.16Q365.70-25.16 365.70-28.75L365.70-28.75L365.70-28.75Q365.70-31.25 366.56-32.97L366.56-32.97L366.56-32.97Q367.42-34.69 369.45-36.17L369.45-36.17L369.45-36.17Q370.31-36.88 372.50-38.40L372.50-38.40L372.50-38.40Q374.69-39.92 377.15-41.68L377.15-41.68L377.15-41.68Q379.61-43.44 381.80-44.96L381.80-44.96L381.80-44.96Q383.98-46.48 384.84-47.11L384.84-47.11L384.84-47.11Q385-47.11 385.27-47.15L385.27-47.15L385.27-47.15Q385.55-47.19 385.70-47.19L385.70-47.19L385.70-47.19Q387.66-47.19 387.66-45.31L387.66-45.31L387.66-45.31Q387.66-44.45 386.25-43.48L386.25-43.48L386.25-43.48Q384.84-42.50 382.70-41.33L382.70-41.33L382.70-41.33Q380.55-40.16 378.09-38.83L378.09-38.83L378.09-38.83Q375.63-37.50 373.48-35.90L373.48-35.90L373.48-35.90Q371.33-34.30 369.92-32.46L369.92-32.46L369.92-32.46Q368.52-30.63 368.52-28.52L368.52-28.52L368.52-28.52Q368.52-26.25 369.65-25.23L369.65-25.23L369.65-25.23Q370.78-24.22 373.05-23.52L373.05-23.52L373.05-23.52Q373.98-23.28 376.29-22.62L376.29-22.62L376.29-22.62Q378.59-21.95 381.21-21.21L381.21-21.21L381.21-21.21Q383.83-20.47 386.13-19.84L386.13-19.84L386.13-19.84Q388.44-19.22 389.38-18.98L389.38-18.98L389.38-18.98Q391.41-17.89 392.70-16.60L392.70-16.60L392.70-16.60Q393.98-15.31 393.98-13.05L393.98-13.05L393.98-13.05Q393.98-10.86 392.85-9.06L392.85-9.06L392.85-9.06Q391.72-7.27 389.88-5.82L389.88-5.82L389.88-5.82Q388.05-4.38 385.66-3.24L385.66-3.24L385.66-3.24Q383.28-2.11 380.86-1.37L380.86-1.37L380.86-1.37Q378.44-0.63 376.13-0.27L376.13-0.27L376.13-0.27Q373.83 0.08 372.03 0.08L372.03 0.08L372.03 0.08Q370.31 0.08 369.84-0.43L369.84-0.43L369.84-0.43Q369.38-0.94 369.38-2.66" fill="#000000" stroke="none" stroke-width="none" transform="translate(-196.13001155853271,22.827887598673495)" style="transform:matrix(1, 0, 0, 1, -196.13, 22.8279);animation-play-state:paused" ></path></g></g></g></g></svg>