<?xml version="1.0" encoding="utf-8"?><svg xmlns="http://www.w3.org/2000/svg" width="280" height="250" preserveAspectRatio="xMidYMid" xmlns:xlink="http://www.w3.org/1999/xlink" style="margin-right:-2px;display:block;background-repeat-y:initial;background-repeat-x:initial;animation-play-state:paused" ><style type="text/css" style="animation-play-state:paused" >text {
    text-anchor: middle; font-size: 55px; opacity: 0;
  }</style>


<g style="transform-origin:140px 125px;transform:matrix(1, 0, 0, 1, 0, 0);animation-play-state:paused" ><g transform="translate(140,125)" style="transform:matrix(1, 0, 0, 1, 140, 125);animation-play-state:paused" ><g transform="translate(0,0)" style="transform:matrix(1, 0, 0, 1, 0, 0);animation-play-state:paused" ><g class="path" style="transform-origin:-119.25px -4.82005px;animation-timing-function:linear;animation-play-state:paused;animation-name:static-eade93b5-5d5f-45d3-8b31-e618861b01d6;animation-iteration-count:infinite;animation-fill-mode:forwards;animation-duration:1s;animation-delay:-0.6s" ><path d="M2.47-30.51L2.47-30.51L2.47-30.51Q2.09-31.10 1.93-31.85L1.93-31.85L1.93-31.85Q1.77-32.60 1.75-33.35L1.75-33.35L1.75-33.35Q1.72-34.11 1.75-34.83L1.75-34.83L1.75-34.83Q1.77-35.56 1.77-36.15L1.77-36.15L1.77-36.90L1.77-36.90Q1.77-37.44 1.80-38.00L1.80-38.00L1.80-38.00Q1.83-38.56 1.85-39.10L1.85-39.10L1.85-39.10Q1.88-39.64 1.88-39.85L1.88-39.85L1.88-39.85Q1.93-40.01 2.42-40.28L2.42-40.28L2.42-40.28Q2.90-40.55 3.12-40.50L3.12-40.50L3.12-40.50Q4.03-40.28 4.19-39.58L4.19-39.58L4.19-39.58Q4.35-38.89 4.30-38.11L4.30-38.11L4.30-38.11Q4.24-37.33 4.27-36.74L4.27-36.74L4.27-36.74Q4.30-36.15 4.94-36.15L4.94-36.15L12.41-36.15L12.41-36.15Q13.59-36.15 14.34-35.45L14.34-35.45L14.34-35.45Q15.09-34.75 15.52-33.73L15.52-33.73L15.52-33.73Q15.95-32.71 16.09-31.64L16.09-31.64L16.09-31.64Q16.22-30.56 16.22-29.76L16.22-29.76L16.22-29.76Q16.22-27.34 15.47-24.95L15.47-24.95L15.47-24.95Q14.72-22.56 13.54-20.25L13.54-20.25L13.54-20.25Q12.35-17.94 11.06-15.82L11.06-15.82L11.06-15.82Q9.78-13.70 8.70-11.82L8.70-11.82L8.70-10.85L8.70-10.85Q11.17-10.85 12.86-11.06L12.86-11.06L12.86-11.06Q14.56-11.28 16.09-11.52L16.09-11.52L16.09-11.52Q17.62-11.76 19.31-11.98L19.31-11.98L19.31-11.98Q21.00-12.19 23.53-12.19L23.53-12.19L24.60-12.19L24.60-12.19Q25.35-12.19 26.21-12.17L26.21-12.17L26.21-12.17Q27.07-12.14 27.77-12.14L27.77-12.14L28.84-12.14L28.84-12.14Q29.33-11.92 29.43-11.57L29.43-11.57L29.43-11.57Q29.54-11.23 29.54-10.85L29.54-10.85L29.54-10.85Q29.54-10.21 29.30-9.69L29.30-9.69L29.30-9.69Q29.06-9.18 28.25-8.97L28.25-8.97L28.25-8.97Q26.26-9.83 24.33-9.99L24.33-9.99L24.33-9.99Q22.40-10.15 20.49-9.99L20.49-9.99L20.49-9.99Q18.58-9.83 16.78-9.40L16.78-9.40L16.78-9.40Q14.99-8.97 13.16-8.67L13.16-8.67L13.16-8.67Q11.33-8.38 9.48-8.22L9.48-8.22L9.48-8.22Q7.63-8.06 5.75-8.43L5.75-8.43L5.75-8.43Q5.75-6.71 5.99-5.10L5.99-5.10L5.99-5.10Q6.23-3.49 6.23-1.77L6.23-1.77L6.23-1.77Q6.23-1.24 6.15-0.59L6.15-0.59L6.15-0.59Q6.07 0.05 5.32 0.05L5.32 0.05L5.32 0.05Q5.00 0.05 4.73-0.08L4.73-0.08L4.73-0.08Q4.46-0.21 4.35-0.64L4.35-0.64L4.35-0.64Q4.30-0.81 4.19-1.45L4.19-1.45L4.19-1.45Q4.08-2.09 4.00-2.77L4.00-2.77L4.00-2.77Q3.92-3.44 3.84-4.06L3.84-4.06L3.84-4.06Q3.76-4.67 3.71-5.00L3.71-5.00L3.71-5.00Q3.65-5.96 3.54-7.92L3.54-7.92L3.54-7.92Q3.44-9.88 3.30-12.43L3.30-12.43L3.30-12.43Q3.17-14.99 3.03-17.75L3.03-17.75L3.03-17.75Q2.90-20.52 2.77-23.04L2.77-23.04L2.77-23.04Q2.63-25.57 2.58-27.55L2.58-27.55L2.58-27.55Q2.52-29.54 2.47-30.51zM4.35-31.80L4.35-31.15L4.35-31.15Q4.40-30.35 4.48-28.76L4.48-28.76L4.48-28.76Q4.57-27.18 4.70-25.14L4.70-25.14L4.70-25.14Q4.83-23.10 4.97-20.87L4.97-20.87L4.97-20.87Q5.10-18.64 5.24-16.62L5.24-16.62L5.24-16.62Q5.37-14.61 5.45-12.97L5.45-12.97L5.45-12.97Q5.53-11.33 5.59-10.58L5.59-10.58L5.59-10.58Q6.88-12.57 8.38-14.90L8.38-14.90L8.38-14.90Q9.88-17.24 11.23-19.74L11.23-19.74L11.23-19.74Q12.57-22.24 13.45-24.81L13.45-24.81L13.45-24.81Q14.34-27.39 14.34-29.86L14.34-29.86L14.34-29.86Q14.34-30.88 13.94-31.72L13.94-31.72L13.94-31.72Q13.54-32.55 12.86-33.11L12.86-33.11L12.86-33.11Q12.19-33.68 11.28-33.97L11.28-33.97L11.28-33.97Q10.37-34.27 9.40-34.27L9.40-34.27L9.40-34.27Q8.92-34.27 8.06-34.16L8.06-34.16L8.06-34.16Q7.20-34.05 6.36-33.78L6.36-33.78L6.36-33.78Q5.53-33.52 4.94-33.03L4.94-33.03L4.94-33.03Q4.35-32.55 4.35-31.80L4.35-31.80" fill="#000000" stroke="none" stroke-width="none" transform="translate(-134.88748168945312,15.408854488026005)" style="transform:matrix(1, 0, 0, 1, -134.887, 15.4089);animation-play-state:paused" ></path></g>
<g class="path" style="transform-origin:-99.2775px 3.26885px;animation-timing-function:linear;animation-play-state:paused;animation-name:static-eade93b5-5d5f-45d3-8b31-e618861b01d6;animation-iteration-count:infinite;animation-fill-mode:forwards;animation-duration:1s;animation-delay:-0.54s" ><path d="M31.04-12.46L31.04-12.46L31.04-12.46Q29.81-11.71 28.52-11.31L28.52-11.31L28.52-11.31Q27.23-10.90 26.43-11.82L26.43-11.82L26.43-11.82Q26.43-12.84 27.12-13.19L27.12-13.19L27.12-13.19Q27.82-13.54 28.71-13.75L28.71-13.75L28.71-13.75Q29.59-13.96 30.48-14.29L30.48-14.29L30.48-14.29Q31.37-14.61 31.69-15.58L31.69-15.58L31.69-15.58Q32.01-16.65 32.28-18.15L32.28-18.15L32.28-18.15Q32.55-19.66 33.03-21.05L33.03-21.05L33.03-21.05Q33.52-22.45 34.43-23.39L34.43-23.39L34.43-23.39Q35.34-24.33 36.95-24.33L36.95-24.33L36.95-24.33Q37.87-24.33 39.24-23.71L39.24-23.71L39.24-23.71Q40.61-23.10 41.84-22.24L41.84-22.24L41.84-22.24Q43.08-21.38 43.94-20.41L43.94-20.41L43.94-20.41Q44.79-19.44 44.79-18.64L44.79-18.64L44.79-18.64Q44.79-18.26 44.71-17.94L44.71-17.94L44.71-17.94Q44.63-17.62 44.15-17.40L44.15-17.40L33.57-13.75L33.52-13.48L33.52-13.48Q33.52-13.27 33.46-12.89L33.46-12.89L33.46-12.25L33.46-12.25Q33.46-11.87 33.46-11.71L33.46-11.71L33.46-11.71Q33.46-10.63 33.62-9.05L33.62-9.05L33.62-9.05Q33.78-7.47 34.29-5.99L34.29-5.99L34.29-5.99Q34.80-4.51 35.72-3.44L35.72-3.44L35.72-3.44Q36.63-2.36 38.19-2.36L38.19-2.36L38.19-2.36Q38.78-2.36 39.18-2.60L39.18-2.60L39.18-2.60Q39.58-2.85 39.99-3.14L39.99-3.14L39.99-3.14Q40.39-3.44 40.79-3.68L40.79-3.68L40.79-3.68Q41.20-3.92 41.73-3.92L41.73-3.92L41.73-3.92Q41.73-3.12 41.38-2.39L41.38-2.39L41.38-2.39Q41.04-1.67 40.44-1.13L40.44-1.13L40.44-1.13Q39.85-0.59 39.10-0.27L39.10-0.27L39.10-0.27Q38.35 0.05 37.60 0.05L37.60 0.05L37.60 0.05Q35.56 0.05 34.32-1.37L34.32-1.37L34.32-1.37Q33.09-2.79 32.41-4.81L32.41-4.81L32.41-4.81Q31.74-6.82 31.47-8.94L31.47-8.94L31.47-8.94Q31.21-11.06 31.04-12.46zM37.60-21.97L37.60-21.97L37.60-21.97Q36.63-21.97 35.96-21.43L35.96-21.43L35.96-21.43Q35.29-20.89 34.86-20.09L34.86-20.09L34.86-20.09Q34.43-19.28 34.24-18.34L34.24-18.34L34.24-18.34Q34.05-17.40 34.05-16.65L34.05-16.65L34.05-16.65Q34.91-16.65 35.96-16.76L35.96-16.76L35.96-16.76Q37.01-16.87 38.03-17.19L38.03-17.19L38.03-17.19Q39.05-17.51 39.88-18.02L39.88-18.02L39.88-18.02Q40.71-18.53 41.04-19.28L41.04-19.28L41.04-19.28Q40.23-20.57 39.53-21.27L39.53-21.27L39.53-21.27Q38.83-21.97 37.60-21.97" fill="#000000" stroke="none" stroke-width="none" transform="translate(-134.88748168945312,15.408854488026005)" style="transform:matrix(1, 0, 0, 1, -134.887, 15.4089);animation-play-state:paused" ></path></g>
<g class="path" style="transform-origin:-79.7775px 2.86385px;animation-timing-function:linear;animation-play-state:paused;animation-name:static-eade93b5-5d5f-45d3-8b31-e618861b01d6;animation-iteration-count:infinite;animation-fill-mode:forwards;animation-duration:1s;animation-delay:-0.48s" ><path d="M46.89-7.79L46.89-7.79L46.89-7.79Q46.89-8.33 47.05-9.80L47.05-9.80L47.05-9.80Q47.21-11.28 47.51-13.21L47.51-13.21L47.51-13.21Q47.80-15.15 48.34-17.24L48.34-17.24L48.34-17.24Q48.88-19.34 49.60-21.11L49.60-21.11L49.60-21.11Q50.33-22.88 51.27-24.01L51.27-24.01L51.27-24.01Q52.21-25.14 53.44-25.14L53.44-25.14L53.44-25.14Q52.96-23.63 52.18-21.59L52.18-21.59L52.18-21.59Q51.40-19.55 50.70-17.32L50.70-17.32L50.70-17.32Q50.00-15.09 49.55-12.78L49.55-12.78L49.55-12.78Q49.09-10.47 49.28-8.46L49.28-8.46L49.28-8.46Q49.47-6.45 50.49-4.83L50.49-4.83L50.49-4.83Q51.51-3.22 53.71-2.36L53.71-2.36L53.71-2.36Q55.75-2.36 57.26-3.28L57.26-3.28L57.26-3.28Q58.76-4.19 59.86-5.32L59.86-5.32L59.86-5.32Q60.96-6.45 61.79-7.36L61.79-7.36L61.79-7.36Q62.63-8.27 63.33-8.27L63.33-8.27L63.33-8.27Q63.33-6.23 62.33-4.67L62.33-4.67L62.33-4.67Q61.34-3.12 59.81-2.07L59.81-2.07L59.81-2.07Q58.28-1.02 56.37-0.48L56.37-0.48L56.37-0.48Q54.46 0.05 52.53 0.05L52.53 0.05L52.53 0.05Q51.03 0.05 49.92-0.70L49.92-0.70L49.92-0.70Q48.82-1.45 48.15-2.60L48.15-2.60L48.15-2.60Q47.48-3.76 47.19-5.13L47.19-5.13L47.19-5.13Q46.89-6.50 46.89-7.79" fill="#000000" stroke="none" stroke-width="none" transform="translate(-134.88748168945312,15.408854488026005)" style="transform:matrix(1, 0, 0, 1, -134.887, 15.4089);animation-play-state:paused" ></path></g>
<g class="path" style="transform-origin:-62.5425px 3.26885px;animation-timing-function:linear;animation-play-state:paused;animation-name:static-eade93b5-5d5f-45d3-8b31-e618861b01d6;animation-iteration-count:infinite;animation-fill-mode:forwards;animation-duration:1s;animation-delay:-0.42s" ><path d="M67.78-12.46L67.78-12.46L67.78-12.46Q66.55-11.71 65.26-11.31L65.26-11.31L65.26-11.31Q63.97-10.90 63.16-11.82L63.16-11.82L63.16-11.82Q63.16-12.84 63.86-13.19L63.86-13.19L63.86-13.19Q64.56-13.54 65.45-13.75L65.45-13.75L65.45-13.75Q66.33-13.96 67.22-14.29L67.22-14.29L67.22-14.29Q68.11-14.61 68.43-15.58L68.43-15.58L68.43-15.58Q68.75-16.65 69.02-18.15L69.02-18.15L69.02-18.15Q69.29-19.66 69.77-21.05L69.77-21.05L69.77-21.05Q70.25-22.45 71.17-23.39L71.17-23.39L71.17-23.39Q72.08-24.33 73.69-24.33L73.69-24.33L73.69-24.33Q74.60-24.33 75.97-23.71L75.97-23.71L75.97-23.71Q77.34-23.10 78.58-22.24L78.58-22.24L78.58-22.24Q79.81-21.38 80.67-20.41L80.67-20.41L80.67-20.41Q81.53-19.44 81.53-18.64L81.53-18.64L81.53-18.64Q81.53-18.26 81.45-17.94L81.45-17.94L81.45-17.94Q81.37-17.62 80.89-17.40L80.89-17.40L70.31-13.75L70.25-13.48L70.25-13.48Q70.25-13.27 70.20-12.89L70.20-12.89L70.20-12.25L70.20-12.25Q70.20-11.87 70.20-11.71L70.20-11.71L70.20-11.71Q70.20-10.63 70.36-9.05L70.36-9.05L70.36-9.05Q70.52-7.47 71.03-5.99L71.03-5.99L71.03-5.99Q71.54-4.51 72.46-3.44L72.46-3.44L72.46-3.44Q73.37-2.36 74.93-2.36L74.93-2.36L74.93-2.36Q75.52-2.36 75.92-2.60L75.92-2.60L75.92-2.60Q76.32-2.85 76.73-3.14L76.73-3.14L76.73-3.14Q77.13-3.44 77.53-3.68L77.53-3.68L77.53-3.68Q77.93-3.92 78.47-3.92L78.47-3.92L78.47-3.92Q78.47-3.12 78.12-2.39L78.12-2.39L78.12-2.39Q77.77-1.67 77.18-1.13L77.18-1.13L77.18-1.13Q76.59-0.59 75.84-0.27L75.84-0.27L75.84-0.27Q75.09 0.05 74.34 0.05L74.34 0.05L74.34 0.05Q72.29 0.05 71.06-1.37L71.06-1.37L71.06-1.37Q69.82-2.79 69.15-4.81L69.15-4.81L69.15-4.81Q68.48-6.82 68.21-8.94L68.21-8.94L68.21-8.94Q67.94-11.06 67.78-12.46zM74.34-21.97L74.34-21.97L74.34-21.97Q73.37-21.97 72.70-21.43L72.70-21.43L72.70-21.43Q72.03-20.89 71.60-20.09L71.60-20.09L71.60-20.09Q71.17-19.28 70.98-18.34L70.98-18.34L70.98-18.34Q70.79-17.40 70.79-16.65L70.79-16.65L70.79-16.65Q71.65-16.65 72.70-16.76L72.70-16.76L72.70-16.76Q73.75-16.87 74.77-17.19L74.77-17.19L74.77-17.19Q75.79-17.51 76.62-18.02L76.62-18.02L76.62-18.02Q77.45-18.53 77.77-19.28L77.77-19.28L77.77-19.28Q76.97-20.57 76.27-21.27L76.27-21.27L76.27-21.27Q75.57-21.97 74.34-21.97" fill="#000000" stroke="none" stroke-width="none" transform="translate(-134.88748168945312,15.408854488026005)" style="transform:matrix(1, 0, 0, 1, -134.887, 15.4089);animation-play-state:paused" ></path></g>
<g class="path" style="transform-origin:-38.4225px 3.61885px;animation-timing-function:linear;animation-play-state:paused;animation-name:static-eade93b5-5d5f-45d3-8b31-e618861b01d6;animation-iteration-count:infinite;animation-fill-mode:forwards;animation-duration:1s;animation-delay:-0.36s" ><path d="M84.27-19.98L84.27-19.98L84.27-19.98Q84.27-20.30 84.30-20.73L84.30-20.73L84.30-20.73Q84.33-21.16 84.41-21.56L84.41-21.56L84.41-21.56Q84.49-21.97 84.76-22.24L84.76-22.24L84.76-22.24Q85.02-22.50 85.51-22.50L85.51-22.50L85.51-22.50Q85.62-22.50 85.86-22.48L85.86-22.48L85.86-22.48Q86.10-22.45 86.21-22.45L86.21-22.45L86.21-22.45Q86.26-18.64 86.61-14.61L86.61-14.61L86.61-14.61Q86.96-10.58 88.03-6.82L88.03-6.82L88.03-6.82Q88.09-7.41 88.33-8.84L88.33-8.84L88.33-8.84Q88.57-10.26 88.86-11.84L88.86-11.84L88.86-11.84Q89.16-13.43 89.46-14.82L89.46-14.82L89.46-14.82Q89.75-16.22 89.86-16.81L89.86-16.81L89.86-16.81Q90.23-17.94 90.88-19.15L90.88-19.15L90.88-19.15Q91.52-20.36 92.46-21.38L92.46-21.38L92.46-21.38Q93.40-22.40 94.56-23.04L94.56-23.04L94.56-23.04Q95.71-23.69 97.00-23.69L97.00-23.69L97.00-23.69Q99.15-23.69 100.82-22.72L100.82-22.72L100.82-22.72Q102.48-21.75 103.80-20.17L103.80-20.17L103.80-20.17Q105.11-18.58 106.03-16.57L106.03-16.57L106.03-16.57Q106.94-14.56 107.53-12.46L107.53-12.46L107.53-12.46Q108.12-10.37 108.39-8.43L108.39-8.43L108.39-8.43Q108.66-6.50 108.66-5.00L108.66-5.00L108.66-4.35L108.66-4.35Q108.66-4.03 108.58-3.73L108.58-3.73L108.58-3.73Q108.50-3.44 108.31-3.25L108.31-3.25L108.31-3.25Q108.12-3.06 107.64-3.06L107.64-3.06L107.64-3.06Q107.10-3.06 106.72-3.71L106.72-3.71L106.72-3.71Q106.67-5.05 106.43-6.82L106.43-6.82L106.43-6.82Q106.19-8.59 105.78-10.55L105.78-10.55L105.78-10.55Q105.38-12.51 104.71-14.42L104.71-14.42L104.71-14.42Q104.04-16.33 103.04-17.83L103.04-17.83L103.04-17.83Q102.05-19.34 100.71-20.28L100.71-20.28L100.71-20.28Q99.37-21.22 97.49-21.22L97.49-21.22L97.49-21.22Q95.98-21.22 94.88-20.68L94.88-20.68L94.88-20.68Q93.78-20.14 93.03-19.20L93.03-19.20L93.03-19.20Q92.28-18.26 91.82-17.00L91.82-17.00L91.82-17.00Q91.36-15.74 91.15-14.29L91.15-14.29L91.15-14.29Q90.99-13.54 90.72-11.60L90.72-11.60L90.72-11.60Q90.45-9.67 90.13-7.47L90.13-7.47L90.13-7.47Q89.80-5.26 89.56-3.33L89.56-3.33L89.56-3.33Q89.32-1.40 89.27-0.64L89.27-0.64L89.27-0.64Q89.11-0.11 88.70 0L88.70 0L88.70 0Q88.30 0.11 87.87 0.11L87.87 0.11L87.87 0.11Q87.82 0.11 87.60 0.08L87.60 0.08L87.60 0.08Q87.39 0.05 87.39 0L87.39 0L84.33-18.64L84.33-18.64Q84.33-18.75 84.30-19.23L84.30-19.23L84.30-19.23Q84.27-19.71 84.27-19.98" fill="#000000" stroke="none" stroke-width="none" transform="translate(-134.88748168945312,15.408854488026005)" style="transform:matrix(1, 0, 0, 1, -134.887, 15.4089);animation-play-state:paused" ></path></g>
<g class="path" style="transform-origin:-9.19713px -2.66615px;animation-timing-function:linear;animation-play-state:paused;animation-name:static-eade93b5-5d5f-45d3-8b31-e618861b01d6;animation-iteration-count:infinite;animation-fill-mode:forwards;animation-duration:1s;animation-delay:-0.3s" ><path d="M122.57-16.81L121.66-16.81L121.66-16.81Q120.47-16.81 119.29-16.49L119.29-16.49L119.29-16.49Q118.11-16.17 116.96-15.82L116.96-15.82L116.96-15.82Q115.80-15.47 114.65-15.17L114.65-15.17L114.65-15.17Q113.49-14.88 112.26-14.88L112.26-14.88L112.26-14.88Q111.56-14.88 111.13-15.15L111.13-15.15L111.13-15.15Q110.70-15.42 110.70-16.22L110.70-16.22L110.70-16.22Q110.70-16.87 111.05-17.11L111.05-17.11L111.05-17.11Q111.40-17.35 111.91-17.38L111.91-17.38L111.91-17.38Q112.42-17.40 112.98-17.35L112.98-17.35L112.98-17.35Q113.54-17.29 113.87-17.40L113.87-17.40L113.87-17.40Q114.30-17.51 115.45-17.78L115.45-17.78L115.45-17.78Q116.61-18.05 117.90-18.32L117.90-18.32L117.90-18.32Q119.18-18.58 120.34-18.85L120.34-18.85L120.34-18.85Q121.49-19.12 121.92-19.28L121.92-19.28L121.92-19.28Q121.92-19.44 121.95-19.85L121.95-19.85L121.95-19.85Q121.98-20.25 122.00-20.71L122.00-20.71L122.00-20.71Q122.03-21.16 122.03-21.54L122.03-21.54L122.03-22.13L122.03-22.13Q122.03-23.74 121.82-25.27L121.82-25.27L121.82-25.27Q121.60-26.80 121.36-28.36L121.36-28.36L121.36-28.36Q121.12-29.92 120.90-31.47L120.90-31.47L120.90-31.47Q120.69-33.03 120.69-34.59L120.69-34.59L120.69-34.59Q120.69-35.13 120.82-35.64L120.82-35.64L120.82-35.64Q120.96-36.15 121.66-36.15L121.66-36.15L121.66-36.15Q121.92-36.15 122.22-36.01L122.22-36.01L122.22-36.01Q122.51-35.88 122.57-35.50L122.57-35.50L124.45-19.98L124.45-19.98Q124.50-19.93 124.56-19.93L124.56-19.93L124.72-19.93L124.72-19.93Q125.25-19.93 126.38-20.20L126.38-20.20L126.38-20.20Q127.51-20.46 128.91-20.84L128.91-20.84L128.91-20.84Q130.30-21.22 131.89-21.65L131.89-21.65L131.89-21.65Q133.47-22.08 134.92-22.42L134.92-22.42L134.92-22.42Q136.37-22.77 137.55-22.96L137.55-22.96L137.55-22.96Q138.74-23.15 139.38-22.99L139.38-22.99L139.38-22.99Q139.59-22.93 140.08-22.48L140.08-22.48L140.08-22.48Q140.56-22.02 140.67-21.81L140.67-21.81L140.67-21.81Q140.78-21.27 139.76-20.76L139.76-20.76L139.76-20.76Q138.74-20.25 137.10-19.79L137.10-19.79L137.10-19.79Q135.46-19.34 133.47-18.96L133.47-18.96L133.47-18.96Q131.48-18.58 129.69-18.29L129.69-18.29L129.69-18.29Q127.89-17.99 126.60-17.75L126.60-17.75L126.60-17.75Q125.31-17.51 125.04-17.40L125.04-17.40L125.04-16.33L125.04-16.33Q125.04-15.63 125.01-14.80L125.01-14.80L125.01-14.80Q124.99-13.96 124.99-13.21L124.99-13.21L124.99-12.14L124.99-12.14Q124.99-9.40 125.36-6.79L125.36-6.79L125.36-6.79Q125.74-4.19 125.74-1.56L125.74-1.56L125.74-1.56Q125.74-1.18 125.52-0.94L125.52-0.94L125.52-0.94Q125.31-0.70 124.99-0.51L124.99-0.51L124.99-0.51Q124.66-0.32 124.34-0.19L124.34-0.19L124.34-0.19Q124.02-0.05 123.86 0L123.86 0L123.86 0Q123.43-2.31 123.24-4.22L123.24-4.22L123.24-4.22Q123.05-6.12 122.97-8.00L122.97-8.00L122.97-8.00Q122.89-9.88 122.81-12.00L122.81-12.00L122.81-12.00Q122.73-14.13 122.57-16.81L122.57-16.81" fill="#000000" stroke="none" stroke-width="none" transform="translate(-134.88748168945312,15.408854488026005)" style="transform:matrix(1, 0, 0, 1, -134.887, 15.4089);animation-play-state:paused" ></path></g>
<g class="path" style="transform-origin:38.5175px -4.25114px;animation-timing-function:linear;animation-play-state:paused;animation-name:static-eade93b5-5d5f-45d3-8b31-e618861b01d6;animation-iteration-count:infinite;animation-fill-mode:forwards;animation-duration:1s;animation-delay:-0.24s" ><path d="M164.09-33.03L164.09-33.03L164.09-33.03Q163.60-32.66 163.20-32.79L163.20-32.79L163.20-32.79Q162.80-32.92 162.58-33.27L162.58-33.27L162.58-33.27Q162.37-33.62 162.26-34.08L162.26-34.08L162.26-34.08Q162.15-34.54 162.15-34.91L162.15-34.91L162.15-34.91Q162.15-35.18 162.48-35.91L162.48-35.91L162.48-35.91Q162.80-36.63 163.23-37.38L163.23-37.38L163.23-37.38Q163.66-38.13 164.06-38.73L164.06-38.73L164.06-38.73Q164.46-39.32 164.57-39.32L164.57-39.32L164.57-39.32Q166.77-39.32 169.11-38.91L169.11-38.91L169.11-38.91Q171.45-38.51 173.70-37.73L173.70-37.73L173.70-37.73Q175.96-36.95 177.94-35.72L177.94-35.72L177.94-35.72Q179.93-34.48 181.44-32.79L181.44-32.79L181.44-32.79Q182.94-31.10 183.80-28.92L183.80-28.92L183.80-28.92Q184.66-26.75 184.66-24.06L184.66-24.06L184.66-24.06Q184.66-21.54 183.50-18.99L183.50-18.99L183.50-18.99Q182.35-16.44 180.42-14.37L180.42-14.37L180.42-14.37Q178.48-12.30 176.01-10.98L176.01-10.98L176.01-10.98Q173.54-9.67 170.91-9.67L170.91-9.67L170.91-12.14L170.91-12.14Q173.11-12.14 175.26-13.24L175.26-13.24L175.26-13.24Q177.41-14.34 179.07-16.09L179.07-16.09L179.07-16.09Q180.74-17.83 181.78-20.01L181.78-20.01L181.78-20.01Q182.83-22.18 182.83-24.33L182.83-24.33L182.83-24.33Q182.83-26.59 181.68-28.71L181.68-28.71L181.68-28.71Q180.52-30.83 178.72-32.50L178.72-32.50L178.72-32.50Q176.92-34.16 174.72-35.18L174.72-35.18L174.72-35.18Q172.52-36.20 170.37-36.20L170.37-36.20L170.37-36.20Q169.24-36.20 168.38-36.12L168.38-36.12L168.38-36.12Q167.52-36.04 166.56-35.50L166.56-35.50L166.56-34.64L166.56-34.64Q166.56-34.11 166.53-33.46L166.53-33.46L166.53-33.46Q166.50-32.82 166.50-32.23L166.50-32.23L166.50-31.42L166.50-31.42Q166.50-28.47 166.58-25.75L166.58-25.75L166.58-25.75Q166.67-23.04 166.83-20.33L166.83-20.33L166.83-20.33Q166.99-17.62 167.23-14.77L167.23-14.77L167.23-14.77Q167.47-11.92 167.79-8.70L167.79-8.70L167.79-8.70Q167.79-8.43 167.98-7.44L167.98-7.44L167.98-7.44Q168.17-6.45 168.38-5.29L168.38-5.29L168.38-5.29Q168.60-4.14 168.79-3.14L168.79-3.14L168.79-3.14Q168.97-2.15 169.03-1.88L169.03-1.88L169.03-1.88Q169.03-1.83 169.06-1.72L169.06-1.72L169.06-1.72Q169.08-1.61 169.08-1.56L169.08-1.56L169.08-1.56Q169.08-1.50 169.06-1.45L169.06-1.45L169.06-1.45Q169.03-1.40 169.03-1.34L169.03-1.34L169.03-1.24L169.03-1.24Q168.97-1.18 168.81-0.99L168.81-0.99L168.81-0.99Q168.65-0.81 168.46-0.59L168.46-0.59L168.46-0.59Q168.28-0.38 168.09-0.21L168.09-0.21L168.09-0.21Q167.90-0.05 167.79 0L167.79 0L167.20-0.64L167.20-0.64Q167.09-0.70 166.93-1.50L166.93-1.50L166.93-1.50Q166.77-2.31 166.56-3.41L166.56-3.41L166.56-3.41Q166.34-4.51 166.15-5.64L166.15-5.64L166.15-5.64Q165.97-6.77 165.91-7.47L165.91-7.47L165.91-7.47Q165.81-8.43 165.67-10.42L165.67-10.42L165.67-10.42Q165.54-12.41 165.32-14.93L165.32-14.93L165.32-14.93Q165.11-17.46 164.92-20.22L164.92-20.22L164.92-20.22Q164.73-22.99 164.57-25.51L164.57-25.51L164.57-25.51Q164.41-28.04 164.27-30.05L164.27-30.05L164.27-30.05Q164.14-32.07 164.09-33.03" fill="#000000" stroke="none" stroke-width="none" transform="translate(-134.88748168945312,15.408854488026005)" style="transform:matrix(1, 0, 0, 1, -134.887, 15.4089);animation-play-state:paused" ></path></g>
<g class="path" style="transform-origin:59.4125px 2.03385px;animation-timing-function:linear;animation-play-state:paused;animation-name:static-eade93b5-5d5f-45d3-8b31-e618861b01d6;animation-iteration-count:infinite;animation-fill-mode:forwards;animation-duration:1s;animation-delay:-0.18s" ><path d="M186.75-8.11L186.75-8.11L186.75-8.11Q186.75-9.18 186.78-10.98L186.78-10.98L186.78-10.98Q186.81-12.78 187.02-14.85L187.02-14.85L187.02-14.85Q187.24-16.92 187.67-19.07L187.67-19.07L187.67-19.07Q188.10-21.22 188.90-22.93L188.90-22.93L188.90-22.93Q189.71-24.65 190.94-25.73L190.94-25.73L190.94-25.73Q192.18-26.80 194.00-26.80L194.00-26.80L194.00-26.80Q196.53-26.80 198.06-25.41L198.06-25.41L198.06-25.41Q199.59-24.01 200.42-21.94L200.42-21.94L200.42-21.94Q201.25-19.87 201.55-17.54L201.55-17.54L201.55-17.54Q201.85-15.20 201.85-13.32L201.85-13.32L201.85-13.32Q201.85-11.28 201.25-8.92L201.25-8.92L201.25-8.92Q200.66-6.55 199.43-4.57L199.43-4.57L199.43-4.57Q198.19-2.58 196.34-1.26L196.34-1.26L196.34-1.26Q194.49 0.05 191.91 0.05L191.91 0.05L191.91 0.05Q190.24 0.05 189.22-0.73L189.22-0.73L189.22-0.73Q188.20-1.50 187.69-2.69L187.69-2.69L187.69-2.69Q187.18-3.87 186.97-5.32L186.97-5.32L186.97-5.32Q186.75-6.77 186.75-8.11zM188.58-8.75L188.58-8.75L188.58-8.75Q188.58-7.73 188.63-6.63L188.63-6.63L188.63-6.63Q188.69-5.53 188.96-4.57L188.96-4.57L188.96-4.57Q189.22-3.60 189.92-3.01L189.92-3.01L189.92-3.01Q190.62-2.42 191.96-2.42L191.96-2.42L191.96-2.42Q194.33-2.42 195.86-3.49L195.86-3.49L195.86-3.49Q197.39-4.57 198.30-6.26L198.30-6.26L198.30-6.26Q199.21-7.95 199.56-9.99L199.56-9.99L199.56-9.99Q199.91-12.03 199.91-13.91L199.91-13.91L199.91-13.91Q199.91-15.09 199.72-16.97L199.72-16.97L199.72-16.97Q199.54-18.85 198.95-20.63L198.95-20.63L198.95-20.63Q198.35-22.40 197.23-23.66L197.23-23.66L197.23-23.66Q196.10-24.92 194.27-24.92L194.27-24.92L194.27-24.92Q192.98-24.92 192.04-23.90L192.04-23.90L192.04-23.90Q191.10-22.88 190.46-21.27L190.46-21.27L190.46-21.27Q189.81-19.66 189.47-17.72L189.47-17.72L189.47-17.72Q189.12-15.79 188.90-14.02L188.90-14.02L188.90-14.02Q188.69-12.25 188.63-10.80L188.63-10.80L188.63-10.80Q188.58-9.35 188.58-8.75" fill="#000000" stroke="none" stroke-width="none" transform="translate(-134.88748168945312,15.408854488026005)" style="transform:matrix(1, 0, 0, 1, -134.887, 15.4089);animation-play-state:paused" ></path></g>
<g class="path" style="transform-origin:78.9925px -0.786144px;animation-timing-function:linear;animation-play-state:paused;animation-name:static-eade93b5-5d5f-45d3-8b31-e618861b01d6;animation-iteration-count:infinite;animation-fill-mode:forwards;animation-duration:1s;animation-delay:-0.12s" ><path d="M206.68-1.83L206.68-1.83L206.68-1.83Q206.68-2.47 206.79-2.93L206.79-2.93L206.79-2.93Q206.89-3.38 207.14-3.57L207.14-3.57L207.14-3.57Q207.38-3.76 207.73-3.57L207.73-3.57L207.73-3.57Q208.08-3.38 208.61-2.69L208.61-2.69L208.61-2.69Q209.58-2.69 210.87-2.79L210.87-2.79L210.87-2.79Q212.16-2.90 213.55-3.17L213.55-3.17L213.55-3.17Q214.95-3.44 216.32-3.87L216.32-3.87L216.32-3.87Q217.69-4.30 218.74-5.02L218.74-5.02L218.74-5.02Q219.79-5.75 220.43-6.74L220.43-6.74L220.43-6.74Q221.07-7.73 221.07-9.08L221.07-9.08L221.07-9.08Q221.07-10.42 219.84-11.06L219.84-11.06L219.84-11.06Q218.60-11.71 216.70-12.06L216.70-12.06L216.70-12.06Q214.79-12.41 212.61-12.76L212.61-12.76L212.61-12.76Q210.44-13.11 208.56-13.83L208.56-13.83L208.56-13.83Q206.68-14.56 205.42-15.93L205.42-15.93L205.42-15.93Q204.16-17.29 204.16-19.77L204.16-19.77L204.16-19.77Q204.16-21.48 204.75-22.67L204.75-22.67L204.75-22.67Q205.34-23.85 206.73-24.87L206.73-24.87L206.73-24.87Q207.32-25.35 208.83-26.40L208.83-26.40L208.83-26.40Q210.33-27.45 212.02-28.65L212.02-28.65L212.02-28.65Q213.72-29.86 215.22-30.91L215.22-30.91L215.22-30.91Q216.72-31.96 217.31-32.39L217.31-32.39L217.31-32.39Q217.42-32.39 217.61-32.41L217.61-32.41L217.61-32.41Q217.80-32.44 217.91-32.44L217.91-32.44L217.91-32.44Q219.25-32.44 219.25-31.15L219.25-31.15L219.25-31.15Q219.25-30.56 218.28-29.89L218.28-29.89L218.28-29.89Q217.31-29.22 215.84-28.41L215.84-28.41L215.84-28.41Q214.36-27.61 212.67-26.69L212.67-26.69L212.67-26.69Q210.98-25.78 209.50-24.68L209.50-24.68L209.50-24.68Q208.02-23.58 207.06-22.32L207.06-22.32L207.06-22.32Q206.09-21.05 206.09-19.60L206.09-19.60L206.09-19.60Q206.09-18.05 206.87-17.35L206.87-17.35L206.87-17.35Q207.65-16.65 209.20-16.17L209.20-16.17L209.20-16.17Q209.85-16.01 211.43-15.55L211.43-15.55L211.43-15.55Q213.02-15.09 214.82-14.58L214.82-14.58L214.82-14.58Q216.62-14.07 218.20-13.64L218.20-13.64L218.20-13.64Q219.79-13.21 220.43-13.05L220.43-13.05L220.43-13.05Q221.83-12.30 222.71-11.41L222.71-11.41L222.71-11.41Q223.60-10.53 223.60-8.97L223.60-8.97L223.60-8.97Q223.60-7.47 222.82-6.23L222.82-6.23L222.82-6.23Q222.04-5.00 220.78-4.00L220.78-4.00L220.78-4.00Q219.52-3.01 217.88-2.23L217.88-2.23L217.88-2.23Q216.24-1.45 214.58-0.94L214.58-0.94L214.58-0.94Q212.91-0.43 211.33-0.19L211.33-0.19L211.33-0.19Q209.74 0.05 208.51 0.05L208.51 0.05L208.51 0.05Q207.32 0.05 207.00-0.30L207.00-0.30L207.00-0.30Q206.68-0.64 206.68-1.83" fill="#000000" stroke="none" stroke-width="none" transform="translate(-134.88748168945312,15.408854488026005)" style="transform:matrix(1, 0, 0, 1, -134.887, 15.4089);animation-play-state:paused" ></path></g>
<g class="path" style="transform-origin:105.473px -2.66615px;animation-timing-function:linear;animation-play-state:paused;animation-name:static-eade93b5-5d5f-45d3-8b31-e618861b01d6;animation-iteration-count:infinite;animation-fill-mode:forwards;animation-duration:1s;animation-delay:-0.06s" ><path d="M237.24-16.81L236.33-16.81L236.33-16.81Q235.15-16.81 233.96-16.49L233.96-16.49L233.96-16.49Q232.78-16.17 231.63-15.82L231.63-15.82L231.63-15.82Q230.47-15.47 229.32-15.17L229.32-15.17L229.32-15.17Q228.16-14.88 226.93-14.88L226.93-14.88L226.93-14.88Q226.23-14.88 225.80-15.15L225.80-15.15L225.80-15.15Q225.37-15.42 225.37-16.22L225.37-16.22L225.37-16.22Q225.37-16.87 225.72-17.11L225.72-17.11L225.72-17.11Q226.07-17.35 226.58-17.38L226.58-17.38L226.58-17.38Q227.09-17.40 227.65-17.35L227.65-17.35L227.65-17.35Q228.22-17.29 228.54-17.40L228.54-17.40L228.54-17.40Q228.97-17.51 230.12-17.78L230.12-17.78L230.12-17.78Q231.28-18.05 232.57-18.32L232.57-18.32L232.57-18.32Q233.86-18.58 235.01-18.85L235.01-18.85L235.01-18.85Q236.17-19.12 236.60-19.28L236.60-19.28L236.60-19.28Q236.60-19.44 236.62-19.85L236.62-19.85L236.62-19.85Q236.65-20.25 236.68-20.71L236.68-20.71L236.68-20.71Q236.70-21.16 236.70-21.54L236.70-21.54L236.70-22.13L236.70-22.13Q236.70-23.74 236.49-25.27L236.49-25.27L236.49-25.27Q236.27-26.80 236.03-28.36L236.03-28.36L236.03-28.36Q235.79-29.92 235.58-31.47L235.58-31.47L235.58-31.47Q235.36-33.03 235.36-34.59L235.36-34.59L235.36-34.59Q235.36-35.13 235.50-35.64L235.50-35.64L235.50-35.64Q235.63-36.15 236.33-36.15L236.33-36.15L236.33-36.15Q236.60-36.15 236.89-36.01L236.89-36.01L236.89-36.01Q237.19-35.88 237.24-35.50L237.24-35.50L239.12-19.98L239.12-19.98Q239.17-19.93 239.23-19.93L239.23-19.93L239.39-19.93L239.39-19.93Q239.93-19.93 241.05-20.20L241.05-20.20L241.05-20.20Q242.18-20.46 243.58-20.84L243.58-20.84L243.58-20.84Q244.98-21.22 246.56-21.65L246.56-21.65L246.56-21.65Q248.14-22.08 249.59-22.42L249.59-22.42L249.59-22.42Q251.04-22.77 252.23-22.96L252.23-22.96L252.23-22.96Q253.41-23.15 254.05-22.99L254.05-22.99L254.05-22.99Q254.27-22.93 254.75-22.48L254.75-22.48L254.75-22.48Q255.23-22.02 255.34-21.81L255.34-21.81L255.34-21.81Q255.45-21.27 254.43-20.76L254.43-20.76L254.43-20.76Q253.41-20.25 251.77-19.79L251.77-19.79L251.77-19.79Q250.13-19.34 248.14-18.96L248.14-18.96L248.14-18.96Q246.16-18.58 244.36-18.29L244.36-18.29L244.36-18.29Q242.56-17.99 241.27-17.75L241.27-17.75L241.27-17.75Q239.98-17.51 239.71-17.40L239.71-17.40L239.71-16.33L239.71-16.33Q239.71-15.63 239.69-14.80L239.69-14.80L239.69-14.80Q239.66-13.96 239.66-13.21L239.66-13.21L239.66-12.14L239.66-12.14Q239.66-9.40 240.03-6.79L240.03-6.79L240.03-6.79Q240.41-4.19 240.41-1.56L240.41-1.56L240.41-1.56Q240.41-1.18 240.20-0.94L240.20-0.94L240.20-0.94Q239.98-0.70 239.66-0.51L239.66-0.51L239.66-0.51Q239.34-0.32 239.01-0.19L239.01-0.19L239.01-0.19Q238.69-0.05 238.53 0L238.53 0L238.53 0Q238.10-2.31 237.91-4.22L237.91-4.22L237.91-4.22Q237.72-6.12 237.64-8.00L237.64-8.00L237.64-8.00Q237.56-9.88 237.48-12.00L237.48-12.00L237.48-12.00Q237.40-14.13 237.24-16.81L237.24-16.81" fill="#000000" stroke="none" stroke-width="none" transform="translate(-134.88748168945312,15.408854488026005)" style="transform:matrix(1, 0, 0, 1, -134.887, 15.4089);animation-play-state:paused" ></path></g>
<g class="path" style="transform-origin:126.903px -0.786144px;animation-timing-function:linear;animation-play-state:paused;animation-name:static-eade93b5-5d5f-45d3-8b31-e618861b01d6;animation-iteration-count:infinite;animation-fill-mode:forwards;animation-duration:1s" ><path d="M254.59-1.83L254.59-1.83L254.59-1.83Q254.59-2.47 254.70-2.93L254.70-2.93L254.70-2.93Q254.80-3.38 255.05-3.57L255.05-3.57L255.05-3.57Q255.29-3.76 255.64-3.57L255.64-3.57L255.64-3.57Q255.99-3.38 256.52-2.69L256.52-2.69L256.52-2.69Q257.49-2.69 258.78-2.79L258.78-2.79L258.78-2.79Q260.07-2.90 261.46-3.17L261.46-3.17L261.46-3.17Q262.86-3.44 264.23-3.87L264.23-3.87L264.23-3.87Q265.60-4.30 266.65-5.02L266.65-5.02L266.65-5.02Q267.70-5.75 268.34-6.74L268.34-6.74L268.34-6.74Q268.98-7.73 268.98-9.08L268.98-9.08L268.98-9.08Q268.98-10.42 267.75-11.06L267.75-11.06L267.75-11.06Q266.51-11.71 264.61-12.06L264.61-12.06L264.61-12.06Q262.70-12.41 260.52-12.76L260.52-12.76L260.52-12.76Q258.35-13.11 256.47-13.83L256.47-13.83L256.47-13.83Q254.59-14.56 253.33-15.93L253.33-15.93L253.33-15.93Q252.07-17.29 252.07-19.77L252.07-19.77L252.07-19.77Q252.07-21.48 252.66-22.67L252.66-22.67L252.66-22.67Q253.25-23.85 254.64-24.87L254.64-24.87L254.64-24.87Q255.23-25.35 256.74-26.40L256.74-26.40L256.74-26.40Q258.24-27.45 259.93-28.65L259.93-28.65L259.93-28.65Q261.63-29.86 263.13-30.91L263.13-30.91L263.13-30.91Q264.63-31.96 265.22-32.39L265.22-32.39L265.22-32.39Q265.33-32.39 265.52-32.41L265.52-32.41L265.52-32.41Q265.71-32.44 265.82-32.44L265.82-32.44L265.82-32.44Q267.16-32.44 267.16-31.15L267.16-31.15L267.16-31.15Q267.16-30.56 266.19-29.89L266.19-29.89L266.19-29.89Q265.22-29.22 263.75-28.41L263.75-28.41L263.75-28.41Q262.27-27.61 260.58-26.69L260.58-26.69L260.58-26.69Q258.89-25.78 257.41-24.68L257.41-24.68L257.41-24.68Q255.93-23.58 254.97-22.32L254.97-22.32L254.97-22.32Q254.00-21.05 254.00-19.60L254.00-19.60L254.00-19.60Q254.00-18.05 254.78-17.35L254.78-17.35L254.78-17.35Q255.56-16.65 257.11-16.17L257.11-16.17L257.11-16.17Q257.76-16.01 259.34-15.55L259.34-15.55L259.34-15.55Q260.93-15.09 262.73-14.58L262.73-14.58L262.73-14.58Q264.53-14.07 266.11-13.64L266.11-13.64L266.11-13.64Q267.70-13.21 268.34-13.05L268.34-13.05L268.34-13.05Q269.74-12.30 270.62-11.41L270.62-11.41L270.62-11.41Q271.51-10.53 271.51-8.97L271.51-8.97L271.51-8.97Q271.51-7.47 270.73-6.23L270.73-6.23L270.73-6.23Q269.95-5.00 268.69-4.00L268.69-4.00L268.69-4.00Q267.43-3.01 265.79-2.23L265.79-2.23L265.79-2.23Q264.15-1.45 262.49-0.94L262.49-0.94L262.49-0.94Q260.82-0.43 259.24-0.19L259.24-0.19L259.24-0.19Q257.65 0.05 256.42 0.05L256.42 0.05L256.42 0.05Q255.23 0.05 254.91-0.30L254.91-0.30L254.91-0.30Q254.59-0.64 254.59-1.83" fill="#000000" stroke="none" stroke-width="none" transform="translate(-134.88748168945312,15.408854488026005)" style="transform:matrix(1, 0, 0, 1, -134.887, 15.4089);animation-play-state:paused" ></path></g></g></g></g></svg>