<?xml version="1.0" encoding="utf-8"?><svg xmlns="http://www.w3.org/2000/svg" width="280" height="250" preserveAspectRatio="xMidYMid" xmlns:xlink="http://www.w3.org/1999/xlink" style="margin-right:-2px;display:block;background-repeat-y:initial;background-repeat-x:initial;animation-play-state:paused" ><style type="text/css" style="animation-play-state:paused" >text {
    text-anchor: middle; font-size: 55px; opacity: 0;
  }</style>


<g style="transform-origin:140px 125px;transform:matrix(1, 0, 0, 1, 0, 0);animation-play-state:paused" ><g transform="translate(140,125)" style="transform:matrix(1, 0, 0, 1, 140, 125);animation-play-state:paused" ><g transform="translate(0,0)" style="transform:matrix(1, 0, 0, 1, 0, 0);animation-play-state:paused" ><g class="path" style="transform-origin:-40.505px -4.77055px;animation-timing-function:linear;animation-play-state:paused;animation-name:static-eade93b5-5d5f-45d3-8b31-e618861b01d6;animation-iteration-count:infinite;animation-fill-mode:forwards;animation-duration:1s;animation-delay:-0.565714s" ><path d="M0.64-28.04L0.64-30.13L0.64-30.13Q1.67-30.13 2.28-29.86L2.28-29.86L2.28-29.86Q2.90-29.59 3.33-29.08L3.33-29.08L3.33-29.08Q3.76-28.57 4.11-27.82L4.11-27.82L4.11-27.82Q4.46-27.07 5.00-26.16L5.00-26.16L21.86-5.59L21.86-5.59Q22.13-5.21 22.26-5.08L22.26-5.08L22.26-5.08Q22.40-4.94 22.77-4.94L22.77-4.94L22.77-4.94Q22.83-4.94 22.91-4.97L22.91-4.97L22.91-4.97Q22.99-5.00 23.04-5.00L23.04-5.00L23.04-5.00Q23.20-5.64 23.55-7.06L23.55-7.06L23.55-7.06Q23.90-8.49 24.30-10.29L24.30-10.29L24.30-10.29Q24.71-12.08 25.19-14.05L25.19-14.05L25.19-14.05Q25.67-16.01 26.10-17.78L26.10-17.78L26.10-17.78Q26.53-19.55 26.88-20.95L26.88-20.95L26.88-20.95Q27.23-22.34 27.39-22.99L27.39-22.99L27.39-22.99Q27.77-24.33 28.31-26.29L28.31-26.29L28.31-26.29Q28.84-28.25 29.70-30.05L29.70-30.05L29.70-30.05Q30.56-31.85 31.77-33.17L31.77-33.17L31.77-33.17Q32.98-34.48 34.64-34.48L34.64-34.48L34.64-34.48Q34.64-33.35 34.51-32.90L34.51-32.90L34.51-32.90Q34.38-32.44 34.08-32.12L34.08-32.12L34.08-32.12Q33.78-31.80 33.38-31.34L33.38-31.34L33.38-31.34Q32.98-30.88 32.44-29.86L32.44-29.86L32.44-29.86Q32.17-29.49 31.72-28.55L31.72-28.55L31.72-28.55Q31.26-27.61 30.78-26.51L30.78-26.51L30.78-26.51Q30.29-25.41 29.86-24.41L29.86-24.41L29.86-24.41Q29.43-23.42 29.27-22.99L29.27-22.99L29.27-22.99Q29.17-22.40 28.84-21.08L28.84-21.08L28.84-21.08Q28.52-19.77 28.14-18.10L28.14-18.10L28.14-18.10Q27.77-16.44 27.37-14.61L27.37-14.61L27.37-14.61Q26.96-12.78 26.61-11.12L26.61-11.12L26.61-11.12Q26.26-9.45 25.97-8.16L25.97-8.16L25.97-8.16Q25.67-6.88 25.51-6.23L25.51-6.23L25.51-6.23Q25.46-5.96 25.38-5.26L25.38-5.26L25.38-5.26Q25.30-4.57 25.19-3.76L25.19-3.76L25.19-3.76Q25.08-2.95 25.00-2.26L25.00-2.26L25.00-2.26Q24.92-1.56 24.92-1.24L24.92-1.24L24.92-1.24Q24.60-0.75 24.25-0.35L24.25-0.35L24.25-0.35Q23.90 0.05 23.36 0.05L23.36 0.05L23.36 0.05Q22.93 0.05 22.83-0.08L22.83-0.08L22.83-0.08Q22.72-0.21 22.45-0.64L22.45-0.64L0.64-28.04" fill="#000000" stroke="none" stroke-width="none" transform="translate(-58.144989013671875,12.444454606601164)" style="transform:matrix(1, 0, 0, 1, -58.145, 12.4445);animation-play-state:paused" ></path></g>
<g class="path" style="transform-origin:-21.89px 0.249454px;animation-timing-function:linear;animation-play-state:paused;animation-name:static-eade93b5-5d5f-45d3-8b31-e618861b01d6;animation-iteration-count:infinite;animation-fill-mode:forwards;animation-duration:1s;animation-delay:-0.471429s" ><path d="M33.14-22.45L33.14-24.44L33.14-24.44Q33.46-24.44 33.86-24.22L33.86-24.22L33.86-24.22Q34.27-24.01 34.38-23.63L34.38-23.63L38.13-5.00L38.13-5.00Q38.78-4.03 39.07-3.44L39.07-3.44L39.07-3.44Q39.37-2.85 39.37-1.88L39.37-1.88L39.37-1.88Q39.37-1.40 39.21-0.67L39.21-0.67L39.21-0.67Q39.05 0.05 38.46 0.05L38.46 0.05L38.24 0.05L38.24 0.05Q38.13 0.05 38.13 0L38.13 0L38.13 0Q38.03-0.05 37.81-0.21L37.81-0.21L37.01-1.02L37.01-1.02Q36.85-1.18 36.85-1.24L36.85-1.24L33.14-22.45" fill="#000000" stroke="none" stroke-width="none" transform="translate(-58.144989013671875,12.444454606601164)" style="transform:matrix(1, 0, 0, 1, -58.145, 12.4445);animation-play-state:paused" ></path></g>
<g class="path" style="transform-origin:-24.76px -22.3605px;animation-timing-function:linear;animation-play-state:paused;animation-name:static-eade93b5-5d5f-45d3-8b31-e618861b01d6;animation-iteration-count:infinite;animation-fill-mode:forwards;animation-duration:1s;animation-delay:-0.377143s" ><path d="M32.23-36.47L32.23-36.47L32.23-36.47Q33.41-36.47 33.97-36.17L33.97-36.17L33.97-36.17Q34.54-35.88 34.54-34.75L34.54-34.75L34.54-34.75Q34.54-34.38 34.48-33.84L34.48-33.84L34.48-33.84Q34.43-33.30 33.84-33.14L33.84-33.14L33.84-33.14Q32.76-33.57 32.50-34.54L32.50-34.54L32.50-34.54Q32.23-35.50 32.23-36.47" fill="#000000" stroke="none" stroke-width="none" transform="translate(-58.144989013671875,12.444454606601164)" style="transform:matrix(1, 0, 0, 1, -58.145, 12.4445);animation-play-state:paused" ></path></g>
<g class="path" style="transform-origin:-7.92499px -6.25055px;animation-timing-function:linear;animation-play-state:paused;animation-name:static-eade93b5-5d5f-45d3-8b31-e618861b01d6;animation-iteration-count:infinite;animation-fill-mode:forwards;animation-duration:1s;animation-delay:-0.282857s" ><path d="M40.87-4.57L40.87-4.57L40.87-4.57Q40.87-7.47 42.03-10.45L42.03-10.45L42.03-10.45Q43.18-13.43 45.12-16.01L45.12-16.01L45.12-16.01Q47.05-18.58 49.55-20.60L49.55-20.60L49.55-20.60Q52.05-22.61 54.62-23.63L54.62-23.63L54.62-23.63Q54.62-25.24 54.46-26.80L54.46-26.80L54.46-26.80Q54.30-28.36 54.09-29.94L54.09-29.94L54.09-29.94Q53.87-31.53 53.66-33.14L53.66-33.14L53.66-33.14Q53.44-34.75 53.39-36.47L53.39-36.47L53.39-36.47Q53.39-37.01 53.79-37.22L53.79-37.22L53.79-37.22Q54.19-37.44 54.62-37.44L54.62-37.44L54.62-37.44Q54.95-37.44 55.40-37.36L55.40-37.36L55.40-37.36Q55.86-37.28 55.91-36.74L55.91-36.74L59.57-3.12L59.57-3.12Q59.57-3.12 59.46-2.93L59.46-2.93L59.46-2.93Q59.35-2.74 59.14-2.55L59.14-2.55L59.14-2.55Q58.92-2.36 58.71-2.18L58.71-2.18L58.71-2.18Q58.49-1.99 58.38-1.88L58.38-1.88L58.38-1.88Q58.38-1.83 58.25-1.80L58.25-1.80L58.25-1.80Q58.12-1.77 58.06-1.77L58.06-1.77L58.06-1.77Q57.42-2.20 57.07-3.52L57.07-3.52L57.07-3.52Q56.72-4.83 56.53-6.42L56.53-6.42L56.53-6.42Q56.34-8.00 56.21-9.51L56.21-9.51L56.21-9.51Q56.07-11.01 55.91-11.82L55.91-11.82L55.91-11.82Q55.81-11.39 55.46-10.37L55.46-10.37L55.46-10.37Q55.11-9.35 54.46-8.00L54.46-8.00L54.46-8.00Q53.82-6.66 52.91-5.26L52.91-5.26L52.91-5.26Q51.99-3.87 50.76-2.69L50.76-2.69L50.76-2.69Q49.52-1.50 47.91-0.73L47.91-0.73L47.91-0.73Q46.30 0.05 44.37 0.05L44.37 0.05L44.37 0.05Q43.40 0.05 42.73-0.32L42.73-0.32L42.73-0.32Q42.06-0.70 41.65-1.37L41.65-1.37L41.65-1.37Q41.25-2.04 41.06-2.87L41.06-2.87L41.06-2.87Q40.87-3.71 40.87-4.57zM43.34-5.59L43.34-5.59L43.34-5.59Q43.34-5.37 43.40-4.86L43.40-4.86L43.40-4.86Q43.45-4.35 43.64-3.81L43.64-3.81L43.64-3.81Q43.83-3.28 44.07-2.87L44.07-2.87L44.07-2.87Q44.31-2.47 44.63-2.47L44.63-2.47L44.63-2.47Q45.82-2.58 47.19-3.52L47.19-3.52L47.19-3.52Q48.55-4.46 49.84-5.91L49.84-5.91L49.84-5.91Q51.13-7.36 52.29-9.16L52.29-9.16L52.29-9.16Q53.44-10.96 54.22-12.78L54.22-12.78L54.22-12.78Q55-14.61 55.27-16.33L55.27-16.33L55.27-16.33Q55.54-18.05 55.21-19.28L55.21-19.28L55.21-19.28Q55-19.71 54.84-19.85L54.84-19.85L54.84-19.85Q54.68-19.98 54.36-19.98L54.36-19.98L54.36-19.98Q51.99-19.98 49.95-18.53L49.95-18.53L49.95-18.53Q47.91-17.08 46.43-14.90L46.43-14.90L46.43-14.90Q44.96-12.73 44.15-10.21L44.15-10.21L44.15-10.21Q43.34-7.68 43.34-5.59" fill="#000000" stroke="none" stroke-width="none" transform="translate(-58.144989013671875,12.444454606601164)" style="transform:matrix(1, 0, 0, 1, -58.145, 12.4445);animation-play-state:paused" ></path></g>
<g class="path" style="transform-origin:10.34px 0.304454px;animation-timing-function:linear;animation-play-state:paused;animation-name:static-eade93b5-5d5f-45d3-8b31-e618861b01d6;animation-iteration-count:infinite;animation-fill-mode:forwards;animation-duration:1s;animation-delay:-0.188571s" ><path d="M63.92-12.46L63.92-12.46L63.92-12.46Q62.68-11.71 61.39-11.31L61.39-11.31L61.39-11.31Q60.10-10.90 59.30-11.82L59.30-11.82L59.30-11.82Q59.30-12.84 60.00-13.19L60.00-13.19L60.00-13.19Q60.69-13.54 61.58-13.75L61.58-13.75L61.58-13.75Q62.47-13.96 63.35-14.29L63.35-14.29L63.35-14.29Q64.24-14.61 64.56-15.58L64.56-15.58L64.56-15.58Q64.88-16.65 65.15-18.15L65.15-18.15L65.15-18.15Q65.42-19.66 65.90-21.05L65.90-21.05L65.90-21.05Q66.39-22.45 67.30-23.39L67.30-23.39L67.30-23.39Q68.21-24.33 69.82-24.33L69.82-24.33L69.82-24.33Q70.74-24.33 72.11-23.71L72.11-23.71L72.11-23.71Q73.48-23.10 74.71-22.24L74.71-22.24L74.71-22.24Q75.95-21.38 76.81-20.41L76.81-20.41L76.81-20.41Q77.67-19.44 77.67-18.64L77.67-18.64L77.67-18.64Q77.67-18.26 77.59-17.94L77.59-17.94L77.59-17.94Q77.50-17.62 77.02-17.40L77.02-17.40L66.44-13.75L66.39-13.48L66.39-13.48Q66.39-13.27 66.33-12.89L66.33-12.89L66.33-12.25L66.33-12.25Q66.33-11.87 66.33-11.71L66.33-11.71L66.33-11.71Q66.33-10.63 66.49-9.05L66.49-9.05L66.49-9.05Q66.66-7.47 67.17-5.99L67.17-5.99L67.17-5.99Q67.68-4.51 68.59-3.44L68.59-3.44L68.59-3.44Q69.50-2.36 71.06-2.36L71.06-2.36L71.06-2.36Q71.65-2.36 72.05-2.60L72.05-2.60L72.05-2.60Q72.46-2.85 72.86-3.14L72.86-3.14L72.86-3.14Q73.26-3.44 73.66-3.68L73.66-3.68L73.66-3.68Q74.07-3.92 74.60-3.92L74.60-3.92L74.60-3.92Q74.60-3.12 74.26-2.39L74.26-2.39L74.26-2.39Q73.91-1.67 73.32-1.13L73.32-1.13L73.32-1.13Q72.72-0.59 71.97-0.27L71.97-0.27L71.97-0.27Q71.22 0.05 70.47 0.05L70.47 0.05L70.47 0.05Q68.43 0.05 67.19-1.37L67.19-1.37L67.19-1.37Q65.96-2.79 65.29-4.81L65.29-4.81L65.29-4.81Q64.61-6.82 64.35-8.94L64.35-8.94L64.35-8.94Q64.08-11.06 63.92-12.46zM70.47-21.97L70.47-21.97L70.47-21.97Q69.50-21.97 68.83-21.43L68.83-21.43L68.83-21.43Q68.16-20.89 67.73-20.09L67.73-20.09L67.73-20.09Q67.30-19.28 67.11-18.34L67.11-18.34L67.11-18.34Q66.92-17.40 66.92-16.65L66.92-16.65L66.92-16.65Q67.78-16.65 68.83-16.76L68.83-16.76L68.83-16.76Q69.88-16.87 70.90-17.19L70.90-17.19L70.90-17.19Q71.92-17.51 72.75-18.02L72.75-18.02L72.75-18.02Q73.58-18.53 73.91-19.28L73.91-19.28L73.91-19.28Q73.10-20.57 72.40-21.27L72.40-21.27L72.40-21.27Q71.70-21.97 70.47-21.97" fill="#000000" stroke="none" stroke-width="none" transform="translate(-58.144989013671875,12.444454606601164)" style="transform:matrix(1, 0, 0, 1, -58.145, 12.4445);animation-play-state:paused" ></path></g>
<g class="path" style="transform-origin:29.485px -0.930546px;animation-timing-function:linear;animation-play-state:paused;animation-name:static-eade93b5-5d5f-45d3-8b31-e618861b01d6;animation-iteration-count:infinite;animation-fill-mode:forwards;animation-duration:1s;animation-delay:-0.0942857s" ><path d="M80.08-8.11L80.08-8.11L80.08-8.11Q80.08-9.18 80.11-10.98L80.11-10.98L80.11-10.98Q80.14-12.78 80.35-14.85L80.35-14.85L80.35-14.85Q80.57-16.92 81.00-19.07L81.00-19.07L81.00-19.07Q81.43-21.22 82.23-22.93L82.23-22.93L82.23-22.93Q83.04-24.65 84.27-25.73L84.27-25.73L84.27-25.73Q85.51-26.80 87.33-26.80L87.33-26.80L87.33-26.80Q89.86-26.80 91.39-25.41L91.39-25.41L91.39-25.41Q92.92-24.01 93.75-21.94L93.75-21.94L93.75-21.94Q94.58-19.87 94.88-17.54L94.88-17.54L94.88-17.54Q95.18-15.20 95.18-13.32L95.18-13.32L95.18-13.32Q95.18-11.28 94.58-8.92L94.58-8.92L94.58-8.92Q93.99-6.55 92.76-4.57L92.76-4.57L92.76-4.57Q91.52-2.58 89.67-1.26L89.67-1.26L89.67-1.26Q87.82 0.05 85.24 0.05L85.24 0.05L85.24 0.05Q83.57 0.05 82.55-0.73L82.55-0.73L82.55-0.73Q81.53-1.50 81.02-2.69L81.02-2.69L81.02-2.69Q80.51-3.87 80.30-5.32L80.30-5.32L80.30-5.32Q80.08-6.77 80.08-8.11zM81.91-8.75L81.91-8.75L81.91-8.75Q81.91-7.73 81.96-6.63L81.96-6.63L81.96-6.63Q82.02-5.53 82.29-4.57L82.29-4.57L82.29-4.57Q82.55-3.60 83.25-3.01L83.25-3.01L83.25-3.01Q83.95-2.42 85.29-2.42L85.29-2.42L85.29-2.42Q87.66-2.42 89.19-3.49L89.19-3.49L89.19-3.49Q90.72-4.57 91.63-6.26L91.63-6.26L91.63-6.26Q92.54-7.95 92.89-9.99L92.89-9.99L92.89-9.99Q93.24-12.03 93.24-13.91L93.24-13.91L93.24-13.91Q93.24-15.09 93.05-16.97L93.05-16.97L93.05-16.97Q92.87-18.85 92.28-20.63L92.28-20.63L92.28-20.63Q91.68-22.40 90.56-23.66L90.56-23.66L90.56-23.66Q89.43-24.92 87.60-24.92L87.60-24.92L87.60-24.92Q86.31-24.92 85.37-23.90L85.37-23.90L85.37-23.90Q84.43-22.88 83.79-21.27L83.79-21.27L83.79-21.27Q83.14-19.66 82.80-17.72L82.80-17.72L82.80-17.72Q82.45-15.79 82.23-14.02L82.23-14.02L82.23-14.02Q82.02-12.25 81.96-10.80L81.96-10.80L81.96-10.80Q81.91-9.35 81.91-8.75" fill="#000000" stroke="none" stroke-width="none" transform="translate(-58.144989013671875,12.444454606601164)" style="transform:matrix(1, 0, 0, 1, -58.145, 12.4445);animation-play-state:paused" ></path></g>
<g class="path" style="transform-origin:49.065px -3.75055px;animation-timing-function:linear;animation-play-state:paused;animation-name:static-eade93b5-5d5f-45d3-8b31-e618861b01d6;animation-iteration-count:infinite;animation-fill-mode:forwards;animation-duration:1s" ><path d="M100.01-1.83L100.01-1.83L100.01-1.83Q100.01-2.47 100.12-2.93L100.12-2.93L100.12-2.93Q100.22-3.38 100.47-3.57L100.47-3.57L100.47-3.57Q100.71-3.76 101.06-3.57L101.06-3.57L101.06-3.57Q101.41-3.38 101.94-2.69L101.94-2.69L101.94-2.69Q102.91-2.69 104.20-2.79L104.20-2.79L104.20-2.79Q105.49-2.90 106.88-3.17L106.88-3.17L106.88-3.17Q108.28-3.44 109.65-3.87L109.65-3.87L109.65-3.87Q111.02-4.30 112.07-5.02L112.07-5.02L112.07-5.02Q113.12-5.75 113.76-6.74L113.76-6.74L113.76-6.74Q114.40-7.73 114.40-9.08L114.40-9.08L114.40-9.08Q114.40-10.42 113.17-11.06L113.17-11.06L113.17-11.06Q111.93-11.71 110.03-12.06L110.03-12.06L110.03-12.06Q108.12-12.41 105.94-12.76L105.94-12.76L105.94-12.76Q103.77-13.11 101.89-13.83L101.89-13.83L101.89-13.83Q100.01-14.56 98.75-15.93L98.75-15.93L98.75-15.93Q97.49-17.29 97.49-19.77L97.49-19.77L97.49-19.77Q97.49-21.48 98.08-22.67L98.08-22.67L98.08-22.67Q98.67-23.85 100.06-24.87L100.06-24.87L100.06-24.87Q100.65-25.35 102.16-26.40L102.16-26.40L102.16-26.40Q103.66-27.45 105.35-28.65L105.35-28.65L105.35-28.65Q107.05-29.86 108.55-30.91L108.55-30.91L108.55-30.91Q110.05-31.96 110.64-32.39L110.64-32.39L110.64-32.39Q110.75-32.39 110.94-32.41L110.94-32.41L110.94-32.41Q111.13-32.44 111.24-32.44L111.24-32.44L111.24-32.44Q112.58-32.44 112.58-31.15L112.58-31.15L112.58-31.15Q112.58-30.56 111.61-29.89L111.61-29.89L111.61-29.89Q110.64-29.22 109.17-28.41L109.17-28.41L109.17-28.41Q107.69-27.61 106.00-26.69L106.00-26.69L106.00-26.69Q104.31-25.78 102.83-24.68L102.83-24.68L102.83-24.68Q101.35-23.58 100.39-22.32L100.39-22.32L100.39-22.32Q99.42-21.05 99.42-19.60L99.42-19.60L99.42-19.60Q99.42-18.05 100.20-17.35L100.20-17.35L100.20-17.35Q100.98-16.65 102.53-16.17L102.53-16.17L102.53-16.17Q103.18-16.01 104.76-15.55L104.76-15.55L104.76-15.55Q106.35-15.09 108.15-14.58L108.15-14.58L108.15-14.58Q109.95-14.07 111.53-13.64L111.53-13.64L111.53-13.64Q113.12-13.21 113.76-13.05L113.76-13.05L113.76-13.05Q115.16-12.30 116.04-11.41L116.04-11.41L116.04-11.41Q116.93-10.53 116.93-8.97L116.93-8.97L116.93-8.97Q116.93-7.47 116.15-6.23L116.15-6.23L116.15-6.23Q115.37-5.00 114.11-4.00L114.11-4.00L114.11-4.00Q112.85-3.01 111.21-2.23L111.21-2.23L111.21-2.23Q109.57-1.45 107.91-0.94L107.91-0.94L107.91-0.94Q106.24-0.43 104.66-0.19L104.66-0.19L104.66-0.19Q103.07 0.05 101.84 0.05L101.84 0.05L101.84 0.05Q100.65 0.05 100.33-0.30L100.33-0.30L100.33-0.30Q100.01-0.64 100.01-1.83" fill="#000000" stroke="none" stroke-width="none" transform="translate(-58.144989013671875,12.444454606601164)" style="transform:matrix(1, 0, 0, 1, -58.145, 12.4445);animation-play-state:paused" ></path></g></g></g></g></svg>