<?xml version="1.0" encoding="utf-8"?><svg xmlns="http://www.w3.org/2000/svg" width="280" height="250" preserveAspectRatio="xMidYMid" xmlns:xlink="http://www.w3.org/1999/xlink" style="margin-right:-2px;display:block;background-repeat-y:initial;background-repeat-x:initial;background-color:rgb(241, 242, 243);animation-play-state:paused" ><style type="text/css" style="animation-play-state:paused" >text {
    text-anchor: middle; font-size: 38px; opacity: 0;
  }</style>


<g style="transform-origin:140px 125px;transform:matrix(1, 0, 0, 1, 0, 0);animation-play-state:paused" ><g transform="translate(140,125)" style="transform:matrix(1, 0, 0, 1, 140, 125);animation-play-state:paused" ><g transform="translate(0,0)" style="transform:matrix(1, 0, 0, 1, 0, 0);animation-play-state:paused" ><g class="path" style="transform-origin:-35.3912px -3.04644px;animation-timing-function:linear;animation-play-state:paused;animation-name:static-5edba46f-4004-4ec4-b6aa-431d6ed1e35d;animation-iteration-count:infinite;animation-fill-mode:forwards;animation-duration:0.362319s;animation-delay:-0.225845s" ><path d="M33.90-32.11L33.90-32.11L33.90-32.11Q33.97-32.07 33.78-31.71L33.78-31.71L33.78-31.71Q33.59-31.35 33.33-30.93L33.33-30.93L33.33-30.93Q33.06-30.51 32.79-30.02L32.79-30.02L32.79-30.02Q32.53-29.53 32.45-29.34L32.45-29.34L31.96-28.20L31.96-28.20Q31.65-27.55 31.22-26.47L31.22-26.47L31.22-26.47Q30.78-25.38 30.30-24.21L30.30-24.21L30.30-24.21Q29.83-23.03 29.41-21.91L29.41-21.91L29.41-21.91Q28.99-20.79 28.77-20.10L28.77-20.10L28.77-20.10Q28.69-19.87 28.52-19.30L28.52-19.30L28.52-19.30Q28.35-18.73 28.06-17.94L28.06-17.94L28.06-17.94Q27.78-17.14 27.45-16.15L27.45-16.15L27.45-16.15Q27.13-15.16 26.79-14.14L26.79-14.14L26.79-14.14Q25.84-11.36 25.04-9.20L25.04-9.20L25.04-9.20Q24.24-7.03 23.52-5.36L23.52-5.36L23.52-5.36Q22.80-3.69 22.13-2.45L22.13-2.45L22.13-2.45Q21.47-1.22 20.86-0.30L20.86-0.30L20.86-0.30Q20.52 0.11 20.08 0.61L20.08 0.61L20.08 0.61Q19.65 1.10 19.21 1.50L19.21 1.50L19.21 1.50Q18.77 1.90 18.45 2.15L18.45 2.15L18.45 2.15Q18.13 2.39 18.05 2.32L18.05 2.32L18.05 2.32Q17.90 2.20 17.52 2.47L17.52 2.47L17.52 2.47Q16.83 3.00 16.11 2.89L16.11 2.89L16.11 2.89Q15.39 2.77 14.17 2.01L14.17 2.01L14.17 2.01Q13.26 1.44 12.71 0.84L12.71 0.84L12.71 0.84Q12.16 0.23 11.91-0.59L11.91-0.59L11.91-0.59Q11.67-1.41 11.65-2.55L11.65-2.55L11.65-2.55Q11.63-3.69 11.82-5.28L11.82-5.28L12.12-7.90L11.51-7.07L11.51-7.07Q10.98-6.31 9.94-4.54L9.94-4.54L9.94-4.54Q8.89-2.77 7.68-0.61L7.68-0.61L7.68-0.61Q6.54 1.41 5.74 2.49L5.74 2.49L5.74 2.49Q4.94 3.57 4.26 4.10L4.26 4.10L4.26 4.10Q2.89 5.09 2.32 4.64L2.32 4.64L2.32 4.64Q2.20 4.56 1.98 4.43L1.98 4.43L1.98 4.43Q1.75 4.29 1.60 4.22L1.60 4.22L1.60 4.22Q1.41 4.14 1.14 3.97L1.14 3.97L1.14 3.97Q0.87 3.80 0.68 3.57L0.68 3.57L0.68 3.57Q0.49 3.38 0.27 3.23L0.27 3.23L0.27 3.23Q0.04 3.08-0.08 3.08L-0.08 3.08L-0.08 3.08Q-0.38 3.04-0.59 2.66L-0.59 2.66L-0.59 2.66Q-0.80 2.28-0.87 1.71L-0.87 1.71L-0.87 1.71Q-0.95 1.14-0.36-0.95L-0.36-0.95L-0.36-0.95Q0.23-3.04 1.60-7.30L1.60-7.30L1.60-7.30Q2.36-9.58 2.89-11.27L2.89-11.27L2.89-11.27Q3.42-12.96 3.78-14.27L3.78-14.27L3.78-14.27Q4.14-15.58 4.39-16.61L4.39-16.61L4.39-16.61Q4.64-17.63 4.83-18.62L4.83-18.62L4.83-18.62Q4.98-19.34 5.07-20.16L5.07-20.16L5.07-20.16Q5.17-20.98 5.22-21.72L5.22-21.72L5.22-21.72Q5.28-22.46 5.28-23.05L5.28-23.05L5.28-23.05Q5.28-23.64 5.24-23.94L5.24-23.94L5.24-23.94Q5.17-24.24 5.09-24.19L5.09-24.19L5.09-24.19Q5.02-24.13 4.79-23.64L4.79-23.64L4.79-23.64Q4.60-23.37 4.39-23.12L4.39-23.12L4.39-23.12Q4.18-22.88 4.07-22.80L4.07-22.80L4.07-22.80Q3.84-22.61 3.82-22.67L3.82-22.67L3.82-22.67Q3.80-22.72 3.91-23.07L3.91-23.07L3.91-23.07Q3.99-23.26 4.08-23.43L4.08-23.43L4.08-23.43Q4.18-23.60 4.26-23.60L4.26-23.60L4.26-23.60Q4.41-23.67 4.41-23.98L4.41-23.98L4.41-23.98Q4.33-24.09 4.45-24.26L4.45-24.26L4.45-24.26Q4.56-24.43 4.64-24.55L4.64-24.55L4.64-24.55Q4.98-24.81 5.02-25.02L5.02-25.02L5.02-25.02Q5.05-25.23 4.75-25.04L4.75-25.04L4.75-25.04Q4.41-24.78 4.08-24.28L4.08-24.28L4.08-24.28Q3.76-23.79 3.69-23.37L3.69-23.37L3.69-23.37Q3.61-22.84 3.34-22.84L3.34-22.84L3.34-22.84Q3.08-22.84 2.96-23.29L2.96-23.29L2.96-23.29Q2.85-23.67 3.00-24.15L3.00-24.15L3.00-24.15Q3.15-24.62 3.44-24.98L3.44-24.98L3.44-24.98Q3.72-25.35 4.10-25.55L4.10-25.55L4.10-25.55Q4.48-25.76 4.79-25.61L4.79-25.61L4.79-25.61Q4.98-25.54 5.30-25.50L5.30-25.50L5.30-25.50Q5.62-25.46 5.97-25.42L5.97-25.42L5.97-25.42Q6.99-25.35 7.50-24.34L7.50-24.34L7.50-24.34Q8.02-23.33 8.17-21.09L8.17-21.09L8.17-21.09Q8.21-19.99 8.15-18.71L8.15-18.71L8.15-18.71Q8.09-17.44 7.87-15.88L7.87-15.88L7.87-15.88Q7.64-14.33 7.24-12.39L7.24-12.39L7.24-12.39Q6.84-10.45 6.23-8.02L6.23-8.02L5.97-6.88L7.22-8.63L7.22-8.63Q8.09-9.84 8.93-10.83L8.93-10.83L8.93-10.83Q9.77-11.82 10.47-12.54L10.47-12.54L10.47-12.54Q11.17-13.26 11.70-13.64L11.70-13.64L11.70-13.64Q12.24-14.02 12.54-14.02L12.54-14.02L12.54-14.02Q12.73-13.98 12.94-14.02L12.94-14.02L12.94-14.02Q13.15-14.06 13.30-14.14L13.30-14.14L13.30-14.14Q14.06-14.48 14.25-13.41L14.25-13.41L14.40-12.81L14.97-13.19L14.97-13.19Q15.31-13.45 15.48-13.47L15.48-13.47L15.48-13.47Q15.66-13.49 15.92-13.30L15.92-13.30L15.92-13.30Q16.15-13.19 16.25-13.03L16.25-13.03L16.25-13.03Q16.34-12.88 16.34-12.56L16.34-12.56L16.34-12.56Q16.34-12.24 16.23-11.65L16.23-11.65L16.23-11.65Q16.11-11.06 15.88-10.11L15.88-10.11L15.88-10.11Q15.35-7.87 15.05-5.78L15.05-5.78L15.05-5.78Q14.74-3.69 14.78-2.47L14.78-2.47L14.78-2.47Q14.78-2.01 14.86-1.48L14.86-1.48L14.86-1.48Q14.93-0.95 15.03-0.49L15.03-0.49L15.03-0.49Q15.12-0.04 15.24 0.28L15.24 0.28L15.24 0.28Q15.35 0.61 15.47 0.68L15.47 0.68L15.47 0.68Q15.50 0.72 15.79 0.44L15.79 0.44L15.79 0.44Q16.07 0.15 16.47-0.27L16.47-0.27L16.47-0.27Q16.87-0.68 17.27-1.18L17.27-1.18L17.27-1.18Q17.67-1.67 17.97-2.09L17.97-2.09L17.97-2.09Q19.08-3.69 20.79-7.26L20.79-7.26L20.79-7.26Q22.50-10.83 24.97-16.61L24.97-16.61L24.97-16.61Q32.15-33.63 33.29-32.11L33.29-32.11L33.29-32.11Q33.36-32.03 33.19-31.73L33.19-31.73L33.19-31.73Q33.02-31.43 32.72-31.01L32.72-31.01L32.72-31.01Q32.22-30.25 31.52-28.88L31.52-28.88L31.52-28.88Q30.82-27.51 30.04-25.78L30.04-25.78L30.04-25.78Q29.26-24.05 28.44-22.04L28.44-22.04L28.44-22.04Q27.63-20.03 26.90-18.05L26.90-18.05L26.90-18.05Q26.83-17.90 26.50-16.97L26.50-16.97L26.50-16.97Q26.18-16.04 25.76-14.93L25.76-14.93L25.76-14.93Q25.31-13.79 25.00-12.90L25.00-12.90L25.00-12.90Q24.70-12.01 24.66-11.89L24.66-11.89L24.66-11.89Q24.66-11.67 24.98-12.48L24.98-12.48L24.98-12.48Q25.31-13.30 25.80-14.63L25.80-14.63L25.80-14.63Q25.99-15.05 26.11-15.31L26.11-15.31L26.11-15.31Q26.22-15.58 26.26-15.54L26.26-15.54L26.26-15.54Q26.33-15.50 26.39-15.69L26.39-15.69L26.39-15.69Q26.45-15.88 26.52-16.19L26.52-16.19L26.52-16.19Q26.56-16.49 26.66-16.72L26.66-16.72L26.66-16.72Q26.75-16.95 26.83-16.95L26.83-16.95L26.83-16.95Q26.98-17.02 26.98-17.44L26.98-17.44L26.98-17.44Q26.90-17.90 27.09-17.82L27.09-17.82L27.09-17.82Q27.28-17.71 27.28-18.13L27.28-18.13L27.28-18.13Q27.25-18.32 27.30-18.45L27.30-18.45L27.30-18.45Q27.36-18.58 27.44-18.54L27.44-18.54L27.44-18.54Q27.55-18.54 27.55-19L27.55-19L27.55-19Q27.55-19.49 27.70-19.34L27.70-19.34L27.70-19.34Q27.82-19.30 27.93-19.72L27.93-19.72L27.93-19.72Q28.01-20.03 28.12-20.37L28.12-20.37L28.12-20.37Q28.23-20.71 28.35-20.94L28.35-20.94L28.35-20.94Q28.39-20.98 28.39-21.09L28.39-21.09L28.39-21.09Q28.39-21.20 28.42-21.32L28.42-21.32L28.42-21.32Q28.50-21.62 28.61-21.62L28.61-21.62L28.61-21.62Q28.77-21.58 28.77-21.77L28.77-21.77L28.77-21.77Q28.73-21.85 28.82-22.17L28.82-22.17L28.82-22.17Q28.92-22.50 29.07-22.91L29.07-22.91L29.07-22.91Q29.22-23.33 29.39-23.73L29.39-23.73L29.39-23.73Q29.56-24.13 29.68-24.36L29.68-24.36L29.68-24.36Q29.91-24.66 29.91-24.81L29.91-24.81L29.91-24.81Q29.94-24.89 30.04-25.06L30.04-25.06L30.04-25.06Q30.13-25.23 30.25-25.42L30.25-25.42L30.25-25.42Q30.36-25.61 30.48-25.92L30.48-25.92L30.48-25.92Q30.59-26.22 30.63-26.45L30.63-26.45L30.63-26.45Q30.74-26.94 30.89-26.83L30.89-26.83L30.89-26.83Q31.05-26.71 31.01-26.83L31.01-26.83L31.01-26.83Q30.93-26.87 31.05-27.21L31.05-27.21L31.05-27.21Q31.16-27.55 31.33-27.99L31.33-27.99L31.33-27.99Q31.50-28.42 31.71-28.80L31.71-28.80L31.71-28.80Q31.92-29.18 32.07-29.37L32.07-29.37L32.07-29.37Q32.22-29.56 32.28-29.70L32.28-29.70L32.28-29.70Q32.34-29.83 32.30-29.83L32.30-29.83L32.30-29.83Q32.11-29.83 32.38-30.02L32.38-30.02L32.38-30.02Q32.60-30.25 32.60-30.40L32.60-30.40L32.60-30.40Q32.64-30.48 32.83-30.76L32.83-30.76L32.83-30.76Q33.02-31.05 33.25-31.37L33.25-31.37L33.25-31.37Q33.48-31.69 33.67-31.92L33.67-31.92L33.67-31.92Q33.86-32.15 33.90-32.11zM14.67 1.03L14.67 1.03L14.67 1.03Q14.86 1.03 14.84 0.99L14.84 0.99L14.84 0.99Q14.82 0.95 14.63 0.76L14.63 0.76L14.63 0.76Q14.36 0.42 14.40 0.38L14.40 0.38L14.40 0.38Q14.44 0.34 14.38 0.11L14.38 0.11L14.38 0.11Q14.33-0.11 14.25-0.46L14.25-0.46L14.25-0.46Q14.17-0.76 14.08-1.22L14.08-1.22L14.08-1.22Q13.98-1.67 14.02-1.98L14.02-1.98L14.02-1.98Q14.02-2.66 13.83-2.74L13.83-2.74L13.83-2.74Q13.72-2.74 13.70-2.34L13.70-2.34L13.70-2.34Q13.68-1.94 13.74-1.39L13.74-1.39L13.74-1.39Q13.79-0.84 13.91-0.28L13.91-0.28L13.91-0.28Q14.02 0.27 14.17 0.57L14.17 0.57L14.17 0.57Q14.36 1.03 14.67 1.03zM7.07-22.57L7.07-22.57L7.07-22.57Q7.11-22.12 7.18-21.93L7.18-21.93L7.18-21.93Q7.26-21.74 7.33-21.93L7.33-21.93L7.33-21.93Q7.37-22.00 7.35-22.40L7.35-22.40L7.35-22.40Q7.33-22.80 7.26-23.26L7.26-23.26L7.26-23.26Q7.11-24.13 6.82-24.66L6.82-24.66L6.82-24.66Q6.54-25.19 6.23-25.23L6.23-25.23L6.23-25.23Q5.97-25.31 6.35-24.74L6.35-24.74L6.35-24.74Q6.65-24.32 6.86-23.69L6.86-23.69L6.86-23.69Q7.07-23.07 7.07-22.57zM23.67-9.01L23.67-9.01L23.67-9.01Q23.98-9.61 24.15-10.07L24.15-10.07L24.15-10.07Q24.32-10.53 24.24-10.60L24.24-10.60L24.24-10.60Q24.21-10.64 24.00-10.20L24.00-10.20L24.00-10.20Q23.79-9.77 23.56-9.20L23.56-9.20L23.56-9.20Q23.33-8.63 23.12-8.11L23.12-8.11L23.12-8.11Q22.91-7.60 22.91-7.49L22.91-7.49L22.91-7.49Q22.84-6.88 23.67-9.01zM19.46-0.57L19.46-0.57L19.46-0.57Q20.14-1.60 20.54-2.28L20.54-2.28L20.54-2.28Q20.94-2.96 20.75-2.81L20.75-2.81L20.75-2.81Q20.67-2.77 20.43-2.36L20.43-2.36L20.43-2.36Q20.18-1.94 19.87-1.41L19.87-1.41L19.87-1.41Q19.57-0.87 19.11-0.25L19.11-0.25L19.11-0.25Q18.66 0.38 18.35 0.72L18.35 0.72L18.35 0.72Q17.56 1.56 18.01 1.25L18.01 1.25L18.01 1.25Q18.20 1.10 18.62 0.57L18.62 0.57L18.62 0.57Q19.04 0.04 19.46-0.57zM6.31-23.71L6.31-23.71L6.31-23.71Q6.42-23.26 6.52-22.84L6.52-22.84L6.52-22.84Q6.61-22.42 6.61-22.31L6.61-22.31L6.61-22.31Q6.69-22.00 6.76-22.00L6.76-22.00L6.76-22.00Q6.80-22.00 6.80-22.27L6.80-22.27L6.80-22.27Q6.80-22.53 6.73-22.91L6.73-22.91L6.73-22.91Q6.65-23.56 6.46-24.13L6.46-24.13L6.46-24.13Q6.27-24.70 6.12-24.70L6.12-24.70L6.12-24.70Q6.08-24.70 6.16-24.41L6.16-24.41L6.16-24.41Q6.23-24.13 6.31-23.71zM10.45-8.25L10.45-8.25L10.45-8.25Q10.87-8.78 11.04-9.10L11.04-9.10L11.04-9.10Q11.21-9.42 11.06-9.27L11.06-9.27L11.06-9.27Q10.91-9.16 10.56-8.70L10.56-8.70L10.56-8.70Q10.22-8.25 9.90-7.79L9.90-7.79L9.90-7.79Q9.58-7.33 9.37-7.01L9.37-7.01L9.37-7.01Q9.16-6.69 9.27-6.80L9.27-6.80L9.27-6.80Q9.35-6.84 9.69-7.28L9.69-7.28L9.69-7.28Q10.03-7.71 10.45-8.25zM14.33-9.46L14.33-9.46L14.33-9.46Q14.44-9.99 14.50-10.36L14.50-10.36L14.50-10.36Q14.55-10.72 14.48-10.68L14.48-10.68L14.48-10.68Q14.40-10.60 14.29-10.18L14.29-10.18L14.29-10.18Q14.17-9.77 14.06-9.29L14.06-9.29L14.06-9.29Q13.95-8.82 13.89-8.44L13.89-8.44L13.89-8.44Q13.83-8.06 13.87-8.09L13.87-8.09L13.87-8.09Q13.95-8.13 14.08-8.53L14.08-8.53L14.08-8.53Q14.21-8.93 14.33-9.46zM6.88-15.66L7.07-16.83L7.07-16.83Q7.18-17.33 7.24-17.84L7.24-17.84L7.24-17.84Q7.30-18.35 7.26-18.62L7.26-18.62L7.14-19.23L7.11-18.51L7.11-18.51Q7.14-18.20 7.09-17.69L7.09-17.69L7.09-17.69Q7.03-17.18 6.95-16.76L6.95-16.76L6.88-15.66zM14.10-6.50L13.91-4.75L13.91-4.75Q13.72-3.31 13.72-3.06L13.72-3.06L13.72-3.06Q13.72-2.81 13.83-3.08L13.83-3.08L13.83-3.08Q13.91-3.19 13.95-3.74L13.95-3.74L13.95-3.74Q13.98-4.29 14.02-4.94L14.02-4.94L14.10-6.50zM8.28-5.17L8.28-5.17L8.28-5.17Q8.51-5.47 8.68-5.74L8.68-5.74L8.68-5.74Q8.85-6.00 8.85-6.08L8.85-6.08L8.85-6.08Q8.89-6.16 8.74-6.00L8.74-6.00L8.74-6.00Q8.59-5.85 8.32-5.51L8.32-5.51L8.32-5.51Q8.09-5.21 7.92-4.94L7.92-4.94L7.92-4.94Q7.75-4.67 7.75-4.60L7.75-4.60L7.75-4.60Q7.75-4.52 7.90-4.69L7.90-4.69L7.90-4.69Q8.06-4.86 8.28-5.17zM7.45-20.48L7.45-20.48L7.45-20.48Q7.22-20.75 7.22-19.84L7.22-19.84L7.22-19.23L7.37-19.80L7.37-19.80Q7.45-20.03 7.47-20.23L7.47-20.23L7.47-20.23Q7.49-20.44 7.45-20.48zM13.11-3.50L13.11-3.50L13.11-3.50Q13.03-3.19 13.09-2.98L13.09-2.98L13.09-2.98Q13.15-2.77 13.26-2.77L13.26-2.77L13.26-2.77Q13.30-2.77 13.30-3.27L13.30-3.27L13.30-3.27Q13.26-3.76 13.22-3.84L13.22-3.84L13.22-3.84Q13.19-3.91 13.11-3.50zM21.62-4.45L21.62-4.45L21.62-4.45Q21.77-4.75 21.74-4.75L21.74-4.75L21.74-4.75Q21.70-4.75 21.51-4.33L21.51-4.33L21.51-4.33Q21.36-4.10 21.22-3.82L21.22-3.82L21.22-3.82Q21.09-3.53 21.01-3.34L21.01-3.34L21.01-3.34Q20.86-3.08 20.90-3.10L20.90-3.10L20.90-3.10Q20.94-3.12 21.13-3.42L21.13-3.42L21.13-3.42Q21.28-3.61 21.41-3.93L21.41-3.93L21.41-3.93Q21.55-4.26 21.62-4.45zM7.41-21.55L7.41-21.55L7.41-21.55Q7.30-21.74 7.22-21.56L7.22-21.56L7.22-21.56Q7.14-21.39 7.22-21.05L7.22-21.05L7.26-20.60L7.37-21.01L7.37-21.01Q7.52-21.43 7.41-21.55zM6.88-2.81L6.88-2.81L6.88-2.81Q7.18-3.19 7.18-3.38L7.18-3.38L7.18-3.38Q7.22-3.50 6.92-3.19L6.92-3.19L6.92-3.19Q6.76-3.00 6.67-2.83L6.67-2.83L6.67-2.83Q6.57-2.66 6.57-2.58L6.57-2.58L6.57-2.58Q6.54-2.51 6.63-2.56L6.63-2.56L6.63-2.56Q6.73-2.62 6.88-2.81zM13.53-6.12L13.53-6.12L13.53-6.12Q13.45-5.59 13.43-5.38L13.43-5.38L13.43-5.38Q13.41-5.17 13.49-5.43L13.49-5.43L13.49-5.43Q13.57-5.74 13.62-6.12L13.62-6.12L13.62-6.12Q13.68-6.50 13.72-6.76L13.72-6.76L13.72-6.76Q13.72-7.07 13.66-6.86L13.66-6.86L13.66-6.86Q13.60-6.65 13.53-6.12zM24.36-10.83L24.36-10.83L24.36-10.83Q24.47-10.83 24.55-11.13L24.55-11.13L24.55-11.13Q24.62-11.55 24.55-11.55L24.55-11.55L24.55-11.55Q24.43-11.55 24.32-11.17L24.32-11.17L24.32-11.17Q24.17-10.83 24.36-10.83zM5.66-0.80L5.66-0.80L6.00-1.37L6.00-1.37Q6.00-1.60 5.74-1.14L5.74-1.14L5.74-1.14Q5.43-0.76 5.36-0.57L5.36-0.57L5.36-0.57Q5.36-0.42 5.66-0.80zM22.04-5.24L22.04-5.24L22.04-5.24Q22.27-5.59 22.27-5.89L22.27-5.89L22.27-5.89Q22.31-6.08 22.12-5.78L22.12-5.78L22.12-5.78Q22.04-5.62 21.98-5.47L21.98-5.47L21.98-5.47Q21.93-5.32 21.89-5.21L21.89-5.21L21.89-5.21Q21.89-4.98 22.04-5.24zM22.61-6.46L22.61-6.46L22.61-6.46Q22.69-6.61 22.76-6.78L22.76-6.78L22.76-6.78Q22.84-6.95 22.84-7.07L22.84-7.07L22.84-7.07Q22.88-7.18 22.82-7.16L22.82-7.16L22.82-7.16Q22.76-7.14 22.69-6.99L22.69-6.99L22.69-6.99Q22.46-6.69 22.46-6.42L22.46-6.42L22.46-6.42Q22.42-6.23 22.61-6.46zM6.69-21.70L6.69-21.70L6.69-21.70Q6.61-21.51 6.65-21.22L6.65-21.22L6.65-21.22Q6.69-20.94 6.76-20.94L6.76-20.94L6.76-20.94Q6.76-20.94 6.84-21.43L6.84-21.43L6.84-21.43Q6.76-21.93 6.69-21.70zM11.78-10.03L11.78-10.03L11.78-10.03Q12.05-10.37 11.89-10.37L11.89-10.37L11.89-10.37Q11.86-10.37 11.59-10.03L11.59-10.03L11.59-10.03Q11.32-9.69 11.48-9.69L11.48-9.69L11.48-9.69Q11.51-9.65 11.78-10.03zM16.87 2.55L16.87 2.55L16.87 2.55Q17.18 2.36 17.14 2.36L17.14 2.36L17.14 2.36Q17.10 2.36 16.80 2.47L16.80 2.47L16.80 2.47Q16.04 2.77 16.34 2.77L16.34 2.77L16.34 2.77Q16.53 2.77 16.87 2.55zM4.10 1.86L4.10 1.86L4.10 1.86Q4.18 1.79 4.24 1.65L4.24 1.65L4.24 1.65Q4.29 1.52 4.33 1.44L4.33 1.44L4.33 1.44Q4.33 1.29 4.14 1.48L4.14 1.48L4.14 1.48Q3.91 1.79 3.91 1.94L3.91 1.94L3.91 1.94Q3.88 2.05 4.10 1.86zM15.39-11.86L15.39-11.86L15.39-11.86Q15.39-12.05 15.35-11.95L15.35-11.95L15.35-11.95Q15.31-11.86 15.24-11.55L15.24-11.55L15.24-11.55Q15.16-10.94 15.28-11.13L15.28-11.13L15.28-11.13Q15.35-11.29 15.37-11.48L15.37-11.48L15.37-11.48Q15.39-11.67 15.39-11.86zM6.76-20.52L6.76-20.52L6.76-20.52Q6.76-20.67 6.73-20.60L6.73-20.60L6.73-20.60Q6.69-20.52 6.65-20.25L6.65-20.25L6.65-20.25Q6.57-19.99 6.59-19.87L6.59-19.87L6.59-19.87Q6.61-19.76 6.69-19.91L6.69-19.91L6.69-19.91Q6.76-20.22 6.76-20.52zM5.85-13.83L5.85-13.83L5.85-13.83Q5.93-13.95 5.91-14.00L5.91-14.00L5.91-14.00Q5.89-14.06 5.81-13.98L5.81-13.98L5.81-13.98Q5.62-13.87 5.62-13.76L5.62-13.76L5.62-13.76Q5.59-13.57 5.66-13.58L5.66-13.58L5.66-13.58Q5.74-13.60 5.85-13.83zM5.51-12.20L5.51-12.20L5.51-12.20Q5.55-12.27 5.55-12.54L5.55-12.54L5.55-12.54Q5.51-12.69 5.47-12.67L5.47-12.67L5.47-12.67Q5.43-12.65 5.40-12.46L5.40-12.46L5.40-12.46Q5.40-12.20 5.51-12.20zM14.71-8.74L14.71-8.74L14.71-8.74Q14.63-8.89 14.59-8.51L14.59-8.51L14.59-8.51Q14.55-8.32 14.57-8.27L14.57-8.27L14.57-8.27Q14.59-8.21 14.63-8.28L14.63-8.28L14.63-8.28Q14.78-8.44 14.71-8.74zM3.31-23.60L3.31-23.60L3.31-23.60Q3.46-23.67 3.38-23.90L3.38-23.90L3.38-23.90Q3.34-24.17 3.27-23.86L3.27-23.86L3.27-23.86Q3.19-23.71 3.23-23.64L3.23-23.64L3.23-23.64Q3.27-23.56 3.31-23.60zM28.12-22.84L28.12-22.84L28.12-22.84Q28.04-22.46 28.20-22.61L28.20-22.61L28.20-22.61Q28.23-22.65 28.27-22.74L28.27-22.74L28.27-22.74Q28.31-22.84 28.23-22.95L28.23-22.95L28.23-22.95Q28.23-23.10 28.12-22.84zM14.82-9.61L14.82-9.61L14.82-9.61Q14.82-9.69 14.80-9.63L14.80-9.63L14.80-9.63Q14.78-9.58 14.74-9.39L14.74-9.39L14.74-9.39Q14.67-8.97 14.78-9.20L14.78-9.20L14.78-9.20Q14.93-9.35 14.82-9.61zM6.04-14.74L6.04-14.74L6.04-14.74Q6.19-14.97 6.08-15.16L6.08-15.16L6.08-15.16Q6.08-15.28 6.06-15.22L6.06-15.22L6.06-15.22Q6.04-15.16 6.00-14.97L6.00-14.97L6.00-14.97Q5.93-14.59 6.04-14.74zM13.11-1.94L13.11-1.94L13.11-1.94Q13.26-2.05 13.19-2.28L13.19-2.28L13.19-2.28Q13.11-2.51 13.07-2.17L13.07-2.17L13.07-2.17Q13.07-1.90 13.11-1.94" fill="#000000" stroke="none" stroke-width="none" transform="translate(-51.91087055206299,10.680559433764877)" style="transform:matrix(1, 0, 0, 1, -51.9109, 10.6806);animation-play-state:paused" ></path></g>
<g class="path" style="transform-origin:-48.2396px 14.9521px;animation-timing-function:linear;animation-play-state:paused;animation-name:static-5edba46f-4004-4ec4-b6aa-431d6ed1e35d;animation-iteration-count:infinite;animation-fill-mode:forwards;animation-duration:0.362319s;animation-delay:-0.21256s" ><path d="M3.80 4.33L3.80 4.33L3.80 4.33Q3.99 4.10 3.90 4.07L3.90 4.07L3.90 4.07Q3.80 4.03 3.53 4.22L3.53 4.22L3.53 4.22Q3.34 4.48 3.46 4.48L3.46 4.48L3.46 4.48Q3.53 4.48 3.65 4.45L3.65 4.45L3.65 4.45Q3.76 4.41 3.80 4.33" fill="#000000" stroke="none" stroke-width="none" transform="translate(-51.91087055206299,10.680559433764877)" style="transform:matrix(1, 0, 0, 1, -51.9109, 10.6806);animation-play-state:paused" ></path></g>
<g class="path" style="transform-origin:-16.5642px 3.4729px;animation-timing-function:linear;animation-play-state:paused;animation-name:static-5edba46f-4004-4ec4-b6aa-431d6ed1e35d;animation-iteration-count:infinite;animation-fill-mode:forwards;animation-duration:0.362319s;animation-delay:-0.199275s" ><path d="M31.27-6.61L31.27-6.61L31.27-6.61Q30.93-6.73 30.86-6.65L30.86-6.65L30.86-6.65Q30.78-6.57 30.70-5.97L30.70-5.97L30.70-5.97Q30.51-4.75 30.76-3.46L30.76-3.46L30.76-3.46Q31.01-2.17 31.54-1.44L31.54-1.44L31.54-1.44Q31.65-1.33 31.73-1.27L31.73-1.27L31.73-1.27Q31.81-1.22 31.96-1.25L31.96-1.25L31.96-1.25Q32.11-1.29 32.38-1.41L32.38-1.41L32.38-1.41Q32.64-1.52 33.10-1.75L33.10-1.75L33.10-1.75Q34.01-2.20 35.04-2.93L35.04-2.93L35.04-2.93Q36.06-3.65 37.13-4.56L37.13-4.56L37.13-4.56Q38.19-5.47 39.18-6.48L39.18-6.48L39.18-6.48Q40.17-7.49 41.00-8.51L41.00-8.51L41.00-8.51Q41.42-9.01 41.78-9.37L41.78-9.37L41.78-9.37Q42.14-9.73 42.26-9.73L42.26-9.73L42.26-9.73Q42.56-9.73 42.48-9.50L42.48-9.50L42.48-9.50Q42.41-9.27 41.88-8.44L41.88-8.44L40.93-7.03L40.93-7.03Q40.74-6.76 40.36-6.31L40.36-6.31L40.36-6.31Q39.98-5.85 39.50-5.30L39.50-5.30L39.50-5.30Q39.03-4.75 38.44-4.14L38.44-4.14L38.44-4.14Q37.85-3.53 37.28-2.96L37.28-2.96L37.28-2.96Q36.52-2.24 36.38-2.05L36.38-2.05L36.38-2.05Q36.25-1.86 36.67-2.20L36.67-2.20L36.67-2.20Q37.05-2.51 37.72-3.15L37.72-3.15L37.72-3.15Q38.38-3.80 39.03-4.46L39.03-4.46L39.03-4.46Q39.67-5.13 40.13-5.66L40.13-5.66L40.13-5.66Q40.58-6.19 40.58-6.27L40.58-6.27L40.58-6.27Q40.58-6.35 40.70-6.46L40.70-6.46L40.70-6.46Q40.81-6.57 40.96-6.65L40.96-6.65L40.96-6.65Q41.31-6.84 41.31-7.11L41.31-7.11L41.31-7.11Q41.31-7.18 41.40-7.35L41.40-7.35L41.40-7.35Q41.50-7.52 41.61-7.64L41.61-7.64L41.61-7.64Q41.76-7.79 41.97-8.09L41.97-8.09L41.97-8.09Q42.18-8.40 42.37-8.70L42.37-8.70L42.37-8.70Q42.67-9.31 42.98-9.56L42.98-9.56L42.98-9.56Q43.28-9.80 43.09-9.31L43.09-9.31L43.09-9.31Q42.79-8.63 42.18-7.68L42.18-7.68L42.18-7.68Q41.57-6.73 40.77-5.70L40.77-5.70L40.77-5.70Q39.98-4.67 39.08-3.67L39.08-3.67L39.08-3.67Q38.19-2.66 37.35-1.86L37.35-1.86L37.35-1.86Q36.59-1.18 36.02-0.68L36.02-0.68L36.02-0.68Q35.45-0.19 35.34-0.15L35.34-0.15L35.34-0.15Q35.00-0.08 34.56 0.11L34.56 0.11L34.56 0.11Q34.12 0.30 34.12 0.42L34.12 0.42L34.12 0.42Q34.12 0.57 33.86 0.38L33.86 0.38L33.86 0.38Q33.59 0.15 33.48 0.27L33.48 0.27L33.48 0.27Q33.40 0.34 33.59 0.42L33.59 0.42L33.59 0.42Q33.71 0.42 33.63 0.46L33.63 0.46L33.63 0.46Q33.55 0.49 33.40 0.55L33.40 0.55L33.40 0.55Q33.25 0.61 33.04 0.67L33.04 0.67L33.04 0.67Q32.83 0.72 32.68 0.72L32.68 0.72L32.68 0.72Q32.38 0.72 32.38 0.53L32.38 0.53L32.38 0.53Q32.38 0.38 32.19 0.46L32.19 0.46L32.19 0.46Q32.03 0.57 31.48 0.30L31.48 0.30L31.48 0.30Q30.93 0.04 30.29-0.42L30.29-0.42L30.29-0.42Q29.64-0.87 29.07-1.41L29.07-1.41L29.07-1.41Q28.50-1.94 28.27-2.32L28.27-2.32L28.27-2.32Q27.78-3.12 27.61-4.29L27.61-4.29L27.61-4.29Q27.44-5.47 27.63-6.57L27.63-6.57L27.63-6.57Q27.85-7.87 28.31-9.18L28.31-9.18L28.31-9.18Q28.77-10.49 29.37-11.59L29.37-11.59L29.37-11.59Q29.98-12.69 30.65-13.51L30.65-13.51L30.65-13.51Q31.31-14.33 32.00-14.67L32.00-14.67L32.00-14.67Q32.72-15.01 33.61-15.11L33.61-15.11L33.61-15.11Q34.50-15.20 34.88-14.97L34.88-14.97L34.88-14.97Q35.04-14.86 35.32-14.76L35.32-14.76L35.32-14.76Q35.61-14.67 35.83-14.59L35.83-14.59L35.83-14.59Q36.06-14.52 36.40-14.33L36.40-14.33L36.40-14.33Q36.75-14.14 37.01-13.91L37.01-13.91L37.01-13.91Q37.43-13.49 37.52-13.26L37.52-13.26L37.52-13.26Q37.62-13.03 37.62-12.43L37.62-12.43L37.62-12.43Q37.62-11.32 37.07-10.34L37.07-10.34L37.07-10.34Q36.52-9.35 35.11-8.02L35.11-8.02L35.11-8.02Q34.16-7.07 33.10-6.69L33.10-6.69L33.10-6.69Q32.03-6.31 31.27-6.61zM34.66-13.45L34.66-13.45L34.66-13.45Q34.54-13.64 34.39-13.57L34.39-13.57L34.39-13.57Q34.24-13.49 33.82-13.07L33.82-13.07L33.82-13.07Q33.52-12.77 33.16-12.29L33.16-12.29L33.16-12.29Q32.79-11.82 32.57-11.40L32.57-11.40L32.57-11.40Q32.34-11.02 32.05-10.39L32.05-10.39L32.05-10.39Q31.77-9.77 31.52-9.14L31.52-9.14L31.52-9.14Q31.27-8.51 31.12-8.04L31.12-8.04L31.12-8.04Q30.97-7.56 31.05-7.52L31.05-7.52L31.05-7.52Q31.16-7.45 30.93-7.22L30.93-7.22L30.93-7.22Q30.78-6.95 30.89-6.95L30.89-6.95L30.89-6.95Q31.01-6.95 31.27-7.30L31.27-7.30L31.27-7.30Q31.46-7.49 31.48-7.49L31.48-7.49L31.48-7.49Q31.50-7.49 31.43-7.26L31.43-7.26L31.43-7.26Q31.35-7.07 31.48-7.09L31.48-7.09L31.48-7.09Q31.62-7.11 31.86-7.31L31.86-7.31L31.86-7.31Q32.11-7.52 32.41-7.85L32.41-7.85L32.41-7.85Q32.72-8.17 33.02-8.59L33.02-8.59L33.02-8.59Q33.52-9.20 33.90-9.94L33.90-9.94L33.90-9.94Q34.28-10.68 34.50-11.36L34.50-11.36L34.50-11.36Q34.73-12.05 34.79-12.62L34.79-12.62L34.79-12.62Q34.85-13.19 34.66-13.45zM35.38-9.73L35.38-9.73L35.38-9.73Q34.96-9.01 34.30-8.25L34.30-8.25L34.30-8.25Q33.63-7.49 33.06-7.11L33.06-7.11L33.06-7.11Q32.68-6.80 32.87-6.80L32.87-6.80L32.87-6.80Q32.95-6.80 33.25-7.01L33.25-7.01L33.25-7.01Q33.55-7.22 33.90-7.52L33.90-7.52L33.90-7.52Q34.24-7.83 34.62-8.25L34.62-8.25L34.62-8.25Q35.00-8.66 35.19-8.93L35.19-8.93L35.19-8.93Q35.38-9.20 35.55-9.37L35.55-9.37L35.55-9.37Q35.72-9.54 35.80-9.46L35.80-9.46L35.80-9.46Q35.95-9.31 35.80-9.54L35.80-9.54L35.80-9.54Q35.68-9.73 35.87-10.15L35.87-10.15L35.87-10.15Q36.06-10.49 35.99-10.56L35.99-10.56L35.99-10.56Q35.95-10.64 35.78-10.37L35.78-10.37L35.78-10.37Q35.61-10.11 35.38-9.73zM30.70-1.41L30.70-1.41L30.70-1.41Q30.78-1.44 30.70-1.63L30.70-1.63L30.70-1.63Q30.63-1.82 30.44-2.09L30.44-2.09L30.44-2.09Q30.29-2.36 30.17-2.75L30.17-2.75L30.17-2.75Q30.06-3.15 29.98-3.50L29.98-3.50L29.98-3.50Q29.87-4.33 29.73-4.33L29.73-4.33L29.73-4.33Q29.60-4.33 29.64-3.50L29.64-3.50L29.64-3.50Q29.68-3.15 29.77-2.79L29.77-2.79L29.77-2.79Q29.87-2.43 29.98-2.17L29.98-2.17L29.98-2.17Q30.10-1.90 30.21-1.73L30.21-1.73L30.21-1.73Q30.32-1.56 30.44-1.63L30.44-1.63L30.44-1.63Q30.63-1.71 30.63-1.52L30.63-1.52L30.63-1.52Q30.63-1.33 30.70-1.41zM29.91-8.85L29.91-8.85L29.91-8.85Q29.91-8.78 30.13-9.14L30.13-9.14L30.13-9.14Q30.36-9.50 30.67-10.11L30.67-10.11L30.67-10.11Q30.97-10.75 31.25-11.17L31.25-11.17L31.25-11.17Q31.54-11.59 31.62-11.55L31.62-11.55L31.62-11.55Q31.84-11.55 31.73-11.74L31.73-11.74L31.73-11.74Q31.69-11.82 31.86-12.12L31.86-12.12L31.86-12.12Q32.03-12.43 32.30-12.77L32.30-12.77L32.30-12.77Q32.72-13.30 32.68-13.26L32.68-13.26L32.68-13.26Q32.64-13.22 32.07-12.62L32.07-12.62L32.07-12.62Q31.77-12.31 31.39-11.76L31.39-11.76L31.39-11.76Q31.01-11.21 30.68-10.62L30.68-10.62L30.68-10.62Q30.36-10.03 30.13-9.54L30.13-9.54L30.13-9.54Q29.91-9.04 29.91-8.85zM35.87-14.14L35.87-14.14L35.87-14.14Q35.61-14.14 35.99-13.79L35.99-13.79L35.99-13.79Q36.40-13.45 36.59-12.58L36.59-12.58L36.59-12.58Q36.78-11.70 36.88-11.70L36.88-11.70L36.88-11.70Q36.97-11.70 36.86-12.58L36.86-12.58L36.86-12.58Q36.78-13.30 36.52-13.72L36.52-13.72L36.52-13.72Q36.25-14.14 35.87-14.14zM38.57-5.21L38.57-5.21L38.57-5.21Q38.15-4.79 37.87-4.48L37.87-4.48L37.87-4.48Q37.58-4.18 37.62-4.18L37.62-4.18L37.62-4.18Q37.70-4.18 38.02-4.48L38.02-4.48L38.02-4.48Q38.34-4.79 38.76-5.21L38.76-5.21L38.76-5.21Q39.18-5.66 39.46-5.97L39.46-5.97L39.46-5.97Q39.75-6.27 39.71-6.27L39.71-6.27L39.71-6.27Q39.67-6.27 39.35-5.97L39.35-5.97L39.35-5.97Q39.03-5.66 38.57-5.21zM29.41-7.33L29.41-7.33L29.41-7.33Q29.34-7.07 29.32-6.93L29.32-6.93L29.32-6.93Q29.30-6.80 29.37-6.88L29.37-6.88L29.37-6.88Q29.45-6.95 29.53-7.16L29.53-7.16L29.53-7.16Q29.60-7.37 29.68-7.60L29.68-7.60L29.68-7.60Q29.79-8.09 29.70-8.00L29.70-8.00L29.70-8.00Q29.60-7.90 29.41-7.33zM32.26-7.07L33.10-7.83L33.10-7.83Q33.44-8.17 33.69-8.40L33.69-8.40L33.69-8.40Q33.93-8.63 33.93-8.66L33.93-8.66L33.93-8.66Q33.93-8.78 33.76-8.63L33.76-8.63L33.76-8.63Q33.59-8.47 33.06-7.90L33.06-7.90L32.26-7.07zM40.24-7.07L40.24-7.07L40.24-7.07Q39.86-6.61 39.94-6.61L39.94-6.61L39.94-6.61Q40.05-6.61 40.43-7.07L40.43-7.07L40.43-7.07Q40.85-7.49 40.74-7.49L40.74-7.49L40.74-7.49Q40.66-7.49 40.24-7.07zM36.06-10.94L36.06-10.94L36.06-10.94Q36.25-11.13 36.18-11.36L36.18-11.36L36.18-11.36Q36.14-11.59 35.99-11.17L35.99-11.17L35.99-11.17Q35.87-10.75 36.06-10.94zM36.90-3.65L36.90-3.65L36.90-3.65Q36.56-3.46 36.56-3.34L36.56-3.34L36.56-3.34Q36.56-3.12 36.94-3.61L36.94-3.61L36.94-3.61Q37.13-3.80 37.11-3.82L37.11-3.82L37.11-3.82Q37.09-3.84 36.90-3.65zM29.79-6.00L29.79-6.00L29.79-6.00Q29.75-5.78 29.79-5.70L29.79-5.70L29.79-5.70Q29.83-5.62 29.87-5.70L29.87-5.70L29.87-5.70Q29.94-5.89 29.87-6.23L29.87-6.23L29.87-6.23Q29.79-6.54 29.79-6.00zM29.34-6.16L29.34-6.16L29.34-6.16Q29.41-6.23 29.34-6.50L29.34-6.50L29.34-6.50Q29.26-6.61 29.22-6.38L29.22-6.38L29.22-6.38Q29.22-6.04 29.34-6.16" fill="#000000" stroke="none" stroke-width="none" transform="translate(-51.91087055206299,10.680559433764877)" style="transform:matrix(1, 0, 0, 1, -51.9109, 10.6806);animation-play-state:paused" ></path></g>
<g class="path" style="transform-origin:-1.71158px 2.48211px;animation-timing-function:linear;animation-play-state:paused;animation-name:static-5edba46f-4004-4ec4-b6aa-431d6ed1e35d;animation-iteration-count:infinite;animation-fill-mode:forwards;animation-duration:0.362319s;animation-delay:-0.18599s" ><path d="M42.29 3.15L42.29 3.15L42.29 3.15Q42.14 3.15 41.82 2.94L41.82 2.94L41.82 2.94Q41.50 2.74 41.13 2.41L41.13 2.41L41.13 2.41Q40.77 2.09 40.45 1.75L40.45 1.75L40.45 1.75Q40.13 1.41 40.01 1.14L40.01 1.14L40.01 1.14Q39.63 0.42 39.63-1.04L39.63-1.04L39.63-1.04Q39.63-2.51 39.94-4.48L39.94-4.48L39.94-4.48Q40.24-6.46 40.85-8.83L40.85-8.83L40.85-8.83Q41.46-11.21 42.33-13.76L42.33-13.76L42.33-13.76Q42.67-14.71 43.05-15.73L43.05-15.73L43.05-15.73Q43.43-16.76 43.78-17.63L43.78-17.63L43.78-17.63Q44.12-18.51 44.38-19.11L44.38-19.11L44.38-19.11Q44.65-19.72 44.73-19.80L44.73-19.80L44.73-19.80Q44.80-19.87 45.22-19.65L45.22-19.65L45.22-19.65Q45.64-19.42 45.79-19.23L45.79-19.23L45.79-19.23Q45.90-19 46.28-19.15L46.28-19.15L46.28-19.15Q46.93-19.53 46.66-18.70L46.66-18.70L46.51-18.01L45.30-13.30L45.30-13.30Q44.84-11.51 44.46-9.82L44.46-9.82L44.46-9.82Q44.08-8.13 43.81-6.82L43.81-6.82L43.81-6.82Q43.55-5.51 43.40-4.67L43.40-4.67L43.40-4.67Q43.24-3.84 43.32-3.80L43.32-3.80L43.32-3.80Q43.43-3.69 43.28-3.50L43.28-3.50L43.28-3.50Q43.21-3.42 43.13-2.79L43.13-2.79L43.13-2.79Q43.05-2.17 42.98-1.37L42.98-1.37L42.86 0.53L43.36 0.11L43.36 0.11Q43.59-0.08 44.10-0.72L44.10-0.72L44.10-0.72Q44.61-1.37 45.22-2.19L45.22-2.19L45.22-2.19Q45.83-3.00 46.44-3.84L46.44-3.84L46.44-3.84Q47.04-4.67 47.39-5.24L47.39-5.24L47.39-5.24Q47.65-5.66 47.94-6.10L47.94-6.10L47.94-6.10Q48.22-6.54 48.34-6.73L48.34-6.73L48.34-6.73Q48.45-6.92 48.72-7.33L48.72-7.33L48.72-7.33Q48.98-7.75 49.21-8.17L49.21-8.17L49.21-8.17Q49.44-8.59 49.65-8.85L49.65-8.85L49.65-8.85Q49.86-9.12 49.93-9.08L49.93-9.08L49.93-9.08Q50.08-9.01 49.97-9.31L49.97-9.31L49.97-9.31Q49.93-9.46 50.03-9.71L50.03-9.71L50.03-9.71Q50.12-9.96 50.27-10.18L50.27-10.18L50.27-10.18Q50.43-10.41 50.58-10.54L50.58-10.54L50.58-10.54Q50.73-10.68 50.84-10.60L50.84-10.60L50.84-10.60Q50.96-10.49 50.63-9.71L50.63-9.71L50.63-9.71Q50.31-8.93 49.72-7.79L49.72-7.79L49.72-7.79Q49.13-6.65 48.35-5.28L48.35-5.28L48.35-5.28Q47.58-3.91 46.78-2.64L46.78-2.64L46.78-2.64Q45.98-1.37 45.24-0.28L45.24-0.28L45.24-0.28Q44.50 0.80 44.00 1.33L44.00 1.33L44.00 1.33Q43.59 1.75 43.38 2.07L43.38 2.07L43.38 2.07Q43.17 2.39 43.24 2.39L43.24 2.39L43.24 2.39Q43.32 2.39 43.43 2.30L43.43 2.30L43.43 2.30Q43.55 2.20 43.62 2.13L43.62 2.13L43.62 2.13Q43.85 1.82 44.00 1.98L44.00 1.98L44.00 1.98Q44.16 2.01 44.08 1.90L44.08 1.90L44.08 1.90Q44.00 1.71 44.21 1.52L44.21 1.52L44.21 1.52Q44.42 1.33 44.57 1.44L44.57 1.44L44.57 1.44Q44.69 1.60 44.65 1.41L44.65 1.41L44.65 1.41Q44.57 1.22 44.74 0.93L44.74 0.93L44.74 0.93Q44.92 0.65 45.07 0.72L45.07 0.72L45.07 0.72Q45.22 0.87 45.14 0.65L45.14 0.65L45.14 0.65Q45.14 0.57 45.33 0.21L45.33 0.21L45.33 0.21Q45.52-0.15 45.79-0.57L45.79-0.57L45.79-0.57Q46.06-0.99 46.30-1.31L46.30-1.31L46.30-1.31Q46.55-1.63 46.63-1.63L46.63-1.63L46.63-1.63Q46.74-1.63 46.74-1.86L46.74-1.86L46.74-1.86Q46.66-2.05 46.93-2.05L46.93-2.05L46.93-2.05Q47.08-1.98 47.04-2.17L47.04-2.17L47.04-2.17Q46.93-2.32 47.20-2.47L47.20-2.47L47.20-2.47Q47.46-2.55 47.39-2.74L47.39-2.74L47.39-2.74Q47.31-2.81 47.35-2.85L47.35-2.85L47.35-2.85Q47.39-2.89 47.46-2.89L47.46-2.89L47.46-2.89Q47.65-2.89 47.58-3.04L47.58-3.04L47.58-3.04Q47.46-3.23 47.65-3.23L47.65-3.23L47.65-3.23Q47.84-3.23 47.73-3.42L47.73-3.42L47.73-3.42Q47.65-3.57 47.84-3.57L47.84-3.57L47.84-3.57Q47.99-3.57 47.92-3.76L47.92-3.76L47.92-3.76Q47.77-3.91 47.99-3.91L47.99-3.91L47.99-3.91Q48.22-3.91 48.07-4.14L48.07-4.14L48.07-4.14Q47.92-4.37 48.18-4.18L48.18-4.18L48.18-4.18Q48.45-3.99 48.30-4.33L48.30-4.33L48.30-4.33Q48.18-4.64 48.34-4.56L48.34-4.56L48.34-4.56Q48.41-4.48 48.51-4.64L48.51-4.64L48.51-4.64Q48.60-4.79 48.68-5.05L48.68-5.05L48.68-5.05Q48.87-5.66 49.06-5.66L49.06-5.66L49.06-5.66Q49.25-5.66 49.13-5.85L49.13-5.85L49.13-5.85Q49.06-5.93 49.10-5.98L49.10-5.98L49.10-5.98Q49.13-6.04 49.21-6.04L49.21-6.04L49.21-6.04Q49.36-6.04 49.29-6.31L49.29-6.31L49.29-6.31Q49.13-6.69 49.36-6.46L49.36-6.46L49.36-6.46Q49.59-6.42 49.48-6.61L49.48-6.61L49.48-6.61Q49.32-6.92 49.55-6.92L49.55-6.92L49.55-6.92Q49.63-6.92 49.82-7.18L49.82-7.18L49.82-7.18Q50.01-7.45 50.18-7.79L50.18-7.79L50.18-7.79Q50.35-8.13 50.46-8.46L50.46-8.46L50.46-8.46Q50.58-8.78 50.54-8.85L50.54-8.85L50.54-8.85Q50.39-9.01 50.62-9.01L50.62-9.01L50.62-9.01Q50.81-9.01 50.81-8.93L50.81-8.93L50.81-8.93Q50.81-8.82 50.65-8.42L50.65-8.42L50.65-8.42Q50.50-8.02 50.27-7.47L50.27-7.47L50.27-7.47Q50.05-6.92 49.78-6.35L49.78-6.35L49.78-6.35Q49.51-5.78 49.29-5.40L49.29-5.40L49.29-5.40Q48.98-4.86 48.58-4.08L48.58-4.08L48.58-4.08Q48.18-3.31 47.88-2.77L47.88-2.77L47.88-2.77Q47.50-2.01 46.93-1.08L46.93-1.08L46.93-1.08Q46.36-0.15 45.79 0.70L45.79 0.70L45.79 0.70Q45.22 1.56 44.76 2.19L44.76 2.19L44.76 2.19Q44.31 2.81 44.16 2.89L44.16 2.89L44.16 2.89Q44.00 2.96 43.74 3.00L43.74 3.00L43.74 3.00Q43.47 3.04 43.24 3.00L43.24 3.00L43.24 3.00Q42.67 2.93 42.86 3.00L42.86 3.00L42.86 3.00Q43.13 3.12 43.09 3.27L43.09 3.27L43.09 3.27Q43.05 3.42 42.75 3.42L42.75 3.42L42.75 3.42Q42.37 3.42 42.48 3.27L42.48 3.27L42.48 3.27Q42.56 3.08 42.29 3.15zM45.49-18.77L43.70-13.00L43.70-13.00Q43.59-12.69 43.70-12.69L43.70-12.69L43.70-12.69Q43.74-12.69 43.98-13.43L43.98-13.43L43.98-13.43Q44.23-14.17 44.61-15.20L44.61-15.20L44.61-15.20Q44.95-16.26 45.22-17.00L45.22-17.00L45.22-17.00Q45.49-17.75 45.56-17.75L45.56-17.75L45.56-17.75Q45.71-17.75 45.60-17.37L45.60-17.37L45.60-17.37Q45.56-17.18 45.64-17.29L45.64-17.29L45.64-17.29Q45.71-17.40 45.83-17.71L45.83-17.71L45.83-17.71Q46.02-18.24 46.02-18.39L46.02-18.39L46.02-18.39Q46.02-18.54 45.83-18.73L45.83-18.73L45.83-18.73Q45.52-19.04 45.49-18.77L45.49-18.77zM41.80-0.19L41.80-0.19L41.80-0.19Q41.76 1.52 41.89 1.14L41.89 1.14L41.89 1.14Q42.03 0.76 42.10-1.10L42.10-1.10L42.10-1.10Q42.18-1.98 42.18-2.60L42.18-2.60L42.18-2.60Q42.18-3.23 42.10-3.19L42.10-3.19L42.10-3.19Q42.03-3.08 41.93-2.30L41.93-2.30L41.93-2.30Q41.84-1.52 41.80-0.19zM42.75-9.69L42.75-9.69L42.75-9.69Q42.60-9.27 42.60-9.01L42.60-9.01L42.60-9.01Q42.60-8.74 42.75-9.08L42.75-9.08L42.75-9.08Q42.90-9.46 42.90-9.80L42.90-9.80L42.90-9.80Q42.90-10.15 42.75-9.69zM45.56-1.82L45.56-1.82L45.56-1.82Q45.37-1.60 45.30-1.44L45.30-1.44L45.30-1.44Q45.22-1.29 45.26-1.29L45.26-1.29L45.26-1.29Q45.37-1.29 45.71-1.82L45.71-1.82L45.71-1.82Q46.09-2.36 46.02-2.36L46.02-2.36L46.02-2.36Q45.90-2.36 45.56-1.82zM42.22-4.03L42.22-4.03L42.22-4.03Q41.91-3.27 42.22-3.50L42.22-3.50L42.22-3.50Q42.45-3.57 42.37-3.99L42.37-3.99L42.37-3.99Q42.37-4.26 42.35-4.26L42.35-4.26L42.35-4.26Q42.33-4.26 42.22-4.03zM42.52-5.85L42.52-5.85L42.52-5.85Q42.45-5.51 42.60-5.51L42.60-5.51L42.60-5.51Q42.75-5.51 42.75-5.85L42.75-5.85L42.75-5.85Q42.75-6.19 42.67-6.19L42.67-6.19L42.67-6.19Q42.60-6.19 42.52-5.85zM43.13-8.09L43.13-8.09L43.13-8.09Q43.32-8.28 43.24-8.59L43.24-8.59L43.24-8.59Q43.17-8.85 43.05-8.44L43.05-8.44L43.05-8.44Q43.02-7.98 43.13-8.09zM48.87-7.07L48.87-7.07L48.87-7.07Q48.68-6.73 48.79-6.73L48.79-6.73L48.79-6.73Q48.87-6.73 49.06-7.07L49.06-7.07L49.06-7.07Q49.25-7.41 49.13-7.41L49.13-7.41L49.13-7.41Q49.06-7.41 48.87-7.07zM42.79-6.54L42.79-6.54L42.79-6.54Q42.98-6.73 42.90-7.03L42.90-7.03L42.90-7.03Q42.83-7.22 42.81-7.18L42.81-7.18L42.81-7.18Q42.79-7.14 42.71-6.84L42.71-6.84L42.71-6.84Q42.67-6.42 42.79-6.54zM44.23-0.08L44.23-0.08L44.23-0.08Q43.97 0.27 44.00 0.27L44.00 0.27L44.00 0.27Q44.08 0.27 44.42-0.08L44.42-0.08L44.42-0.08Q44.69-0.42 44.65-0.42L44.65-0.42L44.65-0.42Q44.57-0.42 44.23-0.08zM42.37-4.90L42.37-4.90L42.37-4.90Q42.26-4.41 42.45-4.60L42.45-4.60L42.45-4.60Q42.60-4.75 42.52-5.09L42.52-5.09L42.52-5.09Q42.48-5.40 42.37-4.90zM50.46-10.15L50.46-10.15L50.46-10.15Q50.27-10.03 50.27-9.84L50.27-9.84L50.27-9.84Q50.27-9.69 50.46-9.80L50.46-9.80L50.46-9.80Q50.62-9.88 50.62-10.07L50.62-10.07L50.62-10.07Q50.62-10.22 50.46-10.15zM47.31-4.45L47.31-4.45L47.31-4.45Q47.12-4.10 47.20-4.10L47.20-4.10L47.20-4.10Q47.31-4.10 47.46-4.45L47.46-4.45L47.46-4.45Q47.65-4.79 47.58-4.79L47.58-4.79L47.58-4.79Q47.46-4.79 47.31-4.45zM43.43-12.08L43.43-12.08L43.43-12.08Q43.36-11.86 43.38-11.78L43.38-11.78L43.38-11.78Q43.40-11.70 43.47-11.78L43.47-11.78L43.47-11.78Q43.66-11.89 43.59-12.27L43.59-12.27L43.59-12.27Q43.55-12.58 43.43-12.08zM44.99-0.99L44.99-0.99L44.99-0.99Q44.50-0.61 44.73-0.61L44.73-0.61L44.73-0.61Q44.84-0.61 45.07-0.91L45.07-0.91L45.07-0.91Q45.22-1.10 45.20-1.12L45.20-1.12L45.20-1.12Q45.18-1.14 44.99-0.99zM41.31-1.94L41.31-1.94L41.31-1.94Q41.19-2.20 41.19-1.75L41.19-1.75L41.19-1.75Q41.19-1.22 41.31-1.44L41.31-1.44L41.31-1.44Q41.38-1.67 41.31-1.94zM49.74-8.74L49.74-8.74L49.74-8.74Q49.59-8.59 49.59-8.47L49.59-8.47L49.59-8.47Q49.59-8.28 49.67-8.30L49.67-8.30L49.67-8.30Q49.74-8.32 49.82-8.59L49.82-8.59L49.82-8.59Q49.89-8.82 49.74-8.74zM43.02-10.64L43.02-10.64L43.02-10.64Q42.94-10.45 42.96-10.41L42.96-10.41L42.96-10.41Q42.98-10.37 43.13-10.53L43.13-10.53L43.13-10.53Q43.32-10.72 43.24-10.83L43.24-10.83L43.24-10.83Q43.17-10.91 43.02-10.64zM43.36-9.58L43.36-9.58L43.36-9.58Q43.28-9.39 43.30-9.37L43.30-9.37L43.30-9.37Q43.32-9.35 43.47-9.50L43.47-9.50L43.47-9.50Q43.66-9.69 43.59-9.80L43.59-9.80L43.59-9.80Q43.51-9.88 43.36-9.58zM41.88-6.12L41.88-6.12L41.88-6.12Q41.88-5.81 41.99-5.89L41.99-5.89L41.99-5.89Q42.07-6.04 41.99-6.23L41.99-6.23L41.99-6.23Q41.91-6.38 41.88-6.12zM44.27-12.39L44.27-12.39L44.27-12.39Q44.35-12.46 44.27-12.69L44.27-12.69L44.27-12.69Q44.16-12.92 44.16-12.62L44.16-12.62L44.16-12.62Q44.16-12.27 44.27-12.39zM43.74-10.79L43.74-10.79L43.74-10.79Q43.70-10.87 43.66-10.85L43.66-10.85L43.66-10.85Q43.62-10.83 43.62-10.68L43.62-10.68L43.62-10.68Q43.62-10.34 43.74-10.45L43.74-10.45L43.74-10.45Q43.81-10.53 43.74-10.79zM44.76-14.14L44.76-14.14L44.76-14.14Q44.88-14.17 44.80-14.48L44.80-14.48L44.80-14.48Q44.69-14.63 44.69-14.36L44.69-14.36L44.69-14.36Q44.69-13.98 44.76-14.14zM41.38-3.15L41.38-3.15L41.38-3.15Q41.31-2.77 41.46-2.93L41.46-2.93L41.46-2.93Q41.57-3.04 41.46-3.27L41.46-3.27L41.46-3.27Q41.42-3.38 41.40-3.34L41.40-3.34L41.40-3.34Q41.38-3.31 41.38-3.15zM44.08-11.67L44.08-11.67L44.08-11.67Q44.19-11.86 44.08-12.01L44.08-12.01L44.08-12.01Q44.00-12.31 44.00-11.89L44.00-11.89L44.00-11.89Q43.93-11.59 44.08-11.67zM60.08-6.04L60.08-6.04L60.08-6.04Q60.65-6.57 60.74-6.55L60.74-6.55L60.74-6.55Q60.84-6.54 60.59-6.19L60.59-6.19L60.59-6.19Q60.34-5.85 59.83-5.24L59.83-5.24L59.83-5.24Q59.32-4.64 58.67-3.95L58.67-3.95L58.67-3.95Q58.10-3.38 57.72-3.02L57.72-3.02L57.72-3.02Q57.34-2.66 57.04-2.38L57.04-2.38L57.04-2.38Q56.73-2.09 56.39-1.84L56.39-1.84L56.39-1.84Q56.05-1.60 55.52-1.22L55.52-1.22L55.52-1.22Q55.21-0.99 54.80-0.76L54.80-0.76L54.80-0.76Q54.38-0.53 54.00-0.34L54.00-0.34L54.00-0.34Q53.62-0.15 53.33-0.04L53.33-0.04L53.33-0.04Q53.05 0.08 53.01 0.04L53.01 0.04L53.01 0.04Q52.93 0.04 52.71 0.19L52.71 0.19L52.71 0.19Q52.40 0.42 52.17 0.27L52.17 0.27L52.17 0.27Q52.06 0.19 51.91 0.15L51.91 0.15L51.91 0.15Q51.76 0.11 51.64 0.11L51.64 0.11L51.64 0.11Q51.45 0.11 51.76 0.27L51.76 0.27L51.76 0.27Q52.10 0.42 51.34 0.42L51.34 0.42L51.34 0.42Q50.58 0.42 50.73 0.23L50.73 0.23L50.73 0.23Q50.77 0.08 50.62 0.15L50.62 0.15L50.62 0.15Q50.43 0.27 50.01-0.04L50.01-0.04L50.01-0.04Q49.59-0.34 49.13-0.84L49.13-0.84L49.13-0.84Q48.68-1.33 48.28-1.90L48.28-1.90L48.28-1.90Q47.88-2.47 47.80-2.85L47.80-2.85L47.80-2.85Q47.69-3.42 47.80-4.29L47.80-4.29L47.80-4.29Q47.92-5.17 48.26-6.19L48.26-6.19L48.26-6.19Q48.60-7.22 49.11-8.34L49.11-8.34L49.11-8.34Q49.63-9.46 50.27-10.53L50.27-10.53L50.27-10.53Q50.73-11.25 51.34-12.01L51.34-12.01L51.34-12.01Q51.95-12.77 52.57-13.43L52.57-13.43L52.57-13.43Q53.20-14.10 53.81-14.59L53.81-14.59L53.81-14.59Q54.42-15.09 54.87-15.31L54.87-15.31L54.87-15.31Q55.78-15.73 56.54-15.69L56.54-15.69L56.54-15.69Q57.46-15.66 57.78-15.62L57.78-15.62L57.78-15.62Q58.10-15.58 58.06-15.43L58.06-15.43L58.06-15.43Q58.03-15.28 58.31-15.12L58.31-15.12L58.31-15.12Q58.60-14.97 59.05-14.90L59.05-14.90L59.05-14.90Q59.62-14.74 59.93-14.15L59.93-14.15L59.93-14.15Q60.23-13.57 60.15-12.73L60.15-12.73L60.15-12.73Q60.12-12.31 59.98-11.84L59.98-11.84L59.98-11.84Q59.85-11.36 59.70-10.96L59.70-10.96L59.70-10.96Q59.55-10.56 59.39-10.36L59.39-10.36L59.39-10.36Q59.24-10.15 59.17-10.26L59.17-10.26L59.17-10.26Q59.01-10.49 59.20-10.60L59.20-10.60L59.20-10.60Q59.32-10.68 59.39-11.13L59.39-11.13L59.39-11.13Q59.43-11.32 59.49-11.48L59.49-11.48L59.49-11.48Q59.55-11.63 59.62-11.67L59.62-11.67L59.62-11.67Q59.74-11.74 59.77-12.12L59.77-12.12L59.77-12.12Q59.81-12.50 59.79-12.94L59.79-12.94L59.79-12.94Q59.77-13.38 59.72-13.79L59.72-13.79L59.72-13.79Q59.66-14.21 59.55-14.33L59.55-14.33L59.55-14.33Q59.36-14.59 59.15-14.63L59.15-14.63L59.15-14.63Q58.94-14.67 59.13-14.40L59.13-14.40L59.13-14.40Q59.24-14.21 59.30-13.83L59.30-13.83L59.30-13.83Q59.36-13.45 59.34-12.98L59.34-12.98L59.34-12.98Q59.32-12.50 59.20-11.95L59.20-11.95L59.20-11.95Q59.09-11.40 58.94-10.94L58.94-10.94L58.94-10.94Q58.75-10.41 58.65-9.97L58.65-9.97L58.65-9.97Q58.56-9.54 58.60-9.39L58.60-9.39L58.60-9.39Q58.71-9.04 58.33-9.04L58.33-9.04L58.33-9.04Q57.99-9.12 58.03-9.31L58.03-9.31L58.03-9.31Q58.14-9.54 57.95-9.46L57.95-9.46L57.95-9.46Q57.80-9.35 57.87-8.97L57.87-8.97L57.87-8.97Q58.03-8.55 57.76-8.78L57.76-8.78L57.76-8.78Q57.65-8.93 57.65-9.08L57.65-9.08L57.65-9.08Q57.65-9.23 57.84-9.58L57.84-9.58L57.84-9.58Q57.95-9.80 58.04-9.90L58.04-9.90L58.04-9.90Q58.14-9.99 58.14-9.88L58.14-9.88L58.14-9.88Q58.14-9.58 58.29-9.88L58.29-9.88L58.29-9.88Q58.48-10.15 58.29-10.26L58.29-10.26L58.29-10.26Q58.10-10.37 58.25-10.60L58.25-10.60L58.25-10.60Q58.41-10.91 58.41-11.02L58.41-11.02L58.41-11.02Q58.41-11.17 58.63-11.17L58.63-11.17L58.63-11.17Q58.94-11.10 58.71-11.32L58.71-11.32L58.71-11.32Q58.67-11.40 58.63-11.84L58.63-11.84L58.63-11.84Q58.60-12.27 58.60-12.81L58.60-12.81L58.60-12.81Q58.56-14.10 58.33-14.29L58.33-14.29L58.33-14.29Q58.10-14.48 57.19-13.87L57.19-13.87L57.19-13.87Q56.20-13.22 55.16-11.91L55.16-11.91L55.16-11.91Q54.11-10.60 53.22-9.03L53.22-9.03L53.22-9.03Q52.33-7.45 51.72-5.79L51.72-5.79L51.72-5.79Q51.11-4.14 51.00-2.81L51.00-2.81L50.92-1.63L51.41-1.75L51.41-1.75Q53.12-2.17 55.10-3.32L55.10-3.32L55.10-3.32Q57.08-4.48 58.79-6.08L58.79-6.08L58.79-6.08Q59.47-6.76 59.66-6.82L59.66-6.82L59.66-6.82Q59.85-6.88 59.32-6.23L59.32-6.23L59.32-6.23Q59.09-5.93 59.11-5.95L59.11-5.95L59.11-5.95Q59.13-5.97 59.51-6.27L59.51-6.27L59.51-6.27Q59.74-6.50 59.91-6.57L59.91-6.57L59.91-6.57Q60.08-6.65 60.08-6.57L60.08-6.57L60.08-6.57Q60.08-6.50 59.62-5.98L59.62-5.98L59.62-5.98Q59.17-5.47 58.52-4.83L58.52-4.83L58.52-4.83Q56.24-2.55 54.23-1.37L54.23-1.37L54.23-1.37Q53.58-1.03 53.64-0.97L53.64-0.97L53.64-0.97Q53.69-0.91 54.34-1.25L54.34-1.25L54.34-1.25Q54.53-1.37 54.95-1.61L54.95-1.61L54.95-1.61Q55.37-1.86 55.84-2.19L55.84-2.19L55.84-2.19Q56.32-2.51 56.73-2.79L56.73-2.79L56.73-2.79Q57.15-3.08 57.38-3.27L57.38-3.27L57.38-3.27Q57.65-3.50 58.04-3.88L58.04-3.88L58.04-3.88Q58.44-4.26 58.80-4.62L58.80-4.62L58.80-4.62Q59.17-4.98 59.41-5.24L59.41-5.24L59.41-5.24Q59.66-5.51 59.62-5.51L59.62-5.51L59.62-5.51Q59.55-5.51 59.68-5.66L59.68-5.66L59.68-5.66Q59.81-5.81 60.08-6.04zM52.59-10.75L52.59-10.75L52.59-10.75Q52.14-10.07 51.95-9.73L51.95-9.73L51.95-9.73Q51.76-9.39 52.14-9.88L52.14-9.88L53.20-11.32L53.20-11.32Q53.54-11.78 53.94-12.22L53.94-12.22L53.94-12.22Q54.34-12.65 54.78-13.05L54.78-13.05L54.78-13.05Q55.21-13.45 55.63-13.76L55.63-13.76L55.63-13.76Q56.05-14.06 56.39-14.25L56.39-14.25L56.39-14.25Q56.92-14.59 56.81-14.59L56.81-14.59L56.81-14.59Q56.73-14.63 56.35-14.42L56.35-14.42L56.35-14.42Q55.97-14.21 55.56-13.91L55.56-13.91L55.56-13.91Q54.07-12.92 52.59-10.75zM50.16-1.48L50.16-2.77L50.16-2.77Q50.16-3.80 50.12-3.95L50.12-3.95L50.12-3.95Q50.08-4.10 49.97-3.57L49.97-3.57L49.97-3.57Q49.78-2.77 49.76-2.26L49.76-2.26L49.76-2.26Q49.74-1.75 49.93-1.63L49.93-1.63L50.16-1.48zM58.03-4.98L58.03-4.98L58.03-4.98Q57.76-4.67 57.59-4.48L57.59-4.48L57.59-4.48Q57.42-4.29 57.46-4.29L57.46-4.29L57.46-4.29Q57.49-4.29 57.70-4.48L57.70-4.48L57.70-4.48Q57.91-4.67 58.22-4.98L58.22-4.98L58.22-4.98Q58.52-5.28 58.69-5.49L58.69-5.49L58.69-5.49Q58.86-5.70 58.82-5.70L58.82-5.70L58.82-5.70Q58.79-5.70 58.56-5.49L58.56-5.49L58.56-5.49Q58.33-5.28 58.03-4.98zM51.41-8.85L51.41-8.85L51.41-8.85Q51.15-8.66 51.15-8.47L51.15-8.47L51.15-8.47Q51.15-8.28 51.24-8.34L51.24-8.34L51.24-8.34Q51.34-8.40 51.49-8.70L51.49-8.70L51.49-8.70Q51.64-9.01 51.62-9.03L51.62-9.03L51.62-9.03Q51.60-9.04 51.41-8.85zM50.62-7.07L50.62-7.07L50.62-7.07Q50.81-7.45 50.69-7.45L50.69-7.45L50.69-7.45Q50.62-7.45 50.43-7.07L50.43-7.07L50.43-7.07Q50.24-6.73 50.35-6.73L50.35-6.73L50.35-6.73Q50.43-6.73 50.62-7.07zM56.81-3.91L56.81-3.91L56.81-3.91Q56.70-3.80 56.62-3.69L56.62-3.69L56.62-3.69Q56.54-3.57 56.58-3.57L56.58-3.57L56.58-3.57Q56.62-3.57 56.73-3.69L56.73-3.69L56.73-3.69Q56.85-3.80 57.00-3.91L57.00-3.91L57.00-3.91Q57.30-4.29 57.23-4.29L57.23-4.29L57.23-4.29Q57.11-4.29 56.81-3.91zM50.77-7.75L50.77-7.75L50.77-7.75Q50.77-7.60 50.96-7.71L50.96-7.71L50.96-7.71Q51.15-7.79 51.15-7.98L51.15-7.98L51.15-7.98Q51.15-8.25 50.96-8.06L50.96-8.06L50.96-8.06Q50.77-7.94 50.77-7.75zM54.99-2.70L54.99-2.70L54.99-2.70Q54.64-2.55 54.64-2.43L54.64-2.43L54.64-2.43Q54.64-2.36 54.99-2.55L54.99-2.55L54.99-2.55Q55.33-2.70 55.33-2.81L55.33-2.81L55.33-2.81Q55.33-2.89 54.99-2.70zM50.46-4.94L50.46-4.94L50.46-4.94Q50.65-5.13 50.58-5.24L50.58-5.24L50.58-5.24Q50.50-5.32 50.35-5.05L50.35-5.05L50.35-5.05Q50.27-4.86 50.29-4.84L50.29-4.84L50.29-4.84Q50.31-4.83 50.46-4.94zM50.12-6.00L50.12-6.00L50.12-6.00Q50.31-6.19 50.24-6.31L50.24-6.31L50.24-6.31Q50.12-6.35 50.01-6.08L50.01-6.08L50.01-6.08Q49.82-5.70 50.12-6.00zM49.32-3.27L49.32-3.27L49.32-3.27Q49.40-3.42 49.32-3.61L49.32-3.61L49.32-3.61Q49.25-3.76 49.21-3.50L49.21-3.50L49.21-3.50Q49.21-3.19 49.32-3.27" fill="#000000" stroke="none" stroke-width="none" transform="translate(-51.91087055206299,10.680559433764877)" style="transform:matrix(1, 0, 0, 1, -51.9109, 10.6806);animation-play-state:paused" ></path></g>
<g class="path" style="transform-origin:7.71413px -2.00108px;animation-timing-function:linear;animation-play-state:paused;animation-name:static-5edba46f-4004-4ec4-b6aa-431d6ed1e35d;animation-iteration-count:infinite;animation-fill-mode:forwards;animation-duration:0.362319s;animation-delay:-0.172705s" ><path d="M59.66-12.46L59.66-12.46L59.66-12.46Q59.55-12.27 59.55-12.69L59.55-12.69L59.55-12.69Q59.55-13.07 59.66-12.92L59.66-12.92L59.66-12.92Q59.74-12.69 59.66-12.46" fill="#000000" stroke="none" stroke-width="none" transform="translate(-51.91087055206299,10.680559433764877)" style="transform:matrix(1, 0, 0, 1, -51.9109, 10.6806);animation-play-state:paused" ></path></g>
<g class="path" style="transform-origin:12.1256px 4.27056px;animation-timing-function:linear;animation-play-state:paused;animation-name:static-5edba46f-4004-4ec4-b6aa-431d6ed1e35d;animation-iteration-count:infinite;animation-fill-mode:forwards;animation-duration:0.362319s;animation-delay:-0.15942s" ><path d="M67.75-10.87L67.75-10.87L67.75-10.87Q69.05-9.42 68.91-7.39L68.91-7.39L68.91-7.39Q68.78-5.36 67.26-3.12L67.26-3.12L67.26-3.12Q66.80-2.51 66.27-1.94L66.27-1.94L66.27-1.94Q65.74-1.37 65.21-0.97L65.21-0.97L65.21-0.97Q64.68-0.57 64.26-0.34L64.26-0.34L64.26-0.34Q63.84-0.11 63.61-0.19L63.61-0.19L63.61-0.19Q63.38-0.30 63.46-0.08L63.46-0.08L63.46-0.08Q63.50 0 63.27 0L63.27 0L63.27 0Q63.08-0.11 63.00 0L63.00 0L63.00 0Q63.00 0.11 62.81 0.13L62.81 0.13L62.81 0.13Q62.62 0.15 62.38 0.13L62.38 0.13L62.38 0.13Q62.13 0.11 61.86 0.02L61.86 0.02L61.86 0.02Q61.60-0.08 61.37-0.19L61.37-0.19L61.37-0.19Q60.53-0.91 59.93-1.80L59.93-1.80L59.93-1.80Q59.32-2.70 59.17-3.42L59.17-3.42L59.17-3.42Q59.09-4.18 59.32-5.45L59.32-5.45L59.32-5.45Q59.55-6.73 59.96-7.75L59.96-7.75L59.96-7.75Q60.15-8.21 60.46-8.78L60.46-8.78L60.46-8.78Q60.76-9.35 61.10-9.90L61.10-9.90L61.10-9.90Q61.45-10.45 61.79-10.91L61.79-10.91L61.79-10.91Q62.13-11.36 62.43-11.63L62.43-11.63L62.43-11.63Q62.85-12.05 63.42-12.35L63.42-12.35L63.42-12.35Q63.99-12.65 64.56-12.81L64.56-12.81L64.56-12.81Q65.13-12.96 65.66-12.96L65.66-12.96L65.66-12.96Q66.20-12.96 66.61-12.77L66.61-12.77L66.61-12.77Q66.84-12.69 66.99-12.58L66.99-12.58L66.99-12.58Q67.15-12.46 67.22-12.43L67.22-12.43L67.22-12.43Q67.30-12.39 67.28-12.31L67.28-12.31L67.28-12.31Q67.26-12.24 67.18-12.27L67.18-12.27L66.77-12.39L66.77-12.39Q66.35-12.46 66.01-12.24L66.01-12.24L66.01-12.24Q65.70-12.05 65.78-11.97L65.78-11.97L65.78-11.97Q65.85-11.89 66.61-11.70L66.61-11.70L66.61-11.70Q66.80-11.67 67.13-11.42L67.13-11.42L67.13-11.42Q67.45-11.17 67.75-10.87zM62.85-3.65L62.85-3.65L62.85-3.65Q63.31-4.14 63.84-4.92L63.84-4.92L63.84-4.92Q64.37-5.70 64.85-6.52L64.85-6.52L64.85-6.52Q65.32-7.33 65.66-8.09L65.66-8.09L65.66-8.09Q66.01-8.85 66.08-9.31L66.08-9.31L66.08-9.31Q66.23-10.07 66.10-10.66L66.10-10.66L66.10-10.66Q65.97-11.25 65.63-11.25L65.63-11.25L65.63-11.25Q65.44-11.25 65.34-11.32L65.34-11.32L65.34-11.32Q65.25-11.40 65.28-11.48L65.28-11.48L65.28-11.48Q65.28-11.67 64.90-11.44L64.90-11.44L64.90-11.44Q64.68-11.32 64.28-10.62L64.28-10.62L64.28-10.62Q63.88-9.92 63.46-8.97L63.46-8.97L63.46-8.97Q63.04-8.02 62.70-7.03L62.70-7.03L62.70-7.03Q62.36-6.04 62.21-5.36L62.21-5.36L62.21-5.36Q62.13-4.98 62.11-4.58L62.11-4.58L62.11-4.58Q62.09-4.18 62.09-3.84L62.09-3.84L62.09-3.84Q62.09-3.50 62.11-3.29L62.11-3.29L62.11-3.29Q62.13-3.08 62.21-3.08L62.21-3.08L62.21-3.08Q62.28-3.08 62.45-3.25L62.45-3.25L62.45-3.25Q62.62-3.42 62.85-3.65zM67.56-5.62L67.56-5.62L67.56-5.62Q67.64-5.70 67.77-6.19L67.77-6.19L67.77-6.19Q67.91-6.69 68.02-7.26L68.02-7.26L68.02-7.26Q68.21-8.47 68.10-9.23L68.10-9.23L68.10-9.23Q67.98-9.99 67.45-10.75L67.45-10.75L66.99-11.36L67.37-10.11L67.37-10.11Q67.56-9.50 67.66-9.12L67.66-9.12L67.66-9.12Q67.75-8.74 67.77-8.40L67.77-8.40L67.77-8.40Q67.79-8.06 67.75-7.68L67.75-7.68L67.75-7.68Q67.72-7.30 67.60-6.73L67.60-6.73L67.60-6.73Q67.53-6.19 67.49-5.87L67.49-5.87L67.49-5.87Q67.45-5.55 67.56-5.62zM60.91-2.51L60.91-2.51L60.91-2.51Q60.99-2.13 61.14-2.20L61.14-2.20L61.14-2.20Q61.29-2.28 61.29-2.70L61.29-2.70L61.29-2.70Q61.26-2.89 61.33-3.53L61.33-3.53L61.33-3.53Q61.41-4.18 61.48-4.90L61.48-4.90L61.48-4.90Q61.60-5.89 61.60-6.17L61.60-6.17L61.60-6.17Q61.60-6.46 61.45-6.16L61.45-6.16L61.45-6.16Q61.33-5.93 61.22-5.40L61.22-5.40L61.22-5.40Q61.10-4.86 61.03-4.27L61.03-4.27L61.03-4.27Q60.95-3.69 60.91-3.19L60.91-3.19L60.91-3.19Q60.88-2.70 60.91-2.51zM61.60-8.06L61.60-8.06L61.60-8.06Q61.14-7.07 61.29-7.26L61.29-7.26L61.29-7.26Q61.45-7.45 62.13-8.66L62.13-8.66L62.13-8.66Q62.43-9.27 62.76-9.77L62.76-9.77L62.76-9.77Q63.08-10.26 63.23-10.41L63.23-10.41L63.23-10.41Q63.61-10.72 63.61-10.94L63.61-10.94L63.61-10.94Q63.69-11.13 63.84-11.02L63.84-11.02L63.84-11.02Q63.99-10.91 63.95-11.06L63.95-11.06L63.95-11.06Q63.84-11.17 64.18-11.51L64.18-11.51L64.18-11.51Q64.49-11.82 64.30-11.82L64.30-11.82L64.30-11.82Q64.11-11.82 63.78-11.49L63.78-11.49L63.78-11.49Q63.46-11.17 63.08-10.62L63.08-10.62L63.08-10.62Q62.70-10.07 62.30-9.40L62.30-9.40L62.30-9.40Q61.90-8.74 61.60-8.06zM63.23-11.70L63.23-11.70L62.66-11.21L63.38-11.74L63.38-11.74Q63.69-11.93 63.95-12.14L63.95-12.14L63.95-12.14Q64.22-12.35 64.30-12.43L64.30-12.43L64.30-12.43Q64.41-12.50 64.35-12.48L64.35-12.48L64.35-12.48Q64.30-12.46 64.11-12.39L64.11-12.39L64.11-12.39Q63.95-12.31 63.69-12.12L63.69-12.12L63.69-12.12Q63.42-11.93 63.23-11.70zM64.18-1.67L64.18-1.67L64.18-1.67Q64.49-1.98 64.52-2.05L64.52-2.05L64.52-2.05Q64.56-2.13 64.37-2.01L64.37-2.01L64.37-2.01Q64.07-1.82 63.80-1.46L63.80-1.46L63.80-1.46Q63.54-1.10 63.65-1.10L63.65-1.10L63.65-1.10Q63.69-1.10 63.86-1.27L63.86-1.27L63.86-1.27Q64.03-1.44 64.18-1.67zM62.09-7.52L62.09-7.52L62.09-7.52Q62.17-7.87 62.07-7.77L62.07-7.77L62.07-7.77Q61.98-7.68 61.79-7.18L61.79-7.18L61.79-7.18Q61.71-6.88 61.69-6.82L61.69-6.82L61.69-6.82Q61.67-6.76 61.83-6.92L61.83-6.92L61.83-6.92Q61.90-7.03 62.00-7.20L62.00-7.20L62.00-7.20Q62.09-7.37 62.09-7.52zM65.32-3.04L65.32-3.04L65.32-3.04Q65.51-3.38 65.44-3.38L65.44-3.38L65.44-3.38Q65.36-3.38 65.17-3.04L65.17-3.04L65.17-3.04Q64.83-2.70 64.98-2.70L64.98-2.70L64.98-2.70Q65.06-2.70 65.32-3.04zM65.09-12.35L65.09-12.35L65.09-12.35Q64.71-12.20 64.98-12.20L64.98-12.20L64.98-12.20Q65.06-12.20 65.44-12.35L65.44-12.35L65.44-12.35Q65.55-12.39 65.61-12.45L65.61-12.45L65.61-12.45Q65.66-12.50 65.59-12.50L65.59-12.50L65.59-12.50Q65.51-12.54 65.36-12.48L65.36-12.48L65.36-12.48Q65.21-12.43 65.09-12.35zM67.22-7.18L67.22-7.18L67.22-7.18Q67.45-7.41 67.30-7.64L67.30-7.64L67.30-7.64Q67.30-7.79 67.18-7.41L67.18-7.41L67.18-7.41Q67.11-7.03 67.22-7.18zM62.28-8.02L62.28-8.02L62.28-8.02Q62.40-8.09 62.40-8.36L62.40-8.36L62.40-8.36Q62.32-8.66 62.24-8.25L62.24-8.25L62.24-8.25Q62.17-7.90 62.28-8.02zM60.84-5.93L60.84-5.93L60.84-5.93Q60.99-6.08 60.91-6.35L60.91-6.35L60.91-6.35Q60.95-6.42 60.89-6.37L60.89-6.37L60.89-6.37Q60.84-6.31 60.84-6.12L60.84-6.12L60.84-6.12Q60.76-5.93 60.78-5.87L60.78-5.87L60.78-5.87Q60.80-5.81 60.84-5.93" fill="#000000" stroke="none" stroke-width="none" transform="translate(-51.91087055206299,10.680559433764877)" style="transform:matrix(1, 0, 0, 1, -51.9109, 10.6806);animation-play-state:paused" ></path></g>
<g class="path" style="transform-origin:24.0657px 4.98808px;animation-timing-function:linear;animation-play-state:paused;animation-name:static-5edba46f-4004-4ec4-b6aa-431d6ed1e35d;animation-iteration-count:infinite;animation-fill-mode:forwards;animation-duration:0.362319s;animation-delay:-0.146135s" ><path d="M82.92-12.16L82.92-12.16L82.92-12.16Q82.73-12.24 82.88-11.89L82.88-11.89L82.88-11.89Q82.95-11.55 83.11-11.55L83.11-11.55L83.11-11.55Q83.30-11.55 83.28-11.29L83.28-11.29L83.28-11.29Q83.26-11.02 83.07-10.91L83.07-10.91L83.07-10.91Q82.84-10.79 82.95-11.06L82.95-11.06L82.95-11.06Q83.07-11.32 82.92-11.48L82.92-11.48L82.92-11.48Q82.73-11.55 82.61-11.29L82.61-11.29L82.61-11.29Q82.54-11.02 82.38-11.10L82.38-11.10L82.38-11.10Q82.23-11.21 82.31-10.98L82.31-10.98L82.31-10.98Q82.35-10.87 82.19-10.41L82.19-10.41L82.19-10.41Q82.04-9.96 81.81-9.42L81.81-9.42L81.81-9.42Q81.55-8.89 81.22-8.11L81.22-8.11L81.22-8.11Q80.90-7.33 80.71-6.80L80.71-6.80L80.71-6.80Q80.52-6.27 80.27-5.72L80.27-5.72L80.27-5.72Q80.03-5.17 79.91-4.98L79.91-4.98L79.91-4.98Q79.57-4.45 79.57-4.10L79.57-4.10L79.57-4.10Q79.57-3.72 80.03-4.33L80.03-4.33L80.03-4.33Q80.22-4.60 80.31-4.83L80.31-4.83L80.31-4.83Q80.41-5.05 80.33-5.13L80.33-5.13L80.33-5.13Q80.29-5.24 80.37-5.40L80.37-5.40L80.37-5.40Q80.45-5.55 80.56-5.66L80.56-5.66L80.56-5.66Q80.83-5.93 80.71-5.93L80.71-5.93L80.71-5.93Q80.56-5.93 80.79-6.16L80.79-6.16L80.79-6.16Q80.98-6.42 80.86-6.54L80.86-6.54L80.86-6.54Q80.79-6.57 80.84-6.61L80.84-6.61L80.84-6.61Q80.90-6.65 80.98-6.65L80.98-6.65L80.98-6.65Q81.43-6.65 80.48-4.71L80.48-4.71L80.48-4.71Q80.07-3.76 79.57-3.65L79.57-3.65L79.57-3.65Q79.15-3.57 78.58-3.72L78.58-3.72L78.58-3.72Q78.01-3.88 77.90-4.18L77.90-4.18L77.90-4.18Q77.82-4.29 77.77-5.28L77.77-5.28L77.77-5.28Q77.71-6.27 77.67-7.60L77.67-7.60L77.67-7.60Q77.60-8.93 77.56-9.75L77.56-9.75L77.56-9.75Q77.52-10.56 77.52-10.45L77.52-10.45L77.52-10.45Q77.44-10.15 77.33-10.15L77.33-10.15L77.33-10.15Q77.25-10.15 76.91-9.54L76.91-9.54L76.91-9.54Q76.57-8.93 76.15-8.11L76.15-8.11L76.15-8.11Q75.73-7.30 75.32-6.42L75.32-6.42L75.32-6.42Q74.90-5.55 74.67-5.05L74.67-5.05L74.67-5.05Q74.52-4.64 74.37-4.27L74.37-4.27L74.37-4.27Q74.21-3.91 74.14-3.76L74.14-3.76L74.14-3.76Q74.02-3.46 73.80-2.68L73.80-2.68L73.80-2.68Q73.57-1.90 73.34-1.06L73.34-1.06L73.34-1.06Q73.11-0.23 72.94 0.47L72.94 0.47L72.94 0.47Q72.77 1.18 72.77 1.33L72.77 1.33L72.77 1.33Q72.77 1.82 72.62 2.05L72.62 2.05L72.62 2.05Q72.54 2.13 72.41 2.20L72.41 2.20L72.41 2.20Q72.28 2.28 72.12 2.34L72.12 2.34L72.12 2.34Q71.97 2.39 71.86 2.38L71.86 2.38L71.86 2.38Q71.74 2.36 71.74 2.28L71.74 2.28L71.74 2.28Q71.78 2.17 71.63 2.09L71.63 2.09L71.63 2.09Q71.48 2.05 71.40 2.39L71.40 2.39L71.40 2.39Q71.21 3.23 70.79 2.70L70.79 2.70L70.79 2.70Q70.60 2.32 70.41 2.39L70.41 2.39L70.41 2.39Q70.22 2.47 69.94 2.24L69.94 2.24L69.94 2.24Q69.65 2.01 69.54 1.71L69.54 1.71L69.54 1.71Q69.46 1.41 68.97 1.41L68.97 1.41L68.97 1.41Q68.63 1.41 68.59 1.27L68.59 1.27L68.59 1.27Q68.55 1.14 68.63 0.38L68.63 0.38L68.63 0.38Q68.70-0.46 68.86-1.29L68.86-1.29L68.86-1.29Q69.01-2.13 69.31-3.27L69.31-3.27L69.31-3.27Q69.62-4.41 70.07-5.98L70.07-5.98L70.07-5.98Q70.53-7.56 71.25-9.88L71.25-9.88L71.25-9.88Q71.71-11.32 72.01-12.18L72.01-12.18L72.01-12.18Q72.31-13.03 72.52-13.51L72.52-13.51L72.52-13.51Q72.73-13.98 72.92-14.14L72.92-14.14L72.92-14.14Q73.11-14.29 73.34-14.29L73.34-14.29L73.34-14.29Q73.76-14.29 73.99-14.08L73.99-14.08L73.99-14.08Q74.21-13.87 73.99-13.76L73.99-13.76L73.99-13.76Q73.80-13.64 73.80-13.83L73.80-13.83L73.80-13.83Q73.80-14.10 73.70-13.95L73.70-13.95L73.70-13.95Q73.61-13.79 73.53-13.49L73.53-13.49L73.38-12.77L73.38-12.77Q73.30-12.46 73.23-12.14L73.23-12.14L73.23-12.14Q73.15-11.82 73.04-11.02L73.04-11.02L73.04-11.02Q72.96-10.72 72.92-10.37L72.92-10.37L72.92-10.37Q72.88-10.03 72.81-9.88L72.81-9.88L72.81-9.88Q72.77-9.69 72.79-9.65L72.79-9.65L72.79-9.65Q72.81-9.61 72.92-9.80L72.92-9.80L72.92-9.80Q73.00-9.88 73.05-10.15L73.05-10.15L73.05-10.15Q73.11-10.41 73.19-10.68L73.19-10.68L73.19-10.68Q73.57-12.62 73.83-12.50L73.83-12.50L73.83-12.50Q73.99-12.43 73.99-12.65L73.99-12.65L73.99-12.65Q73.99-12.96 73.80-12.96L73.80-12.96L73.80-12.96Q73.72-13.00 73.80-13.19L73.80-13.19L73.80-13.19Q73.87-13.38 74.06-13.64L74.06-13.64L74.52-14.25L74.44-12.50L74.44-12.50Q74.37-11.78 74.33-10.96L74.33-10.96L74.33-10.96Q74.29-10.15 74.21-9.69L74.21-9.69L74.14-8.66L75.01-9.80L75.01-9.80Q75.92-11.02 76.49-11.48L76.49-11.48L76.49-11.48Q77.06-11.93 77.48-11.78L77.48-11.78L77.48-11.78Q77.90-11.63 78.32-11.70L78.32-11.70L78.32-11.70Q78.58-11.70 78.74-11.61L78.74-11.61L78.74-11.61Q78.89-11.51 78.98-11.13L78.98-11.13L78.98-11.13Q79.08-10.75 79.13-10.05L79.13-10.05L79.13-10.05Q79.19-9.35 79.23-8.17L79.23-8.17L79.23-8.17Q79.27-6.38 79.34-5.85L79.34-5.85L79.34-5.85Q79.42-5.32 79.53-5.59L79.53-5.59L79.99-6.65L79.99-6.65Q80.22-7.07 80.24-7.11L80.24-7.11L80.24-7.11Q80.26-7.14 80.18-6.73L80.18-6.73L80.18-6.73Q80.14-6.42 80.16-6.37L80.16-6.37L80.16-6.37Q80.18-6.31 80.29-6.50L80.29-6.50L80.29-6.50Q80.37-6.61 80.43-6.90L80.43-6.90L80.43-6.90Q80.48-7.18 80.52-7.45L80.52-7.45L80.52-7.45Q80.56-7.75 80.66-8.11L80.66-8.11L80.66-8.11Q80.75-8.47 80.86-8.74L80.86-8.74L80.86-8.74Q80.98-9.01 81.07-9.10L81.07-9.10L81.07-9.10Q81.17-9.20 81.17-9.01L81.17-9.01L81.17-8.66L81.32-9.01L81.32-9.01Q81.47-9.35 81.40-9.50L81.40-9.50L81.40-9.50Q81.32-9.58 81.38-9.77L81.38-9.77L81.38-9.77Q81.43-9.96 81.51-10.18L81.51-10.18L81.51-10.18Q81.74-10.72 81.89-10.45L81.89-10.45L81.89-10.45Q82.04-10.18 82.04-10.49L82.04-10.49L82.04-10.49Q82.12-10.75 82.04-10.91L82.04-10.91L82.04-10.91Q82.04-11.02 82.12-11.40L82.12-11.40L82.12-11.40Q82.19-11.63 82.25-11.65L82.25-11.65L82.25-11.65Q82.31-11.67 82.38-11.51L82.38-11.51L82.38-11.51Q82.57-11.29 82.57-11.55L82.57-11.55L82.57-12.12L82.57-12.12Q82.57-12.43 82.80-12.43L82.80-12.43L82.80-12.43Q83.03-12.43 82.99-12.65L82.99-12.65L82.99-12.65Q82.92-12.88 83.07-13.01L83.07-13.01L83.07-13.01Q83.22-13.15 83.33-12.96L83.33-12.96L83.33-12.96Q83.45-12.77 83.26-12.41L83.26-12.41L83.26-12.41Q83.07-12.05 82.92-12.16zM78.85-4.37L78.85-4.37L78.85-4.37Q79.12-4.79 78.93-5.09L78.93-5.09L78.93-5.09Q78.70-5.40 78.70-5.62L78.70-5.62L78.70-5.62Q78.70-5.89 78.85-5.62L78.85-5.62L78.85-5.62Q78.89-5.55 78.91-6.17L78.91-6.17L78.91-6.17Q78.93-6.80 78.93-7.69L78.93-7.69L78.93-7.69Q78.93-8.59 78.87-9.46L78.87-9.46L78.87-9.46Q78.81-10.34 78.77-10.79L78.77-10.79L78.77-10.79Q78.70-11.55 78.47-11.48L78.47-11.48L78.47-11.48Q78.39-11.48 78.36-10.89L78.36-10.89L78.36-10.89Q78.32-10.30 78.32-9.40L78.32-9.40L78.32-9.40Q78.32-8.51 78.36-7.43L78.36-7.43L78.36-7.43Q78.39-6.35 78.47-5.36L78.47-5.36L78.47-5.36Q78.55-4.37 78.60-4.24L78.60-4.24L78.60-4.24Q78.66-4.10 78.85-4.37zM77.33-10.83L77.33-10.83L77.33-10.83Q77.52-10.94 77.44-11.21L77.44-11.21L77.44-11.21Q77.41-11.36 77.10-11.06L77.10-11.06L77.10-11.06Q76.80-10.75 76.38-10.16L76.38-10.16L76.38-10.16Q75.96-9.58 75.49-8.83L75.49-8.83L75.49-8.83Q75.01-8.09 74.59-7.35L74.59-7.35L74.59-7.35Q74.18-6.61 73.87-5.98L73.87-5.98L73.87-5.98Q73.57-5.36 73.53-5.02L73.53-5.02L73.53-5.02Q73.45-4.64 73.47-4.58L73.47-4.58L73.47-4.58Q73.49-4.52 73.68-4.71L73.68-4.71L73.68-4.71Q73.80-4.79 73.87-4.90L73.87-4.90L73.87-4.90Q73.95-5.02 73.87-5.09L73.87-5.09L73.87-5.09Q73.83-5.13 73.89-5.32L73.89-5.32L73.89-5.32Q73.95-5.51 74.04-5.70L74.04-5.70L74.04-5.70Q74.14-5.89 74.25-6.04L74.25-6.04L74.25-6.04Q74.37-6.19 74.44-6.19L74.44-6.19L74.44-6.19Q74.56-6.19 74.56-6.35L74.56-6.35L74.56-6.35Q74.48-6.46 74.67-6.46L74.67-6.46L74.67-6.46Q74.82-6.46 74.82-6.69L74.82-6.69L74.82-6.69Q74.82-6.76 74.99-7.16L74.99-7.16L74.99-7.16Q75.16-7.56 75.43-7.98L75.43-7.98L75.43-7.98Q75.70-8.44 75.85-8.76L75.85-8.76L75.85-8.76Q76-9.08 75.96-9.08L75.96-9.08L75.96-9.08Q75.89-9.08 76.34-9.61L76.34-9.61L76.34-9.61Q76.80-10.07 76.80-10.26L76.80-10.26L76.80-10.26Q76.80-10.41 76.95-10.41L76.95-10.41L76.95-10.41Q77.18-10.41 77.10-10.56L77.10-10.56L77.10-10.56Q77.10-10.75 77.33-10.83zM72.50-7.33L72.50-7.33L72.50-7.33Q72.62-7.94 72.52-7.85L72.52-7.85L72.52-7.85Q72.43-7.75 72.24-7.11L72.24-7.11L72.24-7.11Q72.12-6.50 72.24-6.57L72.24-6.57L72.24-6.57Q72.31-6.65 72.37-6.86L72.37-6.86L72.37-6.86Q72.43-7.07 72.50-7.33zM72.81-8.63L72.81-8.63L72.81-8.63Q72.88-9.12 72.77-9.01L72.77-9.01L72.77-9.01Q72.62-8.93 72.54-8.47L72.54-8.47L72.54-8.47Q72.47-8.09 72.58-8.13L72.58-8.13L72.58-8.13Q72.73-8.21 72.81-8.63zM79.65-5.02L79.65-5.02L79.65-5.02Q79.80-5.28 79.50-5.05L79.50-5.05L79.50-5.05Q79.04-4.71 79.38-4.71L79.38-4.71L79.38-4.71Q79.57-4.71 79.65-5.02zM74.52-8.40L74.52-8.40L74.52-8.40Q74.44-8.25 74.40-8.13L74.40-8.13L74.40-8.13Q74.37-8.02 74.40-8.02L74.40-8.02L74.40-8.02Q74.52-8.02 74.67-8.40L74.67-8.40L74.67-8.40Q74.86-8.74 74.78-8.74L74.78-8.74L74.78-8.74Q74.71-8.74 74.52-8.40zM78.01-6.65L78.01-6.65L78.01-6.65Q78.20-6.65 78.20-6.80L78.20-6.80L78.20-6.80Q78.20-6.99 78.09-6.99L78.09-6.99L78.09-6.99Q78.01-6.99 77.94-6.80L77.94-6.80L77.94-6.80Q77.79-6.65 78.01-6.65zM72.09-5.89L72.09-5.89L72.09-5.89Q72.28-6.08 72.20-6.19L72.20-6.19L72.20-6.19Q72.12-6.31 71.97-6.00L71.97-6.00L71.97-6.00Q71.90-5.81 71.91-5.79L71.91-5.79L71.91-5.79Q71.93-5.78 72.09-5.89zM78.13-5.28L78.13-5.28L78.13-5.28Q78.20-5.59 78.13-5.89L78.13-5.89L78.13-5.89Q78.05-6.19 78.05-5.59L78.05-5.59L78.05-5.59Q78.05-4.98 78.13-5.28zM73.68-11.63L73.68-11.63L73.68-11.63Q73.64-11.40 73.68-11.32L73.68-11.32L73.68-11.32Q73.72-11.25 73.76-11.32L73.76-11.32L73.76-11.32Q73.83-11.51 73.76-11.86L73.76-11.86L73.76-11.86Q73.68-12.16 73.68-11.63zM71.90-5.21L71.90-5.21L71.90-5.21Q72.09-5.40 72.01-5.51L72.01-5.51L72.01-5.51Q71.90-5.62 71.82-5.28L71.82-5.28L71.82-5.28Q71.74-5.09 71.76-5.07L71.76-5.07L71.76-5.07Q71.78-5.05 71.90-5.21zM71.82-0.57L71.82-0.57L71.82-0.57Q71.90-0.65 71.82-0.87L71.82-0.87L71.82-0.87Q71.78-1.10 71.71-0.80L71.71-0.80L71.71-0.80Q71.71-0.46 71.82-0.57zM73.57-10.72L73.57-10.72L73.57-10.72Q73.53-10.79 73.51-10.73L73.51-10.73L73.51-10.73Q73.49-10.68 73.49-10.49L73.49-10.49L73.49-10.49Q73.49-10.30 73.51-10.24L73.51-10.24L73.51-10.24Q73.53-10.18 73.57-10.26L73.57-10.26L73.57-10.26Q73.64-10.49 73.57-10.72zM73.38-3.88L73.38-3.88L73.38-3.88Q73.53-4.03 73.38-4.22L73.38-4.22L73.38-4.22Q73.30-4.52 73.30-4.10L73.30-4.10L73.30-4.10Q73.30-3.80 73.38-3.88zM73.38-9.12L73.38-9.12L73.38-9.12Q73.53-9.27 73.38-9.46L73.38-9.46L73.38-9.46Q73.30-9.77 73.30-9.39L73.30-9.39L73.30-9.39Q73.30-9.04 73.38-9.12" fill="#000000" stroke="none" stroke-width="none" transform="translate(-51.91087055206299,10.680559433764877)" style="transform:matrix(1, 0, 0, 1, -51.9109, 10.6806);animation-play-state:paused" ></path></g>
<g class="path" style="transform-origin:34.8793px 3.92338px;animation-timing-function:linear;animation-play-state:paused;animation-name:static-5edba46f-4004-4ec4-b6aa-431d6ed1e35d;animation-iteration-count:infinite;animation-fill-mode:forwards;animation-duration:0.362319s;animation-delay:-0.13285s" ><path d="M88.58 0.38L88.58 0.38L88.58 0.38Q88.88 0.11 88.94 0.11L88.94 0.11L88.94 0.11Q89.00 0.11 88.96 0.30L88.96 0.30L88.96 0.30Q88.88 0.68 88.88 0.80L88.88 0.80L88.88 0.80Q88.88 0.87 88.84 0.89L88.84 0.89L88.84 0.89Q88.81 0.91 88.77 0.84L88.77 0.84L88.77 0.84Q88.58 0.76 88.27 0.87L88.27 0.87L88.27 0.87Q87.86 1.03 87.36 0.80L87.36 0.80L87.36 0.80Q86.91 0.61 86.60 0.30L86.60 0.30L86.60 0.30Q86.37 0 86.64-0.08L86.64-0.08L86.64-0.08Q86.94-0.23 86.94-0.38L86.94-0.38L86.94-0.38Q86.94-0.46 86.85-0.44L86.85-0.44L86.85-0.44Q86.75-0.42 86.68-0.34L86.68-0.34L86.68-0.34Q86.49-0.15 86.37-0.19L86.37-0.19L86.37-0.19Q86.26-0.23 86.07-0.53L86.07-0.53L86.07-0.53Q85.73-0.95 85.84-1.29L85.84-1.29L85.84-1.29Q85.92-1.60 85.73-1.48L85.73-1.48L85.73-1.48Q85.61-1.41 85.46-1.75L85.46-1.75L85.46-1.75Q85.31-2.09 85.16-2.66L85.16-2.66L85.16-2.66Q85.01-3.23 84.87-3.93L84.87-3.93L84.87-3.93Q84.74-4.64 84.70-5.36L84.70-5.36L84.70-5.36Q84.63-6.27 84.61-7.41L84.61-7.41L84.61-7.41Q84.59-8.55 84.64-9.52L84.64-9.52L84.64-9.52Q84.70-10.49 84.80-11.04L84.80-11.04L84.80-11.04Q84.89-11.59 85.01-11.29L85.01-11.29L85.01-11.29Q85.16-10.94 85.16-11.82L85.16-11.82L85.16-11.82Q85.16-12.35 85.12-12.45L85.12-12.45L85.12-12.45Q85.08-12.54 85.01-12.24L85.01-12.24L85.01-12.24Q84.82-11.74 84.93-12.77L84.93-12.77L84.93-12.77Q85.01-13.64 85.06-13.98L85.06-13.98L85.06-13.98Q85.12-14.33 85.23-14.44L85.23-14.44L85.23-14.44Q85.31-14.52 85.39-13.96L85.39-13.96L85.39-13.96Q85.46-13.41 85.39-12.88L85.39-12.88L85.39-12.88Q85.39-12.54 85.54-12.69L85.54-12.69L85.54-12.69Q85.69-12.73 85.69-12.62L85.69-12.62L85.69-12.62Q85.69-12.43 85.58-12.39L85.58-12.39L85.58-12.39Q85.50-12.35 85.44-11.89L85.44-11.89L85.44-11.89Q85.39-11.44 85.35-10.79L85.35-10.79L85.35-10.79Q85.27-10.15 85.29-9.73L85.29-9.73L85.29-9.73Q85.31-9.31 85.39-9.39L85.39-9.39L85.39-9.39Q85.54-9.46 85.54-9.27L85.54-9.27L85.54-9.27Q85.54-9.08 85.35-9.08L85.35-9.08L85.35-9.08Q85.23-9.08 85.20-8.51L85.20-8.51L85.20-8.51Q85.16-7.94 85.23-6.50L85.23-6.50L85.23-6.50Q85.35-4.26 85.44-3.48L85.44-3.48L85.44-3.48Q85.54-2.70 85.73-3.00L85.73-3.00L85.73-3.00Q85.88-3.19 85.77-2.74L85.77-2.74L85.77-2.74Q85.65-2.20 85.88-2.36L85.88-2.36L85.88-2.36Q86.07-2.43 85.96-1.98L85.96-1.98L85.96-1.98Q85.84-1.44 86.03-1.75L86.03-1.75L86.03-1.75Q86.11-1.86 86.11-2.26L86.11-2.26L86.11-2.26Q86.11-2.66 86.05-3.08L86.05-3.08L86.05-3.08Q85.99-3.50 85.90-3.84L85.90-3.84L85.90-3.84Q85.80-4.18 85.73-4.18L85.73-4.18L85.73-4.18Q85.69-4.18 85.67-4.69L85.67-4.69L85.67-4.69Q85.65-5.21 85.65-5.98L85.65-5.98L85.65-5.98Q85.65-6.76 85.65-7.68L85.65-7.68L85.65-7.68Q85.65-8.59 85.69-9.40L85.69-9.40L85.69-9.40Q85.73-10.22 85.77-10.79L85.77-10.79L85.77-10.79Q85.80-11.36 85.84-11.48L85.84-11.48L85.84-11.48Q85.92-11.67 85.96-10.70L85.96-10.70L85.96-10.70Q85.99-9.73 85.99-7.98L85.99-7.98L85.99-7.98Q85.99-6.38 86.05-5.26L86.05-5.26L86.05-5.26Q86.11-4.14 86.22-3.31L86.22-3.31L86.22-3.31Q86.34-2.47 86.54-1.82L86.54-1.82L86.54-1.82Q86.75-1.18 87.06-0.53L87.06-0.53L87.06-0.53Q87.55 0.42 87.86 0.61L87.86 0.61L87.86 0.61Q88.16 0.80 88.58 0.38zM86.60-0.49L86.60-0.49L86.60-0.49Q86.75-0.49 86.75-0.57L86.75-0.57L86.75-0.57Q86.75-0.68 86.56-1.18L86.56-1.18L86.56-1.18Q86.37-1.79 86.18-1.56L86.18-1.56L86.18-1.56Q85.99-1.37 86.18-1.25L86.18-1.25L86.18-1.25Q86.45-1.18 86.30-1.03L86.30-1.03L86.30-1.03Q86.22-0.87 86.32-0.68L86.32-0.68L86.32-0.68Q86.41-0.49 86.60-0.49zM87.10 0.38L87.10 0.38L87.10 0.38Q87.86 1.03 87.36 0.27L87.36 0.27L87.36 0.27Q87.25 0.08 87.11-0.02L87.11-0.02L87.11-0.02Q86.98-0.11 86.91-0.04L86.91-0.04L86.91-0.04Q86.72 0.08 87.10 0.38zM84.78-7.83L84.78-7.83L84.78-7.83Q85.01-7.41 85.01-8.25L85.01-8.25L85.01-8.25Q84.97-8.66 84.95-8.68L84.95-8.68L84.95-8.68Q84.93-8.70 84.85-8.40L84.85-8.40L84.85-8.40Q84.74-7.94 84.78-7.83zM84.97-6.08L84.97-6.08L84.97-6.08Q85.04-6.27 84.97-6.61L84.97-6.61L84.97-6.61Q84.89-6.73 84.89-6.65L84.89-6.65L84.89-6.65Q84.89-6.57 84.85-6.38L84.85-6.38L84.85-6.38Q84.85-5.85 84.97-6.08zM84.97-10.18L84.97-10.18L84.97-10.18Q84.85-10.34 84.85-9.96L84.85-9.96L84.85-9.96Q84.85-9.54 84.97-9.73L84.97-9.73L84.97-9.73Q85.04-9.99 84.97-10.18" fill="#000000" stroke="none" stroke-width="none" transform="translate(-51.91087055206299,10.680559433764877)" style="transform:matrix(1, 0, 0, 1, -51.9109, 10.6806);animation-play-state:paused" ></path></g>
<g class="path" style="transform-origin:32.2463px -3.15186px;animation-timing-function:linear;animation-play-state:paused;animation-name:static-5edba46f-4004-4ec4-b6aa-431d6ed1e35d;animation-iteration-count:infinite;animation-fill-mode:forwards;animation-duration:0.362319s;animation-delay:-0.119565s" ><path d="M84.40-14.25L84.40-14.25L84.40-14.25Q84.21-14.33 84.21-14.02L84.21-14.02L84.21-14.02Q84.21-13.76 84.02-13.76L84.02-13.76L84.02-13.76Q83.79-13.68 83.68-13.57L83.68-13.57L83.68-13.57Q83.60-13.49 83.62-13.49L83.62-13.49L83.62-13.49Q83.64-13.49 83.75-13.57L83.75-13.57L83.75-13.57Q83.90-13.64 83.90-13.58L83.90-13.58L83.90-13.58Q83.90-13.53 83.79-13.30L83.79-13.30L83.79-13.30Q83.60-13.00 83.52-12.96L83.52-12.96L83.52-12.96Q83.45-12.92 83.37-13.19L83.37-13.19L83.37-13.19Q83.33-13.30 83.49-13.55L83.49-13.55L83.49-13.55Q83.64-13.79 83.87-14.06L83.87-14.06L83.87-14.06Q84.09-14.33 84.34-14.52L84.34-14.52L84.34-14.52Q84.59-14.71 84.74-14.71L84.74-14.71L84.74-14.71Q84.93-14.71 84.95-14.65L84.95-14.65L84.95-14.65Q84.97-14.59 84.82-14.40L84.82-14.40L84.82-14.40Q84.74-14.33 84.61-14.25L84.61-14.25L84.61-14.25Q84.47-14.17 84.40-14.25" fill="#000000" stroke="none" stroke-width="none" transform="translate(-51.91087055206299,10.680559433764877)" style="transform:matrix(1, 0, 0, 1, -51.9109, 10.6806);animation-play-state:paused" ></path></g>
<g class="path" style="transform-origin:29.761px 2.85056px;animation-timing-function:linear;animation-play-state:paused;animation-name:static-5edba46f-4004-4ec4-b6aa-431d6ed1e35d;animation-iteration-count:infinite;animation-fill-mode:forwards;animation-duration:0.362319s;animation-delay:-0.10628s" ><path d="M81.89-8.93L81.89-8.93L81.89-8.93Q82.08-8.93 82.00-8.44L82.00-8.44L82.00-8.44Q81.93-7.94 81.62-7.30L81.62-7.30L81.32-6.73L81.47-7.33L81.47-7.33Q81.51-7.60 81.53-7.87L81.53-7.87L81.53-7.87Q81.55-8.13 81.55-8.25L81.55-8.25L81.55-8.25Q81.55-8.55 81.74-8.44L81.74-8.44L81.74-8.44Q81.93-8.28 81.81-8.63L81.81-8.63L81.81-8.63Q81.66-8.93 81.89-8.93" fill="#000000" stroke="none" stroke-width="none" transform="translate(-51.91087055206299,10.680559433764877)" style="transform:matrix(1, 0, 0, 1, -51.9109, 10.6806);animation-play-state:paused" ></path></g>
<g class="path" style="transform-origin:30.4813px 0.777131px;animation-timing-function:linear;animation-play-state:paused;animation-name:static-5edba46f-4004-4ec4-b6aa-431d6ed1e35d;animation-iteration-count:infinite;animation-fill-mode:forwards;animation-duration:0.362319s;animation-delay:-0.0929952s" ><path d="M82.61-10.49L82.61-10.49L82.61-10.49Q82.69-10.49 82.69-10.36L82.69-10.36L82.69-10.36Q82.69-10.22 82.65-10.03L82.65-10.03L82.65-10.03Q82.61-9.84 82.54-9.65L82.54-9.65L82.54-9.65Q82.46-9.46 82.38-9.39L82.38-9.39L82.38-9.39Q82.23-9.23 82.16-9.42L82.16-9.42L82.16-9.42Q82.00-9.58 82.23-9.65L82.23-9.65L82.23-9.65Q82.42-9.73 82.42-10.11L82.42-10.11L82.42-10.11Q82.50-10.49 82.61-10.49" fill="#000000" stroke="none" stroke-width="none" transform="translate(-51.91087055206299,10.680559433764877)" style="transform:matrix(1, 0, 0, 1, -51.9109, 10.6806);animation-play-state:paused" ></path></g>
<g class="path" style="transform-origin:31.8893px -1.92676px;animation-timing-function:linear;animation-play-state:paused;animation-name:static-5edba46f-4004-4ec4-b6aa-431d6ed1e35d;animation-iteration-count:infinite;animation-fill-mode:forwards;animation-duration:0.362319s;animation-delay:-0.0797101s" ><path d="M83.94-13.19L83.94-13.19L83.94-13.19Q84.17-13.34 84.13-13.09L84.13-13.09L84.13-13.09Q84.09-12.84 83.79-12.39L83.79-12.39L83.79-12.39Q83.33-11.63 83.52-12.24L83.52-12.24L83.52-12.24Q83.68-12.65 83.79-12.73L83.79-12.73L83.79-12.73Q83.94-12.77 83.87-12.96L83.87-12.96L83.87-12.96Q83.79-13.11 83.94-13.19" fill="#000000" stroke="none" stroke-width="none" transform="translate(-51.91087055206299,10.680559433764877)" style="transform:matrix(1, 0, 0, 1, -51.9109, 10.6806);animation-play-state:paused" ></path></g>
<g class="path" style="transform-origin:32.6813px -3.03752px;animation-timing-function:linear;animation-play-state:paused;animation-name:static-5edba46f-4004-4ec4-b6aa-431d6ed1e35d;animation-iteration-count:infinite;animation-fill-mode:forwards;animation-duration:0.362319s;animation-delay:-0.0664251s" ><path d="M84.85-14.10L84.85-14.10L84.85-14.10Q85.12-14.21 84.74-13.79L84.74-13.79L84.74-13.79Q84.59-13.60 84.49-13.47L84.49-13.47L84.49-13.47Q84.40-13.34 84.36-13.34L84.36-13.34L84.36-13.34Q84.36-13.30 84.32-13.32L84.32-13.32L84.32-13.32Q84.28-13.34 84.25-13.41L84.25-13.41L84.25-13.41Q84.09-13.68 84.85-14.10" fill="#000000" stroke="none" stroke-width="none" transform="translate(-51.91087055206299,10.680559433764877)" style="transform:matrix(1, 0, 0, 1, -51.9109, 10.6806);animation-play-state:paused" ></path></g>
<g class="path" style="transform-origin:34.1041px -2.49152px;animation-timing-function:linear;animation-play-state:paused;animation-name:static-5edba46f-4004-4ec4-b6aa-431d6ed1e35d;animation-iteration-count:infinite;animation-fill-mode:forwards;animation-duration:0.362319s;animation-delay:-0.0531401s" ><path d="M85.99-12.73L85.99-12.73L85.99-12.73Q85.96-12.54 85.96-12.69L85.96-12.69L85.96-12.69Q85.96-12.84 85.96-13.19L85.96-13.19L85.96-13.19Q85.96-13.57 85.96-13.68L85.96-13.68L85.96-13.68Q85.96-13.79 85.99-13.60L85.99-13.60L85.99-13.60Q86.15-13.15 85.99-12.73" fill="#000000" stroke="none" stroke-width="none" transform="translate(-51.91087055206299,10.680559433764877)" style="transform:matrix(1, 0, 0, 1, -51.9109, 10.6806);animation-play-state:paused" ></path></g>
<g class="path" style="transform-origin:37.5645px 10.9106px;animation-timing-function:linear;animation-play-state:paused;animation-name:static-5edba46f-4004-4ec4-b6aa-431d6ed1e35d;animation-iteration-count:infinite;animation-fill-mode:forwards;animation-duration:0.362319s;animation-delay:-0.0398551s" ><path d="M89.49 0.08L89.49 0.08L89.49 0.08Q89.72 0.08 89.64 0.23L89.64 0.23L89.64 0.23Q89.49 0.38 89.49 0.38L89.49 0.38L89.49 0.38Q89.41 0.38 89.34 0.23L89.34 0.23L89.34 0.23Q89.19 0.08 89.49 0.08" fill="#000000" stroke="none" stroke-width="none" transform="translate(-51.91087055206299,10.680559433764877)" style="transform:matrix(1, 0, 0, 1, -51.9109, 10.6806);animation-play-state:paused" ></path></g>
<g class="path" style="transform-origin:33.5516px 2.92538px;animation-timing-function:linear;animation-play-state:paused;animation-name:static-5edba46f-4004-4ec4-b6aa-431d6ed1e35d;animation-iteration-count:infinite;animation-fill-mode:forwards;animation-duration:0.362319s;animation-delay:-0.02657s" ><path d="M85.46-7.90L85.46-7.90L85.46-7.90Q85.61-7.64 85.46-7.56L85.46-7.56L85.46-7.56Q85.39-7.41 85.39-7.79L85.39-7.79L85.39-7.79Q85.39-8.13 85.46-7.90" fill="#000000" stroke="none" stroke-width="none" transform="translate(-51.91087055206299,10.680559433764877)" style="transform:matrix(1, 0, 0, 1, -51.9109, 10.6806);animation-play-state:paused" ></path></g>
<g class="path" style="transform-origin:33.5516px 4.48061px;animation-timing-function:linear;animation-play-state:paused;animation-name:static-5edba46f-4004-4ec4-b6aa-431d6ed1e35d;animation-iteration-count:infinite;animation-fill-mode:forwards;animation-duration:0.362319s;animation-delay:-0.013285s" ><path d="M85.39-6.23L85.39-6.23L85.39-6.23Q85.39-6.61 85.46-6.31L85.46-6.31L85.46-6.31Q85.61-6.08 85.46-6.00L85.46-6.00L85.46-6.00Q85.39-5.85 85.39-6.23" fill="#000000" stroke="none" stroke-width="none" transform="translate(-51.91087055206299,10.680559433764877)" style="transform:matrix(1, 0, 0, 1, -51.9109, 10.6806);animation-play-state:paused" ></path></g>
<g class="path" style="transform-origin:43.2101px 3.4729px;animation-timing-function:linear;animation-play-state:paused;animation-name:static-5edba46f-4004-4ec4-b6aa-431d6ed1e35d;animation-iteration-count:infinite;animation-fill-mode:forwards;animation-duration:0.362319s" ><path d="M91.05-6.61L91.05-6.61L91.05-6.61Q90.71-6.73 90.63-6.65L90.63-6.65L90.63-6.65Q90.55-6.57 90.48-5.97L90.48-5.97L90.48-5.97Q90.29-4.75 90.53-3.46L90.53-3.46L90.53-3.46Q90.78-2.17 91.31-1.44L91.31-1.44L91.31-1.44Q91.43-1.33 91.50-1.27L91.50-1.27L91.50-1.27Q91.58-1.22 91.73-1.25L91.73-1.25L91.73-1.25Q91.88-1.29 92.15-1.41L92.15-1.41L92.15-1.41Q92.42-1.52 92.87-1.75L92.87-1.75L92.87-1.75Q93.78-2.20 94.81-2.93L94.81-2.93L94.81-2.93Q95.84-3.65 96.90-4.56L96.90-4.56L96.90-4.56Q97.96-5.47 98.95-6.48L98.95-6.48L98.95-6.48Q99.94-7.49 100.78-8.51L100.78-8.51L100.78-8.51Q101.19-9.01 101.55-9.37L101.55-9.37L101.55-9.37Q101.92-9.73 102.03-9.73L102.03-9.73L102.03-9.73Q102.33-9.73 102.26-9.50L102.26-9.50L102.26-9.50Q102.18-9.27 101.65-8.44L101.65-8.44L100.70-7.03L100.70-7.03Q100.51-6.76 100.13-6.31L100.13-6.31L100.13-6.31Q99.75-5.85 99.27-5.30L99.27-5.30L99.27-5.30Q98.80-4.75 98.21-4.14L98.21-4.14L98.21-4.14Q97.62-3.53 97.05-2.96L97.05-2.96L97.05-2.96Q96.29-2.24 96.16-2.05L96.16-2.05L96.16-2.05Q96.03-1.86 96.44-2.20L96.44-2.20L96.44-2.20Q96.82-2.51 97.49-3.15L97.49-3.15L97.49-3.15Q98.15-3.80 98.80-4.46L98.80-4.46L98.80-4.46Q99.45-5.13 99.90-5.66L99.90-5.66L99.90-5.66Q100.36-6.19 100.36-6.27L100.36-6.27L100.36-6.27Q100.36-6.35 100.47-6.46L100.47-6.46L100.47-6.46Q100.59-6.57 100.74-6.65L100.74-6.65L100.74-6.65Q101.08-6.84 101.08-7.11L101.08-7.11L101.08-7.11Q101.08-7.18 101.17-7.35L101.17-7.35L101.17-7.35Q101.27-7.52 101.38-7.64L101.38-7.64L101.38-7.64Q101.54-7.79 101.74-8.09L101.74-8.09L101.74-8.09Q101.95-8.40 102.14-8.70L102.14-8.70L102.14-8.70Q102.45-9.31 102.75-9.56L102.75-9.56L102.75-9.56Q103.06-9.80 102.87-9.31L102.87-9.31L102.87-9.31Q102.56-8.63 101.95-7.68L101.95-7.68L101.95-7.68Q101.35-6.73 100.55-5.70L100.55-5.70L100.55-5.70Q99.75-4.67 98.86-3.67L98.86-3.67L98.86-3.67Q97.96-2.66 97.13-1.86L97.13-1.86L97.13-1.86Q96.37-1.18 95.80-0.68L95.80-0.68L95.80-0.68Q95.23-0.19 95.11-0.15L95.11-0.15L95.11-0.15Q94.77-0.08 94.33 0.11L94.33 0.11L94.33 0.11Q93.90 0.30 93.90 0.42L93.90 0.42L93.90 0.42Q93.90 0.57 93.63 0.38L93.63 0.38L93.63 0.38Q93.37 0.15 93.25 0.27L93.25 0.27L93.25 0.27Q93.18 0.34 93.37 0.42L93.37 0.42L93.37 0.42Q93.48 0.42 93.40 0.46L93.40 0.46L93.40 0.46Q93.33 0.49 93.18 0.55L93.18 0.55L93.18 0.55Q93.02 0.61 92.81 0.67L92.81 0.67L92.81 0.67Q92.61 0.72 92.45 0.72L92.45 0.72L92.45 0.72Q92.15 0.72 92.15 0.53L92.15 0.53L92.15 0.53Q92.15 0.38 91.96 0.46L91.96 0.46L91.96 0.46Q91.81 0.57 91.26 0.30L91.26 0.30L91.26 0.30Q90.71 0.04 90.06-0.42L90.06-0.42L90.06-0.42Q89.41-0.87 88.84-1.41L88.84-1.41L88.84-1.41Q88.27-1.94 88.05-2.32L88.05-2.32L88.05-2.32Q87.55-3.12 87.38-4.29L87.38-4.29L87.38-4.29Q87.21-5.47 87.40-6.57L87.40-6.57L87.40-6.57Q87.63-7.87 88.08-9.18L88.08-9.18L88.08-9.18Q88.54-10.49 89.15-11.59L89.15-11.59L89.15-11.59Q89.76-12.69 90.42-13.51L90.42-13.51L90.42-13.51Q91.09-14.33 91.77-14.67L91.77-14.67L91.77-14.67Q92.49-15.01 93.38-15.11L93.38-15.11L93.38-15.11Q94.28-15.20 94.66-14.97L94.66-14.97L94.66-14.97Q94.81-14.86 95.09-14.76L95.09-14.76L95.09-14.76Q95.38-14.67 95.61-14.59L95.61-14.59L95.61-14.59Q95.84-14.52 96.18-14.33L96.18-14.33L96.18-14.33Q96.52-14.14 96.79-13.91L96.79-13.91L96.79-13.91Q97.20-13.49 97.30-13.26L97.30-13.26L97.30-13.26Q97.39-13.03 97.39-12.43L97.39-12.43L97.39-12.43Q97.39-11.32 96.84-10.34L96.84-10.34L96.84-10.34Q96.29-9.35 94.89-8.02L94.89-8.02L94.89-8.02Q93.94-7.07 92.87-6.69L92.87-6.69L92.87-6.69Q91.81-6.31 91.05-6.61zM94.43-13.45L94.43-13.45L94.43-13.45Q94.32-13.64 94.16-13.57L94.16-13.57L94.16-13.57Q94.01-13.49 93.59-13.07L93.59-13.07L93.59-13.07Q93.29-12.77 92.93-12.29L92.93-12.29L92.93-12.29Q92.57-11.82 92.34-11.40L92.34-11.40L92.34-11.40Q92.11-11.02 91.83-10.39L91.83-10.39L91.83-10.39Q91.54-9.77 91.29-9.14L91.29-9.14L91.29-9.14Q91.05-8.51 90.90-8.04L90.90-8.04L90.90-8.04Q90.74-7.56 90.82-7.52L90.82-7.52L90.82-7.52Q90.93-7.45 90.71-7.22L90.71-7.22L90.71-7.22Q90.55-6.95 90.67-6.95L90.67-6.95L90.67-6.95Q90.78-6.95 91.05-7.30L91.05-7.30L91.05-7.30Q91.24-7.49 91.26-7.49L91.26-7.49L91.26-7.49Q91.28-7.49 91.20-7.26L91.20-7.26L91.20-7.26Q91.12-7.07 91.26-7.09L91.26-7.09L91.26-7.09Q91.39-7.11 91.64-7.31L91.64-7.31L91.64-7.31Q91.88-7.52 92.19-7.85L92.19-7.85L92.19-7.85Q92.49-8.17 92.80-8.59L92.80-8.59L92.80-8.59Q93.29-9.20 93.67-9.94L93.67-9.94L93.67-9.94Q94.05-10.68 94.28-11.36L94.28-11.36L94.28-11.36Q94.51-12.05 94.56-12.62L94.56-12.62L94.56-12.62Q94.62-13.19 94.43-13.45zM95.15-9.73L95.15-9.73L95.15-9.73Q94.73-9.01 94.07-8.25L94.07-8.25L94.07-8.25Q93.40-7.49 92.83-7.11L92.83-7.11L92.83-7.11Q92.45-6.80 92.64-6.80L92.64-6.80L92.64-6.80Q92.72-6.80 93.02-7.01L93.02-7.01L93.02-7.01Q93.33-7.22 93.67-7.52L93.67-7.52L93.67-7.52Q94.01-7.83 94.39-8.25L94.39-8.25L94.39-8.25Q94.77-8.66 94.96-8.93L94.96-8.93L94.96-8.93Q95.15-9.20 95.32-9.37L95.32-9.37L95.32-9.37Q95.49-9.54 95.57-9.46L95.57-9.46L95.57-9.46Q95.72-9.31 95.57-9.54L95.57-9.54L95.57-9.54Q95.46-9.73 95.65-10.15L95.65-10.15L95.65-10.15Q95.84-10.49 95.76-10.56L95.76-10.56L95.76-10.56Q95.72-10.64 95.55-10.37L95.55-10.37L95.55-10.37Q95.38-10.11 95.15-9.73zM90.48-1.41L90.48-1.41L90.48-1.41Q90.55-1.44 90.48-1.63L90.48-1.63L90.48-1.63Q90.40-1.82 90.21-2.09L90.21-2.09L90.21-2.09Q90.06-2.36 89.95-2.75L89.95-2.75L89.95-2.75Q89.83-3.15 89.76-3.50L89.76-3.50L89.76-3.50Q89.64-4.33 89.51-4.33L89.51-4.33L89.51-4.33Q89.38-4.33 89.41-3.50L89.41-3.50L89.41-3.50Q89.45-3.15 89.55-2.79L89.55-2.79L89.55-2.79Q89.64-2.43 89.76-2.17L89.76-2.17L89.76-2.17Q89.87-1.90 89.98-1.73L89.98-1.73L89.98-1.73Q90.10-1.56 90.21-1.63L90.21-1.63L90.21-1.63Q90.40-1.71 90.40-1.52L90.40-1.52L90.40-1.52Q90.40-1.33 90.48-1.41zM89.68-8.85L89.68-8.85L89.68-8.85Q89.68-8.78 89.91-9.14L89.91-9.14L89.91-9.14Q90.14-9.50 90.44-10.11L90.44-10.11L90.44-10.11Q90.74-10.75 91.03-11.17L91.03-11.17L91.03-11.17Q91.31-11.59 91.39-11.55L91.39-11.55L91.39-11.55Q91.62-11.55 91.50-11.74L91.50-11.74L91.50-11.74Q91.47-11.82 91.64-12.12L91.64-12.12L91.64-12.12Q91.81-12.43 92.07-12.77L92.07-12.77L92.07-12.77Q92.49-13.30 92.45-13.26L92.45-13.26L92.45-13.26Q92.42-13.22 91.85-12.62L91.85-12.62L91.85-12.62Q91.54-12.31 91.16-11.76L91.16-11.76L91.16-11.76Q90.78-11.21 90.46-10.62L90.46-10.62L90.46-10.62Q90.14-10.03 89.91-9.54L89.91-9.54L89.91-9.54Q89.68-9.04 89.68-8.85zM95.65-14.14L95.65-14.14L95.65-14.14Q95.38-14.14 95.76-13.79L95.76-13.79L95.76-13.79Q96.18-13.45 96.37-12.58L96.37-12.58L96.37-12.58Q96.56-11.70 96.65-11.70L96.65-11.70L96.65-11.70Q96.75-11.70 96.63-12.58L96.63-12.58L96.63-12.58Q96.56-13.30 96.29-13.72L96.29-13.72L96.29-13.72Q96.03-14.14 95.65-14.14zM98.34-5.21L98.34-5.21L98.34-5.21Q97.93-4.79 97.64-4.48L97.64-4.48L97.64-4.48Q97.36-4.18 97.39-4.18L97.39-4.18L97.39-4.18Q97.47-4.18 97.79-4.48L97.79-4.48L97.79-4.48Q98.12-4.79 98.53-5.21L98.53-5.21L98.53-5.21Q98.95-5.66 99.24-5.97L99.24-5.97L99.24-5.97Q99.52-6.27 99.48-6.27L99.48-6.27L99.48-6.27Q99.45-6.27 99.12-5.97L99.12-5.97L99.12-5.97Q98.80-5.66 98.34-5.21zM89.19-7.33L89.19-7.33L89.19-7.33Q89.11-7.07 89.09-6.93L89.09-6.93L89.09-6.93Q89.07-6.80 89.15-6.88L89.15-6.88L89.15-6.88Q89.22-6.95 89.30-7.16L89.30-7.16L89.30-7.16Q89.38-7.37 89.45-7.60L89.45-7.60L89.45-7.60Q89.57-8.09 89.47-8.00L89.47-8.00L89.47-8.00Q89.38-7.90 89.19-7.33zM92.04-7.07L92.87-7.83L92.87-7.83Q93.21-8.17 93.46-8.40L93.46-8.40L93.46-8.40Q93.71-8.63 93.71-8.66L93.71-8.66L93.71-8.66Q93.71-8.78 93.54-8.63L93.54-8.63L93.54-8.63Q93.37-8.47 92.83-7.90L92.83-7.90L92.04-7.07zM100.02-7.07L100.02-7.07L100.02-7.07Q99.64-6.61 99.71-6.61L99.71-6.61L99.71-6.61Q99.83-6.61 100.21-7.07L100.21-7.07L100.21-7.07Q100.62-7.49 100.51-7.49L100.51-7.49L100.51-7.49Q100.43-7.49 100.02-7.07zM95.84-10.94L95.84-10.94L95.84-10.94Q96.03-11.13 95.95-11.36L95.95-11.36L95.95-11.36Q95.91-11.59 95.76-11.17L95.76-11.17L95.76-11.17Q95.65-10.75 95.84-10.94zM96.67-3.65L96.67-3.65L96.67-3.65Q96.33-3.46 96.33-3.34L96.33-3.34L96.33-3.34Q96.33-3.12 96.71-3.61L96.71-3.61L96.71-3.61Q96.90-3.80 96.88-3.82L96.88-3.82L96.88-3.82Q96.86-3.84 96.67-3.65zM89.57-6.00L89.57-6.00L89.57-6.00Q89.53-5.78 89.57-5.70L89.57-5.70L89.57-5.70Q89.60-5.62 89.64-5.70L89.64-5.70L89.64-5.70Q89.72-5.89 89.64-6.23L89.64-6.23L89.64-6.23Q89.57-6.54 89.57-6.00zM89.11-6.16L89.11-6.16L89.11-6.16Q89.19-6.23 89.11-6.50L89.11-6.50L89.11-6.50Q89.03-6.61 89.00-6.38L89.00-6.38L89.00-6.38Q89.00-6.04 89.11-6.16" fill="#000000" stroke="none" stroke-width="none" transform="translate(-51.91087055206299,10.680559433764877)" style="transform:matrix(1, 0, 0, 1, -51.9109, 10.6806);animation-play-state:paused" ></path></g></g></g></g></svg>