<?xml version="1.0" encoding="utf-8"?>
<!-- Generator: Adobe Illustrator 25.0.0, SVG Export Plug-In . SVG Version: 6.00 Build 0)  -->
<svg version="1.1" id="Layer_1" xmlns="http://www.w3.org/2000/svg" xmlns:xlink="http://www.w3.org/1999/xlink" x="0px" y="0px"
	 viewBox="0 0 117 48" style="enable-background:new 0 0 117 48;" xml:space="preserve">
<style type="text/css">
	.st0{fill:none;}
</style>
<path class="st0" d="z"/>
<path class="st0" d="M40,5.7L40,5.7L40,5.7c0,0,0,0.2-0.1,0.4l0,0l0,0c-0.1,0.2-0.3,0.5-0.4,0.8l0,0l0,0c-0.2,0.3-0.4,0.6-0.5,0.9
	l0,0l0,0c-0.2,0.3-0.3,0.6-0.3,0.7l0,0L38,9.6l0,0c-0.2,0.4-0.5,1-0.7,1.7l0,0l0,0c-0.3,0.7-0.6,1.5-0.9,2.3l0,0l0,0
	c-0.3,0.8-0.6,1.6-0.9,2.3l0,0l0,0c-0.3,0.7-0.5,1.4-0.6,1.8l0,0l0,0c-0.1,0.2-0.1,0.4-0.2,0.8l0,0l0,0c-0.1,0.4-0.3,0.8-0.5,1.4
	l0,0l0,0c-0.2,0.5-0.4,1.1-0.6,1.8l0,0l0,0c-0.2,0.7-0.4,1.3-0.7,2l0,0l0,0c-0.6,1.9-1.2,3.5-1.8,4.9l0,0l0,0
	c-0.5,1.4-1,2.7-1.5,3.8l0,0l0,0c-0.5,1.1-0.9,2.1-1.4,2.9l0,0l0,0c-0.4,0.8-0.9,1.5-1.3,2.1l0,0l0,0c-0.2,0.3-0.5,0.6-0.8,0.9l0,0
	l0,0c-0.3,0.3-0.6,0.6-0.9,0.9l0,0l0,0c-0.3,0.3-0.5,0.5-0.8,0.7l0,0l0,0c-0.2,0.2-0.3,0.2-0.4,0.2l0,0l0,0c-0.1-0.1-0.3,0-0.5,0.1
	l0,0l0,0c-0.5,0.4-0.9,0.5-1.4,0.4l0,0l0,0c-0.5-0.1-1.1-0.4-1.9-0.9l0,0l0,0c-0.6-0.4-1.1-0.8-1.5-1.2l0,0l0,0
	c-0.4-0.4-0.6-0.9-0.8-1.4l0,0l0,0c-0.2-0.5-0.2-1.2-0.3-2l0,0l0,0c0-0.8,0-1.7,0.2-2.7l0,0l0.3-2.6l-0.6,0.8l0,0
	c-0.4,0.5-0.9,1.4-1.6,2.5l0,0l0,0c-0.7,1.2-1.5,2.5-2.3,3.9l0,0l0,0c-0.8,1.3-1.4,2.4-1.9,3.1l0,0l0,0c-0.5,0.7-1,1.3-1.5,1.6l0,0
	l0,0c-0.9,0.7-1.6,0.8-1.9,0.5l0,0l0,0c-0.1-0.1-0.2-0.1-0.3-0.2l0,0l0,0c-0.2-0.1-0.3-0.2-0.4-0.2l0,0l0,0
	c-0.1-0.1-0.3-0.1-0.5-0.2l0,0l0,0c-0.2-0.1-0.3-0.2-0.5-0.4l0,0l0,0c-0.1-0.1-0.3-0.2-0.4-0.3l0,0l0,0c-0.2-0.1-0.3-0.2-0.3-0.2
	l0,0l0,0c-0.2,0-0.4-0.2-0.5-0.4l0,0l0,0c-0.1-0.3-0.2-0.6-0.3-1l0,0l0,0c-0.1-0.4,0.1-1.3,0.5-2.7l0,0l0,0c0.4-1.4,1-3.5,2-6.4l0,0
	l0,0c0.5-1.5,0.9-2.8,1.3-4l0,0l0,0c0.4-1.1,0.6-2.1,0.9-3l0,0l0,0c0.2-0.9,0.4-1.7,0.6-2.3l0,0l0,0c0.2-0.7,0.3-1.3,0.4-2l0,0l0,0
	c0.1-0.5,0.2-1,0.2-1.5l0,0l0,0c0.1-0.5,0.1-1.1,0.1-1.6l0,0l0,0c0-0.5,0.1-0.9,0.1-1.3l0,0l0,0c0-0.4,0-0.7,0-0.9l0,0l0,0
	c0-0.2-0.1-0.3-0.1-0.2l0,0l0,0c0,0-0.1,0.2-0.3,0.6l0,0l0,0c-0.1,0.2-0.3,0.4-0.4,0.5l0,0l0,0c-0.1,0.2-0.2,0.3-0.3,0.3l0,0l0,0
	c-0.2,0.1-0.2,0.2-0.2,0.1l0,0l0,0c0,0,0-0.2,0.1-0.4l0,0l0,0c0.1-0.1,0.1-0.2,0.2-0.4l0,0l0,0c0.1-0.1,0.1-0.2,0.2-0.2l0,0l0,0
	c0.1,0,0.1-0.2,0.1-0.4l0,0l0,0c-0.1-0.1,0-0.2,0-0.3l0,0l0,0c0.1-0.1,0.1-0.2,0.2-0.3l0,0l0,0c0.2-0.2,0.4-0.3,0.4-0.5l0,0l0,0
	c0-0.1-0.1-0.1-0.3,0l0,0l0,0c-0.2,0.2-0.5,0.4-0.7,0.8l0,0l0,0c-0.2,0.3-0.3,0.6-0.4,0.9l0,0l0,0C9.7,14.8,9.6,15,9.4,15l0,0l0,0
	c-0.2,0-0.3-0.1-0.4-0.5l0,0l0,0C9,14.2,9,14,9.1,13.6l0,0l0,0c0.1-0.3,0.2-0.6,0.4-0.8l0,0l0,0c0.2-0.2,0.4-0.4,0.7-0.6l0,0l0,0
	c0.3-0.1,0.5-0.2,0.7-0.1l0,0l0,0c0.1,0,0.3,0.1,0.5,0.1l0,0l0,0c0.2,0,0.4,0.1,0.7,0.1l0,0l0,0c0.7,0,1.2,0.4,1.5,1.1l0,0l0,0
	c0.3,0.7,0.6,1.8,0.7,3.2l0,0l0,0c0,0.7,0,1.5,0,2.4l0,0l0,0c0,0.8-0.1,1.8-0.3,2.8l0,0l0,0c-0.2,1-0.4,2.2-0.6,3.5l0,0l0,0
	c-0.3,1.3-0.6,2.8-1,4.4l0,0l-0.3,1.1l1.2-1.8l0,0c0.6-0.8,1.2-1.5,1.7-2.2l0,0l0,0c0.6-0.7,1.1-1.2,1.5-1.7l0,0l0,0
	c0.5-0.5,0.9-0.8,1.2-1.1l0,0l0,0c0.4-0.3,0.6-0.4,0.8-0.4l0,0l0,0c0.1,0,0.3,0,0.4,0l0,0l0,0c0.1,0,0.3-0.1,0.4-0.1l0,0l0,0
	c0.5-0.2,0.8,0,1,0.7l0,0l0.1,0.6l0.6-0.4l0,0c0.2-0.2,0.4-0.3,0.5-0.3l0,0l0,0c0.1,0,0.3,0,0.4,0.2l0,0l0,0
	c0.2,0.1,0.3,0.2,0.3,0.3l0,0l0,0c0.1,0.1,0.1,0.3,0.1,0.5l0,0l0,0c0,0.2,0,0.5-0.1,0.9l0,0l0,0c-0.1,0.4-0.2,0.9-0.3,1.5l0,0l0,0
	c-0.4,1.5-0.6,2.9-0.8,4.3l0,0l0,0c-0.2,1.4-0.3,2.5-0.3,3.3l0,0l0,0c0,0.3,0,0.6,0.1,1l0,0l0,0c0,0.4,0.1,0.7,0.2,1l0,0l0,0
	c0.1,0.3,0.1,0.6,0.2,0.8l0,0l0,0c0.1,0.2,0.1,0.4,0.2,0.4l0,0l0,0c0,0,0.1-0.1,0.3-0.2l0,0l0,0c0.2-0.2,0.4-0.4,0.7-0.7l0,0l0,0
	c0.3-0.3,0.5-0.6,0.8-0.9l0,0l0,0c0.3-0.3,0.5-0.6,0.7-0.9l0,0l0,0c0.7-1.1,1.7-2.8,2.8-5.2l0,0l0,0c1.1-2.4,2.5-5.5,4.2-9.4l0,0
	l0,0c4.8-11.3,7.6-16.5,8.3-15.5l0,0l0,0c0,0.1,0,0.2-0.1,0.4l0,0l0,0c-0.1,0.2-0.3,0.4-0.5,0.7l0,0l0,0c-0.3,0.5-0.7,1.2-1.2,2.1
	l0,0l0,0c-0.5,0.9-1,1.9-1.5,3.1l0,0l0,0c-0.5,1.2-1.1,2.4-1.6,3.7l0,0l0,0c-0.5,1.3-1.1,2.7-1.5,4l0,0l0,0c0,0.1-0.2,0.5-0.4,1.1
	l0,0l0,0c-0.2,0.6-0.5,1.3-0.7,2l0,0l0,0c-0.3,0.8-0.6,1.4-0.8,2l0,0l0,0c-0.2,0.6-0.3,0.9-0.3,1l0,0l0,0c0,0.1,0.1,0,0.3-0.6l0,0
	l0,0c0.2-0.5,0.5-1.3,0.8-2.1l0,0l0,0c0.1-0.3,0.2-0.5,0.3-0.7l0,0l0,0c0.1-0.2,0.1-0.3,0.1-0.2l0,0l0,0c0,0,0.1,0,0.1-0.2l0,0l0,0
	c0-0.1,0.1-0.3,0.1-0.5l0,0l0,0c0-0.2,0.1-0.4,0.1-0.5l0,0l0,0c0.1-0.2,0.1-0.2,0.2-0.2l0,0l0,0c0.1,0,0.2-0.2,0.2-0.5l0,0l0,0
	c-0.1-0.3,0-0.4,0.1-0.4l0,0l0,0c0.1,0.1,0.2,0,0.2-0.3l0,0l0,0c0-0.1,0-0.2,0-0.3l0,0l0,0c0-0.1,0.1-0.1,0.1-0.1l0,0l0,0
	c0.1,0,0.1-0.2,0.1-0.5l0,0l0,0c0-0.3,0.1-0.4,0.2-0.3l0,0l0,0c0.1,0,0.2-0.1,0.2-0.4l0,0l0,0c0.1-0.2,0.1-0.4,0.2-0.7l0,0l0,0
	c0.1-0.2,0.2-0.4,0.2-0.6l0,0l0,0c0,0,0-0.1,0-0.1l0,0l0,0c0-0.1,0-0.1,0-0.2l0,0l0,0c0.1-0.2,0.1-0.3,0.2-0.3l0,0l0,0
	c0.1,0,0.2,0,0.2-0.1l0,0l0,0c0-0.1,0-0.2,0-0.4l0,0l0,0c0.1-0.2,0.2-0.5,0.2-0.7l0,0l0,0c0.1-0.3,0.2-0.6,0.3-0.8l0,0l0,0
	c0.1-0.3,0.2-0.5,0.3-0.6l0,0l0,0c0.2-0.2,0.2-0.3,0.2-0.4l0,0l0,0c0-0.1,0.1-0.1,0.1-0.2l0,0l0,0c0.1-0.1,0.1-0.2,0.2-0.4l0,0l0,0
	c0.1-0.1,0.1-0.3,0.2-0.5l0,0l0,0c0.1-0.2,0.1-0.4,0.2-0.5l0,0l0,0c0.1-0.3,0.2-0.5,0.3-0.4l0,0l0,0c0.1,0.1,0.1,0.1,0.1,0l0,0l0,0
	c-0.1,0,0-0.2,0-0.4l0,0l0,0c0.1-0.2,0.2-0.5,0.3-0.8l0,0l0,0c0.1-0.3,0.2-0.6,0.4-0.8l0,0l0,0c0.1-0.3,0.3-0.4,0.4-0.6l0,0l0,0
	c0.1-0.1,0.2-0.2,0.2-0.3l0,0l0,0c0-0.1,0-0.1,0-0.1l0,0l0,0c-0.1,0-0.1-0.1,0.1-0.2l0,0l0,0c0.1-0.2,0.2-0.3,0.2-0.4l0,0l0,0
	c0-0.1,0.1-0.2,0.2-0.4l0,0l0,0c0.1-0.2,0.3-0.4,0.4-0.6l0,0l0,0c0.2-0.2,0.3-0.4,0.4-0.5l0,0l0,0C39.9,5.7,40,5.7,40,5.7z
	 M20.8,38.8L20.8,38.8L20.8,38.8c0.1,0,0.2,0,0.2,0l0,0l0,0c0,0-0.1-0.1-0.2-0.2l0,0l0,0c-0.2-0.2-0.3-0.4-0.2-0.4l0,0l0,0
	c0,0,0-0.1,0-0.3l0,0l0,0c0-0.1-0.1-0.3-0.1-0.6l0,0l0,0c-0.1-0.2-0.1-0.5-0.2-0.8l0,0l0,0c-0.1-0.3-0.1-0.6-0.1-0.8l0,0l0,0
	c0-0.5-0.1-0.7-0.2-0.8l0,0l0,0c-0.1,0-0.1,0.1-0.1,0.4l0,0l0,0c0,0.3,0,0.6,0,0.9l0,0l0,0c0,0.4,0.1,0.7,0.2,1.1l0,0l0,0
	c0.1,0.4,0.2,0.7,0.3,0.9l0,0l0,0C20.4,38.7,20.6,38.8,20.8,38.8z M13.2,15.2L13.2,15.2L13.2,15.2c0,0.3,0.1,0.5,0.1,0.6l0,0l0,0
	c0.1,0.1,0.1,0.1,0.1,0l0,0l0,0c0,0,0-0.2,0-0.5l0,0l0,0c0-0.3,0-0.6-0.1-0.9l0,0l0,0c-0.1-0.6-0.2-1-0.4-1.4l0,0l0,0
	c-0.2-0.4-0.4-0.5-0.6-0.6l0,0l0,0c-0.2-0.1-0.1,0.1,0.1,0.5l0,0l0,0c0.2,0.3,0.4,0.6,0.5,1l0,0l0,0C13.1,14.5,13.2,14.9,13.2,15.2z
	 M29.8,28.8L29.8,28.8L29.8,28.8c0.2-0.4,0.4-0.8,0.5-1.1l0,0l0,0c0.1-0.3,0.1-0.5,0.1-0.5l0,0l0,0c0,0-0.1,0.1-0.2,0.4l0,0l0,0
	c-0.1,0.3-0.3,0.6-0.4,1l0,0l0,0c-0.2,0.4-0.3,0.7-0.4,1.1l0,0l0,0C29.1,30,29,30.2,29,30.3l0,0l0,0C29,30.7,29.2,30.2,29.8,28.8z
	 M25.5,37.2L25.5,37.2L25.5,37.2c0.5-0.7,0.8-1.3,1.1-1.7l0,0l0,0c0.3-0.5,0.3-0.6,0.2-0.5l0,0l0,0c-0.1,0-0.2,0.2-0.3,0.5l0,0l0,0
	c-0.2,0.3-0.4,0.6-0.6,0.9l0,0l0,0c-0.2,0.4-0.5,0.7-0.8,1.2l0,0l0,0c-0.3,0.4-0.6,0.7-0.8,1l0,0l0,0c-0.5,0.6-0.6,0.7-0.3,0.5l0,0
	l0,0c0.1-0.1,0.3-0.3,0.6-0.7l0,0l0,0C25,38,25.3,37.6,25.5,37.2z M12.4,14.1L12.4,14.1L12.4,14.1c0.1,0.3,0.1,0.6,0.2,0.9l0,0l0,0
	c0.1,0.3,0.1,0.5,0.1,0.5l0,0l0,0c0.1,0.2,0.1,0.3,0.1,0.3l0,0l0,0c0,0,0-0.1,0-0.3l0,0l0,0c0-0.2,0-0.4-0.1-0.6l0,0l0,0
	c-0.1-0.4-0.1-0.8-0.3-1.2l0,0l0,0c-0.1-0.4-0.2-0.6-0.3-0.6l0,0l0,0c0,0,0,0.1,0,0.3l0,0l0,0C12.3,13.6,12.3,13.8,12.4,14.1z
	 M16.5,29.5L16.5,29.5L16.5,29.5c0.3-0.4,0.5-0.6,0.6-0.9l0,0l0,0c0.1-0.2,0.1-0.3,0-0.2l0,0l0,0c-0.1,0.1-0.3,0.3-0.5,0.6l0,0l0,0
	c-0.2,0.3-0.4,0.6-0.7,0.9l0,0l0,0c-0.2,0.3-0.4,0.6-0.5,0.8l0,0l0,0c-0.1,0.2-0.2,0.3-0.1,0.2l0,0l0,0c0.1,0,0.2-0.2,0.4-0.5l0,0
	l0,0C16,30.2,16.3,29.9,16.5,29.5z M20.4,28.3L20.4,28.3L20.4,28.3c0.1-0.4,0.1-0.7,0.2-0.9l0,0l0,0c0-0.2,0-0.3,0-0.3l0,0l0,0
	c-0.1,0.1-0.1,0.2-0.2,0.5l0,0l0,0c-0.1,0.3-0.2,0.6-0.2,0.9l0,0l0,0c-0.1,0.3-0.1,0.6-0.2,0.8l0,0l0,0c0,0.3,0,0.4,0,0.4l0,0l0,0
	c0.1,0,0.1-0.2,0.2-0.4l0,0l0,0C20.3,29,20.3,28.7,20.4,28.3z M13,22.1l0.2-1.2l0,0c0.1-0.3,0.1-0.7,0.2-1l0,0l0,0
	c0-0.3,0-0.6,0-0.8l0,0l-0.1-0.6l0,0.7l0,0c0,0.2,0,0.5,0,0.8l0,0l0,0c0,0.3-0.1,0.6-0.1,0.9l0,0L13,22.1z M20.2,31.3L20,33l0,0
	c-0.1,1-0.2,1.5-0.2,1.7l0,0l0,0c0,0.2,0,0.2,0.1,0l0,0l0,0c0.1-0.1,0.1-0.3,0.1-0.7l0,0l0,0c0-0.4,0-0.8,0.1-1.2l0,0L20.2,31.3z
	 M14.4,32.6L14.4,32.6L14.4,32.6c0.2-0.2,0.3-0.4,0.4-0.6l0,0l0,0c0.1-0.2,0.2-0.3,0.2-0.3l0,0l0,0c0-0.1,0,0-0.1,0.1l0,0l0,0
	c-0.1,0.1-0.2,0.3-0.4,0.5l0,0l0,0c-0.2,0.2-0.3,0.4-0.4,0.6l0,0l0,0c-0.1,0.2-0.2,0.3-0.2,0.3l0,0l0,0c0,0.1,0,0,0.1-0.1l0,0l0,0
	C14.1,33,14.2,32.8,14.4,32.6z M13.5,17.3L13.5,17.3L13.5,17.3c-0.2-0.2-0.2,0-0.2,0.6l0,0v0.6l0.2-0.6l0,0c0.1-0.2,0.1-0.3,0.1-0.4
	l0,0l0,0C13.6,17.4,13.6,17.3,13.5,17.3z M19.2,34.3L19.2,34.3L19.2,34.3c-0.1,0.2-0.1,0.4,0,0.5l0,0l0,0c0,0.1,0.1,0.2,0.2,0.2l0,0
	l0,0c0,0,0-0.2,0-0.5l0,0l0,0c0-0.3-0.1-0.5-0.1-0.6l0,0l0,0C19.3,33.9,19.3,34,19.2,34.3z M27.7,33.3L27.7,33.3L27.7,33.3
	c0.1-0.2,0.1-0.3,0.1-0.3l0,0l0,0c0,0-0.1,0.1-0.2,0.4l0,0l0,0c-0.1,0.2-0.2,0.3-0.3,0.5l0,0l0,0c-0.1,0.2-0.2,0.4-0.2,0.5l0,0l0,0
	C27,34.6,27,34.7,27,34.7l0,0l0,0c0,0,0.1-0.1,0.2-0.3l0,0l0,0c0.1-0.1,0.2-0.3,0.3-0.5l0,0l0,0C27.6,33.6,27.7,33.5,27.7,33.3z
	 M13.5,16.2L13.5,16.2L13.5,16.2c-0.1-0.1-0.1-0.1-0.2,0l0,0l0,0c-0.1,0.1-0.1,0.3,0,0.5l0,0l0,0.4l0.1-0.4l0,0
	C13.6,16.5,13.6,16.3,13.5,16.2z M13,35L13,35L13,35c0.2-0.3,0.3-0.4,0.3-0.6l0,0l0,0c0-0.1-0.1,0-0.3,0.2l0,0l0,0
	c-0.1,0.1-0.2,0.2-0.2,0.4l0,0l0,0c-0.1,0.1-0.1,0.2-0.1,0.2l0,0l0,0c0,0,0,0.1,0.1,0l0,0l0,0C12.8,35.2,12.9,35.1,13,35z
	 M19.6,31.7L19.6,31.7L19.6,31.7c-0.1,0.4-0.1,0.6-0.1,0.7l0,0l0,0c0,0.1,0,0.1,0.1,0l0,0l0,0C19.6,32.2,19.7,31.9,19.6,31.7
	L19.6,31.7L19.6,31.7c0.1-0.3,0.2-0.5,0.2-0.6l0,0l0,0c0-0.2,0-0.2-0.1-0.1l0,0l0,0C19.7,31.1,19.7,31.3,19.6,31.7z M30.4,27
	L30.4,27L30.4,27c0.1,0,0.1-0.1,0.2-0.3l0,0l0,0c0-0.3,0-0.4,0-0.4l0,0l0,0c-0.1,0-0.2,0.1-0.2,0.4l0,0l0,0
	C30.3,26.8,30.3,27,30.4,27z M11.7,37L11.7,37l0.3-0.6l0,0c0-0.2-0.1-0.1-0.3,0.2l0,0l0,0c-0.2,0.3-0.3,0.4-0.4,0.6l0,0l0,0
	C11.4,37.3,11.5,37.2,11.7,37z M28.1,32.6L28.1,32.6L28.1,32.6c0.2-0.2,0.2-0.5,0.2-0.6l0,0l0,0c0-0.1,0-0.1-0.1,0.1l0,0l0,0
	c-0.1,0.1-0.1,0.2-0.1,0.3l0,0l0,0c0,0.1-0.1,0.2-0.1,0.3l0,0l0,0C28,32.7,28,32.7,28.1,32.6z M28.7,31.3L28.7,31.3L28.7,31.3
	c0.1-0.1,0.1-0.2,0.1-0.3l0,0l0,0c0.1-0.1,0.1-0.2,0.1-0.3l0,0l0,0c0-0.1,0-0.1,0-0.1l0,0l0,0c0,0-0.1,0.1-0.1,0.2l0,0l0,0
	c-0.2,0.2-0.2,0.4-0.2,0.6l0,0l0,0C28.5,31.5,28.6,31.5,28.7,31.3z M12.8,16.1L12.8,16.1L12.8,16.1c-0.1,0.1-0.1,0.3,0,0.5l0,0l0,0
	c0,0.2,0.1,0.3,0.1,0.3l0,0l0,0c0,0,0-0.2,0.1-0.5l0,0l0,0C12.9,16,12.8,15.9,12.8,16.1z M17.9,27.8L17.9,27.8L17.9,27.8
	c0.2-0.2,0.2-0.3,0.1-0.3l0,0l0,0c0,0-0.1,0.1-0.3,0.3l0,0l0,0c-0.2,0.2-0.2,0.3-0.1,0.3l0,0l0,0C17.6,28.1,17.7,28,17.9,27.8z
	 M23,40.3L23,40.3L23,40.3c0.2-0.1,0.3-0.2,0.3-0.2l0,0l0,0C23.2,40.2,23.1,40.2,23,40.3L23,40.3L23,40.3c-0.6,0.1-0.7,0.2-0.5,0.2
	l0,0l0,0C22.6,40.6,22.7,40.5,23,40.3z M10.2,39.7L10.2,39.7L10.2,39.7c0.1,0,0.1-0.1,0.1-0.2l0,0l0,0c0-0.1,0.1-0.2,0.1-0.2l0,0
	l0,0c0-0.1-0.1-0.1-0.2,0l0,0l0,0c-0.2,0.2-0.2,0.4-0.2,0.5l0,0l0,0C10,39.8,10,39.8,10.2,39.7z M21.5,25.9L21.5,25.9L21.5,25.9
	C21.5,25.8,21.5,25.8,21.5,25.9L21.5,25.9L21.5,25.9c-0.1,0-0.1,0.1-0.1,0.3l0,0l0,0c-0.1,0.4,0,0.5,0,0.4l0,0l0,0
	c0-0.1,0.1-0.2,0.1-0.4l0,0l0,0C21.5,26.2,21.5,26.1,21.5,25.9z M12.8,17.3L12.8,17.3L12.8,17.3C12.8,17.2,12.8,17.1,12.8,17.3
	L12.8,17.3L12.8,17.3c-0.1,0-0.1,0.1-0.1,0.3l0,0l0,0c-0.1,0.2-0.1,0.3-0.1,0.4l0,0l0,0c0,0.1,0,0.1,0.1,0l0,0l0,0
	C12.8,17.7,12.8,17.5,12.8,17.3z M11.9,24L11.9,24L11.9,24c0.1-0.1,0.1-0.1,0.1-0.2l0,0l0,0c0,0,0,0-0.1,0l0,0l0,0
	c-0.1,0.1-0.2,0.1-0.2,0.2l0,0l0,0c0,0.1,0,0.2,0,0.2l0,0l0,0C11.8,24.2,11.9,24.1,11.9,24z M11.6,25.6L11.6,25.6L11.6,25.6
	c0,0,0-0.2,0-0.3l0,0l0,0c0-0.1-0.1-0.1-0.1-0.1l0,0l0,0c0,0,0,0.1-0.1,0.2l0,0l0,0C11.5,25.5,11.5,25.6,11.6,25.6z M20.8,29.1
	L20.8,29.1L20.8,29.1c-0.1-0.1-0.1,0-0.1,0.2l0,0l0,0c0,0.1,0,0.2,0,0.2l0,0l0,0c0,0,0,0,0.1,0l0,0l0,0
	C20.8,29.4,20.8,29.3,20.8,29.1z M9.4,14.2L9.4,14.2L9.4,14.2c0.1,0,0.1-0.1,0.1-0.3l0,0l0,0c0-0.2-0.1-0.2-0.1,0l0,0l0,0
	C9.3,14,9.3,14.1,9.4,14.2L9.4,14.2L9.4,14.2C9.3,14.2,9.4,14.2,9.4,14.2z M34.2,15L34.2,15L34.2,15c-0.1,0.3,0,0.3,0.1,0.2l0,0l0,0
	c0,0,0-0.1,0.1-0.1l0,0l0,0c0-0.1,0-0.1,0-0.2l0,0l0,0C34.3,14.7,34.3,14.8,34.2,15z M20.9,28.2L20.9,28.2L20.9,28.2
	C20.9,28.1,20.9,28.1,20.9,28.2L20.9,28.2L20.9,28.2c0,0-0.1,0.1-0.1,0.2l0,0l0,0c0,0.3,0,0.3,0,0.2l0,0l0,0
	C21,28.5,21,28.4,20.9,28.2z M12.1,23.1L12.1,23.1L12.1,23.1c0.1-0.2,0.1-0.3,0-0.4l0,0l0,0c0-0.1,0-0.1,0-0.1l0,0l0,0
	c0,0,0,0.1-0.1,0.2l0,0l0,0C12,23.1,12.1,23.2,12.1,23.1z M19.2,35.9L19.2,35.9L19.2,35.9c0.1-0.1,0.1-0.2,0.1-0.3l0,0l0,0
	c-0.1-0.2-0.1-0.1-0.1,0.1l0,0l0,0C19.2,35.8,19.2,35.9,19.2,35.9 M9.9,42.1L9.9,42.1L9.9,42.1C10,42,10,41.9,10,41.9l0,0l0,0
	c-0.1,0-0.2,0-0.4,0.1l0,0l0,0c-0.1,0.2-0.1,0.3-0.1,0.3l0,0l0,0c0,0,0.1,0,0.2,0l0,0l0,0C9.8,42.2,9.9,42.2,9.9,42.1 M37.4,31.2
	L37.4,31.2L37.4,31.2c-0.2-0.1-0.4-0.1-0.4,0l0,0l0,0c-0.1,0.1-0.1,0.3-0.2,0.7l0,0l0,0c-0.1,0.8-0.1,1.6,0.1,2.5l0,0l0,0
	c0.2,0.9,0.4,1.5,0.8,2l0,0l0,0c0.1,0.1,0.1,0.1,0.2,0.2l0,0l0,0c0.1,0,0.1,0,0.2,0l0,0l0,0c0.1,0,0.2-0.1,0.4-0.2l0,0l0,0
	c0.2-0.1,0.4-0.2,0.7-0.3l0,0l0,0c0.6-0.3,1.3-0.7,1.9-1.2l0,0l0,0c0.7-0.5,1.4-1,2.1-1.6l0,0l0,0c0.7-0.6,1.4-1.2,2-1.9l0,0l0,0
	c0.7-0.7,1.3-1.4,1.8-2l0,0l0,0c0.3-0.3,0.5-0.6,0.8-0.9l0,0l0,0c0.2-0.2,0.4-0.4,0.5-0.4l0,0l0,0c0.2,0,0.3,0.1,0.2,0.2l0,0l0,0
	c0,0.2-0.2,0.5-0.6,1.1l0,0l-1,1.4l0,0c-0.1,0.2-0.3,0.4-0.6,0.7l0,0l0,0c-0.3,0.3-0.5,0.6-0.9,1l0,0l0,0c-0.3,0.4-0.7,0.8-1.1,1.2
	l0,0l0,0c-0.4,0.4-0.8,0.8-1.2,1.2l0,0l0,0c-0.5,0.5-0.8,0.8-0.9,0.9l0,0l0,0c-0.1,0.1,0,0.1,0.3-0.1l0,0l0,0c0.3-0.2,0.6-0.5,1.1-1
	l0,0l0,0c0.4-0.4,0.9-0.9,1.3-1.3l0,0l0,0c0.4-0.4,0.8-0.8,1.1-1.2l0,0l0,0c0.3-0.4,0.5-0.6,0.5-0.6l0,0l0,0c0-0.1,0-0.1,0.1-0.2
	l0,0l0,0c0.1-0.1,0.2-0.1,0.3-0.2l0,0l0,0c0.2-0.1,0.4-0.3,0.4-0.5l0,0l0,0c0,0,0-0.1,0.1-0.2l0,0l0,0c0.1-0.1,0.1-0.2,0.2-0.3l0,0
	l0,0c0.1-0.1,0.2-0.2,0.4-0.5l0,0l0,0c0.1-0.2,0.3-0.4,0.4-0.6l0,0l0,0c0.2-0.4,0.4-0.7,0.6-0.9l0,0l0,0c0.2-0.2,0.2-0.1,0.1,0.2
	l0,0l0,0c-0.2,0.5-0.5,1-0.9,1.6l0,0l0,0c-0.4,0.6-0.9,1.3-1.4,2l0,0l0,0c-0.5,0.7-1.1,1.4-1.7,2l0,0l0,0c-0.6,0.7-1.2,1.3-1.7,1.8
	l0,0l0,0c-0.5,0.5-1,0.8-1.3,1.2l0,0l0,0c-0.4,0.3-0.6,0.5-0.7,0.5l0,0l0,0c-0.2,0-0.5,0.1-0.8,0.3l0,0l0,0
	c-0.3,0.1-0.4,0.2-0.4,0.3l0,0l0,0c0,0.1-0.1,0.1-0.3,0l0,0l0,0c-0.2-0.2-0.3-0.2-0.4-0.1l0,0l0,0c-0.1,0,0,0.1,0.1,0.2l0,0l0,0
	c0.1,0,0.1,0,0,0l0,0l0,0c-0.1,0-0.1,0-0.2,0.1l0,0l0,0c-0.1,0-0.2,0.1-0.4,0.1l0,0l0,0c-0.1,0-0.3,0-0.4,0l0,0l0,0
	c-0.2,0-0.3-0.1-0.3-0.2l0,0l0,0c0-0.1-0.1-0.1-0.2-0.1l0,0l0,0c-0.1,0.1-0.3,0-0.7-0.2l0,0l0,0c-0.4-0.2-0.8-0.4-1.2-0.7l0,0l0,0
	c-0.4-0.3-0.8-0.6-1.2-1l0,0l0,0c-0.4-0.4-0.6-0.7-0.8-0.9l0,0l0,0c-0.3-0.5-0.5-1.2-0.7-2l0,0l0,0c-0.1-0.8-0.1-1.5,0-2.3l0,0l0,0
	c0.1-0.9,0.4-1.7,0.7-2.6l0,0l0,0c0.3-0.9,0.7-1.7,1.1-2.4l0,0l0,0c0.4-0.7,0.8-1.4,1.3-1.9l0,0l0,0c0.4-0.5,0.9-0.9,1.4-1.2l0,0
	l0,0c0.5-0.2,1-0.4,1.6-0.4l0,0l0,0c0.6-0.1,1,0,1.3,0.1l0,0l0,0c0.1,0.1,0.3,0.1,0.4,0.2l0,0l0,0c0.2,0.1,0.4,0.1,0.5,0.2l0,0l0,0
	c0.2,0,0.3,0.1,0.6,0.3l0,0l0,0c0.2,0.1,0.4,0.3,0.6,0.4l0,0l0,0c0.3,0.3,0.5,0.5,0.5,0.6l0,0l0,0c0.1,0.2,0.1,0.4,0.1,0.8l0,0l0,0
	c0,0.7-0.2,1.4-0.5,2.1l0,0l0,0c-0.4,0.7-1,1.4-2,2.3l0,0l0,0c-0.6,0.6-1.3,1.1-2,1.3l0,0l0,0C38.5,31.4,37.9,31.4,37.4,31.2z
	 M40.7,24.3L40.7,24.3L40.7,24.3c-0.1-0.1-0.2-0.2-0.3-0.1l0,0l0,0c-0.1,0.1-0.3,0.2-0.6,0.5l0,0l0,0c-0.2,0.2-0.4,0.5-0.7,0.8l0,0
	l0,0c-0.2,0.3-0.4,0.6-0.6,0.9l0,0l0,0c-0.2,0.3-0.3,0.6-0.5,1l0,0l0,0c-0.2,0.4-0.4,0.8-0.5,1.2l0,0l0,0c-0.2,0.4-0.3,0.8-0.4,1.1
	l0,0l0,0c-0.1,0.3-0.1,0.5-0.1,0.5l0,0l0,0c0.1,0,0,0.1-0.1,0.3l0,0l0,0c-0.1,0.2-0.1,0.3,0,0.3l0,0l0,0c0.1,0,0.2-0.1,0.4-0.4l0,0
	l0,0c0.1-0.1,0.2-0.2,0.2-0.2l0,0l0,0c0,0,0,0.1,0,0.2l0,0l0,0c-0.1,0.1,0,0.2,0,0.2l0,0l0,0c0.1,0,0.2-0.1,0.4-0.2l0,0l0,0
	c0.2-0.1,0.4-0.3,0.5-0.5l0,0l0,0c0.2-0.2,0.4-0.5,0.6-0.7l0,0l0,0c0.3-0.4,0.6-0.9,0.9-1.4l0,0l0,0c0.3-0.5,0.5-1,0.6-1.4l0,0l0,0
	c0.2-0.5,0.2-0.9,0.3-1.3l0,0l0,0C40.9,24.8,40.9,24.5,40.7,24.3z M41.5,28.1L41.5,28.1L41.5,28.1c-0.3,0.5-0.6,1-1.1,1.5l0,0l0,0
	c-0.4,0.5-0.9,0.9-1.2,1.1l0,0l0,0C38.9,30.9,38.8,31,39,31l0,0l0,0c0.1,0,0.2-0.1,0.4-0.2l0,0l0,0c0.2-0.1,0.4-0.3,0.7-0.5l0,0l0,0
	c0.2-0.2,0.5-0.4,0.7-0.7l0,0l0,0c0.3-0.3,0.4-0.5,0.6-0.7l0,0l0,0c0.1-0.2,0.2-0.3,0.4-0.4l0,0l0,0c0.1-0.1,0.2-0.1,0.2-0.1l0,0
	l0,0c0.1,0.1,0.1,0.1,0-0.1l0,0l0,0c-0.1-0.1-0.1-0.3,0.1-0.6l0,0l0,0c0.1-0.2,0.2-0.4,0.1-0.4l0,0l0,0c0-0.1-0.1,0-0.2,0.2l0,0l0,0
	C41.8,27.6,41.6,27.8,41.5,28.1z M36.8,36.4L36.8,36.4L36.8,36.4c0.1,0,0.1-0.1,0-0.2l0,0l0,0c0-0.1-0.1-0.3-0.3-0.5l0,0l0,0
	c-0.1-0.2-0.2-0.4-0.3-0.7l0,0l0,0c-0.1-0.3-0.1-0.5-0.2-0.8l0,0l0,0c-0.1-0.6-0.2-0.8-0.2-0.8l0,0l0,0c-0.1,0-0.1,0.3-0.1,0.8l0,0
	l0,0c0,0.2,0.1,0.5,0.1,0.7l0,0l0,0c0.1,0.2,0.1,0.4,0.2,0.6l0,0l0,0c0.1,0.2,0.2,0.3,0.2,0.4l0,0l0,0c0.1,0.1,0.2,0.1,0.2,0.1l0,0
	l0,0c0.1-0.1,0.2,0,0.2,0.1l0,0l0,0C36.7,36.4,36.7,36.4,36.8,36.4z M36,28.9L36,28.9L36,28.9c0,0,0.1,0,0.2-0.3l0,0l0,0
	c0.2-0.2,0.3-0.6,0.5-1l0,0l0,0c0.2-0.4,0.4-0.8,0.6-1.1l0,0l0,0c0.2-0.3,0.3-0.4,0.4-0.4l0,0l0,0c0.1,0,0.2-0.1,0.1-0.2l0,0l0,0
	c0-0.1,0-0.2,0.1-0.4l0,0l0,0c0.1-0.2,0.3-0.4,0.4-0.6l0,0l0,0c0.3-0.4,0.4-0.5,0.4-0.5l0,0l0,0c0,0-0.2,0.2-0.6,0.6l0,0l0,0
	c-0.2,0.2-0.4,0.5-0.7,0.9l0,0l0,0c-0.3,0.4-0.5,0.7-0.7,1.1l0,0l0,0c-0.2,0.4-0.4,0.8-0.5,1.1l0,0l0,0C36.1,28.6,36,28.8,36,28.9z
	 M42,23.7L42,23.7L42,23.7c-0.2,0-0.1,0.1,0.1,0.4l0,0l0,0c0.3,0.2,0.5,0.6,0.6,1.2l0,0l0,0c0.1,0.6,0.2,0.9,0.3,0.9l0,0l0,0
	c0.1,0,0.1-0.3,0-0.9l0,0l0,0c-0.1-0.5-0.2-0.9-0.3-1.1l0,0l0,0C42.4,23.8,42.2,23.7,42,23.7z M44.7,32.6L44.7,32.6L44.7,32.6
	c-0.3,0.3-0.5,0.5-0.7,0.7l0,0l0,0c-0.2,0.2-0.3,0.3-0.2,0.3l0,0l0,0c0.1,0,0.2-0.1,0.4-0.3l0,0l0,0c0.2-0.2,0.5-0.4,0.7-0.7l0,0
	l0,0c0.3-0.3,0.5-0.6,0.7-0.8l0,0l0,0c0.2-0.2,0.3-0.3,0.2-0.3l0,0l0,0c0,0-0.1,0.1-0.4,0.3l0,0l0,0C45.2,32,45,32.3,44.7,32.6z
	 M35.5,30.5L35.5,30.5L35.5,30.5c0,0.2-0.1,0.3-0.1,0.4l0,0l0,0c0,0.1,0,0.1,0,0.1l0,0l0,0c0.1,0,0.1-0.1,0.2-0.3l0,0l0,0
	c0-0.1,0.1-0.3,0.1-0.4l0,0l0,0c0.1-0.3,0.1-0.5,0-0.4l0,0l0,0C35.7,29.9,35.6,30.1,35.5,30.5z M38.3,30.7l0.8-0.8l0,0
	c0.2-0.2,0.4-0.4,0.6-0.6l0,0l0,0c0.2-0.2,0.2-0.2,0.2-0.3l0,0l0,0c0-0.1-0.1-0.1-0.2,0l0,0l0,0c-0.1,0.1-0.3,0.3-0.7,0.7l0,0
	L38.3,30.7z M46.3,30.7L46.3,30.7L46.3,30.7C46.1,31,46,31.2,46,31.2l0,0l0,0c0.1,0,0.2-0.2,0.5-0.5l0,0l0,0
	c0.3-0.3,0.4-0.4,0.3-0.4l0,0l0,0C46.8,30.3,46.6,30.4,46.3,30.7z M42.1,26.9L42.1,26.9L42.1,26.9c0.1-0.1,0.2-0.3,0.1-0.4l0,0l0,0
	c0-0.2-0.1-0.1-0.2,0.2l0,0l0,0C42,26.9,42,27,42.1,26.9z M43,34.1L43,34.1L43,34.1c-0.2,0.1-0.3,0.2-0.3,0.3l0,0l0,0
	C42.6,34.6,42.8,34.5,43,34.1L43,34.1L43,34.1c0.2-0.1,0.2-0.2,0.2-0.2l0,0l0,0C43.2,34,43.1,34,43,34.1z M35.9,31.8L35.9,31.8
	L35.9,31.8c0,0.1,0,0.2,0,0.3l0,0l0,0c0,0.1,0.1,0.1,0.1,0l0,0l0,0c0-0.1,0-0.3,0-0.5l0,0l0,0C35.9,31.4,35.9,31.4,35.9,31.8z
	 M35.4,31.6L35.4,31.6L35.4,31.6c0,0,0-0.2,0-0.3l0,0l0,0c-0.1-0.1-0.1,0-0.1,0.1l0,0l0,0C35.3,31.6,35.3,31.7,35.4,31.6 M48.4,40.9
	L48.4,40.9L48.4,40.9c-0.1,0-0.3-0.1-0.5-0.2l0,0l0,0c-0.2-0.1-0.4-0.3-0.7-0.5l0,0l0,0c-0.2-0.2-0.5-0.4-0.7-0.7l0,0l0,0
	c-0.2-0.2-0.4-0.4-0.4-0.6l0,0l0,0c-0.3-0.5-0.4-1.2-0.4-2.2l0,0l0,0c0-1,0.1-2.1,0.3-3.4l0,0l0,0c0.2-1.3,0.5-2.8,0.9-4.3l0,0l0,0
	c0.4-1.6,0.9-3.2,1.5-4.9l0,0l0,0c0.2-0.6,0.5-1.3,0.7-2l0,0l0,0c0.3-0.7,0.5-1.3,0.7-1.9l0,0l0,0c0.2-0.6,0.4-1.1,0.6-1.5l0,0l0,0
	c0.2-0.4,0.3-0.6,0.3-0.7l0,0l0,0c0,0,0.2,0,0.5,0.1l0,0l0,0c0.3,0.2,0.5,0.3,0.6,0.4l0,0l0,0c0.1,0.2,0.2,0.2,0.5,0.1l0,0l0,0
	c0.4-0.3,0.6-0.1,0.4,0.4l0,0l-0.2,0.7l-1.2,4.7l0,0c-0.3,1.2-0.6,2.4-0.8,3.5l0,0l0,0c-0.3,1.1-0.5,2.1-0.6,3l0,0l0,0
	c-0.2,0.9-0.3,1.6-0.4,2.1l0,0l0,0c-0.1,0.6-0.1,0.8-0.1,0.9l0,0l0,0c0.1,0.1,0.1,0.2,0,0.3l0,0l0,0c0,0.1-0.1,0.3-0.1,0.7l0,0l0,0
	c-0.1,0.4-0.1,0.9-0.2,1.4l0,0l-0.1,1.9l0.5-0.4l0,0c0.2-0.1,0.4-0.4,0.7-0.8l0,0l0,0c0.3-0.4,0.7-0.9,1.1-1.5l0,0l0,0
	c0.4-0.5,0.8-1.1,1.2-1.6l0,0l0,0c0.4-0.6,0.7-1,1-1.4l0,0l0,0c0.2-0.3,0.4-0.6,0.5-0.9l0,0l0,0c0.2-0.3,0.3-0.5,0.4-0.6l0,0l0,0
	c0.1-0.1,0.2-0.3,0.4-0.6l0,0l0,0c0.2-0.3,0.3-0.6,0.5-0.8l0,0l0,0c0.2-0.3,0.3-0.5,0.4-0.7l0,0l0,0c0.1-0.2,0.2-0.3,0.3-0.2l0,0
	l0,0c0.1,0,0.1,0,0-0.2l0,0l0,0c0-0.1,0-0.2,0.1-0.4l0,0l0,0c0.1-0.2,0.1-0.3,0.2-0.5l0,0l0,0c0.1-0.2,0.2-0.3,0.3-0.4l0,0l0,0
	c0.1-0.1,0.2-0.1,0.3-0.1l0,0l0,0c0.1,0.1,0,0.4-0.2,0.9l0,0l0,0c-0.2,0.5-0.5,1.2-0.9,1.9l0,0l0,0c-0.4,0.8-0.9,1.6-1.4,2.5l0,0
	l0,0c-0.5,0.9-1,1.8-1.6,2.6l0,0l0,0c-0.5,0.8-1,1.6-1.5,2.4l0,0l0,0c-0.5,0.7-0.9,1.3-1.2,1.6l0,0l0,0c-0.3,0.3-0.5,0.5-0.6,0.7
	l0,0l0,0c-0.1,0.2-0.2,0.3-0.1,0.3l0,0l0,0c0.1,0,0.1,0,0.2-0.1l0,0l0,0c0.1-0.1,0.1-0.1,0.2-0.2l0,0l0,0c0.2-0.2,0.3-0.3,0.4-0.1
	l0,0l0,0c0.1,0,0.1,0,0.1-0.1l0,0l0,0c-0.1-0.1,0-0.3,0.1-0.4l0,0l0,0c0.1-0.1,0.3-0.2,0.4-0.1l0,0l0,0c0.1,0.1,0.1,0.1,0.1,0l0,0
	l0,0c-0.1-0.1,0-0.3,0.1-0.5l0,0l0,0c0.1-0.2,0.2-0.3,0.3-0.2l0,0l0,0c0.1,0.1,0.1,0.1,0.1-0.1l0,0l0,0c0-0.1,0.1-0.2,0.2-0.4l0,0
	l0,0c0.1-0.2,0.3-0.5,0.5-0.8l0,0l0,0c0.2-0.3,0.3-0.5,0.5-0.7l0,0l0,0c0.2-0.2,0.3-0.3,0.3-0.3l0,0l0,0c0.1,0,0.1-0.1,0.1-0.2l0,0
	l0,0c-0.1-0.1,0-0.2,0.2-0.2l0,0l0,0c0.1,0,0.1,0,0.1-0.1l0,0l0,0c-0.1-0.1,0-0.2,0.2-0.3l0,0l0,0c0.2-0.1,0.2-0.1,0.2-0.3l0,0l0,0
	c-0.1,0-0.1-0.1,0-0.1l0,0l0,0c0,0,0.1,0,0.1,0l0,0l0,0c0.1,0,0.2,0,0.1-0.1l0,0l0,0c-0.1-0.1-0.1-0.2,0.1-0.2l0,0l0,0
	c0.1,0,0.2-0.1,0.1-0.2l0,0l0,0c-0.1-0.1,0-0.2,0.1-0.2l0,0l0,0c0.1,0,0.1-0.1,0.1-0.2l0,0l0,0c-0.1-0.1-0.1-0.2,0.1-0.2l0,0l0,0
	c0.2,0,0.2-0.1,0.1-0.2l0,0l0,0c-0.1-0.2-0.1-0.2,0.1,0l0,0l0,0c0.2,0.1,0.2,0.1,0.1-0.2l0,0l0,0c-0.1-0.2-0.1-0.3,0-0.2l0,0l0,0
	c0,0.1,0.1,0,0.2-0.1l0,0l0,0c0.1-0.1,0.1-0.2,0.2-0.4l0,0l0,0c0.1-0.4,0.3-0.6,0.4-0.6l0,0l0,0c0.1,0,0.2-0.1,0.1-0.2l0,0l0,0
	c0-0.1-0.1-0.1,0-0.1l0,0l0,0c0,0,0.1-0.1,0.1-0.1l0,0l0,0c0.1,0,0.1-0.1,0.1-0.3l0,0l0,0c-0.1-0.3-0.1-0.3,0.1-0.2l0,0l0,0
	c0.2,0,0.2,0,0.1-0.1l0,0l0,0c-0.1-0.2-0.1-0.3,0.1-0.3l0,0l0,0c0.1,0,0.1-0.1,0.3-0.3l0,0l0,0c0.1-0.2,0.2-0.4,0.4-0.6l0,0l0,0
	c0.1-0.2,0.2-0.5,0.3-0.7l0,0l0,0c0.1-0.2,0.1-0.3,0.1-0.4l0,0l0,0c-0.1-0.1-0.1-0.2,0.1-0.2l0,0l0,0c0.1,0,0.2,0,0.2,0.1l0,0l0,0
	c0,0.1-0.1,0.2-0.2,0.5l0,0l0,0c-0.1,0.3-0.2,0.6-0.4,1l0,0l0,0c-0.1,0.4-0.3,0.7-0.5,1.1l0,0l0,0c-0.2,0.4-0.3,0.7-0.5,1l0,0l0,0
	c-0.2,0.4-0.4,0.8-0.7,1.3l0,0l0,0c-0.3,0.5-0.5,1-0.7,1.3l0,0l0,0c-0.3,0.5-0.6,1.1-1,1.7l0,0l0,0c-0.4,0.6-0.8,1.2-1.1,1.8l0,0
	l0,0c-0.4,0.6-0.7,1.1-1,1.5l0,0l0,0c-0.3,0.4-0.5,0.6-0.6,0.7l0,0l0,0c-0.1,0-0.2,0.1-0.4,0.1l0,0l0,0c-0.2,0-0.3,0-0.5,0l0,0l0,0
	c-0.4,0-0.5,0-0.4,0l0,0l0,0c0.2,0.1,0.3,0.2,0.2,0.3l0,0l0,0c0,0.1-0.1,0.2-0.3,0.2l0,0l0,0c-0.3,0-0.3,0-0.3-0.2l0,0l0,0
	C48.6,40.9,48.6,40.9,48.4,40.9z M51.6,19l-1.8,5.8l0,0c-0.1,0.2-0.1,0.3,0,0.3l0,0l0,0c0,0,0.1-0.2,0.3-0.7l0,0l0,0
	c0.2-0.5,0.4-1.1,0.6-1.8l0,0l0,0c0.2-0.7,0.4-1.3,0.6-1.8l0,0l0,0c0.2-0.5,0.3-0.8,0.3-0.8l0,0l0,0c0.1,0,0.1,0.1,0,0.4l0,0l0,0
	c0,0.1,0,0.2,0,0.1l0,0l0,0c0-0.1,0.1-0.2,0.2-0.4l0,0l0,0c0.1-0.4,0.2-0.6,0.2-0.7l0,0l0,0c0-0.1-0.1-0.2-0.2-0.3l0,0l0,0
	C51.7,18.9,51.6,18.8,51.6,19L51.6,19z M47.9,37.6L47.9,37.6L47.9,37.6c0,1.1,0,1.6,0.1,1.3l0,0l0,0c0.1-0.3,0.2-1,0.2-2.2l0,0l0,0
	c0.1-0.6,0.1-1.1,0.1-1.5l0,0l0,0c0-0.4,0-0.6-0.1-0.6l0,0l0,0c0,0.1-0.1,0.4-0.2,0.9l0,0l0,0C48,36,47.9,36.7,47.9,37.6z
	 M48.8,28.1L48.8,28.1L48.8,28.1c-0.1,0.3-0.2,0.5-0.2,0.7l0,0l0,0c0,0.2,0,0.2,0.2-0.1l0,0l0,0c0.1-0.3,0.2-0.5,0.2-0.7l0,0l0,0
	C49,27.8,48.9,27.8,48.8,28.1z M51.6,36L51.6,36L51.6,36c-0.1,0.1-0.2,0.3-0.3,0.4l0,0l0,0c-0.1,0.1-0.1,0.2,0,0.2l0,0l0,0
	c0.1,0,0.2-0.2,0.5-0.5l0,0l0,0c0.3-0.4,0.4-0.5,0.3-0.5l0,0l0,0C52,35.4,51.9,35.6,51.6,36z M48.3,33.8L48.3,33.8L48.3,33.8
	c-0.2,0.5-0.2,0.7,0,0.5l0,0l0,0c0.2,0,0.2-0.2,0.1-0.5l0,0l0,0c0-0.2,0-0.3,0-0.3l0,0l0,0C48.4,33.5,48.4,33.6,48.3,33.8z
	 M48.6,31.9L48.6,31.9L48.6,31.9c0,0.2,0,0.3,0.1,0.3l0,0l0,0c0.1,0,0.2-0.1,0.2-0.3l0,0l0,0c0-0.2,0-0.3-0.1-0.3l0,0l0,0
	C48.7,31.6,48.7,31.7,48.6,31.9z M49.2,29.7L49.2,29.7L49.2,29.7c0.1-0.1,0.2-0.3,0.1-0.5l0,0l0,0c0-0.2-0.1-0.1-0.2,0.1l0,0l0,0
	C49.1,29.7,49.1,29.8,49.2,29.7z M55,30.7L55,30.7L55,30.7c-0.1,0.2-0.2,0.3-0.1,0.3l0,0l0,0c0.1,0,0.1-0.1,0.3-0.3l0,0l0,0
	c0.1-0.2,0.2-0.3,0.1-0.3l0,0l0,0C55.2,30.4,55.1,30.5,55,30.7z M48.9,31.3L48.9,31.3L48.9,31.3C49,31.1,49,31,49,30.8l0,0l0,0
	c0-0.1-0.1-0.2-0.1-0.1l0,0l0,0c0,0,0,0.1-0.1,0.3l0,0l0,0C48.8,31.2,48.8,31.3,48.9,31.3z M50.3,37.7L50.3,37.7L50.3,37.7
	c-0.2,0.2-0.2,0.3-0.2,0.3l0,0l0,0c0.1,0,0.2-0.1,0.4-0.3l0,0l0,0c0.2-0.2,0.3-0.3,0.2-0.3l0,0l0,0C50.7,37.4,50.5,37.5,50.3,37.7z
	 M48.5,32.9L48.5,32.9L48.5,32.9c-0.1,0.3,0,0.4,0.1,0.3l0,0l0,0c0.1-0.1,0.1-0.3,0.1-0.5l0,0l0,0C48.6,32.5,48.5,32.6,48.5,32.9z
	 M56.5,27.6L56.5,27.6L56.5,27.6c-0.1,0.1-0.2,0.2-0.2,0.3l0,0l0,0c0,0.1,0.1,0.1,0.2,0l0,0l0,0c0.1-0.1,0.2-0.1,0.2-0.3l0,0l0,0
	C56.7,27.6,56.7,27.6,56.5,27.6z M53.4,33.3L53.4,33.3L53.4,33.3c-0.1,0.2-0.2,0.3-0.1,0.3l0,0l0,0c0.1,0,0.2-0.1,0.3-0.3l0,0l0,0
	c0.1-0.2,0.2-0.3,0.1-0.3l0,0l0,0C53.6,33,53.5,33.1,53.4,33.3z M49.5,25.7L49.5,25.7L49.5,25.7c0,0.1-0.1,0.2,0,0.3l0,0l0,0
	c0,0.1,0,0.1,0.1,0l0,0l0,0c0.1-0.1,0.2-0.2,0.1-0.5l0,0l0,0C49.7,25.3,49.6,25.4,49.5,25.7z M51.1,36.8L51.1,36.8L51.1,36.8
	c-0.3,0.3-0.4,0.4-0.3,0.4l0,0l0,0C50.9,37.2,51,37.1,51.1,36.8L51.1,36.8L51.1,36.8c0.2,0,0.2-0.1,0.2-0.1l0,0l0,0
	C51.3,36.7,51.2,36.7,51.1,36.8z M47.4,35.9L47.4,35.9L47.4,35.9c-0.1-0.2-0.1-0.1-0.1,0.2l0,0l0,0c0,0.4,0,0.5,0.1,0.3l0,0l0,0
	C47.4,36.2,47.4,36,47.4,35.9z M55.8,29.1L55.8,29.1L55.8,29.1c-0.1,0.1-0.2,0.2-0.2,0.3l0,0l0,0c0,0.1,0,0.2,0.1,0.2l0,0l0,0
	c0,0,0.1-0.1,0.2-0.3l0,0l0,0C56,29,55.9,29,55.8,29.1z M49.1,27.2L49.1,27.2L49.1,27.2c-0.1,0.1-0.1,0.2-0.1,0.2l0,0l0,0
	c0,0,0.1,0,0.2-0.1l0,0l0,0c0.1-0.1,0.2-0.2,0.1-0.3l0,0l0,0C49.3,26.9,49.2,27,49.1,27.2z M49.4,28.2L49.4,28.2L49.4,28.2
	c-0.1,0.1-0.1,0.2-0.1,0.2l0,0l0,0c0,0,0.1,0,0.2-0.1l0,0l0,0c0.1-0.1,0.2-0.2,0.1-0.3l0,0l0,0C49.6,27.9,49.5,28,49.4,28.2z
	 M48,31.7L48,31.7L48,31.7c0,0.2,0,0.3,0.1,0.2l0,0l0,0c0.1-0.1,0.1-0.2,0-0.3l0,0l0,0C48,31.5,48,31.5,48,31.7z M50.4,25.4
	L50.4,25.4L50.4,25.4c0.1,0,0.1-0.1,0-0.3l0,0l0,0c-0.1-0.2-0.1-0.1-0.1,0.1l0,0l0,0C50.2,25.4,50.3,25.5,50.4,25.4z M49.8,27
	L49.8,27L49.8,27C49.8,26.9,49.8,26.9,49.8,27L49.8,27L49.8,27c-0.1,0-0.1,0-0.1,0.1l0,0l0,0c0,0.2,0,0.3,0.1,0.2l0,0l0,0
	C49.9,27.3,49.9,27.2,49.8,27z M50.8,23.7L50.8,23.7L50.8,23.7c0.1,0,0.1-0.1,0-0.3l0,0l0,0c-0.1-0.1-0.1-0.1-0.1,0.1l0,0l0,0
	C50.8,23.7,50.8,23.8,50.8,23.7z M47.5,34.6L47.5,34.6L47.5,34.6c0,0.3,0,0.3,0.1,0.2l0,0l0,0c0.1-0.1,0.1-0.2,0-0.3l0,0l0,0
	c0-0.1,0-0.1-0.1-0.1l0,0l0,0C47.5,34.5,47.5,34.5,47.5,34.6z M50.2,26.1L50.2,26.1L50.2,26.1c0.1-0.1,0.1-0.2,0-0.3l0,0l0,0
	c-0.1-0.2-0.1-0.2-0.1,0.1l0,0l0,0C50,26.1,50.1,26.2,50.2,26.1z M66.2,31.8L66.2,31.8L66.2,31.8c0.4-0.4,0.6-0.5,0.7-0.5l0,0l0,0
	c0.1,0,0,0.1-0.2,0.4l0,0l0,0c-0.2,0.2-0.4,0.5-0.8,1l0,0l0,0c-0.3,0.4-0.7,0.8-1.2,1.3l0,0l0,0c-0.4,0.4-0.7,0.7-0.9,0.9l0,0l0,0
	c-0.3,0.2-0.5,0.5-0.7,0.6l0,0l0,0c-0.2,0.2-0.4,0.4-0.7,0.5l0,0l0,0c-0.2,0.2-0.5,0.4-0.9,0.6l0,0l0,0c-0.2,0.2-0.4,0.3-0.7,0.5
	l0,0l0,0c-0.3,0.2-0.5,0.3-0.8,0.4l0,0l0,0c-0.3,0.1-0.5,0.2-0.7,0.3l0,0l0,0c-0.2,0.1-0.3,0.1-0.3,0.1l0,0l0,0
	c-0.1,0-0.2,0-0.3,0.2l0,0l0,0c-0.2,0.2-0.4,0.2-0.5,0.1l0,0l0,0C58.2,38,58.1,38,58,37.9l0,0l0,0c-0.1,0-0.2,0-0.3,0l0,0l0,0
	c-0.1,0-0.1,0.1,0.1,0.2l0,0l0,0c0.2,0.1,0.1,0.2-0.4,0.2l0,0l0,0c-0.5,0-0.7-0.1-0.6-0.2l0,0l0,0c0-0.1,0-0.1-0.1-0.1l0,0l0,0
	c-0.1,0.1-0.3,0-0.6-0.2l0,0l0,0c-0.3-0.2-0.6-0.5-0.9-0.8l0,0l0,0c-0.3-0.3-0.6-0.7-0.9-1.1l0,0l0,0c-0.3-0.4-0.4-0.7-0.5-1l0,0
	l0,0c-0.1-0.4-0.1-0.9,0-1.4l0,0l0,0c0.1-0.6,0.2-1.2,0.5-1.9l0,0l0,0c0.2-0.7,0.5-1.4,0.9-2.1l0,0l0,0c0.3-0.7,0.7-1.5,1.2-2.2l0,0
	l0,0c0.3-0.5,0.7-1,1.1-1.5l0,0l0,0c0.4-0.5,0.8-1,1.2-1.4l0,0l0,0c0.4-0.4,0.8-0.8,1.2-1.2l0,0l0,0c0.4-0.3,0.8-0.6,1.1-0.7l0,0
	l0,0c0.6-0.3,1.2-0.4,1.7-0.4l0,0l0,0c0.6,0,1,0,1.2,0.1l0,0l0,0c0.2,0,0.3,0.1,0.3,0.2l0,0l0,0c0,0.1,0.1,0.2,0.2,0.3l0,0l0,0
	c0.2,0.1,0.4,0.2,0.7,0.2l0,0l0,0c0.4,0.1,0.7,0.4,0.9,0.8l0,0l0,0c0.2,0.4,0.3,0.9,0.2,1.4l0,0l0,0c0,0.3-0.1,0.6-0.2,0.9l0,0l0,0
	c-0.1,0.3-0.2,0.6-0.3,0.9l0,0l0,0c-0.1,0.3-0.2,0.5-0.3,0.6l0,0l0,0c-0.1,0.1-0.2,0.2-0.2,0.1l0,0l0,0c-0.1-0.2-0.1-0.3,0-0.3l0,0
	l0,0c0.1-0.1,0.1-0.2,0.2-0.5l0,0l0,0c0-0.1,0.1-0.2,0.1-0.4l0,0l0,0c0-0.1,0.1-0.2,0.1-0.2l0,0l0,0c0.1,0,0.1-0.2,0.2-0.5l0,0l0,0
	c0-0.3,0-0.5,0-0.8l0,0l0,0c0-0.3,0-0.6-0.1-0.8l0,0l0,0c0-0.3-0.1-0.5-0.2-0.5l0,0l0,0c-0.1-0.2-0.3-0.3-0.4-0.3l0,0l0,0
	c-0.1,0-0.1,0,0,0.2l0,0l0,0c0.1,0.1,0.1,0.3,0.2,0.6l0,0l0,0c0,0.3,0.1,0.5,0,0.9l0,0l0,0c0,0.3-0.1,0.7-0.1,1l0,0l0,0
	c-0.1,0.4-0.2,0.7-0.3,1l0,0l0,0c-0.1,0.4-0.2,0.7-0.3,1l0,0l0,0c-0.1,0.3-0.1,0.5-0.1,0.6l0,0l0,0c0.1,0.2,0,0.4-0.3,0.4l0,0l0,0
	c-0.2-0.1-0.3-0.1-0.3-0.3l0,0l0,0c0.1-0.2,0-0.2-0.1-0.2l0,0l0,0c-0.1,0.1-0.1,0.2-0.1,0.5l0,0l0,0c0.1,0.3,0.1,0.3-0.1,0.2l0,0
	l0,0c-0.1-0.1-0.1-0.2-0.1-0.3l0,0l0,0c0-0.1,0.1-0.3,0.2-0.5l0,0l0,0c0.1-0.1,0.1-0.3,0.2-0.3l0,0l0,0c0.1-0.1,0.1-0.1,0.1,0l0,0
	l0,0c0,0.2,0.1,0.2,0.2,0l0,0l0,0c0.1-0.2,0.1-0.3,0-0.4l0,0l0,0c-0.1-0.1-0.1-0.2,0-0.3l0,0l0,0c0.1-0.2,0.2-0.3,0.2-0.4l0,0l0,0
	c0-0.1,0.1-0.1,0.2-0.1l0,0l0,0c0.2,0,0.2,0,0.1-0.1l0,0l0,0c0-0.1-0.1-0.2-0.1-0.5l0,0l0,0c0-0.3,0-0.6,0-1l0,0l0,0
	c0-0.9-0.1-1.4-0.3-1.5l0,0l0,0c-0.2-0.1-0.5,0-1.1,0.4l0,0l0,0c-0.7,0.4-1.3,1.1-2,2l0,0l0,0c-0.7,0.9-1.3,1.8-1.9,2.9l0,0l0,0
	c-0.6,1.1-1.1,2.1-1.5,3.2l0,0l0,0c-0.4,1.1-0.6,2.1-0.7,3l0,0L57,36.2l0.5-0.1l0,0c1.1-0.3,2.4-0.8,3.7-1.6l0,0l0,0
	c1.3-0.8,2.6-1.7,3.7-2.8l0,0l0,0c0.5-0.5,0.7-0.7,0.9-0.7l0,0l0,0c0.1,0,0,0.2-0.3,0.6l0,0l0,0c-0.2,0.2-0.2,0.3-0.2,0.3l0,0l0,0
	c0,0,0.1-0.1,0.4-0.3l0,0l0,0c0.2-0.2,0.3-0.3,0.4-0.3l0,0l0,0c0.1-0.1,0.2-0.1,0.2,0l0,0l0,0c0,0-0.2,0.2-0.5,0.6l0,0l0,0
	c-0.3,0.3-0.7,0.7-1.1,1.1l0,0l0,0c-1.5,1.5-2.9,2.7-4.3,3.5l0,0l0,0c-0.4,0.2-0.6,0.4-0.6,0.4l0,0l0,0c0,0,0.3-0.1,0.7-0.3l0,0l0,0
	c0.1-0.1,0.3-0.2,0.6-0.4l0,0l0,0c0.3-0.2,0.6-0.4,0.9-0.6l0,0l0,0c0.3-0.2,0.6-0.4,0.9-0.6l0,0l0,0c0.3-0.2,0.5-0.4,0.7-0.5l0,0
	l0,0c0.2-0.2,0.4-0.4,0.7-0.6l0,0l0,0c0.3-0.3,0.5-0.5,0.8-0.7l0,0l0,0c0.2-0.2,0.4-0.4,0.6-0.6l0,0l0,0c0.2-0.2,0.2-0.3,0.2-0.3
	l0,0l0,0c0,0,0,0,0.1-0.1l0,0l0,0C65.9,32,66,31.9,66.2,31.8z M58.7,27L58.7,27L58.7,27c-0.3,0.5-0.5,0.8-0.6,1l0,0l0,0
	c-0.1,0.2-0.1,0.2,0.2-0.1l0,0l1.1-1.4l0,0c0.2-0.3,0.5-0.6,0.7-0.9l0,0l0,0c0.3-0.3,0.5-0.6,0.8-0.8l0,0l0,0
	c0.3-0.3,0.6-0.5,0.9-0.7l0,0l0,0c0.3-0.2,0.5-0.4,0.8-0.5l0,0l0,0c0.4-0.2,0.5-0.3,0.4-0.3l0,0l0,0c-0.1,0-0.2,0-0.5,0.2l0,0l0,0
	c-0.3,0.1-0.5,0.3-0.8,0.5l0,0l0,0C60.7,24.5,59.7,25.6,58.7,27z M56.2,36.3V35l0,0c0-0.7,0-1.1,0-1.2l0,0l0,0c0-0.1-0.1,0-0.1,0.4
	l0,0l0,0c-0.1,0.5-0.2,1-0.2,1.3l0,0l0,0c0,0.3,0,0.5,0.2,0.6l0,0L56.2,36.3z M64.1,32.8L64.1,32.8L64.1,32.8
	c-0.2,0.2-0.3,0.4-0.4,0.5l0,0l0,0c-0.1,0.1-0.2,0.2-0.1,0.2l0,0l0,0c0,0,0.1-0.1,0.2-0.2l0,0l0,0c0.1-0.1,0.3-0.3,0.5-0.5l0,0l0,0
	c0.2-0.2,0.4-0.4,0.5-0.5l0,0l0,0c0.1-0.1,0.2-0.2,0.1-0.2l0,0l0,0c0,0-0.1,0.1-0.3,0.2l0,0l0,0C64.5,32.4,64.3,32.6,64.1,32.8z
	 M57.5,28.9L57.5,28.9L57.5,28.9c-0.2,0.1-0.3,0.3-0.3,0.4l0,0l0,0c0,0.1,0,0.2,0.1,0.1l0,0l0,0c0.1,0,0.1-0.2,0.2-0.4l0,0l0,0
	c0.1-0.2,0.1-0.3,0.1-0.3l0,0l0,0C57.7,28.8,57.6,28.8,57.5,28.9z M56.7,30.7L56.7,30.7L56.7,30.7c0.1-0.3,0.2-0.4,0.1-0.4l0,0l0,0
	c0,0-0.1,0.1-0.3,0.4l0,0l0,0c-0.1,0.2-0.2,0.3-0.1,0.3l0,0l0,0C56.5,31.1,56.6,30.9,56.7,30.7z M62.9,33.9L62.9,33.9L62.9,33.9
	c-0.1,0.1-0.1,0.1-0.2,0.2l0,0l0,0c-0.1,0.1-0.1,0.1,0,0.1l0,0l0,0c0,0,0.1,0,0.1-0.1l0,0l0,0c0.1-0.1,0.2-0.1,0.3-0.2l0,0l0,0
	c0.2-0.3,0.3-0.4,0.2-0.4l0,0l0,0C63.2,33.5,63.1,33.6,62.9,33.9z M56.9,30L56.9,30L56.9,30c0,0.1,0.1,0.1,0.2,0l0,0l0,0
	c0.1-0.1,0.2-0.1,0.2-0.3l0,0l0,0c0-0.2-0.1-0.2-0.2-0.1l0,0l0,0C56.9,29.8,56.9,29.9,56.9,30z M61.1,35.1L61.1,35.1L61.1,35.1
	c-0.2,0.1-0.4,0.2-0.4,0.3l0,0l0,0c0,0,0.1,0,0.4-0.1l0,0l0,0c0.2-0.1,0.3-0.2,0.3-0.3l0,0l0,0C61.4,34.9,61.3,35,61.1,35.1z
	 M56.5,32.9L56.5,32.9L56.5,32.9c0.1-0.1,0.2-0.2,0.1-0.3l0,0l0,0c-0.1-0.1-0.1,0-0.2,0.2l0,0l0,0c-0.1,0.1-0.1,0.2-0.1,0.2l0,0l0,0
	C56.4,33,56.4,32.9,56.5,32.9z M56.2,31.8L56.2,31.8L56.2,31.8c0.1-0.1,0.2-0.2,0.1-0.3l0,0l0,0c-0.1,0-0.2,0-0.2,0.2l0,0l0,0
	C56,32,56,32,56.2,31.8z M55.4,34.5L55.4,34.5L55.4,34.5c0.1-0.1,0.1-0.2,0-0.3l0,0l0,0c0-0.1-0.1-0.1-0.1,0.1l0,0l0,0
	C55.3,34.5,55.3,34.6,55.4,34.5 M65.7,25.3L65.7,25.3L65.7,25.3c-0.1,0.1-0.1,0.1-0.1-0.2l0,0l0,0c0-0.3,0-0.3,0.1-0.2l0,0l0,0
	C65.8,25,65.8,25.2,65.7,25.3 M73.8,26.9L73.8,26.9L73.8,26.9c0.9,1,1.3,2.1,1.2,3.5l0,0l0,0c-0.1,1.4-0.6,2.8-1.6,4.3l0,0l0,0
	c-0.3,0.4-0.6,0.8-1,1.2l0,0l0,0c-0.4,0.4-0.7,0.7-1.1,1l0,0l0,0c-0.4,0.3-0.7,0.5-0.9,0.6l0,0l0,0c-0.3,0.2-0.5,0.2-0.7,0.1l0,0
	l0,0c-0.2-0.1-0.2,0-0.1,0.1l0,0l0,0c0,0.1,0,0.1-0.2,0.1l0,0l0,0c-0.1-0.1-0.2-0.1-0.3,0l0,0l0,0c0,0.1-0.1,0.1-0.2,0.1l0,0l0,0
	c-0.1,0-0.3,0-0.4,0l0,0l0,0c-0.2,0-0.3,0-0.5-0.1l0,0l0,0c-0.2-0.1-0.3-0.1-0.5-0.2l0,0l0,0c-0.6-0.5-1-1-1.4-1.6l0,0l0,0
	c-0.4-0.6-0.7-1.1-0.8-1.6l0,0l0,0c-0.1-0.5,0-1.2,0.2-2l0,0l0,0c0.2-0.9,0.4-1.6,0.6-2.3l0,0l0,0c0.1-0.3,0.3-0.6,0.5-1l0,0l0,0
	c0.2-0.4,0.4-0.8,0.6-1.1l0,0l0,0c0.2-0.4,0.5-0.7,0.7-1l0,0l0,0c0.2-0.3,0.4-0.5,0.6-0.7l0,0l0,0c0.3-0.3,0.6-0.5,1-0.7l0,0l0,0
	c0.4-0.2,0.8-0.4,1.1-0.5l0,0l0,0c0.4-0.1,0.7-0.2,1.1-0.2l0,0l0,0c0.4,0,0.7,0.1,0.9,0.2l0,0l0,0c0.2,0.1,0.3,0.1,0.4,0.2l0,0l0,0
	c0.1,0.1,0.2,0.1,0.2,0.1l0,0l0,0c0.1,0,0.1,0.1,0.1,0.1l0,0l0,0c0,0,0,0.1-0.1,0l0,0l-0.4-0.1l0,0c-0.3,0-0.5,0-0.8,0.2l0,0l0,0
	c-0.2,0.1-0.3,0.2-0.2,0.3l0,0l0,0c0,0.1,0.3,0.1,0.8,0.3l0,0l0,0c0.1,0,0.3,0.1,0.5,0.3l0,0l0,0C73.4,26.5,73.6,26.7,73.8,26.9z
	 M68.9,34.1L68.9,34.1L68.9,34.1c0.3-0.3,0.6-0.8,1-1.3l0,0l0,0c0.4-0.5,0.7-1.1,1-1.6l0,0l0,0c0.3-0.5,0.6-1.1,0.8-1.6l0,0l0,0
	c0.2-0.5,0.4-0.9,0.4-1.2l0,0l0,0c0.1-0.5,0.1-1,0-1.4l0,0l0,0c-0.1-0.4-0.2-0.6-0.5-0.6l0,0l0,0c-0.1,0-0.2,0-0.3-0.1l0,0l0,0
	c-0.1-0.1-0.1-0.1-0.1-0.2l0,0l0,0c0-0.1-0.1-0.1-0.4,0l0,0l0,0c-0.1,0.1-0.4,0.4-0.6,0.8l0,0l0,0c-0.3,0.5-0.5,1-0.8,1.7l0,0l0,0
	c-0.3,0.6-0.5,1.3-0.8,1.9l0,0l0,0c-0.2,0.7-0.4,1.2-0.5,1.7l0,0l0,0c-0.1,0.3-0.1,0.5-0.1,0.8l0,0l0,0c0,0.3,0,0.5,0,0.7l0,0l0,0
	c0,0.2,0,0.4,0,0.5l0,0l0,0c0,0.1,0,0.2,0.1,0.2l0,0l0,0c0,0,0.1-0.1,0.2-0.2l0,0l0,0C68.7,34.4,68.8,34.3,68.9,34.1z M73.6,32.2
	L73.6,32.2L73.6,32.2c0.1-0.1,0.1-0.2,0.2-0.6l0,0l0,0c0.1-0.3,0.2-0.7,0.2-1.1l0,0l0,0c0.1-0.8,0.2-1.5,0.1-2l0,0l0,0
	c-0.1-0.5-0.3-1-0.7-1.5l0,0l-0.5-0.6l0.4,1.2l0,0c0.1,0.4,0.2,0.7,0.3,1l0,0l0,0c0.1,0.3,0.1,0.5,0.1,0.7l0,0l0,0
	c0,0.2,0,0.5,0,0.7l0,0l0,0c0,0.3-0.1,0.6-0.1,1l0,0l0,0c0,0.4-0.1,0.6-0.1,0.9l0,0l0,0C73.6,32.1,73.6,32.2,73.6,32.2z M67,35.3
	L67,35.3L67,35.3c0.1,0.3,0.1,0.4,0.2,0.3l0,0l0,0c0.1-0.1,0.2-0.2,0.2-0.5l0,0l0,0c0-0.1,0-0.4,0-0.8l0,0l0,0
	c0.1-0.4,0.1-0.9,0.2-1.4l0,0l0,0c0.1-0.7,0.1-1.1,0.1-1.3l0,0l0,0c0-0.2-0.1-0.2-0.2,0l0,0l0,0c-0.1,0.2-0.2,0.4-0.2,0.8l0,0l0,0
	c-0.1,0.4-0.1,0.7-0.2,1.1l0,0l0,0c-0.1,0.4-0.1,0.7-0.1,1.1l0,0l0,0C67,34.9,67,35.2,67,35.3z M67.7,29.7L67.7,29.7L67.7,29.7
	c-0.3,0.7-0.4,0.9-0.3,0.8l0,0l0,0c0.1-0.1,0.4-0.6,0.8-1.4l0,0l0,0c0.2-0.4,0.4-0.8,0.6-1.1l0,0l0,0c0.2-0.3,0.4-0.5,0.5-0.6l0,0
	l0,0c0.3-0.2,0.4-0.4,0.4-0.5l0,0l0,0c0.1-0.1,0.1-0.2,0.2-0.1l0,0l0,0c0.1,0.1,0.1,0.1,0.1,0l0,0l0,0c-0.1-0.1,0-0.2,0.2-0.5l0,0
	l0,0c0.2-0.2,0.2-0.3,0.1-0.3l0,0l0,0c-0.1,0-0.3,0.1-0.5,0.3l0,0l0,0c-0.2,0.2-0.4,0.5-0.7,0.9l0,0l0,0c-0.3,0.4-0.5,0.8-0.8,1.2
	l0,0l0,0C68.1,28.8,67.9,29.3,67.7,29.7z M69.3,26.1L69.3,26.1l-0.6,0.5l0.7-0.5l0,0c0.2-0.1,0.4-0.3,0.6-0.4l0,0l0,0
	c0.2-0.1,0.3-0.2,0.3-0.3l0,0l0,0c0.1,0,0.1-0.1,0.1,0l0,0l0,0c0,0-0.1,0-0.2,0.1l0,0l0,0c-0.1,0.1-0.2,0.1-0.4,0.3l0,0l0,0
	C69.6,25.8,69.4,25.9,69.3,26.1z M70.3,36.1L70.3,36.1L70.3,36.1c0.2-0.2,0.3-0.3,0.3-0.4l0,0l0,0c0-0.1,0,0-0.1,0l0,0l0,0
	c-0.2,0.1-0.4,0.3-0.6,0.5l0,0l0,0c-0.2,0.2-0.2,0.4-0.1,0.4l0,0l0,0c0,0,0.1-0.1,0.2-0.2l0,0l0,0C70.1,36.4,70.2,36.3,70.3,36.1z
	 M68.2,30.3L68.2,30.3L68.2,30.3c0.1-0.2,0-0.3,0-0.2l0,0l0,0c-0.1,0.1-0.2,0.3-0.3,0.6l0,0l0,0c-0.1,0.2-0.1,0.3-0.1,0.4l0,0l0,0
	c0,0,0,0,0.1-0.1l0,0l0,0c0-0.1,0.1-0.2,0.2-0.3l0,0l0,0C68.1,30.5,68.2,30.4,68.2,30.3z M71.4,34.8L71.4,34.8L71.4,34.8
	c0.1-0.2,0.2-0.3,0.1-0.3l0,0l0,0c-0.1,0-0.1,0.1-0.3,0.3l0,0l0,0C71,35,71,35.1,71.1,35.1l0,0l0,0C71.1,35.1,71.2,35,71.4,34.8z
	 M71.2,25.4L71.2,25.4L71.2,25.4c-0.3,0.1-0.3,0.2-0.1,0.2l0,0l0,0c0.1,0,0.2-0.1,0.5-0.2l0,0l0,0c0.1,0,0.1-0.1,0.2-0.1l0,0l0,0
	c0,0,0-0.1,0-0.1l0,0l0,0c-0.1,0-0.1,0-0.2,0l0,0l0,0C71.3,25.3,71.3,25.4,71.2,25.4z M73.3,30.6L73.3,30.6L73.3,30.6
	c0.2-0.2,0.2-0.3,0.1-0.5l0,0l0,0c0-0.1,0,0-0.1,0.2l0,0l0,0C73.2,30.6,73.2,30.7,73.3,30.6z M68.4,29.8L68.4,29.8L68.4,29.8
	c0.1,0,0.1-0.2,0.1-0.3l0,0l0,0c-0.1-0.2-0.1-0.2-0.2,0.1l0,0l0,0C68.3,29.8,68.3,29.9,68.4,29.8z M66.9,31.9L66.9,31.9L66.9,31.9
	c0.1-0.1,0.1-0.2,0.1-0.4l0,0l0,0c0,0,0-0.1,0,0l0,0l0,0c0,0,0,0.1,0,0.2l0,0l0,0C66.9,31.8,66.9,31.9,66.9,31.9L66.9,31.9
	L66.9,31.9C66.9,32,66.9,31.9,66.9,31.9 M89,25.6L89,25.6L89,25.6c-0.1-0.1-0.1,0,0,0.3l0,0l0,0c0,0.2,0.1,0.3,0.2,0.3l0,0l0,0
	c0.1,0,0.2,0.1,0.2,0.3l0,0l0,0c0,0.2-0.1,0.3-0.2,0.4l0,0l0,0C89,27,89,26.9,89,26.7l0,0l0,0c0.1-0.2,0.1-0.3,0-0.4l0,0l0,0
	c-0.1,0-0.2,0-0.3,0.2l0,0l0,0c0,0.2-0.1,0.2-0.2,0.2l0,0l0,0c-0.1-0.1-0.1,0-0.1,0.1l0,0l0,0c0,0.1,0,0.3-0.1,0.6l0,0l0,0
	c-0.1,0.3-0.2,0.6-0.4,1l0,0l0,0c-0.2,0.4-0.4,0.8-0.6,1.3l0,0l0,0c-0.2,0.5-0.4,1-0.5,1.3l0,0l0,0c-0.1,0.4-0.3,0.7-0.4,1.1l0,0
	l0,0c-0.2,0.4-0.3,0.6-0.4,0.7l0,0l0,0c-0.2,0.4-0.3,0.6-0.3,0.9l0,0l0,0c0,0.3,0.2,0.2,0.5-0.2l0,0l0,0c0.1-0.2,0.2-0.3,0.3-0.5
	l0,0l0,0c0.1-0.1,0.1-0.2,0-0.3l0,0l0,0c0-0.1,0-0.2,0-0.3l0,0l0,0c0.1-0.1,0.1-0.2,0.2-0.3l0,0l0,0c0.2-0.2,0.2-0.3,0.2-0.3l0,0
	l0,0c-0.1,0-0.1-0.1,0.1-0.2l0,0l0,0c0.1-0.2,0.1-0.3,0.1-0.4l0,0l0,0c0,0-0.1,0,0-0.1l0,0l0,0c0,0,0.1,0,0.1,0l0,0l0,0
	c0.3,0,0.1,0.6-0.5,1.9l0,0l0,0c-0.3,0.6-0.6,1-0.9,1.1l0,0l0,0c-0.3,0.1-0.6,0-1-0.1l0,0l0,0c-0.4-0.1-0.6-0.3-0.7-0.5l0,0l0,0
	c-0.1-0.1-0.1-0.4-0.1-1.1l0,0l0,0c0-0.7-0.1-1.4-0.1-2.3l0,0l0,0c0-0.9-0.1-1.6-0.1-2.1l0,0l0,0c0-0.5,0-0.8,0-0.7l0,0l0,0
	c-0.1,0.2-0.1,0.3-0.2,0.3l0,0l0,0c-0.1,0-0.2,0.2-0.4,0.6l0,0l0,0c-0.2,0.4-0.5,0.9-0.8,1.4l0,0l0,0c-0.3,0.5-0.6,1.1-0.8,1.7l0,0
	l0,0c-0.3,0.6-0.5,1-0.7,1.4l0,0l0,0c-0.1,0.3-0.2,0.5-0.3,0.8l0,0l0,0c-0.1,0.2-0.2,0.4-0.2,0.5l0,0l0,0c-0.1,0.2-0.2,0.6-0.3,1.1
	l0,0l0,0c-0.2,0.5-0.3,1.1-0.5,1.6l0,0l0,0c-0.2,0.6-0.3,1.1-0.4,1.5l0,0l0,0c-0.1,0.5-0.2,0.8-0.2,0.9l0,0l0,0
	c0,0.3-0.1,0.6-0.1,0.7l0,0l0,0c-0.1,0.1-0.1,0.1-0.2,0.1l0,0l0,0c-0.1,0.1-0.2,0.1-0.3,0.1l0,0l0,0c-0.1,0-0.2,0-0.3,0l0,0l0,0
	c-0.1,0-0.1,0-0.1-0.1l0,0l0,0c0-0.1,0-0.1-0.1-0.2l0,0l0,0c-0.1,0-0.2,0.1-0.2,0.3l0,0l0,0c-0.1,0.6-0.3,0.7-0.6,0.3l0,0l0,0
	c-0.1-0.3-0.3-0.4-0.4-0.3l0,0l0,0c-0.1,0.1-0.3,0-0.5-0.2l0,0l0,0c-0.2-0.2-0.3-0.3-0.4-0.5l0,0l0,0c-0.1-0.2-0.2-0.3-0.6-0.3l0,0
	l0,0c-0.2,0-0.4,0-0.4-0.1l0,0l0,0c0-0.1,0-0.4,0-0.9l0,0l0,0c0-0.6,0.1-1.1,0.2-1.7l0,0l0,0c0.1-0.6,0.2-1.2,0.4-2l0,0l0,0
	c0.2-0.8,0.5-1.7,0.8-2.7l0,0l0,0c0.3-1.1,0.7-2.4,1.2-3.9l0,0l0,0c0.3-1,0.6-1.7,0.8-2.3l0,0l0,0c0.2-0.6,0.4-1,0.5-1.3l0,0l0,0
	c0.1-0.3,0.3-0.5,0.4-0.6l0,0l0,0c0.1-0.1,0.3-0.1,0.4-0.1l0,0l0,0c0.3,0,0.5,0.1,0.7,0.2l0,0l0,0c0.1,0.1,0.1,0.2,0,0.3l0,0l0,0
	c-0.1,0.1-0.2,0.1-0.2-0.1l0,0l0,0c0-0.2,0-0.2-0.1-0.1l0,0l0,0c-0.1,0.1-0.1,0.3-0.2,0.5l0,0L79.5,25l0,0c-0.1,0.2-0.1,0.4-0.1,0.6
	l0,0l0,0c-0.1,0.2-0.1,0.6-0.2,1.1l0,0l0,0C79.1,27,79,27.2,79,27.4l0,0l0,0c0,0.2-0.1,0.4-0.1,0.5l0,0l0,0c0,0.1,0,0.2,0,0.2l0,0
	l0,0c0,0,0.1,0,0.1-0.2l0,0l0,0c0.1-0.1,0.1-0.2,0.1-0.3l0,0l0,0c0-0.2,0.1-0.4,0.1-0.5l0,0l0,0c0.3-1.3,0.5-1.9,0.6-1.8l0,0l0,0
	c0.1,0,0.2,0,0.2-0.1l0,0l0,0c0-0.2-0.1-0.3-0.2-0.3l0,0l0,0c-0.1,0-0.1-0.1,0-0.2l0,0l0,0c0-0.1,0.1-0.3,0.3-0.5l0,0l0.5-0.6
	l-0.1,1.8l0,0c0,0.5-0.1,1-0.1,1.5l0,0l0,0c0,0.5-0.1,1-0.1,1.3l0,0l-0.1,1l0.9-1.1l0,0c0.6-0.8,1.1-1.4,1.5-1.7l0,0l0,0
	c0.4-0.3,0.7-0.4,1-0.3l0,0l0,0c0.3,0.1,0.6,0.1,0.8,0.1l0,0l0,0c0.2,0,0.3,0,0.4,0.1l0,0l0,0c0.1,0.1,0.2,0.2,0.2,0.5l0,0l0,0
	c0.1,0.3,0.1,0.6,0.1,1.1l0,0l0,0c0,0.5,0.1,1.1,0.1,1.9l0,0l0,0c0,1.2,0.1,2,0.1,2.3l0,0l0,0c0.1,0.4,0.1,0.4,0.2,0.3l0,0l0.5-1.1
	l0,0c0.2-0.3,0.2-0.4,0.2-0.5l0,0l0,0c0,0,0,0.1-0.1,0.4l0,0l0,0c0,0.2,0,0.3,0,0.4l0,0l0,0c0,0,0.1,0,0.1-0.1l0,0l0,0
	c0.1-0.1,0.1-0.2,0.1-0.4l0,0l0,0c0-0.2,0.1-0.4,0.1-0.5l0,0l0,0c0-0.2,0.1-0.4,0.1-0.7l0,0l0,0c0.1-0.2,0.1-0.5,0.2-0.6l0,0l0,0
	c0.1-0.2,0.2-0.3,0.2-0.4l0,0l0,0c0.1-0.1,0.1,0,0.1,0.1l0,0v0.4l0.2-0.4l0,0c0.1-0.2,0.1-0.4,0.1-0.5l0,0l0,0
	c-0.1-0.1-0.1-0.1,0-0.3l0,0l0,0c0-0.1,0.1-0.3,0.1-0.4l0,0l0,0c0.2-0.4,0.3-0.4,0.4-0.3l0,0l0,0c0.1,0.2,0.2,0.2,0.2,0l0,0l0,0
	c0.1-0.2,0.1-0.3,0-0.4l0,0l0,0c0-0.1,0-0.2,0.1-0.5l0,0l0,0c0-0.2,0.1-0.2,0.1-0.2l0,0l0,0c0,0,0.1,0,0.1,0.1l0,0l0,0
	c0.1,0.1,0.2,0.1,0.2,0l0,0v-0.6l0,0c0-0.2,0.1-0.3,0.2-0.3l0,0l0,0c0.2,0,0.2-0.1,0.2-0.2l0,0l0,0c0-0.2,0-0.3,0.1-0.4l0,0l0,0
	c0.1-0.1,0.2-0.1,0.3,0l0,0l0,0c0.1,0.1,0.1,0.3-0.1,0.6l0,0l0,0C89.2,25.6,89.1,25.7,89,25.6z M84.9,33.4L84.9,33.4L84.9,33.4
	c0.2-0.3,0.2-0.5,0.1-0.7l0,0l0,0c-0.2-0.2-0.2-0.4-0.2-0.5l0,0l0,0c0-0.2,0.1-0.2,0.2,0l0,0l0,0c0,0,0-0.1,0.1-0.5l0,0l0,0
	c0-0.4,0-0.9,0-1.5l0,0l0,0c0-0.6,0-1.2-0.1-1.8l0,0l0,0c0-0.6-0.1-1-0.1-1.3l0,0l0,0c0-0.5-0.1-0.7-0.3-0.7l0,0l0,0
	c-0.1,0-0.1,0.2-0.1,0.6l0,0l0,0c0,0.4,0,0.9,0,1.5l0,0l0,0c0,0.6,0,1.2,0,2l0,0l0,0c0,0.7,0.1,1.4,0.1,2.1l0,0l0,0
	c0.1,0.7,0.1,1,0.1,1.1l0,0l0,0C84.7,33.6,84.8,33.6,84.9,33.4z M83.4,27L83.4,27L83.4,27c0.1-0.1,0.2-0.2,0.1-0.4l0,0l0,0
	c0-0.1-0.1,0-0.3,0.2l0,0l0,0c-0.2,0.2-0.4,0.5-0.7,0.9l0,0l0,0c-0.3,0.4-0.6,0.8-0.9,1.3l0,0l0,0c-0.3,0.5-0.6,1-0.9,1.5l0,0l0,0
	c-0.3,0.5-0.5,1-0.7,1.4l0,0l0,0c-0.2,0.4-0.3,0.7-0.3,1l0,0l0,0c-0.1,0.3-0.1,0.4-0.1,0.4l0,0l0,0c0,0,0.1,0,0.2-0.1l0,0l0,0
	c0.1-0.1,0.1-0.1,0.2-0.2l0,0l0,0c0.1-0.1,0.1-0.1,0-0.2l0,0l0,0c0,0,0-0.1,0-0.2l0,0l0,0c0-0.1,0.1-0.3,0.2-0.4l0,0l0,0
	c0.1-0.1,0.1-0.2,0.2-0.3l0,0l0,0c0.1-0.1,0.1-0.2,0.2-0.2l0,0l0,0c0.1,0,0.1-0.1,0.1-0.2l0,0l0,0c-0.1-0.1,0-0.1,0.1-0.1l0,0l0,0
	c0.1,0,0.2-0.1,0.2-0.2l0,0l0,0c0,0,0.1-0.2,0.2-0.5l0,0l0,0c0.1-0.3,0.3-0.5,0.4-0.8l0,0l0,0c0.2-0.3,0.3-0.6,0.4-0.8l0,0l0,0
	c0.1-0.2,0.1-0.3,0.1-0.3l0,0l0,0c0,0,0.1-0.2,0.4-0.5l0,0l0,0c0.3-0.3,0.5-0.5,0.5-0.7l0,0l0,0c0-0.1,0.1-0.1,0.1-0.1l0,0l0,0
	c0.2,0,0.2-0.1,0.2-0.1l0,0l0,0C83.2,27.1,83.3,27,83.4,27z M78.6,30.5L78.6,30.5L78.6,30.5c0.1-0.4,0.1-0.6,0-0.5l0,0l0,0
	c-0.1,0.1-0.2,0.3-0.3,0.7l0,0l0,0c-0.1,0.4-0.1,0.6,0,0.5l0,0l0,0c0-0.1,0.1-0.1,0.1-0.3l0,0l0,0C78.5,30.8,78.5,30.6,78.6,30.5z
	 M78.9,29.2L78.9,29.2L78.9,29.2c0-0.3,0-0.5,0-0.4l0,0l0,0c-0.1,0.1-0.2,0.2-0.2,0.5l0,0l0,0c0,0.3,0,0.4,0,0.3l0,0l0,0
	C78.8,29.6,78.8,29.4,78.9,29.2z M85.7,32.8L85.7,32.8L85.7,32.8c0.1-0.2,0.1-0.2-0.2,0l0,0l0,0c-0.3,0.2-0.3,0.3-0.1,0.3l0,0l0,0
	C85.6,33.1,85.7,33,85.7,32.8z M80.6,29.4L80.6,29.4L80.6,29.4c-0.1,0.1-0.1,0.2-0.1,0.3l0,0l0,0c0,0.1,0,0.1,0,0.1l0,0l0,0
	c0.1,0,0.2-0.1,0.3-0.4l0,0l0,0c0.1-0.2,0.2-0.3,0.1-0.3l0,0l0,0C80.8,29.1,80.7,29.2,80.6,29.4z M84.1,31.1L84.1,31.1L84.1,31.1
	c0.1,0,0.2-0.1,0.2-0.2l0,0l0,0c0-0.1,0-0.2-0.1-0.2l0,0l0,0c-0.1,0-0.1,0.1-0.1,0.2l0,0l0,0C83.9,31.1,84,31.1,84.1,31.1z
	 M78.2,31.9L78.2,31.9L78.2,31.9c0.1-0.1,0.2-0.2,0.1-0.3l0,0l0,0c-0.1-0.1-0.1,0-0.2,0.2l0,0l0,0C78,31.9,78,32,78,32l0,0l0,0
	C78,32,78.1,32,78.2,31.9z M84.2,32.5L84.2,32.5L84.2,32.5c0-0.2,0-0.4,0-0.6l0,0l0,0c-0.1-0.2-0.1-0.1-0.1,0.3l0,0l0,0
	C84.1,32.6,84.2,32.7,84.2,32.5z M79.8,26.2L79.8,26.2L79.8,26.2c0,0.2,0,0.3,0,0.3l0,0l0,0c0,0,0.1,0,0.1,0l0,0l0,0
	c0-0.1,0-0.3,0-0.5l0,0l0,0C79.8,25.7,79.8,25.8,79.8,26.2z M78,32.6L78,32.6L78,32.6c0.1-0.1,0.2-0.2,0.1-0.3l0,0l0,0
	C78,32.2,78,32.3,78,32.6L78,32.6L78,32.6c-0.1,0.1-0.2,0.1-0.1,0.1l0,0l0,0C77.9,32.7,77.9,32.7,78,32.6z M77.9,37.2L77.9,37.2
	L77.9,37.2c0.1-0.1,0.1-0.2,0-0.3l0,0l0,0c0-0.2-0.1-0.1-0.1,0.1l0,0l0,0C77.8,37.2,77.8,37.3,77.9,37.2z M79.7,27.1L79.7,27.1
	L79.7,27.1C79.6,27,79.6,27,79.7,27.1L79.7,27.1L79.7,27.1c-0.1,0-0.1,0.1-0.1,0.2l0,0l0,0c0,0.1,0,0.2,0,0.2l0,0l0,0c0,0,0,0,0.1,0
	l0,0l0,0C79.7,27.4,79.7,27.2,79.7,27.1z M79.5,33.9L79.5,33.9L79.5,33.9c0.1-0.1,0.1-0.2,0-0.3l0,0l0,0c-0.1-0.2-0.1-0.2-0.1,0.1
	l0,0l0,0C79.4,33.9,79.4,34,79.5,33.9z M79.5,28.7L79.5,28.7L79.5,28.7c0.1-0.1,0.1-0.2,0-0.3l0,0l0,0c-0.1-0.2-0.1-0.2-0.1,0.1l0,0
	l0,0C79.4,28.6,79.4,28.7,79.5,28.7 M94.7,38.2L94.7,38.2L94.7,38.2c0.2-0.2,0.3-0.3,0.4-0.3l0,0l0,0c0,0,0,0.1,0,0.2l0,0l0,0
	C95,38.3,95,38.5,95,38.6l0,0l0,0c0,0,0,0.1,0,0.1l0,0l0,0c0,0,0,0-0.1-0.1l0,0l0,0c-0.1-0.1-0.3,0-0.5,0l0,0l0,0
	c-0.3,0.1-0.6,0.1-0.9-0.1l0,0l0,0c-0.3-0.1-0.6-0.3-0.8-0.5l0,0l0,0c-0.2-0.2-0.1-0.3,0-0.4l0,0l0,0c0.2-0.1,0.3-0.2,0.3-0.3l0,0
	l0,0c0-0.1,0-0.1-0.1-0.1l0,0l0,0c-0.1,0-0.1,0-0.2,0.1l0,0l0,0c-0.1,0.1-0.2,0.2-0.3,0.1l0,0l0,0c-0.1,0-0.2-0.1-0.3-0.3l0,0l0,0
	c-0.2-0.3-0.3-0.5-0.2-0.8l0,0l0,0c0.1-0.2,0-0.3-0.1-0.2l0,0l0,0c-0.1,0-0.2,0-0.3-0.3l0,0l0,0c-0.1-0.2-0.2-0.5-0.3-0.9l0,0l0,0
	c-0.1-0.4-0.2-0.8-0.3-1.3l0,0l0,0c-0.1-0.5-0.1-1-0.2-1.4l0,0l0,0c0-0.6-0.1-1.3-0.1-2.1l0,0l0,0c0-0.8,0-1.5,0-2.1l0,0l0,0
	c0-0.6,0.1-1.2,0.2-1.5l0,0l0,0c0.1-0.4,0.1-0.5,0.2-0.2l0,0l0,0c0.1,0.2,0.1,0.1,0.1-0.5l0,0l0,0c0-0.4,0-0.6,0-0.6l0,0l0,0
	c0-0.1-0.1,0-0.1,0.2l0,0l0,0C91,25.9,90.9,25.7,91,25l0,0l0,0c0.1-0.6,0.1-1,0.1-1.2l0,0l0,0c0-0.2,0.1-0.4,0.2-0.5l0,0l0,0
	c0.1-0.1,0.1,0.1,0.2,0.5l0,0l0,0c0,0.4,0,0.7,0,1.1l0,0l0,0c0,0.2,0.1,0.3,0.2,0.2l0,0l0,0c0.1,0,0.1,0,0.1,0.1l0,0l0,0
	c0,0.1,0,0.2-0.1,0.2l0,0l0,0c-0.1,0-0.1,0.2-0.1,0.5l0,0l0,0c0,0.3-0.1,0.7-0.1,1.1l0,0l0,0c-0.1,0.4-0.1,0.8-0.1,1.1l0,0l0,0
	c0,0.3,0,0.4,0.1,0.3l0,0l0,0c0.1,0,0.2,0,0.2,0.1l0,0l0,0c0,0.1-0.1,0.2-0.2,0.2l0,0l0,0c-0.1,0-0.1,0.2-0.2,0.6l0,0l0,0
	c0,0.4,0,1,0,2l0,0l0,0c0.1,1.5,0.1,2.5,0.2,3l0,0l0,0c0.1,0.5,0.2,0.7,0.3,0.5l0,0l0,0c0.1-0.1,0.1,0,0,0.3l0,0l0,0
	c-0.1,0.4,0,0.5,0.1,0.4l0,0l0,0c0.1,0,0.2,0.1,0.1,0.4l0,0l0,0C92,36.2,92,36.2,92.1,36l0,0l0,0c0.1-0.1,0.1-0.2,0.1-0.5l0,0l0,0
	c0-0.3,0-0.5-0.1-0.8l0,0l0,0c0-0.3-0.1-0.5-0.1-0.8l0,0l0,0c-0.1-0.2-0.1-0.3-0.2-0.3l0,0l0,0c0,0,0-0.2-0.1-0.5l0,0l0,0
	c0-0.3,0-0.8,0-1.3l0,0l0,0c0-0.5,0-1.1,0-1.7l0,0l0,0c0-0.6,0-1.2,0-1.7l0,0l0,0c0-0.5,0.1-1,0.1-1.4l0,0l0,0c0-0.4,0-0.6,0.1-0.7
	l0,0l0,0c0.1-0.1,0.1,0.1,0.1,0.8l0,0l0,0c0,0.6,0,1.6,0,2.7l0,0l0,0c0,1.1,0,2,0.1,2.7l0,0l0,0c0,0.7,0.1,1.4,0.2,2l0,0l0,0
	c0.1,0.6,0.2,1.1,0.3,1.5l0,0l0,0c0.1,0.4,0.3,0.9,0.5,1.3l0,0l0,0c0.3,0.6,0.6,1,0.8,1.1l0,0l0,0C94.1,38.5,94.4,38.5,94.7,38.2z
	 M92.7,37.3L92.7,37.3L92.7,37.3c0.1,0,0.1,0,0.1-0.1l0,0l0,0c0-0.1-0.1-0.3-0.2-0.6l0,0l0,0c-0.1-0.4-0.3-0.5-0.4-0.4l0,0l0,0
	c-0.1,0.1-0.1,0.2,0,0.3l0,0l0,0c0.2,0,0.2,0.1,0.1,0.2l0,0l0,0c-0.1,0.1,0,0.2,0,0.4l0,0l0,0C92.5,37.2,92.6,37.3,92.7,37.3z
	 M93.2,38.2L93.2,38.2L93.2,38.2c0.5,0.4,0.6,0.4,0.3-0.1l0,0l0,0c-0.1-0.1-0.2-0.2-0.2-0.3l0,0l0,0c-0.1-0.1-0.2-0.1-0.2,0l0,0l0,0
	C92.9,37.8,92.9,38,93.2,38.2z M90.9,30L90.9,30L90.9,30c0.2,0.3,0.2,0.1,0.2-0.4l0,0l0,0c0-0.3,0-0.4-0.1-0.4l0,0l0,0
	c0,0,0,0.1-0.1,0.3l0,0l0,0C90.9,29.7,90.8,29.9,90.9,30z M91.1,31.7L91.1,31.7L91.1,31.7c0-0.1,0-0.3,0-0.5l0,0l0,0
	c-0.1-0.1-0.1-0.1-0.1,0l0,0l0,0c0,0.1,0,0.1,0,0.3l0,0l0,0C90.9,31.8,91,31.9,91.1,31.7z M91.1,27.6L91.1,27.6L91.1,27.6
	c-0.1-0.1-0.1,0-0.1,0.2l0,0l0,0c0,0.3,0,0.4,0.1,0.2l0,0l0,0C91.1,27.9,91.1,27.7,91.1,27.6 M90.5,23.5L90.5,23.5L90.5,23.5
	c-0.1-0.1-0.2,0-0.2,0.2l0,0l0,0c0,0.2-0.1,0.3-0.2,0.3l0,0l0,0c-0.2,0.1-0.3,0.1-0.3,0.2l0,0l0,0c-0.1,0.1-0.1,0.1-0.1,0.1l0,0l0,0
	c0,0,0.1,0,0.1-0.1l0,0l0,0c0.1,0,0.2-0.1,0.2,0l0,0l0,0c0,0,0,0.1-0.1,0.3l0,0l0,0c-0.1,0.2-0.2,0.3-0.3,0.3l0,0l0,0
	c0,0-0.1,0-0.1-0.2l0,0l0,0c0-0.1,0-0.2,0.1-0.4l0,0l0,0c0.1-0.2,0.2-0.3,0.4-0.5l0,0l0,0c0.1-0.2,0.3-0.3,0.5-0.5l0,0l0,0
	c0.2-0.1,0.3-0.2,0.4-0.2l0,0l0,0c0.1,0,0.2,0,0.2,0.1l0,0l0,0c0,0,0,0.1-0.1,0.2l0,0l0,0c-0.1,0-0.1,0.1-0.2,0.1l0,0l0,0
	C90.6,23.6,90.5,23.6,90.5,23.5 M88,28.9L88,28.9L88,28.9c0.1,0,0.2,0.2,0.1,0.5l0,0l0,0c0,0.3-0.2,0.7-0.4,1.1l0,0l-0.3,0.6
	l0.1-0.6l0,0c0-0.2,0-0.4,0.1-0.5l0,0l0,0c0-0.2,0-0.3,0-0.4l0,0l0,0c0-0.2,0.1-0.3,0.2-0.2l0,0l0,0c0.1,0.1,0.1,0,0.1-0.2l0,0l0,0
	C87.8,29,87.8,28.9,88,28.9 M88.7,27.3L88.7,27.3L88.7,27.3c0.1,0,0.1,0,0.1,0.1l0,0l0,0c0,0.1,0,0.2,0,0.3l0,0l0,0
	c0,0.1-0.1,0.3-0.1,0.4l0,0l0,0c-0.1,0.1-0.1,0.2-0.2,0.3l0,0l0,0c-0.1,0.1-0.2,0.1-0.2,0l0,0l0,0c-0.1-0.1-0.1-0.2,0.1-0.2l0,0l0,0
	c0.1-0.1,0.2-0.2,0.2-0.5l0,0l0,0C88.6,27.4,88.6,27.3,88.7,27.3 M90,24.6L90,24.6L90,24.6c0.2-0.1,0.2-0.1,0.2,0.1l0,0l0,0
	c0,0.2-0.1,0.4-0.3,0.7l0,0l0,0c-0.3,0.5-0.4,0.6-0.3,0.2l0,0l0,0c0.1-0.3,0.2-0.4,0.3-0.5l0,0l0,0C90,25,90,25,90,24.8l0,0l0,0
	C89.9,24.7,89.9,24.7,90,24.6 M90.9,23.7L90.9,23.7L90.9,23.7c0.2-0.1,0.1,0-0.1,0.3l0,0l0,0c-0.1,0.1-0.2,0.2-0.2,0.3l0,0l0,0
	c-0.1,0.1-0.1,0.1-0.1,0.1l0,0l0,0c0,0,0,0,0,0l0,0l0,0c0,0-0.1,0-0.1-0.1l0,0l0,0C90.2,24.2,90.4,24,90.9,23.7 M92.1,25.1
	L92.1,25.1L92.1,25.1C92.1,25.2,92,25.2,92.1,25.1L92.1,25.1L92.1,25.1c0-0.1,0-0.2,0-0.5l0,0l0,0c0-0.3,0-0.4,0-0.5l0,0l0,0
	c0-0.1,0,0,0,0.1l0,0l0,0C92.2,24.5,92.2,24.8,92.1,25.1 M95.6,37.9L95.6,37.9L95.6,37.9c0.2,0,0.2,0,0.1,0.2l0,0l0,0
	c-0.1,0.1-0.1,0.1-0.1,0.1l0,0l0,0c-0.1,0-0.1,0-0.2-0.1l0,0l0,0C95.3,37.9,95.4,37.9,95.6,37.9 M91.5,29.9L91.5,29.9L91.5,29.9
	c0.1,0.2,0.1,0.3,0,0.3l0,0l0,0c0,0.1-0.1,0-0.1-0.2l0,0l0,0C91.5,29.8,91.5,29.7,91.5,29.9 M91.5,31.6L91.5,31.6L91.5,31.6
	C91.5,31.3,91.5,31.3,91.5,31.6L91.5,31.6L91.5,31.6c0.2,0.1,0.2,0.2,0.1,0.2l0,0l0,0C91.5,31.9,91.5,31.8,91.5,31.6 M97.1,31.2
	L97.1,31.2L97.1,31.2c-0.2-0.1-0.4-0.1-0.4,0l0,0l0,0c-0.1,0.1-0.1,0.3-0.1,0.7l0,0l0,0c-0.1,0.8-0.1,1.6,0,2.5l0,0l0,0
	c0.2,0.9,0.4,1.5,0.8,2l0,0l0,0c0.1,0.1,0.1,0.1,0.2,0.2l0,0l0,0c0.1,0,0.1,0,0.2,0l0,0l0,0c0.1,0,0.2-0.1,0.4-0.2l0,0l0,0
	c0.2-0.1,0.4-0.2,0.7-0.3l0,0l0,0c0.6-0.3,1.3-0.7,1.9-1.2l0,0l0,0c0.7-0.5,1.4-1,2.1-1.6l0,0l0,0c0.7-0.6,1.4-1.2,2-1.9l0,0l0,0
	c0.7-0.7,1.3-1.4,1.8-2l0,0l0,0c0.3-0.3,0.5-0.6,0.8-0.9l0,0l0,0c0.2-0.2,0.4-0.4,0.5-0.4l0,0l0,0c0.2,0,0.3,0.1,0.2,0.2l0,0l0,0
	c-0.1,0.2-0.3,0.5-0.6,1.1l0,0l-1,1.4l0,0c-0.1,0.2-0.3,0.4-0.6,0.7l0,0l0,0c-0.3,0.3-0.5,0.6-0.9,1l0,0l0,0
	c-0.3,0.4-0.7,0.8-1.1,1.2l0,0l0,0c-0.4,0.4-0.8,0.8-1.2,1.2l0,0l0,0c-0.5,0.5-0.8,0.8-0.9,0.9l0,0l0,0c-0.1,0.1,0,0.1,0.3-0.1l0,0
	l0,0c0.3-0.2,0.6-0.5,1.1-1l0,0l0,0c0.4-0.4,0.9-0.9,1.3-1.3l0,0l0,0c0.4-0.4,0.8-0.8,1.1-1.2l0,0l0,0c0.3-0.4,0.5-0.6,0.5-0.6l0,0
	l0,0c0-0.1,0-0.1,0.1-0.2l0,0l0,0c0.1-0.1,0.2-0.1,0.3-0.2l0,0l0,0c0.2-0.1,0.3-0.3,0.3-0.5l0,0l0,0c0,0,0-0.1,0.1-0.2l0,0l0,0
	c0.1-0.1,0.1-0.2,0.2-0.3l0,0l0,0c0.1-0.1,0.2-0.2,0.4-0.5l0,0l0,0c0.1-0.2,0.3-0.4,0.4-0.6l0,0l0,0c0.2-0.4,0.4-0.7,0.6-0.9l0,0
	l0,0c0.2-0.2,0.2-0.1,0.1,0.2l0,0l0,0c-0.2,0.5-0.5,1-0.9,1.6l0,0l0,0c-0.4,0.6-0.9,1.3-1.4,2l0,0l0,0c-0.5,0.7-1.1,1.4-1.7,2l0,0
	l0,0c-0.6,0.7-1.2,1.3-1.7,1.8l0,0l0,0c-0.5,0.5-0.9,0.8-1.3,1.2l0,0l0,0c-0.4,0.3-0.6,0.5-0.7,0.5l0,0l0,0c-0.2,0-0.5,0.1-0.8,0.3
	l0,0l0,0c-0.3,0.1-0.4,0.2-0.4,0.3l0,0l0,0c0,0.1-0.1,0.1-0.3,0l0,0l0,0c-0.2-0.2-0.3-0.2-0.4-0.1l0,0l0,0c0,0,0,0.1,0.1,0.2l0,0
	l0,0c0.1,0,0.1,0,0,0l0,0l0,0c0,0-0.1,0-0.2,0.1l0,0l0,0c-0.1,0-0.2,0.1-0.4,0.1l0,0l0,0c-0.1,0-0.3,0-0.4,0l0,0l0,0
	c-0.2,0-0.3-0.1-0.3-0.2l0,0l0,0c0-0.1-0.1-0.1-0.2-0.1l0,0l0,0c-0.1,0.1-0.3,0-0.7-0.2l0,0l0,0c-0.4-0.2-0.8-0.4-1.2-0.7l0,0l0,0
	c-0.4-0.3-0.8-0.6-1.2-1l0,0l0,0c-0.4-0.4-0.6-0.7-0.8-0.9l0,0l0,0c-0.3-0.5-0.6-1.2-0.7-2l0,0l0,0c-0.1-0.8-0.1-1.5,0-2.3l0,0l0,0
	c0.2-0.9,0.4-1.7,0.7-2.6l0,0l0,0c0.3-0.9,0.7-1.7,1.1-2.4l0,0l0,0c0.4-0.7,0.8-1.4,1.3-1.9l0,0l0,0c0.4-0.5,0.9-0.9,1.4-1.2l0,0
	l0,0c0.5-0.2,1-0.4,1.6-0.4l0,0l0,0c0.6-0.1,1,0,1.3,0.1l0,0l0,0c0.1,0.1,0.2,0.1,0.4,0.2l0,0l0,0c0.2,0.1,0.4,0.1,0.5,0.2l0,0l0,0
	c0.2,0,0.3,0.1,0.6,0.3l0,0l0,0c0.2,0.1,0.4,0.3,0.6,0.4l0,0l0,0c0.3,0.3,0.4,0.5,0.5,0.6l0,0l0,0c0.1,0.2,0.1,0.4,0.1,0.8l0,0l0,0
	c0,0.7-0.2,1.4-0.6,2.1l0,0l0,0c-0.4,0.7-1,1.4-1.9,2.3l0,0l0,0c-0.6,0.6-1.3,1.1-2,1.3l0,0l0,0C98.3,31.4,97.6,31.4,97.1,31.2z
	 M100.5,24.3L100.5,24.3L100.5,24.3c-0.1-0.1-0.2-0.2-0.3-0.1l0,0l0,0c-0.1,0.1-0.3,0.2-0.6,0.5l0,0l0,0c-0.2,0.2-0.4,0.5-0.7,0.8
	l0,0l0,0c-0.2,0.3-0.4,0.6-0.6,0.9l0,0l0,0c-0.2,0.3-0.3,0.6-0.5,1l0,0l0,0c-0.2,0.4-0.4,0.8-0.5,1.2l0,0l0,0
	c-0.2,0.4-0.3,0.8-0.4,1.1l0,0l0,0c-0.1,0.3-0.1,0.5-0.1,0.5l0,0l0,0c0.1,0,0,0.1-0.1,0.3l0,0l0,0c-0.1,0.2-0.1,0.3,0,0.3l0,0l0,0
	c0.1,0,0.2-0.1,0.4-0.4l0,0l0,0c0.1-0.1,0.2-0.2,0.2-0.2l0,0l0,0c0,0,0,0.1-0.1,0.2l0,0l0,0c-0.1,0.1,0,0.2,0.1,0.2l0,0l0,0
	c0.1,0,0.2-0.1,0.4-0.2l0,0l0,0c0.2-0.1,0.3-0.3,0.6-0.5l0,0l0,0c0.2-0.2,0.4-0.5,0.6-0.7l0,0l0,0c0.3-0.4,0.6-0.9,0.9-1.4l0,0l0,0
	c0.3-0.5,0.5-1,0.6-1.4l0,0l0,0c0.2-0.5,0.2-0.9,0.3-1.3l0,0l0,0C100.7,24.8,100.6,24.5,100.5,24.3z M101.2,28.1L101.2,28.1
	L101.2,28.1c-0.3,0.5-0.6,1-1.1,1.5l0,0l0,0c-0.4,0.5-0.9,0.9-1.2,1.1l0,0l0,0c-0.3,0.2-0.3,0.3-0.2,0.3l0,0l0,0
	c0.1,0,0.2-0.1,0.4-0.2l0,0l0,0c0.2-0.1,0.4-0.3,0.6-0.5l0,0l0,0c0.2-0.2,0.5-0.4,0.7-0.7l0,0l0,0c0.3-0.3,0.4-0.5,0.6-0.7l0,0l0,0
	c0.1-0.2,0.2-0.3,0.4-0.4l0,0l0,0c0.1-0.1,0.2-0.1,0.2-0.1l0,0l0,0c0.1,0.1,0.1,0.1,0-0.1l0,0l0,0c-0.1-0.1,0-0.3,0.1-0.6l0,0l0,0
	c0.1-0.2,0.2-0.4,0.1-0.4l0,0l0,0c0-0.1-0.1,0-0.2,0.2l0,0l0,0C101.5,27.6,101.4,27.8,101.2,28.1z M96.6,36.4L96.6,36.4L96.6,36.4
	c0,0,0-0.1,0-0.2l0,0l0,0c-0.1-0.1-0.1-0.3-0.3-0.5l0,0l0,0c-0.1-0.2-0.2-0.4-0.3-0.7l0,0l0,0c-0.1-0.3-0.1-0.5-0.2-0.8l0,0l0,0
	c-0.1-0.6-0.2-0.8-0.2-0.8l0,0l0,0c-0.1,0-0.1,0.3-0.1,0.8l0,0l0,0c0,0.2,0.1,0.5,0.1,0.7l0,0l0,0c0.1,0.2,0.1,0.4,0.2,0.6l0,0l0,0
	c0.1,0.2,0.1,0.3,0.2,0.4l0,0l0,0c0.1,0.1,0.2,0.1,0.2,0.1l0,0l0,0c0.1-0.1,0.2,0,0.2,0.1l0,0l0,0C96.5,36.4,96.5,36.4,96.6,36.4z
	 M95.8,28.9L95.8,28.9L95.8,28.9c0,0,0.1,0,0.2-0.3l0,0l0,0c0.2-0.2,0.3-0.6,0.5-1l0,0l0,0c0.2-0.4,0.4-0.8,0.6-1.1l0,0l0,0
	c0.2-0.3,0.3-0.4,0.4-0.4l0,0l0,0c0.2,0,0.2-0.1,0.1-0.2l0,0l0,0c0-0.1,0-0.2,0.1-0.4l0,0l0,0c0.1-0.2,0.3-0.4,0.4-0.6l0,0l0,0
	c0.3-0.4,0.4-0.5,0.4-0.5l0,0l0,0c0,0-0.2,0.2-0.6,0.6l0,0l0,0c-0.2,0.2-0.4,0.5-0.7,0.9l0,0l0,0c-0.3,0.4-0.5,0.7-0.7,1.1l0,0l0,0
	c-0.2,0.4-0.4,0.8-0.6,1.1l0,0l0,0C95.8,28.6,95.8,28.8,95.8,28.9z M101.7,23.7L101.7,23.7L101.7,23.7c-0.2,0-0.1,0.1,0.1,0.4l0,0
	l0,0c0.3,0.2,0.5,0.6,0.6,1.2l0,0l0,0c0.1,0.6,0.2,0.9,0.3,0.9l0,0l0,0c0.1,0,0.1-0.3,0-0.9l0,0l0,0c0-0.5-0.2-0.9-0.3-1.1l0,0l0,0
	C102.2,23.8,102,23.7,101.7,23.7z M104.4,32.6L104.4,32.6L104.4,32.6c-0.3,0.3-0.5,0.5-0.7,0.7l0,0l0,0c-0.2,0.2-0.3,0.3-0.2,0.3
	l0,0l0,0c0.1,0,0.2-0.1,0.4-0.3l0,0l0,0c0.2-0.2,0.5-0.4,0.7-0.7l0,0l0,0c0.3-0.3,0.5-0.6,0.7-0.8l0,0l0,0c0.2-0.2,0.3-0.3,0.2-0.3
	l0,0l0,0c0,0-0.1,0.1-0.4,0.3l0,0l0,0C105,32,104.7,32.3,104.4,32.6z M95.3,30.5L95.3,30.5L95.3,30.5c-0.1,0.2-0.1,0.3-0.1,0.4l0,0
	l0,0c0,0.1,0,0.1,0.1,0.1l0,0l0,0c0,0,0.1-0.1,0.1-0.3l0,0l0,0c0.1-0.1,0.1-0.3,0.1-0.4l0,0l0,0c0.1-0.3,0.1-0.5,0-0.4l0,0l0,0
	C95.5,29.9,95.4,30.1,95.3,30.5z M98.1,30.7L99,30l0,0c0.2-0.2,0.4-0.4,0.6-0.6l0,0l0,0c0.2-0.2,0.2-0.2,0.2-0.3l0,0l0,0
	c0-0.1-0.1-0.1-0.2,0l0,0l0,0c-0.1,0.1-0.4,0.3-0.7,0.7l0,0L98.1,30.7z M106.1,30.7L106.1,30.7L106.1,30.7c-0.3,0.3-0.4,0.5-0.3,0.5
	l0,0l0,0c0.1,0,0.2-0.2,0.5-0.5l0,0l0,0c0.3-0.3,0.4-0.4,0.3-0.4l0,0l0,0C106.5,30.3,106.4,30.4,106.1,30.7z M101.9,26.9L101.9,26.9
	L101.9,26.9c0.1-0.1,0.2-0.3,0.1-0.4l0,0l0,0c0-0.2-0.1-0.1-0.2,0.2l0,0l0,0C101.8,26.9,101.8,27,101.9,26.9z M102.8,34.1
	L102.8,34.1L102.8,34.1c-0.2,0.1-0.3,0.2-0.3,0.3l0,0l0,0C102.4,34.6,102.5,34.5,102.8,34.1L102.8,34.1L102.8,34.1
	c0.2-0.1,0.2-0.2,0.2-0.2l0,0l0,0C103,34,102.9,34,102.8,34.1z M95.7,31.8L95.7,31.8L95.7,31.8c0,0.1,0,0.2,0,0.3l0,0l0,0
	c0,0.1,0,0.1,0.1,0l0,0l0,0c0.1-0.1,0.1-0.3,0-0.5l0,0l0,0C95.7,31.4,95.7,31.4,95.7,31.8z M95.2,31.6L95.2,31.6L95.2,31.6
	c0.1,0,0.1-0.2,0-0.3l0,0l0,0c-0.1-0.1-0.1,0-0.1,0.1l0,0l0,0C95.1,31.6,95.1,31.7,95.2,31.6"/>
<path class="st0" d="z"/>
</svg>
